<svg width="117" height="100" viewBox="0 0 117 100" fill="none" xmlns="http://www.w3.org/2000/svg">
<g clip-path="url(#clip0)">
<path d="M1.14355 99.9998L1.14355 78.5596L114.858 78.5596L114.858 99.9998" stroke="#556170" stroke-width="1.4173" stroke-miterlimit="10" stroke-linejoin="round"/>
<path d="M1.14355 78.5596L8.33241 64.157L107.506 64.157L114.858 78.5596" stroke="#556170" stroke-width="1.4173" stroke-miterlimit="10" stroke-linejoin="round"/>
<path d="M58.0005 78.5596L58.0005 99.9998" stroke="#556170" stroke-width="1.4173" stroke-miterlimit="10" stroke-linejoin="round"/>
<path d="M87.2465 1.14551L18.4622 1.14551L18.4622 78.5596L87.2465 78.5596L87.2465 1.14551Z" fill="white" stroke="#556170" stroke-width="1.4173" stroke-miterlimit="10" stroke-linejoin="round"/>
<path d="M99.6642 13.4207L30.8799 13.4207L30.8799 78.3961L99.6642 78.3961L99.6642 13.4207Z" fill="white" stroke="#556170" stroke-width="1.4173" stroke-miterlimit="10" stroke-linejoin="round"/>
<path d="M41.4995 28.8049L89.044 28.8049" stroke="#556170" stroke-width="1.4173" stroke-miterlimit="10" stroke-linejoin="round"/>
<path d="M41.4995 38.4612L89.044 38.4612" stroke="#556170" stroke-width="1.4173" stroke-miterlimit="10" stroke-linejoin="round"/>
<path d="M41.4995 48.2812L89.044 48.2812" stroke="#556170" stroke-width="1.4173" stroke-miterlimit="10" stroke-linejoin="round"/>
<path d="M41.4995 57.9375L89.044 57.9375" stroke="#556170" stroke-width="1.4173" stroke-miterlimit="10" stroke-linejoin="round"/>
<path d="M41.4995 67.5938L89.044 67.5937" stroke="#556170" stroke-width="1.4173" stroke-miterlimit="10" stroke-linejoin="round"/>
</g>
<defs>
<clipPath id="clip0">
<rect width="116.002" height="100" fill="white"/>
</clipPath>
</defs>
</svg>
