<svg width="99" height="100" viewBox="0 0 99 100" fill="none" xmlns="http://www.w3.org/2000/svg">
<g clip-path="url(#clip0)">
<path d="M45.4275 74.8126L39.7303 86.5068C38.0812 90.105 34.0332 91.7542 30.7348 90.105C27.5864 88.6057 26.387 84.4078 28.0362 80.8096L33.7333 69.1155" fill="#E9EAEA"/>
<path d="M45.4275 74.8126L39.7303 86.5068C38.0812 90.105 34.0332 91.7542 30.7348 90.105C27.5864 88.6057 26.387 84.4078 28.0362 80.8096L33.7333 69.1155" stroke="#556170" stroke-width="1.4173" stroke-miterlimit="10" stroke-linejoin="round"/>
<path d="M30.4354 83.8081C28.7862 87.4063 24.7383 89.0555 21.4399 87.4063C18.2915 85.907 17.0921 81.7091 18.7413 78.1109L24.4384 66.4168C26.0876 62.8186 30.1356 61.1694 33.4339 62.8186C36.5823 64.3178 37.7817 68.5157 36.1326 72.1139L30.4354 83.8081Z" fill="#E9EAEA" stroke="#556170" stroke-width="1.4173" stroke-miterlimit="10" stroke-linejoin="round"/>
<path d="M98.2013 60.5699H86.2073C83.9584 60.5699 80.9599 59.0706 79.4607 57.2715L64.918 37.7813C63.5686 35.9822 60.5701 34.4829 58.1713 34.4829H33.2838C31.0349 34.4829 27.5866 35.6823 25.7875 37.0316L15.5926 44.9777C13.7935 46.4769 11.9944 49.3255 11.5446 51.5744L1.34973 76.7618C1.34973 76.7618 -0.599292 83.2086 6.59711 85.0077C13.7935 86.6568 13.9434 81.2595 15.4427 78.8607L19.6406 65.0676" stroke="#556170" stroke-width="1.4173" stroke-miterlimit="10" stroke-linejoin="round"/>
<path d="M68.2182 1.04489L57.4468 16.5635L63.7281 20.9233L74.4995 5.40474L68.2182 1.04489Z" fill="white" stroke="#556170" stroke-width="1.4173" stroke-miterlimit="10" stroke-linejoin="round"/>
<path d="M60.2073 9.7739L9.68433 82.5635L18.5521 88.7186L69.0751 15.929L60.2073 9.7739Z" fill="white" stroke="#556170" stroke-width="1.4173" stroke-miterlimit="10" stroke-linejoin="round"/>
<path d="M7.94678 96.402L18.5915 88.6059L9.74588 82.459L6.29761 95.2026L7.94678 96.402Z" fill="white" stroke="#556170" stroke-width="1.4173" stroke-miterlimit="10" stroke-linejoin="round"/>
<path d="M5.98688 95.1008L3.59155 98.5486L5.5617 99.9173L7.95702 96.4696L5.98688 95.1008Z" fill="#556170"/>
<path d="M42.7291 69.1158L29.0859 57.2717C23.5386 53.0738 19.6406 58.7709 19.6406 58.7709C15.1428 63.5685 18.5911 67.6165 21.4397 70.7649L40.1803 88.1562C40.1803 88.1562 42.1294 91.0048 47.2268 90.4051H97.7515" fill="#E9EAEA"/>
<path d="M42.7291 69.1158L29.0859 57.2717C23.5386 53.0738 19.6406 58.7709 19.6406 58.7709C15.1428 63.5685 18.5911 67.6165 21.4397 70.7649L40.1803 88.1562C40.1803 88.1562 42.1294 91.0048 47.2268 90.4051H97.7515" stroke="#556170" stroke-width="1.4173" stroke-miterlimit="10" stroke-linejoin="round"/>
</g>
<defs>
<clipPath id="clip0">
<rect width="98.2009" height="100" fill="white"/>
</clipPath>
</defs>
</svg>
