<svg width="95" height="100" viewBox="0 0 95 100" fill="none" xmlns="http://www.w3.org/2000/svg">
<g clip-path="url(#clip0)">
<path d="M33.8461 0.953433L20.3779 77.3557L80.1885 87.8991L93.6566 11.4968L33.8461 0.953433Z" fill="white" stroke="#556170" stroke-width="1.4173" stroke-miterlimit="10" stroke-linejoin="round"/>
<path d="M17.4694 10.4352L10.7068 87.7219L71.2097 93.016L77.9723 15.7292L17.4694 10.4352Z" fill="white" stroke="#556170" stroke-width="1.4173" stroke-miterlimit="10" stroke-linejoin="round"/>
<path d="M61.6846 21.3313H0.950928V98.9128H61.6846V21.3313Z" fill="white" stroke="#556170" stroke-width="1.4173" stroke-miterlimit="10" stroke-linejoin="round"/>
<path d="M12.364 41.5759H50.2716" stroke="#556170" stroke-width="1.4173" stroke-miterlimit="10" stroke-linejoin="round"/>
<path d="M12.364 48.9128H50.2716" stroke="#556170" stroke-width="1.4173" stroke-miterlimit="10" stroke-linejoin="round"/>
<path d="M12.364 56.114H50.2716" stroke="#556170" stroke-width="1.4173" stroke-miterlimit="10" stroke-linejoin="round"/>
<path d="M12.364 63.4509H50.2716" stroke="#556170" stroke-width="1.4173" stroke-miterlimit="10" stroke-linejoin="round"/>
<path d="M12.364 70.6519H50.2716" stroke="#556170" stroke-width="1.4173" stroke-miterlimit="10" stroke-linejoin="round"/>
<path d="M12.364 77.989H50.2716" stroke="#556170" stroke-width="1.4173" stroke-miterlimit="10" stroke-linejoin="round"/>
<path d="M12.364 85.1902H50.2716" stroke="#556170" stroke-width="1.4173" stroke-miterlimit="10" stroke-linejoin="round"/>
<path d="M7.20109 31.114C6.65761 30.5705 6.25 29.8912 6.25 28.9401C6.25 27.7173 6.25 16.1683 6.25 15.3531C6.25 14.8096 6.52174 14.2662 6.92935 13.7227C7.33696 13.3151 8.0163 12.9075 8.83152 12.9075C9.64674 12.9075 10.1902 13.1792 10.5978 13.7227C11.0054 14.1303 11.1413 14.8096 11.1413 15.3531C11.1413 16.3042 11.1413 25.2716 11.1413 26.0868C11.1413 26.6303 11.0054 27.0379 10.7337 27.4455C10.462 27.8531 9.91848 28.1249 9.375 28.1249C8.83152 28.1249 8.28804 27.8531 8.0163 27.4455C7.74457 27.0379 7.6087 26.6303 7.6087 26.0868C7.6087 25.6792 7.6087 20.1086 7.6087 17.3912C7.6087 16.4401 7.6087 15.8966 7.6087 15.8966C7.6087 15.7607 7.74457 15.489 8.0163 15.489C8.15217 15.489 8.42391 15.6249 8.42391 15.8966C8.42391 15.8966 8.42391 25.5433 8.42391 26.0868C8.42391 26.3586 8.55978 26.7662 8.69565 26.902C8.83152 27.0379 8.96739 27.1738 9.375 27.1738C9.64674 27.1738 9.91848 27.0379 10.0543 26.7662C10.1902 26.4944 10.3261 26.2227 10.3261 25.951C10.3261 25.1357 10.3261 16.3042 10.3261 15.2173C10.3261 14.8096 10.1902 14.402 9.91848 14.1303C9.64674 13.8586 9.375 13.5868 8.69565 13.5868C8.15217 13.5868 7.74457 13.8586 7.33696 14.1303C7.06522 14.402 6.92935 14.9455 6.92935 15.2173C6.92935 16.1683 6.92935 27.5814 6.92935 28.8042C6.92935 29.4836 7.20109 30.027 7.6087 30.4346C8.15217 30.9781 8.69565 31.2499 9.375 31.2499C9.91848 31.2499 10.5978 30.9781 11.0054 30.5705C11.413 30.1629 11.6848 29.6194 11.6848 28.9401C11.6848 27.8531 11.6848 22.6901 11.6848 20.1086C11.6848 19.2933 11.6848 18.7499 11.6848 18.7499C11.6848 18.614 11.8207 18.3423 12.0924 18.3423C12.2283 18.3423 12.5 18.4781 12.5 18.7499C12.5 18.7499 12.5 19.2933 12.5 20.1086C12.5 20.9238 12.5 22.0107 12.5 23.2336C12.5 25.5433 12.5 28.1249 12.5 28.9401C12.5 29.7553 12.0924 30.5705 11.5489 31.114C11.0054 31.6575 10.1902 31.9292 9.375 31.9292C8.55978 31.9292 7.74457 31.6575 7.20109 31.114Z" fill="#556170"/>
</g>
<defs>
<clipPath id="clip0">
<rect width="94.5652" height="100" fill="white"/>
</clipPath>
</defs>
</svg>
