<svg width="116" height="100" viewBox="0 0 116 100" fill="none" xmlns="http://www.w3.org/2000/svg">
<g clip-path="url(#clip0)">
<path d="M81.8939 0H25.6833V89.2632H81.8939V0Z" fill="white"/>
<path d="M0 0.631348V24.8419H17.4737V19.9998H4.8421V5.47345H20.8421V92.2103H84.421V5.47345H87.5789V95.1577H31.1579V99.9998H92.4211V5.47345H110.526V19.9998H97.8947V24.8419H115.368V0.631348H0ZM79.5789 87.3682H25.6842V5.47345H79.5789V87.3682Z" fill="#556170"/>
<path d="M66.3167 53.8949V57.8949H56.2115V65.4739H49.6851V57.8949H39.5799V53.8949H49.6851V53.0528L48.6325 51.5791H39.5799V47.5791H46.3167L37.4746 34.1055H45.0536L53.0536 47.3686L61.0536 34.1055H68.6325L59.7904 47.5791H66.5273V51.5791H57.2641L56.2115 53.0528V53.8949H66.3167Z" fill="#556170"/>
</g>
<defs>
<clipPath id="clip0">
<rect width="115.368" height="100" fill="white"/>
</clipPath>
</defs>
</svg>
