<svg width="143" height="80" viewBox="0 0 143 80" fill="none" xmlns="http://www.w3.org/2000/svg">
<g clip-path="url(#clip0)">
<path d="M142.035 38.3051L120.34 51.1865L98.1362 13.8983L119.831 1.01697" fill="white"/>
<path d="M142.035 38.3051L120.34 51.1865L98.1362 13.8983L119.831 1.01697" stroke="#556170" stroke-width="1.4173" stroke-miterlimit="10" stroke-linejoin="round"/>
<path d="M101.356 18.4745H88.6445C88.6445 18.4745 83.0513 18.644 78.9835 22.2033L72.8818 27.4575" stroke="#556170" stroke-width="1.4173" stroke-miterlimit="10" stroke-linejoin="round"/>
<path d="M41.526 60.0001C48.1362 54.9153 54.9159 50.0001 61.526 44.9153C62.543 44.0679 63.5599 43.3899 64.5769 42.5425C65.9328 41.5255 66.9498 41.695 68.8142 42.373C70.1701 42.8814 71.1871 43.5594 72.543 44.0679C73.7294 44.5764 75.0854 45.2543 76.2718 45.9323C77.9667 46.7798 79.6616 47.6272 81.3566 48.3052C81.3566 48.3052 88.3057 51.1865 92.543 45.2543C92.543 45.2543 95.4244 42.712 90.5091 38.8136L65.9328 23.5594C65.9328 23.5594 63.0515 21.5255 57.1193 21.5255H40.3396" stroke="#556170" stroke-width="1.4173" stroke-miterlimit="10" stroke-linejoin="round"/>
<path d="M117.967 46.4406L76.4417 77.288C76.4417 77.288 70.5095 81.3558 63.0519 75.7626L24.0688 48.4745" stroke="#556170" stroke-width="1.4173" stroke-miterlimit="10" stroke-linejoin="round"/>
<path d="M49.1533 65.9323L63.8991 54.4069" stroke="#556170" stroke-width="1.4173" stroke-miterlimit="10" stroke-linejoin="round"/>
<path d="M55.4243 70.8474L70.1701 59.322" stroke="#556170" stroke-width="1.4173" stroke-miterlimit="10" stroke-linejoin="round"/>
<path d="M61.8652 75.7627L76.611 64.2373" stroke="#556170" stroke-width="1.4173" stroke-miterlimit="10" stroke-linejoin="round"/>
<path d="M0.678467 40.0001L22.2039 52.8815L44.4073 15.5933L22.7124 2.88147" fill="white"/>
<path d="M0.678467 40.0001L22.2039 52.8815L44.4073 15.5933L22.7124 2.88147" stroke="#556170" stroke-width="1.4173" stroke-miterlimit="10" stroke-linejoin="round"/>
</g>
<defs>
<clipPath id="clip0">
<rect width="142.542" height="80" fill="white"/>
</clipPath>
</defs>
</svg>
