<svg width="122" height="100" viewBox="0 0 122 100" fill="none" xmlns="http://www.w3.org/2000/svg">
<g clip-path="url(#clip0)">
<path d="M108.939 50.4546C108.939 53.4849 106.515 56.0606 103.333 56.0606C100.303 56.0606 97.7273 53.6364 97.7273 50.4546C97.7273 47.4243 100.152 44.8485 103.333 44.8485C106.364 44.8485 108.939 47.4243 108.939 50.4546Z" stroke="#556170" stroke-width="1.4652" stroke-miterlimit="10" stroke-linejoin="round"/>
<path d="M107.879 98.9392V98.4847L109.242 82.5756C111.364 81.9695 113.03 79.9998 113.333 77.8786V76.9695L113.939 64.6968V63.7877C113.485 60.9089 111.061 58.7877 108.03 58.7877H98.4848C95.4545 58.7877 93.0302 61.0604 92.5757 63.7877V64.6968L93.1817 76.9695V77.8786C93.4848 80.1514 95.1514 81.9695 97.2727 82.5756L98.4848 98.3332V98.7877" stroke="#556170" stroke-width="1.4652" stroke-miterlimit="10" stroke-linejoin="round"/>
<path d="M86.5151 18.0302C86.6667 8.7878 94.2424 1.21205 103.485 1.36356C112.727 1.51508 120.303 9.09084 120.152 18.3333C120.152 26.6666 113.939 33.4848 106.061 34.8484L103.182 40.303L100.303 34.6969C92.4242 33.3333 86.5151 26.3636 86.5151 18.0302Z" fill="white" stroke="#556170" stroke-width="1.7143" stroke-miterlimit="10" stroke-linejoin="round"/>
<path d="M110.606 21.3637V23.6364H105V27.7273H101.515V23.6364H96.0605V21.3637H101.515V20.9091L101.061 20H96.0605V17.8788H99.6969L94.8484 10.6061H98.9393L103.182 17.8788L107.576 10.6061H111.818L106.97 17.8788H110.606V20H105.606L105 20.9091V21.3637H110.606Z" fill="#556170"/>
<path d="M29.0906 98.9394V19.8485L1.0603 32.7273V98.7879" stroke="#556170" stroke-width="1.4652" stroke-miterlimit="10" stroke-linejoin="round"/>
<path d="M75.4542 98.7879V33.3334L29.0906 19.8485V98.7879H75.4542ZM43.7875 67.7273L37.8785 67.4243V60.6061L43.7875 61.0606V67.7273ZM43.7875 53.7879L37.8785 53.0303V46.2121L43.7875 47.1212V53.7879ZM43.7875 39.8485L37.8785 38.7879V31.8182L43.7875 33.1818V39.8485ZM57.8785 68.4849L52.8785 68.1818V61.8182L57.8785 62.2727V68.4849V68.4849ZM57.8785 55.6061L52.8785 55V48.6364L57.8785 49.394V55.6061ZM57.8785 42.7273L52.8785 41.6667V35.3031L57.8785 36.5152V42.7273ZM69.8481 68.9394L65.6057 68.7879V62.8788L69.8481 63.1818V68.9394ZM69.8481 57.1212L65.6057 56.6667V50.7576L69.8481 51.5152V57.1212ZM69.8481 45.1515L65.6057 44.2425V38.3334L69.8481 39.394V45.1515Z" stroke="#556170" stroke-width="1.4652" stroke-miterlimit="10" stroke-linejoin="round"/>
</g>
<defs>
<clipPath id="clip0">
<rect width="121.515" height="100" fill="white"/>
</clipPath>
</defs>
</svg>
