<svg width="109" height="100" viewBox="0 0 109 100" fill="none" xmlns="http://www.w3.org/2000/svg">
<path d="M96.0229 36.0796C90.057 16.3352 71.7331 1.98865 50.1422 1.98865C23.5797 1.98865 1.98877 23.5796 1.98877 50C1.98877 76.4205 23.5797 98.0114 50.0001 98.0114C67.3297 98.0114 82.5285 88.7784 90.9092 75.1421" stroke="#556170" stroke-width="2.8347" stroke-linejoin="round"/>
<path d="M96.1648 79.9716L95.3125 66.0511L83.6648 73.7216L96.1648 79.9716Z" fill="#556170"/>
<path d="M107.244 51.7045C107.244 57.8124 102.273 62.642 96.3066 62.642C90.1987 62.642 85.3691 57.6704 85.3691 51.7045C85.3691 45.7386 90.3407 40.767 96.3066 40.767C102.273 40.767 107.244 45.5965 107.244 51.7045Z" fill="white" stroke="#556170" stroke-width="1.4173" stroke-miterlimit="10" stroke-linejoin="round"/>
<path d="M101.278 54.2612V55.8237H97.4429V58.6646H95.0281V55.8237H91.1929V54.2612H95.0281V53.9772L94.602 53.409H91.1929V51.8465H93.7497L90.4827 46.8749H93.3236L96.3065 51.8465L99.2895 46.8749H102.13L98.8633 51.8465H101.42V53.409H98.0111L97.4429 53.9772V54.2612H101.278Z" fill="#556170"/>
<path d="M40.7671 70.0284V24.4318L19.0342 34.2329V69.8863" stroke="#556170" stroke-width="1.4173" stroke-miterlimit="10" stroke-linejoin="round"/>
<path d="M76.7043 69.8863V34.8011L40.6248 24.4318V70.0284L76.7043 69.8863ZM52.1304 61.5056L47.585 61.3636V55.9659L52.1304 56.392V61.5056ZM52.1304 50.7102L47.585 50.142V44.7443L52.1304 45.4545V50.7102ZM52.1304 39.9147L47.585 39.0624V33.6647L52.1304 34.8011V39.9147ZM63.0679 62.0738L59.2327 61.9318V56.9602L63.0679 57.2443V62.0738ZM63.0679 52.1306L59.2327 51.7045V46.7329L63.0679 47.3011V52.1306ZM63.0679 42.0454L59.2327 41.3352V36.3636L63.0679 37.2159V42.0454ZM72.4429 62.4999L69.1759 62.3579V57.8124L72.4429 58.0965V62.4999ZM72.4429 53.267L69.1759 52.8409V48.2954L72.4429 48.8636V53.267ZM72.4429 44.034L69.1759 43.3238V38.7784L72.4429 39.6306V44.034Z" stroke="#556170" stroke-width="1.4173" stroke-miterlimit="10" stroke-linejoin="round"/>
</svg>
