<svg width="23" height="16" viewBox="0 0 23 16" fill="none" xmlns="http://www.w3.org/2000/svg">
<path d="M9.60736 8.69567C10.0395 9.04229 10.5769 9.2312 11.1308 9.2312C11.6848 9.2312 12.2222 9.04229 12.6543 8.69567L21.4404 1.73913C21.5176 1.67666 21.5805 1.5984 21.6249 1.50961C21.6693 1.42082 21.6941 1.32355 21.6978 1.22435C21.7014 1.12431 21.6834 1.02466 21.645 0.932214C21.6066 0.83977 21.5487 0.756706 21.4752 0.688697C21.0348 0.255492 20.4442 0.00881381 19.8265 0H2.43517C1.82948 0.00194475 1.2464 0.230216 0.800382 0.640001C0.725658 0.707374 0.666437 0.790153 0.626804 0.88263C0.587171 0.975107 0.568069 1.07508 0.570816 1.17565C0.57436 1.2766 0.599843 1.37556 0.645493 1.46566C0.691144 1.55576 0.755867 1.63483 0.835164 1.69739L9.60736 8.69567Z" fill="white"/>
<path d="M22.0386 14.5669C22.1834 14.2527 22.2593 13.9112 22.2612 13.5652V3.27649L15.3604 8.77911L22.0386 14.5669Z" fill="white"/>
<path d="M6.90088 8.77923L0 3.25574V13.5653C0.00198135 13.9113 0.0778795 14.2528 0.222609 14.5671L6.90088 8.77923Z" fill="white"/>
<path d="M20.8004 15.7914L13.983 9.88525L13.7395 10.08C12.9992 10.6727 12.0791 10.9957 11.1308 10.9957C10.1824 10.9957 9.26236 10.6727 8.52207 10.08L8.27859 9.8783L1.46118 15.7914C1.76765 15.9283 2.09944 15.9994 2.4351 16H19.8264C20.1621 15.9994 20.4939 15.9283 20.8004 15.7914Z" fill="white"/>
</svg>
