<svg width="11" height="20" viewBox="0 0 11 20" fill="none" xmlns="http://www.w3.org/2000/svg">
<path d="M6.71922 19.9841C6.61999 19.9881 6.55649 19.996 6.49298 19.996C5.13557 19.996 3.78213 19.9921 2.42472 20C2.2342 20 2.18261 19.9484 2.18261 19.7579C2.18657 16.5985 2.18657 13.4352 2.18657 10.2759C2.18657 10.1925 2.18657 10.1092 2.18657 10.002C1.44833 10.002 0.729937 10.002 -0.000366211 10.002C-0.000366211 8.87478 -0.000366211 7.76742 -0.000366211 6.62831C0.0750455 6.62831 0.146488 6.62831 0.213962 6.62831C0.809318 6.62831 1.40467 6.62434 2.00003 6.63228C2.15085 6.63228 2.19054 6.58862 2.19054 6.44176C2.18261 5.55667 2.18261 4.6676 2.19054 3.78251C2.19451 3.16333 2.29374 2.56004 2.57951 2.00041C2.98832 1.21057 3.63527 0.698561 4.4529 0.381038C5.11969 0.119081 5.82221 0.0238242 6.5287 0.011917C7.67972 -0.00395911 8.83075 0.00397896 9.98177 9.92264e-06C10.0889 9.92264e-06 10.1762 -0.00395912 10.1762 0.146864C10.1723 1.23835 10.1723 2.32984 10.1723 3.42132C10.1723 3.43323 10.1683 3.44514 10.1524 3.49673C10.085 3.49673 10.0096 3.49673 9.93414 3.49673C9.21971 3.49673 8.50528 3.49276 7.79086 3.49673C7.37808 3.49673 7.04468 3.66343 6.83432 4.02462C6.77081 4.13178 6.73112 4.2707 6.73112 4.39771C6.71922 5.07244 6.73112 5.74718 6.72319 6.42192C6.72319 6.58068 6.77081 6.62434 6.92561 6.62434C7.91787 6.6164 8.91013 6.62037 9.90239 6.62037C9.98177 6.62037 10.0572 6.62037 10.1921 6.62037C10.0532 7.75551 9.91826 8.86685 9.77935 9.99008C8.7474 9.99008 7.74323 9.99008 6.71922 9.99008C6.71922 13.328 6.71922 16.6462 6.71922 19.9841Z" fill="#73886B"/>
</svg>
