<svg width="20" height="20" viewBox="0 0 20 20" fill="none" xmlns="http://www.w3.org/2000/svg">
<g clip-path="url(#clip0_911_1716)">
<path d="M9.99323 4.85791C8.97756 4.85791 7.9847 5.15909 7.1402 5.72337C6.2957 6.28764 5.6375 7.08967 5.24882 8.02803C4.86014 8.96638 4.75844 9.99893 4.95659 10.9951C5.15473 11.9912 5.64383 12.9063 6.36201 13.6244C7.0802 14.3426 7.99523 14.8317 8.99138 15.0299C9.98753 15.228 11.0201 15.1263 11.9584 14.7376C12.8968 14.349 13.6988 13.6908 14.2631 12.8463C14.8274 12.0018 15.1285 11.0089 15.1285 9.99323C15.1285 9.31885 14.9957 8.65107 14.7376 8.02803C14.4796 7.40498 14.1013 6.83887 13.6244 6.36201C13.1476 5.88515 12.5815 5.50689 11.9584 5.24881C11.3354 4.99074 10.6676 4.85791 9.99323 4.85791ZM9.99323 13.3288C9.33351 13.3288 8.68861 13.1332 8.14008 12.7667C7.59154 12.4001 7.16401 11.8792 6.91155 11.2697C6.65909 10.6602 6.59303 9.98953 6.72173 9.34249C6.85044 8.69545 7.16812 8.1011 7.63461 7.63461C8.1011 7.16812 8.69545 6.85044 9.34249 6.72173C9.98953 6.59303 10.6602 6.65908 11.2697 6.91155C11.8792 7.16401 12.4002 7.59154 12.7667 8.14007C13.1332 8.68861 13.3288 9.33351 13.3288 9.99323C13.3288 10.8779 12.9774 11.7263 12.3518 12.3518C11.7263 12.9774 10.8779 13.3288 9.99323 13.3288Z" fill="#73886B"/>
<path d="M15.3316 5.86608C15.993 5.86608 16.5292 5.32991 16.5292 4.66851C16.5292 4.00711 15.993 3.47095 15.3316 3.47095C14.6702 3.47095 14.134 4.00711 14.134 4.66851C14.134 5.32991 14.6702 5.86608 15.3316 5.86608Z" fill="#73886B"/>
<path d="M19.4723 3.45061C19.2152 2.78686 18.8225 2.18407 18.3192 1.68077C17.8159 1.17748 17.2131 0.784759 16.5494 0.52774C15.772 0.235864 14.9507 0.0780082 14.1204 0.0608931C13.0514 0.0135318 12.7131 0 10 0C7.28687 0 6.94181 0 5.87957 0.0608931C5.04934 0.0780082 4.22803 0.235864 3.45061 0.52774C2.78687 0.784759 2.18407 1.17748 1.68077 1.68077C1.17748 2.18407 0.784759 2.78686 0.52774 3.45061C0.235864 4.22803 0.0780082 5.04934 0.0608931 5.87957C0.0135318 6.94858 0 7.28687 0 10C0 12.7131 0 13.0582 0.0608931 14.1204C0.0780082 14.9507 0.235864 15.772 0.52774 16.5494C0.784759 17.2131 1.17748 17.8159 1.68077 18.3192C2.18407 18.8225 2.78687 19.2152 3.45061 19.4723C4.22601 19.7757 5.04738 19.945 5.87957 19.9729C6.94858 20.0203 7.28687 20.0338 10 20.0338C12.7131 20.0338 13.0582 20.0338 14.1204 19.9729C14.9507 19.9558 15.772 19.798 16.5494 19.5061C17.2131 19.2491 17.8159 18.8564 18.3192 18.3531C18.8225 17.8498 19.2152 17.247 19.4723 16.5832C19.7641 15.8058 19.922 14.9845 19.9391 14.1543C19.9865 13.0852 20 12.747 20 10.0338C20 7.3207 20 6.97564 19.9391 5.9134C19.9258 5.07177 19.7679 4.2387 19.4723 3.45061ZM18.1191 14.0392C18.1133 14.6792 17.9965 15.3133 17.774 15.9134C17.6075 16.3455 17.3523 16.7379 17.0248 17.0654C16.6973 17.3929 16.3049 17.6481 15.8728 17.8146C15.2791 18.0348 14.6521 18.1516 14.0189 18.1597C12.9635 18.207 12.6658 18.2206 9.9594 18.2206C7.25305 18.2206 6.97564 18.2206 5.89987 18.1597C5.26672 18.1516 4.63967 18.0348 4.04601 17.8146C3.61243 17.6492 3.2185 17.3945 2.88978 17.067C2.56107 16.7394 2.30494 16.3464 2.13802 15.9134C1.9178 15.3197 1.80109 14.6927 1.79296 14.0595C1.7456 13.0041 1.73207 12.7064 1.73207 10C1.73207 7.29364 1.73207 7.01624 1.79296 5.94046C1.79876 5.30049 1.91551 4.66637 2.13802 4.06631C2.30494 3.63332 2.56107 3.24029 2.88978 2.91274C3.2185 2.5852 3.61243 2.33046 4.04601 2.16509C4.63967 1.94487 5.26672 1.82815 5.89987 1.82003C6.95535 1.77267 7.25305 1.75913 9.9594 1.75913C12.6658 1.75913 12.9432 1.75913 14.0189 1.82003C14.6521 1.82815 15.2791 1.94487 15.8728 2.16509C16.3049 2.33163 16.6973 2.58685 17.0248 2.91431C17.3523 3.24177 17.6075 3.63419 17.774 4.06631C17.9942 4.65997 18.111 5.28702 18.1191 5.92016C18.1664 6.97564 18.18 7.27334 18.18 9.9797C18.18 12.6861 18.18 12.977 18.1326 14.0392H18.1191Z" fill="#73886B"/>
</g>
<defs>
<clipPath id="clip0_911_1716">
<rect width="20" height="20" fill="white"/>
</clipPath>
</defs>
</svg>
