<svg width="19" height="13" viewBox="0 0 19 13" fill="none" xmlns="http://www.w3.org/2000/svg">
<path d="M8.26257 7.06523C8.61366 7.34686 9.0503 7.50035 9.50039 7.50035C9.95049 7.50035 10.3871 7.34686 10.7382 7.06523L17.8769 1.41305C17.9396 1.36229 17.9907 1.2987 18.0268 1.22656C18.0629 1.15441 18.0831 1.07539 18.0861 0.994785C18.089 0.913499 18.0744 0.832535 18.0432 0.757424C18.0119 0.682313 17.9649 0.614824 17.9052 0.559566C17.5473 0.207587 17.0675 0.00716122 16.5656 0H2.43516C1.94304 0.00158011 1.46929 0.18705 1.1069 0.520001C1.04619 0.574741 0.998069 0.641999 0.965867 0.717137C0.933665 0.792274 0.918145 0.873503 0.920377 0.95522C0.923256 1.03724 0.943961 1.11764 0.981052 1.19085C1.01814 1.26405 1.07073 1.3283 1.13516 1.37913L8.26257 7.06523Z" fill="white"/>
<path d="M18.3629 11.8357C18.4805 11.5803 18.5421 11.3028 18.5437 11.0218V2.66217L12.9368 7.13305L18.3629 11.8357Z" fill="white"/>
<path d="M6.06376 7.1331L0.456787 2.64526V11.0218C0.458397 11.3029 0.520064 11.5804 0.637657 11.8357L6.06376 7.1331Z" fill="white"/>
<path d="M17.3569 12.8304L11.8177 8.03171L11.6199 8.18997C11.0184 8.67155 10.2709 8.93394 9.50034 8.93394C8.72981 8.93394 7.98226 8.67155 7.38077 8.18997L7.18294 8.02606L1.6438 12.8304C1.89281 12.9417 2.16238 12.9994 2.43511 13H16.5656C16.8383 12.9994 17.1079 12.9417 17.3569 12.8304V12.8304Z" fill="white"/>
</svg>
