<svg width="59" height="60" viewBox="0 0 59 60" fill="none" xmlns="http://www.w3.org/2000/svg">
<g clip-path="url(#clip0_925_2355)">
<path d="M23.2 11.9999H20.9714V8.1713H30.6857C35.0286 6.85702 42 4.74273 45.6571 3.59987C45.3143 1.88559 43.7714 0.51416 41.9429 0.51416H3.82857C1.71429 0.571303 0 2.28559 0 4.39987V31.0856C0 33.1427 1.71429 34.857 3.82857 34.857H22.1714V15.257C22.1714 13.9999 22.5714 12.9142 23.2 11.9999ZM13.3143 8.1713C15.4286 8.1713 17.1429 9.88559 17.1429 11.9999C17.1429 14.1142 15.4286 15.8284 13.3143 15.8284C11.2 15.8284 9.48571 14.1142 9.48571 11.9999C9.48571 9.88559 11.2 8.1713 13.3143 8.1713ZM20.9714 27.257H5.71429V23.4284C5.71429 21.3142 7.42857 19.5999 9.54286 19.5999H17.1429C19.2571 19.5999 20.9714 21.3142 20.9714 23.4284V27.257Z" fill="#73886B"/>
<path d="M39.1429 23.543C36.7429 24.2858 34.8 26.0001 33.7143 28.2287C34.9714 28.343 36.2857 28.4573 37.6571 28.5144C37.9429 26.5715 38.4571 24.8001 39.1429 23.543Z" fill="#73886B"/>
<path d="M41.8286 23.1431C40.9143 23.1431 39.7143 25.1431 39.2 28.5716C40.9143 28.6288 42.7429 28.6288 44.5143 28.5716C43.9429 25.1431 42.7429 23.1431 41.8286 23.1431Z" fill="#73886B"/>
<path d="M38.9143 32.1714C38.9143 32.9143 38.9143 33.6 38.9714 34.2285C40.8571 34.1714 42.7428 34.1714 44.6286 34.2285C44.6857 33.6 44.7429 32.9143 44.7429 32.1714C44.7429 31.4285 44.6857 30.7428 44.6286 30.1143C43.7143 30.1143 42.7428 30.1714 41.8286 30.1714C40.8571 30.1714 39.9429 30.1714 39.0286 30.1143C38.9143 30.7428 38.9143 31.4285 38.9143 32.1714Z" fill="#73886B"/>
<path d="M54.8 13.0287H53.4286V8.91443C53.4286 6.91443 51.8286 5.42871 49.9428 5.42871C49.6 5.42871 49.2571 5.48585 48.9143 5.60014C48.9143 5.60014 29.8857 11.3716 27.8857 12.0001C25.8286 12.6287 25.0286 13.943 25.0286 15.2573V55.8859C25.0286 58.0001 26.7428 59.7716 28.9143 59.7716H54.8C56.9143 59.7716 58.6857 58.0573 58.6857 55.8859V16.9144C58.6286 14.8001 56.9143 13.0287 54.8 13.0287ZM49.7714 8.45728C49.8286 8.45728 49.8857 8.45728 49.8857 8.45728C50.0571 8.45728 50.4 8.62871 50.4 8.97157V13.0859H34.6286L49.7714 8.45728ZM49.8857 51.8287H33.7714C33.1428 51.8287 32.6286 51.3144 32.6286 50.6858C32.6286 50.0573 33.1428 49.543 33.7714 49.543H49.8857C50.5143 49.543 51.0286 50.0573 51.0286 50.6858C51.0286 51.3144 50.5143 51.8287 49.8857 51.8287ZM41.8286 42.743C36 42.743 31.2571 38.0001 31.2571 32.1716C31.2571 26.343 36 21.6001 41.8286 21.6001C47.6571 21.6001 52.4 26.343 52.4 32.1716C52.4 38.0001 47.6571 42.743 41.8286 42.743Z" fill="#73886B"/>
<path d="M37.3714 32.1715C37.3714 31.4858 37.4286 30.7429 37.4857 30.0572C35.9428 30.0001 34.5143 29.8858 33.1428 29.7144C32.9143 30.5144 32.8 31.3144 32.8 32.1715C32.8 33.0286 32.9143 33.8286 33.1428 34.6286C34.5143 34.5144 35.9428 34.4001 37.4857 34.2858C37.3714 33.5429 37.3714 32.8572 37.3714 32.1715Z" fill="#73886B"/>
<path d="M44.4572 23.543C45.2 24.8001 45.7143 26.5715 46 28.5144C47.3714 28.4573 48.6857 28.343 49.8857 28.2287C48.8571 25.943 46.8572 24.2858 44.4572 23.543Z" fill="#73886B"/>
<path d="M44.4572 40.8C46.8572 40.0572 48.8 38.3429 49.8857 36.1143C48.6286 36 47.3143 35.8858 46 35.8286C45.7143 37.7715 45.2 39.5429 44.4572 40.8Z" fill="#73886B"/>
<path d="M46.2857 32.1715C46.2857 32.8572 46.2857 33.6001 46.2286 34.2858C47.7143 34.3429 49.1429 34.4572 50.5143 34.6286C50.7429 33.8286 50.8571 33.0286 50.8571 32.1715C50.8571 31.3144 50.7429 30.5144 50.5143 29.7144C49.1429 29.8286 47.7143 29.9429 46.2286 30.0572C46.2857 30.7429 46.2857 31.4286 46.2857 32.1715Z" fill="#73886B"/>
<path d="M41.8286 41.1999C42.7428 41.1999 43.9429 39.1428 44.4571 35.7714C42.7429 35.7142 40.9143 35.7142 39.1429 35.7714C39.7143 39.1428 40.9143 41.1999 41.8286 41.1999Z" fill="#73886B"/>
<path d="M33.7143 36.1143C34.8 38.3429 36.7429 40.0572 39.1429 40.8C38.4 39.5429 37.8857 37.7715 37.6 35.8286C36.2857 35.8858 34.9714 36 33.7143 36.1143Z" fill="#73886B"/>
</g>
<defs>
<clipPath id="clip0_925_2355">
<rect width="58.8571" height="60" fill="white"/>
</clipPath>
</defs>
</svg>
