<svg width="20" height="16" viewBox="0 0 20 16" fill="none" xmlns="http://www.w3.org/2000/svg">
<path d="M18.8556 1.47707C17.8308 0.649414 14.2169 0 10 0C5.78309 0 2.16918 0.649414 1.14441 1.47707C0.202656 2.23633 0 5.66895 0 7.61719C0 9.56543 0.202656 12.998 1.14441 13.7573C2.16918 14.585 5.78309 15.2344 10 15.2344C14.2169 15.2344 17.8308 14.585 18.8556 13.7573C19.7974 12.998 20 9.56543 20 7.61719C20 5.66895 19.7974 2.23633 18.8556 1.47707ZM13.0005 7.71117L8.35816 10.4822C8.32398 10.5017 8.28246 10.5029 8.24828 10.4834C8.2141 10.4639 8.19273 10.4272 8.19273 10.3882V7.61719V4.84617C8.19273 4.80648 8.2141 4.77047 8.24828 4.75094C8.28246 4.73141 8.32398 4.73262 8.35816 4.75215L13.0005 7.52316C13.0335 7.5427 13.0536 7.57809 13.0536 7.61715C13.0536 7.65504 13.0334 7.69164 13.0005 7.71117Z" fill="#73886B"/>
</svg>
