<svg width="276" height="180" viewBox="0 0 276 180" fill="none" xmlns="http://www.w3.org/2000/svg">
<g clip-path="url(#clip0)">
<path d="M97.457 85.9393V96.8663V105.874V114.143V123.15V131.419V140.574V160.213H116.948H136.44V66.8909L97.457 85.9393Z" fill="#556170"/>
<path d="M139.098 66.8909V160.213H208.056V86.8252L139.098 66.8909ZM160.952 138.064L152.24 137.621V127.432L160.952 128.171V138.064ZM160.952 117.391L152.24 116.358V106.169L160.952 107.646V117.391ZM160.952 96.5709L152.24 94.799V84.6103L160.952 86.6776V96.5709ZM181.92 139.098L174.537 138.802V129.352L181.92 129.943V139.098ZM181.92 119.902L174.537 119.016V109.565L181.92 110.746V119.902ZM181.92 100.853L174.537 99.3765V89.9261L181.92 91.6981V100.853ZM199.787 139.836L193.437 139.541V130.829L199.787 131.419V139.836ZM199.787 122.264L193.437 121.526V112.814L199.787 113.847V122.264ZM199.787 104.545L193.437 103.216V94.5037L199.787 95.9803V104.545Z" fill="#556170"/>
<path d="M104.102 130.238C104.102 137.473 98.343 143.232 91.1075 143.232C83.8721 143.232 78.1133 137.473 78.1133 130.238C78.1133 123.002 83.8721 117.244 91.1075 117.244C98.343 117.244 104.102 123.15 104.102 130.238Z" stroke="white" stroke-width="3.0479" stroke-linejoin="round"/>
<path d="M115.029 179.852L116.358 161.69V159.623H116.21C115.177 152.978 109.418 147.81 102.478 147.81H79.7377C72.7975 147.81 67.0387 152.978 66.0051 159.623H65.8574V161.69L67.1864 179.852" stroke="white" stroke-width="3.0479" stroke-linejoin="round"/>
<path d="M104.102 130.238C104.102 137.473 98.343 143.232 91.1075 143.232C83.8721 143.232 78.1133 137.473 78.1133 130.238C78.1133 123.002 83.8721 117.244 91.1075 117.244C98.343 117.244 104.102 123.15 104.102 130.238Z" fill="#556170"/>
<path d="M115.029 179.852L116.358 161.69V159.623H116.21C115.177 152.978 109.418 147.81 102.478 147.81H79.7377C72.7975 147.81 67.0387 152.978 66.0051 159.623H65.8574V161.69L67.1864 179.852" fill="#556170"/>
<path d="M73.6837 86.2347C73.8314 76.489 81.6575 68.8105 91.4032 68.8105C101.001 68.9582 108.827 76.7843 108.827 86.53C108.68 95.242 102.33 102.33 94.0611 103.659L91.1078 109.418L88.1546 103.659C79.7379 102.035 73.5361 94.7991 73.6837 86.2347Z" fill="white" stroke="#556170" stroke-width="2.3497" stroke-miterlimit="10" stroke-linejoin="round"/>
<path d="M98.7865 89.6309V91.9935H93.0277V96.2757H89.3361V91.9935H83.5773V89.6309H89.3361V89.1879L88.7455 88.302H83.5773V86.087H87.4165L82.396 78.5563H86.6782L91.1081 86.087L95.6856 78.5563H99.9678L94.9473 86.087H98.7865V88.302H93.6183L93.0277 89.1879V89.6309H98.7865Z" fill="#556170"/>
<path d="M275.685 24.6595H0V48.2855H275.685V24.6595Z" fill="white"/>
<path d="M19.0485 4.57752C19.0485 4.57752 20.5251 5.61116 20.5251 5.75882C20.5251 5.90648 20.5251 6.05414 19.9344 6.20181C19.7868 6.20181 19.3438 6.79245 19.3438 6.79245C17.8672 8.12141 16.3905 9.30271 16.0952 9.30271C16.2429 9.15505 16.6859 8.71206 16.8335 8.41674C17.5718 7.53076 18.6055 5.90648 18.7531 5.4635C18.9008 5.02051 18.9008 4.87285 19.0485 4.57752ZM20.9681 12.8466C20.0821 14.0279 17.1288 16.9811 16.5382 16.9811C16.5382 16.9811 18.3101 15.0615 18.6055 14.6185C19.0485 14.0279 20.5251 11.813 20.5251 11.37C20.5251 11.0747 20.5251 11.0747 19.1961 9.7457C19.0485 9.59803 18.4578 9.00738 18.3101 8.85972V8.71206C18.6055 8.85972 19.1961 9.30271 19.4914 9.45037C19.7868 9.59803 20.9681 10.3363 21.1157 10.3363C21.411 10.3363 22.1494 8.5644 22.1494 8.12141C22.1494 7.82609 22.1494 7.67843 22.297 7.67843C22.5923 7.67843 24.069 8.5644 24.069 8.71206C24.069 8.85972 23.4783 9.15505 23.3307 9.15505C23.0353 9.45037 22.1494 10.927 22.1494 11.0747C22.1494 11.2223 22.297 11.37 22.74 11.813C23.0353 12.1083 24.069 13.2896 24.069 13.8802C24.069 14.1756 23.7736 14.6185 23.4783 14.6185C23.183 14.6185 23.0353 14.3232 22.297 13.2896C21.7064 12.4036 21.5587 12.2559 21.411 12.2559C21.2634 12.4036 21.2634 12.4036 20.9681 12.8466ZM19.9344 3.83921C18.3101 3.83921 17.7195 3.83921 17.5718 3.83921C17.5718 3.83921 17.2765 3.83921 17.1289 3.83921C16.9812 3.83921 16.9812 3.83921 16.9812 3.69155L16.6859 3.24856C16.6859 3.1009 16.5382 3.1009 16.5382 3.1009C16.6859 3.1009 17.2765 3.1009 17.4242 3.1009C18.9008 3.24856 19.4914 3.24856 20.0821 3.24856C20.6727 3.39623 20.6727 3.1009 20.6727 2.51025C20.6727 1.32896 20.6727 1.03363 20.3774 0.442986C20.3774 0.295324 20.2298 0.147662 20.2298 0.147662C20.2298 0.147662 20.2298 0 20.3774 0C20.3774 0 22.1494 0.442986 22.297 0.442986C22.4447 0.442986 22.4447 0.590648 22.4447 0.590648C22.4447 0.73831 22.4447 0.73831 22.297 0.885972C22.1494 1.03363 22.1494 1.1813 22.1494 1.91961C22.1494 3.1009 22.1494 3.24856 22.74 3.24856C23.3307 3.24856 23.3307 3.24856 23.4783 3.24856C23.626 3.24856 24.2166 2.21493 24.3643 2.21493C24.512 2.21493 25.9886 3.1009 25.9886 3.54389C25.9886 3.69155 25.6932 3.69155 25.5456 3.69155C25.3979 3.69155 24.6596 3.69155 24.3643 3.69155H19.9344V3.83921ZM22.297 4.57752C22.297 4.57752 23.626 5.16817 24.512 5.90648C25.1026 6.34947 25.5456 6.94012 25.5456 7.3831C25.5456 7.97375 25.1026 8.12141 24.9549 8.12141C24.512 8.12141 24.3643 7.53076 23.9213 6.79245C23.4783 6.05414 23.0353 5.31583 22.4447 4.72519C22.297 4.72519 22.1494 4.72519 22.297 4.57752C22.1494 4.57752 22.297 4.57752 22.297 4.57752ZM30.1231 5.02051C30.2708 5.02051 30.4184 5.02051 30.7138 4.87285C30.8614 4.72519 31.3044 4.13454 31.4521 4.13454C31.5997 4.13454 32.781 5.31583 32.781 5.4635C32.781 5.61116 32.6334 5.75882 32.4857 5.90648C32.1904 6.20181 32.1904 6.34947 32.1904 6.49713C32.1904 6.79245 32.0427 9.30271 32.0427 9.7457C31.8951 13.1419 31.5997 16.8335 28.7942 16.8335C28.2035 16.8335 28.2035 16.8335 28.2035 16.2428C28.2035 15.9475 27.1699 15.2092 27.1699 15.0615C27.1699 15.0615 27.1699 14.9139 27.3175 14.9139C27.4652 14.9139 27.9082 15.0615 28.0558 15.0615C28.3512 15.0615 28.6465 15.2092 29.0895 15.2092C29.8278 15.2092 30.1231 14.6185 30.2708 14.3232C31.0091 12.8466 31.1567 6.94012 31.1567 6.34947C31.1567 5.90648 30.8614 5.75882 30.5661 5.75882H29.5325C28.9418 5.75882 28.9418 6.05414 28.9418 6.34947C28.6465 9.45037 28.6465 10.041 28.2035 11.5176C27.1699 15.3569 24.069 16.9811 23.9213 16.9811C23.9213 16.9811 23.9213 16.8335 24.069 16.8335C25.5456 15.3569 26.7269 13.4372 27.1699 11.37C27.4652 10.041 27.7605 7.82609 27.7605 6.49713C27.7605 6.05414 27.4652 5.90648 27.3175 5.90648C27.1699 5.90648 26.1362 6.05414 25.9886 6.05414C25.8409 6.05414 25.8409 6.05414 25.8409 5.90648L25.1026 5.16817C25.1026 5.02051 25.1026 5.02051 25.1026 5.02051C25.3979 5.02051 26.7269 5.16817 27.0222 5.16817C27.4652 5.16817 27.4652 4.87285 27.4652 3.98688C27.4652 2.36259 27.4652 1.1813 27.3175 1.03363C27.3175 0.885972 27.1699 0.295324 27.1699 0.295324C27.1699 0 27.3175 0 27.4652 0C27.6129 0 28.3512 0.295324 28.4988 0.295324C29.3848 0.590648 29.5325 0.590648 29.5325 0.73831C29.5325 0.885972 29.0895 1.47662 29.0895 1.62428C28.9418 1.91961 28.9418 4.2822 28.9418 4.72519C28.9418 5.02051 29.0895 5.16817 29.5325 5.16817H30.1231V5.02051Z" fill="#464B44"/>
<path d="M39.1306 12.8466C37.5063 12.8466 36.9157 12.8466 36.768 12.8466C36.768 12.8466 36.4727 12.8466 36.325 12.8466C36.1774 12.8466 36.1774 12.8466 36.1774 12.6989L35.882 12.2559C35.882 12.1083 35.7344 12.1083 35.7344 12.1083C35.882 12.1083 36.4727 12.1083 36.6203 12.1083C37.5063 12.1083 38.2446 12.2559 39.1306 12.2559H42.8222C43.4128 12.2559 43.4128 11.9606 43.4128 11.6653C43.4128 11.5176 43.2651 10.484 43.2651 10.3363C43.2651 10.1887 43.2651 10.1887 43.4128 10.1887C43.5605 10.1887 44.8894 10.6317 44.8894 10.6317C45.0371 10.6317 45.0371 10.7793 45.0371 10.927C45.0371 11.0747 44.7418 11.37 44.5941 11.37C44.5941 11.5176 44.4464 11.6653 44.4464 11.813C44.4464 12.4036 44.7418 12.4036 45.0371 12.4036H47.8427C48.4333 12.4036 48.581 12.4036 48.7286 12.2559C49.024 12.1083 49.6146 11.0747 49.9099 11.0747C50.0576 11.0747 51.0912 11.813 51.3865 11.9606C51.9772 12.4036 52.1249 12.4036 52.1249 12.5513C52.1249 12.8466 51.6819 12.8466 51.0912 12.8466H45.0371C44.4464 12.8466 44.4464 13.1419 44.4464 13.5849C44.4464 13.7326 44.4464 16.2428 44.4464 16.3905C44.4464 16.6858 43.8558 16.9811 43.5605 16.9811C43.1175 16.9811 42.9698 16.5381 42.9698 16.3905C42.9698 15.9475 43.1175 15.2092 43.1175 14.7662C43.1175 14.3232 43.1175 13.5849 43.1175 13.4372C43.1175 13.1419 42.9698 12.8466 42.5268 12.8466H39.1306ZM39.5736 2.80558C37.9493 2.80558 37.3587 2.80558 37.211 2.80558C37.211 2.80558 36.9157 2.80558 36.768 2.80558C36.6203 2.80558 36.6203 2.80558 36.6203 2.65792L36.325 2.21493C36.325 2.06727 36.1774 2.06727 36.1774 2.06727C36.325 2.06727 36.9157 2.06727 37.0633 2.06727C37.9493 2.06727 38.6876 2.21493 39.5736 2.21493H42.8222C43.2651 2.21493 43.4128 2.06727 43.4128 1.62428C43.4128 1.1813 43.4128 0.590648 43.4128 0.147662C43.4128 0 43.4128 0 43.5605 0C43.8558 0 45.4801 0.442986 45.4801 0.73831C45.4801 0.885972 45.4801 0.885972 45.0371 1.1813C44.8894 1.32896 44.8894 1.47662 44.8894 1.62428C44.8894 2.21493 45.0371 2.21493 45.4801 2.21493H48.2856C48.8763 2.21493 49.024 2.21493 49.1716 2.06727C49.3193 1.91961 49.7623 1.03363 50.0576 1.03363C50.3529 1.03363 52.1249 2.21493 52.1249 2.51025C52.1249 2.80558 51.6819 2.80558 51.0912 2.80558H44.7418C44.5941 2.80558 44.4464 2.80558 44.4464 2.95324C44.4464 2.95324 44.4464 3.1009 44.7418 3.24856C44.7418 3.24856 44.8894 3.39623 44.8894 3.54389C44.8894 3.69155 44.8894 3.69155 44.4464 3.83921C44.2988 3.83921 43.7081 4.57752 43.5605 4.72519C42.9698 5.16817 42.8222 5.31583 42.8222 5.4635C42.8222 5.61116 42.8222 5.61116 43.1175 5.90648C43.2651 6.20181 43.4128 6.49713 43.4128 6.64479C43.4128 7.08778 43.2651 7.3831 42.8222 7.3831C42.5268 7.3831 42.3792 7.23544 41.9362 6.49713C41.7885 6.20181 41.3455 5.4635 40.3119 4.72519C40.3119 4.72519 40.1642 4.72519 40.1642 4.57752C40.1642 4.57752 40.1642 4.42986 40.3119 4.42986C40.6072 4.42986 41.9362 4.87285 42.0838 4.87285C42.2315 4.87285 42.3792 4.72519 42.5268 4.42986C42.6745 4.13454 43.1175 3.1009 43.1175 2.80558C43.1175 2.51025 42.8221 2.51025 42.6745 2.51025H39.5736V2.80558ZM38.9829 8.41674C38.8353 8.5644 38.097 9.00739 37.8016 9.30271C37.5063 9.59803 37.5063 9.7457 37.3587 9.7457C37.211 9.7457 36.325 8.12141 36.325 7.97375C36.325 7.82609 36.4727 7.82609 36.4727 7.82609C36.6203 7.82609 36.9157 7.97375 37.0633 7.97375C37.5063 7.97375 37.8016 7.82609 39.4259 7.23544C39.7212 7.23544 41.3455 6.49713 41.3455 6.49713C41.3455 6.49713 41.3455 6.49713 41.4932 6.49713C41.7885 6.79245 39.4259 8.12141 38.9829 8.41674ZM37.211 3.83921C38.54 3.83921 39.8689 4.72519 39.8689 5.61116C39.8689 5.90648 39.7212 6.20181 39.4259 6.20181C39.1306 6.20181 38.9829 6.05414 38.097 5.16817C37.8016 4.72519 37.5063 4.42986 37.0633 4.13454L36.9157 3.98688C37.0633 3.83921 37.211 3.83921 37.211 3.83921ZM43.5605 9.00738C43.7081 9.00738 46.2184 8.71206 46.366 8.71206C46.5137 8.71206 46.6614 8.71206 46.6614 8.5644C46.6614 8.41674 46.0707 7.67843 45.9231 7.53076C46.9567 7.53076 48.8763 8.85972 48.8763 10.1887C48.8763 10.6317 48.581 10.927 48.2856 10.927C47.9903 10.927 47.9903 10.927 47.3997 9.7457C47.252 9.30271 47.1043 9.30271 46.809 9.30271C46.6614 9.30271 41.3455 10.3363 41.1979 10.3363C41.0502 10.3363 40.7549 10.6317 40.6072 10.6317C40.3119 10.6317 39.7212 9.00738 39.7212 8.85972C39.8689 8.85972 40.1642 9.00738 40.3119 9.00738C40.6072 9.15505 41.1979 9.15505 41.3455 9.15505C42.0838 9.15505 42.3792 9.15505 42.6745 8.71206C42.8221 8.41674 44.1511 6.34947 44.2988 5.90648C44.2988 5.75882 44.5941 5.02051 44.7418 5.02051C44.8894 5.02051 46.2184 5.75882 46.2184 6.05414C46.2184 6.20181 46.2184 6.20181 45.7754 6.34947C45.6277 6.49713 44.0034 8.12141 43.7081 8.5644C43.2651 8.71206 43.2651 8.85972 43.2651 8.85972C43.2651 9.00738 43.4128 9.00738 43.5605 9.00738ZM50.5006 5.16817C50.0576 5.31583 47.695 6.49713 47.5473 6.49713H47.3997C47.3997 6.49713 48.581 5.31583 48.7286 5.02051C49.4669 4.13454 49.6146 3.98688 49.7623 3.69155C49.7623 3.54389 49.9099 3.39623 49.9099 3.39623C50.0576 3.39623 51.3865 4.57752 51.3865 4.72519C51.3865 4.87285 51.2389 4.87285 50.5006 5.16817ZM51.0912 8.71206C51.0912 9.15505 50.7959 9.45037 50.5006 9.45037C50.0576 9.45037 50.0576 9.30271 49.1716 8.26907C48.7286 7.67843 48.4333 7.3831 47.695 6.79245V6.64479C47.695 6.34947 51.0912 7.08778 51.0912 8.71206Z" fill="#464B44"/>
<path d="M64.676 2.36256C64.676 2.51023 64.3807 3.24854 64.3807 3.3962C64.2331 3.83918 64.2331 4.57749 64.2331 4.72516C64.2331 5.02048 64.2331 5.02048 64.5284 5.02048C64.676 5.02048 64.9714 5.02048 65.2667 4.87282C65.4144 4.87282 66.3003 4.42983 66.448 4.42983C66.891 4.42983 67.6293 5.02048 67.6293 5.3158C67.6293 5.61113 67.1863 6.05411 65.7097 6.05411C65.7097 6.05411 64.5284 6.05411 64.3807 6.05411C64.2331 6.05411 64.2331 6.20178 64.2331 6.4971C64.2331 6.79242 64.5284 11.5176 64.5284 11.6653C64.676 11.9606 64.676 11.9606 65.7097 12.4036C66.7433 12.8466 67.9246 13.2896 67.9246 13.8802C67.9246 14.3232 67.4816 14.6185 67.1863 14.6185C66.891 14.6185 66.005 14.0279 65.4144 13.7325C65.4144 13.5849 64.8237 13.2896 64.5284 13.2896C64.3807 13.2896 64.2331 13.2896 64.0854 13.8802C63.3471 15.3568 61.7228 15.5045 61.2798 15.5045C59.5079 15.5045 58.0312 14.3232 58.0312 13.2896C58.0312 12.1083 59.8032 11.2223 61.8705 11.2223C62.0181 11.2223 62.7564 11.2223 62.9041 11.2223C63.1994 11.2223 63.3471 11.2223 63.3471 10.7793C63.3471 10.3363 63.1994 7.23541 63.1994 6.79242C63.1994 6.64476 63.1994 2.80555 63.1994 2.2149C63.1994 1.91958 63.0518 1.47659 62.7564 1.03361C62.7564 1.03361 62.6088 0.885943 62.6088 0.738281H62.7564C64.0854 1.03361 64.676 2.2149 64.676 2.36256ZM61.2798 12.2559C61.1322 12.2559 58.9172 12.2559 58.9172 13.2896C58.9172 13.5849 59.5079 14.1755 60.8368 14.1755C62.9041 14.1755 63.1994 12.8466 63.1994 12.6989C63.0518 12.5512 62.1658 12.2559 61.2798 12.2559Z" fill="#464B44"/>
<path d="M83.1339 0.738281C83.5769 0.738281 85.3489 1.62425 85.3489 2.36256C85.3489 2.80555 80.3284 7.6784 80.3284 8.41671C80.3284 8.71203 80.476 9.00735 80.919 9.45034C82.5433 11.2223 85.0535 14.0279 85.0535 15.2092C85.0535 15.7998 84.6106 16.0951 84.3152 16.0951C83.7246 16.0951 83.5769 15.7998 83.2816 14.6185C82.6909 12.9942 80.6237 10.484 80.1807 9.89333C79.59 9.15502 79.4424 8.85969 79.4424 8.56437C79.4424 8.12138 79.7377 7.53073 80.919 5.90645C82.6909 3.54386 83.4293 2.65789 83.4293 1.91958C83.4293 1.47659 83.2816 1.18127 82.9863 0.885943C82.9863 0.885943 82.9863 0.738281 83.1339 0.738281Z" fill="#464B44"/>
<path d="M101.887 14.9138C101.887 15.0615 101.887 15.0615 101.296 15.2091C101.148 15.2091 99.8195 15.7998 99.6718 15.7998C96.8662 16.8334 94.9466 16.8334 94.7989 16.8334C94.6513 16.8334 94.5036 16.8334 94.5036 16.6858C94.5036 16.5381 94.6513 16.5381 94.9466 16.3904C96.4232 15.9475 98.0475 15.3568 99.6718 14.3232C99.8195 14.1755 100.262 13.7325 100.41 13.7325C100.558 13.7325 101.887 14.6185 101.887 14.9138ZM96.4232 6.64475C96.4232 6.79241 96.4232 6.94007 96.7185 7.38306C96.7185 7.53072 96.8662 7.82604 96.8662 7.97371C96.8662 8.56435 96.2756 8.71202 95.9802 8.71202C95.5373 8.71202 95.0943 8.41669 95.0943 7.82604C95.0943 7.67838 95.0943 7.08773 95.0943 7.08773C95.0943 6.49709 94.9466 6.34942 94.6513 5.90644L94.356 5.61111C94.356 5.61111 94.356 5.46345 94.5036 5.46345C94.6513 5.46345 95.2419 5.61111 95.2419 5.61111C96.1279 5.61111 99.2288 2.21489 99.3765 2.21489C99.3765 2.36255 97.6045 4.72514 97.1615 5.16813C97.0139 5.31579 96.4232 5.90644 96.4232 6.0541C96.4232 6.34942 96.4232 6.49709 96.4232 6.64475ZM94.7989 0.590605C96.5709 0.590605 97.8998 1.62424 97.8998 2.51021C97.8998 2.80554 97.6045 3.24852 97.1615 3.24852C96.7186 3.24852 96.7186 3.10086 96.4232 2.51021C95.9802 1.7719 95.2419 0.885929 94.7989 0.590605C94.6513 0.738267 94.6513 0.590605 94.6513 0.590605C94.6513 0.590605 94.6513 0.590605 94.7989 0.590605ZM105.578 7.2354C105.726 7.2354 105.874 7.2354 106.021 7.08773C106.317 6.79241 106.464 6.64475 106.612 6.64475C106.907 6.64475 107.793 7.2354 107.793 7.53072C107.793 7.67838 107.498 8.12137 107.35 8.26903C107.35 8.56435 107.35 10.1886 107.35 10.6316C107.35 11.0746 107.498 12.6989 107.498 13.1419C107.498 14.0279 106.612 14.0279 106.464 14.0279C106.021 14.0279 106.021 13.8802 105.874 13.7325C105.874 13.4372 105.726 13.4372 105.431 13.4372H99.0811C98.9335 13.4372 98.7858 13.4372 98.6382 13.5849C98.4905 13.8802 98.3428 14.1755 97.6045 14.1755C97.1615 14.1755 97.1615 14.0279 97.1615 13.5849C97.1615 12.9942 97.1615 10.484 97.1615 9.89331C97.1615 9.45033 97.0139 6.94007 97.0139 6.94007C97.0139 6.64475 97.0139 6.64475 97.1615 6.64475C97.3092 6.64475 98.1952 6.94007 98.3428 7.08773C98.3428 7.08773 98.6382 7.08773 98.7858 7.08773H105.578V7.2354ZM99.2288 7.67838C98.7858 7.67838 98.7858 7.97371 98.7858 8.41669C98.7858 8.71202 98.7858 9.00734 99.2288 9.00734H105.578C106.021 9.00734 106.021 8.85968 106.021 8.12137C106.021 7.82604 106.021 7.53072 105.578 7.53072H99.2288V7.67838ZM99.2288 9.59799C98.7858 9.59799 98.7858 9.74565 98.7858 10.484C98.7858 10.7793 98.7858 11.0746 99.2288 11.0746H105.726C106.169 11.0746 106.169 10.9269 106.169 10.1886C106.169 9.89331 106.169 9.59799 105.726 9.59799H99.2288ZM107.793 2.06723C107.941 2.06723 108.089 2.06723 108.089 2.06723C108.236 2.06723 108.679 1.62424 108.679 1.62424C108.827 1.62424 110.156 2.65787 110.156 3.10086C110.156 3.39618 109.86 3.39618 109.713 3.39618C108.827 3.39618 108.679 3.39618 108.384 3.54385C108.089 3.54385 107.055 4.13449 107.055 4.13449C107.055 3.98683 107.793 3.10086 107.793 2.9532C107.793 2.80554 107.646 2.80554 107.646 2.80554H105.578C105.431 2.80554 105.283 2.80554 105.283 2.9532C105.283 2.9532 106.169 5.31579 109.565 6.64475C109.713 6.64475 110.303 6.94007 110.451 6.94007C110.599 6.94007 110.746 7.08773 110.746 7.08773C110.746 7.2354 110.156 7.38306 110.008 7.38306C109.713 7.38306 109.713 7.38306 109.27 7.82604L109.122 7.97371C108.975 7.97371 107.203 7.08773 106.021 5.16813C105.578 4.57748 105.283 3.83917 104.988 3.10086C104.988 3.10086 104.988 2.9532 104.84 2.9532C104.692 2.9532 104.84 2.9532 104.692 3.10086C104.397 3.69151 103.363 5.61111 100.853 6.49709C100.558 6.64475 99.6718 6.94007 99.2288 6.94007C99.2288 6.94007 99.0811 6.94007 99.0811 6.79241C99.0811 6.79241 99.3765 6.64475 99.5241 6.49709C100.262 6.0541 101.591 5.31579 102.33 4.28216C103.068 3.54385 103.363 2.9532 103.363 2.65787C103.363 2.51021 103.216 2.51021 103.068 2.51021H102.034C101.591 2.51021 101.444 2.65787 101.001 3.10086C100.115 3.98683 99.8195 4.13449 98.9335 4.57748C98.7858 4.72514 98.6382 4.72514 98.6382 4.72514C98.6382 4.72514 99.5241 3.69151 99.6718 3.54385C100.115 2.9532 101.296 1.32892 101.591 0.295281C101.591 0.147619 101.739 -0.147705 101.739 -0.147705C101.887 -0.147705 103.511 0.442943 103.511 0.738267C103.511 0.885929 103.363 1.03359 102.92 1.03359C102.773 1.03359 102.33 1.62424 102.33 1.7719C102.33 1.91956 102.477 1.91956 102.625 1.91956H107.793V2.06723ZM99.2288 11.5176C98.7858 11.5176 98.7858 11.8129 98.7858 11.9606C98.7858 12.9942 98.7858 12.9942 99.2288 12.9942H105.578C106.021 12.9942 106.021 12.8466 106.021 11.8129C106.021 11.6653 106.021 11.3699 105.578 11.3699H99.2288V11.5176ZM103.511 13.8802C104.249 13.8802 109.122 14.7662 109.122 16.3904C109.122 16.6858 108.974 16.9811 108.532 16.9811C108.236 16.9811 108.236 16.9811 106.612 15.9475C105.726 15.3568 103.659 14.1755 103.511 14.1755C103.363 14.0279 103.363 13.8802 103.363 13.8802H103.511Z" fill="#464B44"/>
<path d="M126.399 6.05414C127.285 6.05414 127.432 6.05414 127.728 5.46349C127.875 5.16817 128.171 5.02051 128.171 5.02051C128.466 5.02051 129.795 6.34947 129.795 6.34947C129.795 6.49713 129.647 6.64479 128.761 6.64479H116.653C116.062 6.64479 116.062 6.79245 116.062 7.3831C116.062 10.6317 116.062 12.2559 115.472 14.0279C115.029 15.5045 113.848 16.6858 113.552 16.6858C113.552 16.6858 113.552 16.6858 113.552 16.5381C113.552 16.3905 113.848 15.9475 113.848 15.7998C114.438 14.6185 114.734 13.2896 114.734 9.59803C114.734 8.71206 114.734 7.82609 114.586 6.64479C114.586 6.49713 114.438 5.90648 114.438 5.75882C114.438 5.75882 114.438 5.75882 114.586 5.75882C114.586 5.75882 115.62 6.05414 115.767 6.05414C116.063 6.2018 116.358 6.2018 116.505 6.2018H122.56C123.003 6.2018 123.298 6.2018 124.332 4.57752C124.775 3.98687 125.07 3.1009 125.07 2.80558C125.07 2.65792 124.922 2.65792 124.627 2.65792H118.13C116.653 2.65792 116.063 2.65792 115.767 2.65792C115.62 2.65792 115.472 2.65792 115.324 2.65792C115.324 2.65792 115.177 2.65792 115.177 2.51025L114.881 2.06727C114.881 1.91961 114.734 1.91961 114.734 1.91961C114.734 1.91961 114.734 1.91961 114.881 1.91961C115.029 1.91961 115.62 2.06727 115.767 2.06727C116.653 2.06727 117.391 2.06727 118.277 2.06727H120.788C121.378 2.06727 121.378 1.77194 121.378 1.47662C121.378 1.1813 121.378 0.73831 121.378 0.73831L121.231 0.295324C121.083 0 121.231 0 121.231 0C121.526 0 122.855 0.147662 122.855 0.442986C122.855 0.590648 122.56 0.73831 122.56 0.885972C122.56 0.885972 122.56 1.1813 122.56 1.32896C122.56 1.62428 122.56 1.91961 123.15 1.91961H125.956C126.842 1.91961 126.989 1.91961 127.137 1.62428C127.58 0.885972 127.728 0.885972 127.728 0.885972C127.875 0.885972 129.352 2.06727 129.352 2.21493C129.352 2.36259 129.057 2.51025 128.318 2.51025H126.251C126.104 2.51025 125.808 2.51025 125.808 2.65792C125.808 2.80558 125.808 2.80558 126.251 3.24856C126.547 3.54389 126.694 3.69155 126.694 3.83921C126.694 3.98687 126.547 3.98687 126.399 4.13454C126.251 4.13454 123.889 5.75882 123.889 6.05414C123.889 6.2018 124.036 6.2018 124.184 6.2018H126.399V6.05414ZM121.378 9.45037C121.969 9.45037 121.969 9.15505 121.969 8.71206C121.969 8.41674 121.969 7.82609 121.969 7.53076C121.969 7.53076 121.969 7.23544 121.969 7.08778C121.969 6.94011 121.969 6.94011 122.117 6.94011C122.264 6.94011 124.036 7.3831 124.036 7.67842C124.036 7.82609 123.593 8.12141 123.593 8.26907C123.446 8.41673 123.446 8.71206 123.446 8.85972C123.446 9.15505 123.446 9.45037 124.036 9.45037H125.218C125.956 9.45037 126.251 9.45037 126.399 9.15504C126.842 8.41673 126.989 8.26907 127.137 8.26907C127.285 8.26907 128.614 9.45037 128.614 9.59803C128.614 9.74569 128.466 9.89336 127.58 9.89336H124.036C123.446 9.89336 123.446 10.1887 123.446 11.0747C123.446 12.1083 123.446 12.2559 124.036 12.2559H125.07C125.956 12.2559 126.251 12.2559 126.399 11.813C126.547 11.5176 126.694 11.2223 126.842 11.2223C126.989 11.2223 128.318 12.2559 128.318 12.4036C128.318 12.6989 128.023 12.6989 127.285 12.6989H124.036C123.593 12.6989 123.446 12.8466 123.446 13.2896C123.446 15.5045 123.446 15.5045 124.036 15.5045H126.251C126.989 15.5045 127.285 15.5045 127.58 14.9139C127.728 14.4709 127.875 14.4709 128.023 14.4709C128.318 14.4709 129.647 15.6522 129.647 15.7998C129.647 16.0952 129.5 16.0952 128.614 16.0952H119.163C117.539 16.0952 116.948 16.0952 116.801 16.0952C116.801 16.0952 116.505 16.0952 116.358 16.0952C116.358 16.0952 116.21 16.0952 116.21 15.9475L115.915 15.5045C115.767 15.3568 115.767 15.3568 115.767 15.3568C115.915 15.3568 116.505 15.5045 116.653 15.5045C117.539 15.5045 118.277 15.6522 119.163 15.6522H121.378C121.969 15.6522 121.969 15.3569 121.969 14.4709C121.969 14.1756 121.969 13.1419 121.969 12.9943C121.821 12.6989 121.526 12.6989 121.378 12.6989H120.64C119.016 12.6989 118.425 12.6989 118.277 12.6989C118.277 12.6989 117.982 12.6989 117.834 12.6989C117.834 12.6989 117.687 12.6989 117.687 12.5513L117.391 12.1083C117.391 11.9606 117.391 11.9606 117.391 11.9606C117.539 11.9606 118.13 11.9606 118.277 11.9606C119.163 11.9606 119.902 12.1083 120.788 12.1083H121.378C121.526 12.1083 121.969 12.1083 121.969 11.6653C121.969 11.37 121.969 10.041 121.969 10.041C121.821 9.74569 121.674 9.74569 121.378 9.74569H119.459C118.868 9.74569 118.868 9.74569 118.425 10.484C118.13 11.0747 116.948 12.8466 116.653 12.8466C116.653 12.8466 116.505 12.8466 116.505 12.6989L116.801 12.1083C117.244 11.0747 117.982 9.15505 117.982 8.12141C117.982 7.97375 117.982 7.67842 117.982 7.67842C117.982 7.53076 117.982 7.53076 118.13 7.53076C118.13 7.53076 119.754 7.97375 119.754 8.26907C119.754 8.41673 119.311 8.71206 119.311 8.85972C119.163 9.00738 119.163 9.15504 119.163 9.15504C119.163 9.30271 119.311 9.30271 119.459 9.30271H121.378V9.45037ZM120.049 4.87285C120.049 5.31583 119.754 5.75882 119.311 5.75882C118.72 5.75882 118.573 5.31583 118.425 4.42986C118.277 3.98687 117.982 3.39623 117.834 3.24856L117.687 3.1009C117.687 2.95324 117.834 2.95324 117.982 2.95324C118.277 2.95324 120.049 3.69155 120.049 4.87285Z" fill="#464B44"/>
<path d="M135.554 9.89325C135.554 9.3026 136.144 8.71195 137.326 7.23533C138.212 6.2017 138.95 4.72508 138.95 4.42975C138.95 4.28209 138.802 4.28209 138.802 4.28209C138.655 4.28209 137.916 4.42975 137.621 4.42975C136.883 4.42975 135.997 3.54378 135.997 2.80547C135.997 2.80547 135.997 2.65781 136.144 2.65781C136.292 2.65781 136.735 2.95313 136.883 2.95313C137.178 3.10079 137.621 3.24846 138.064 3.24846C139.541 3.24846 139.541 2.80547 139.541 2.36248C139.541 2.21482 139.541 1.9195 139.393 1.77184C139.393 1.62417 138.95 1.32885 138.95 1.18119C138.95 1.03353 139.393 0.885864 139.836 0.885864C140.279 0.885864 140.722 1.03353 140.722 1.47651C140.722 1.77184 140.87 1.77184 141.608 1.77184C141.756 1.77184 142.494 1.9195 142.494 2.21482C142.494 2.80547 141.165 3.39612 140.279 3.69144C139.984 3.8391 139.984 3.8391 139.541 4.72508C139.098 5.75871 138.95 5.90637 138.507 6.79234C138.359 6.94001 138.359 7.08767 138.359 7.08767V7.23533C138.359 7.23533 138.802 7.08767 138.95 7.08767C139.098 6.94001 139.393 6.94001 139.688 6.94001C139.984 6.94001 140.722 6.94001 141.313 8.1213C141.46 8.41663 141.46 8.41663 141.46 8.41663C141.46 8.41663 142.198 7.53065 142.198 7.38299C142.789 6.49702 143.97 4.87274 145.595 4.87274C146.628 4.87274 147.367 5.75871 147.367 6.49702C147.367 7.38299 145.89 7.97364 144.709 8.41663C144.266 8.56429 142.198 9.45026 141.756 9.59792C141.46 9.74559 141.46 10.0409 141.46 10.3362C141.46 10.4839 141.46 11.2222 141.46 11.5175C141.46 11.8129 141.46 12.8465 140.722 12.8465C140.279 12.8465 140.131 12.2558 140.131 11.9605C140.131 11.8129 140.131 10.9269 140.131 10.9269C140.131 10.7792 140.131 10.6316 139.984 10.6316C139.836 10.6316 138.212 11.8129 138.212 12.8465C138.212 14.1754 140.131 14.1754 140.574 14.1754C141.017 14.1754 141.46 14.1754 141.756 14.0278C142.051 14.0278 143.232 13.7325 143.38 13.7325C143.823 13.7325 144.266 13.8801 144.266 14.3231C144.266 15.5044 141.46 15.5044 141.017 15.5044C138.655 15.5044 137.473 14.4708 137.473 13.1418C137.473 11.9605 138.212 11.3699 139.984 9.89325C140.131 9.74558 140.279 9.45026 140.279 9.3026C140.279 8.41663 140.131 7.38299 139.393 7.38299C138.655 7.38299 137.621 8.26896 137.178 9.3026C137.03 9.74558 136.735 10.1886 136.144 10.1886C135.849 10.4839 135.554 10.3362 135.554 9.89325ZM140.279 2.80547C140.279 2.80547 141.165 2.51015 141.165 2.36248C141.165 2.06716 140.722 2.06716 140.574 2.06716C140.279 2.06716 140.279 2.65781 140.279 2.80547ZM141.903 8.85961C142.051 8.85961 145.742 7.38299 145.742 6.2017C145.742 5.75871 145.299 5.61105 145.152 5.61105C143.527 5.61105 141.903 8.56429 141.903 8.85961Z" fill="#464B44"/>
<path d="M154.898 4.72515C154.75 4.72515 154.455 4.57749 154.307 4.1345C153.864 2.9532 153.126 2.21489 152.24 1.32892C151.944 1.0336 151.944 1.0336 151.944 0.885936C151.944 0.738274 152.092 0.738274 152.092 0.738274C152.387 0.738274 153.716 1.32892 153.864 1.47658C154.898 2.06723 155.636 3.10087 155.636 3.69151C155.636 3.83918 155.636 3.98684 155.636 4.1345C155.488 4.42982 155.341 4.72515 154.898 4.72515ZM151.944 7.82605C151.944 7.67839 151.944 7.67839 151.944 7.82605C151.944 7.67839 151.944 7.67839 151.944 7.67839C152.24 7.67839 153.864 7.82605 154.159 7.82605C154.455 7.82605 154.602 7.67839 154.75 7.53073C155.341 6.94008 155.341 6.94008 155.341 6.94008C155.488 6.94008 156.522 7.53073 156.522 7.97371C156.522 8.12138 156.079 8.4167 155.931 8.4167C155.931 8.56436 155.931 8.71202 155.931 10.6316C155.931 12.5512 155.931 12.9942 156.374 13.5849C157.26 14.7662 158.884 14.9138 162.576 14.9138C164.2 14.9138 165.825 14.9138 167.449 14.6185C167.597 14.6185 168.778 14.3232 168.925 14.3232H169.073C169.073 14.3232 168.778 14.6185 168.778 14.7662C168.482 15.0615 168.482 15.2092 168.187 15.9475C168.04 16.3904 167.744 16.3904 165.825 16.3904C163.61 16.3904 160.509 16.2428 159.18 15.9475C158.737 15.7998 156.965 15.3568 156.079 13.8802C155.784 13.2895 155.784 13.1419 155.488 13.1419C155.341 13.1419 155.341 13.2895 155.193 13.4372C154.75 13.8802 154.012 15.0615 153.864 15.5045C153.716 15.9475 153.716 16.2428 153.421 16.2428C153.126 16.2428 152.092 15.0615 152.092 14.9138C152.092 14.7662 152.683 14.6185 152.683 14.6185C153.864 14.0279 154.898 13.4372 154.898 12.5512C154.898 12.5512 154.898 9.598 154.898 9.00735C154.898 8.56436 154.898 8.26904 154.307 8.26904C154.307 8.26904 153.421 8.26904 152.978 8.26904C152.978 8.26904 152.683 8.26904 152.535 8.26904C152.535 8.26904 152.387 8.26904 152.387 8.12138L151.944 7.82605ZM166.415 0.885936C166.858 0.885936 167.006 0.738274 167.006 0.738274C167.006 0.590612 167.449 0.295288 167.449 0.295288C167.597 0.295288 169.073 1.32892 169.073 1.77191C169.073 1.91957 168.925 2.21489 168.63 2.21489C168.63 2.21489 168.335 2.21489 168.187 2.21489C168.04 2.21489 167.892 2.21489 167.301 2.51022C166.711 2.9532 166.563 2.9532 166.415 2.9532C166.415 2.9532 166.268 2.9532 166.268 2.80554C166.268 2.65788 166.711 1.77191 166.711 1.62425C166.711 1.47658 166.563 1.47658 166.268 1.47658H158.589C158.294 1.47658 158.294 1.47658 158.294 1.91957C158.294 2.80554 157.555 3.83918 156.817 3.83918C156.374 3.83918 156.079 3.39619 156.079 3.10087C156.079 2.80554 156.227 2.65788 156.67 2.21489C157.26 1.62425 157.26 1.18126 157.26 0.590612V0.44295C157.408 0.44295 157.703 0.738274 157.851 0.885936C157.998 1.18126 157.998 1.18126 158.441 1.18126H166.415V0.885936ZM160.361 10.041C160.066 10.041 159.918 10.041 159.77 10.3363C159.623 10.6316 159.475 10.7793 159.032 10.7793C158.589 10.7793 158.441 10.484 158.441 10.1886C158.441 10.041 158.441 9.45033 158.441 9.30267C158.441 8.71202 158.441 8.56436 158.441 6.20177C158.441 6.05411 158.294 5.3158 158.294 5.16813C158.294 5.16813 158.294 4.87281 158.441 4.87281C158.589 4.87281 159.18 5.16813 159.327 5.3158C159.327 5.3158 159.77 5.46346 160.213 5.46346H161.247C161.542 5.46346 161.69 5.46346 161.69 5.02047C161.69 4.28216 161.69 4.28216 161.247 4.28216H160.656C160.213 4.28216 159.18 4.28216 158.737 4.28216H158.441C158.441 4.28216 158.294 4.28216 158.294 4.1345L157.998 3.69151C157.998 3.69151 157.998 3.69151 157.998 3.54385C158.146 3.54385 158.589 3.54385 158.737 3.69151C159.18 3.69151 160.066 3.69151 160.952 3.69151H161.395C161.69 3.69151 161.838 3.54385 161.838 3.24853C161.838 3.10087 161.838 2.65788 161.838 2.51022C161.838 2.36256 161.69 1.77191 161.69 1.62425C161.69 1.47658 161.838 1.47658 161.985 1.47658C161.985 1.47658 163.61 1.62425 163.61 2.06723C163.61 2.21489 163.314 2.51022 163.167 2.65788C163.019 2.80554 163.019 3.10087 163.019 3.10087C163.019 3.54385 163.314 3.54385 163.462 3.54385H164.2C164.348 3.54385 164.791 3.54385 164.939 3.54385C165.086 3.39619 165.677 2.65788 165.825 2.65788C165.972 2.65788 167.301 3.69151 167.301 3.83918C167.301 4.1345 167.006 4.1345 166.415 4.1345H163.462C163.019 4.1345 163.019 4.28216 163.019 4.87281C163.019 5.16813 163.019 5.3158 163.462 5.3158H164.939C165.086 5.3158 165.234 5.3158 165.529 5.16813C165.677 5.16813 165.972 4.87281 166.12 4.87281C166.268 4.87281 167.301 5.46346 167.301 5.75878C167.301 5.75878 167.006 6.20177 166.858 6.20177C166.711 6.34943 166.711 7.2354 166.711 7.53073C166.711 7.82605 166.711 9.30267 166.711 9.598C166.711 10.3363 166.12 10.484 165.825 10.484C165.382 10.484 165.382 10.3363 165.234 10.041C165.234 9.89332 164.939 9.89332 164.791 9.89332H163.61C163.167 9.89332 163.019 10.1886 163.019 10.484C163.019 11.2223 163.019 11.3699 163.61 11.3699H165.825C166.563 11.3699 166.563 11.3699 166.858 11.0746C167.301 10.484 167.449 10.3363 167.597 10.3363C167.744 10.3363 169.073 11.3699 169.073 11.6653C169.073 11.9606 168.778 11.9606 168.187 11.9606H163.61C163.167 11.9606 163.019 12.1082 163.019 12.5512C163.019 12.6989 163.019 13.7325 163.019 13.8802C163.019 14.1755 163.019 14.7662 162.281 14.7662C161.69 14.7662 161.69 14.3232 161.69 14.1755C161.69 13.8802 161.69 12.8466 161.69 12.5512C161.69 11.9606 161.395 11.9606 161.099 11.9606H159.475C159.032 11.9606 158.294 11.9606 157.555 11.9606H157.113C157.113 11.9606 156.965 11.9606 156.965 11.8129L156.67 11.3699V11.2223C156.817 11.2223 157.113 11.2223 157.26 11.2223C158.294 11.3699 159.623 11.3699 160.509 11.3699H161.099C161.69 11.3699 161.69 11.0746 161.69 10.6316C161.69 10.1886 161.69 9.89332 161.099 9.89332H160.361V10.041ZM161.247 7.53073C161.838 7.53073 161.838 7.2354 161.838 6.79242C161.838 6.20177 161.838 5.90644 161.247 5.90644H160.066C159.475 5.90644 159.475 6.20177 159.475 6.64476C159.475 7.2354 159.475 7.53073 160.066 7.53073H161.247ZM161.247 9.598C161.838 9.598 161.838 9.30267 161.838 8.71202C161.838 8.4167 161.838 8.12138 161.247 8.12138H160.066C159.475 8.12138 159.475 8.4167 159.475 8.85969C159.475 9.30267 159.475 9.598 160.066 9.598H161.247ZM163.61 5.90644C163.019 5.90644 163.019 6.20177 163.019 6.79242C163.019 7.2354 163.019 7.53073 163.61 7.53073H164.939C165.529 7.53073 165.529 7.2354 165.529 6.79242C165.529 6.34943 165.529 6.05411 164.939 6.05411H163.61V5.90644ZM163.61 7.97371C163.019 7.97371 163.019 8.26904 163.019 8.85969C163.019 9.30267 163.019 9.598 163.61 9.598H164.939C165.529 9.598 165.529 9.30267 165.529 8.71202C165.529 8.26904 165.529 7.97371 164.939 7.97371H163.61Z" fill="#464B44"/>
<path d="M175.57 10.484C174.979 10.484 174.979 10.6316 174.979 11.3699C174.684 14.6185 172.617 16.5381 172.321 16.5381C172.174 16.5381 172.174 16.5381 172.174 16.3905C172.174 16.3905 172.617 15.6521 172.764 15.5045C173.503 13.8802 173.798 12.2559 173.798 7.67839C173.798 6.20177 173.798 3.24853 173.65 1.77191C173.65 1.62425 173.503 0.44295 173.503 0.44295C173.503 0.295288 173.503 0.295288 173.65 0.295288C173.798 0.295288 174.389 0.590612 174.536 0.590612C175.127 0.885936 175.422 1.0336 176.013 1.0336H185.02C185.463 1.0336 185.611 0.885936 185.611 0.738274C185.906 0.44295 185.906 0.295288 186.054 0.295288C186.202 0.295288 187.531 1.0336 187.531 1.32892C187.531 1.47658 187.383 1.62425 187.235 1.62425C186.792 1.91957 186.792 1.91957 186.792 3.69151C186.792 5.16814 186.94 12.1083 186.94 13.5849C186.94 14.4708 186.94 16.3905 185.168 16.3905C185.02 16.3905 185.02 16.3905 184.873 15.9475C184.577 15.2092 183.544 14.9138 183.248 14.9138L182.953 14.7662C182.953 14.6185 183.101 14.6185 183.248 14.6185C183.544 14.6185 184.725 14.7662 184.873 14.7662C185.611 14.7662 185.611 14.6185 185.611 12.2559C185.611 11.9606 185.611 10.7793 185.611 10.6316C185.611 10.3363 185.316 10.3363 185.02 10.3363H181.329C180.886 10.3363 180.738 10.484 180.738 11.0746C180.738 12.4036 180.738 13.8802 180.738 15.3568C180.738 15.6521 180.738 15.7998 180.591 15.9475C180.443 16.0951 180.148 16.2428 179.705 16.2428C179.262 16.2428 179.262 15.9475 179.262 15.7998C179.262 15.0615 179.409 11.6653 179.409 10.927C179.409 10.484 179.262 10.3363 178.819 10.3363H175.57V10.484ZM178.966 5.3158C179.557 5.3158 179.557 5.3158 179.557 3.39619C179.557 1.62425 179.557 1.47658 178.966 1.47658H175.57C174.979 1.47658 174.979 1.62425 174.979 3.10087C174.979 5.16814 174.979 5.16814 175.57 5.16814H178.966V5.3158ZM178.966 9.89332C179.114 9.89332 179.409 9.89332 179.409 9.598C179.409 9.45034 179.409 7.67839 179.409 7.38307C179.409 5.75878 179.409 5.61112 178.819 5.61112H175.422C175.275 5.61112 174.979 5.61112 174.832 5.90645C174.832 6.05411 174.832 8.56436 174.832 9.00735C174.832 9.30267 174.832 9.598 175.422 9.598H178.966V9.89332ZM181.329 1.62425C181.034 1.62425 180.886 1.62425 180.738 1.91957C180.738 2.06723 180.738 4.1345 180.738 4.57749C180.738 5.02047 180.738 5.3158 181.329 5.3158H185.02C185.611 5.3158 185.611 5.16814 185.611 3.98684C185.611 1.47658 185.611 1.47658 185.02 1.47658H181.329V1.62425ZM181.329 5.90645C180.738 5.90645 180.738 5.90645 180.738 7.67839C180.738 7.97371 180.738 9.598 180.738 9.74566C180.886 10.041 181.181 10.041 181.181 10.041H185.02C185.611 10.041 185.611 9.89332 185.611 8.71202C185.611 6.05411 185.611 5.90645 185.02 5.90645H181.329Z" fill="#464B44"/>
<path d="M198.015 3.10076C198.015 3.24842 197.719 3.98673 197.719 4.13439C197.424 5.02036 196.981 9.1549 196.981 10.7792C196.981 12.6988 197.276 14.3231 199.787 14.3231C200.673 14.3231 202.002 14.1754 203.626 13.2894C203.921 13.1418 205.25 12.4035 205.398 12.4035C205.546 12.4035 205.546 12.4035 205.546 12.5511C205.546 12.6988 202.74 15.7997 199.344 15.7997C196.981 15.7997 195.8 14.4707 195.8 10.6315C195.8 9.45022 195.8 9.1549 196.243 5.46335C196.39 4.8727 196.538 3.39608 196.538 2.80543C196.538 2.51011 196.538 2.21479 196.39 1.91946L196.243 1.47648C196.243 1.32881 196.39 1.32881 196.538 1.32881C197.276 1.18115 198.015 2.65777 198.015 3.10076Z" fill="#464B44"/>
<path d="M213.076 12.6989C214.996 9.15497 215.587 5.90641 215.587 5.90641C215.587 5.75875 215.587 5.75875 214.848 5.75875C214.405 5.75875 213.815 5.75875 213.224 5.46342C212.633 5.1681 212.19 4.57745 212.19 4.42979V4.28213C212.19 4.28213 212.486 4.42979 212.633 4.42979C212.929 4.57745 213.667 4.57745 214.258 4.57745C214.553 4.57745 215.439 4.57745 215.587 4.42979C215.734 4.28213 215.734 3.10083 215.734 2.95317C215.734 2.80551 215.734 2.21486 215.439 1.77187C215.291 1.62421 214.848 1.18122 214.848 1.03356C214.848 0.8859 215.144 0.590576 215.734 0.590576C216.62 0.590576 217.211 1.32889 217.211 1.62421C217.211 1.77187 217.063 2.0672 217.063 2.21486C217.063 2.51018 218.54 2.95317 218.688 2.95317C218.835 2.95317 219.131 2.95317 219.278 2.95317C219.426 2.95317 219.869 2.95317 219.869 3.54382C219.869 4.57745 218.245 5.1681 217.063 5.46342C216.473 5.61108 216.325 5.61108 216.325 6.05407C215.439 10.0409 215.291 10.0409 214.996 11.3699C213.667 15.2091 213.076 15.2091 212.633 15.2091C212.19 15.2091 212.19 14.6185 212.19 14.3231C212.486 14.0278 212.486 13.7325 213.076 12.6989ZM217.063 4.28213C217.211 4.28213 218.54 3.83914 218.54 3.54382C218.54 3.39615 217.506 2.95317 217.359 2.95317C217.211 2.95317 217.211 2.95317 217.211 3.24849C217.211 3.69148 217.211 3.69148 217.063 4.13446C216.916 4.13446 216.916 4.28213 217.063 4.28213ZM218.392 12.1082C218.835 13.7325 220.755 14.0278 222.231 14.0278C222.527 14.0278 224.003 13.8802 224.299 13.8802C224.889 13.8802 225.775 14.1755 225.775 14.7661C225.775 15.3568 225.037 15.3568 223.56 15.3568C220.607 15.3568 218.097 14.6185 218.097 12.2559C218.097 11.8129 218.245 11.3699 218.392 11.3699C218.245 11.5176 218.392 12.1082 218.392 12.1082ZM222.527 5.61108C224.299 5.61108 225.628 6.20173 225.628 6.94004C225.628 7.38303 225.185 7.38303 225.037 7.38303C224.889 7.38303 224.151 7.38303 224.003 7.38303C223.708 7.38303 223.413 7.38303 222.674 7.67835C222.231 7.82601 222.084 7.97368 221.936 7.97368H221.788C221.788 7.82601 222.822 7.0877 222.822 6.94004C222.822 6.64472 221.493 6.64472 221.198 6.64472C220.755 6.64472 220.312 6.64472 219.869 6.79238C219.721 6.79238 219.278 6.79238 219.278 6.79238H219.131C218.983 6.34939 220.46 5.61108 222.527 5.61108Z" fill="#464B44"/>
<path d="M234.34 5.31581C234.34 5.46347 234.34 5.46347 234.044 6.05412C233.749 6.79243 233.601 7.53074 233.601 8.41671C233.601 10.3363 234.635 11.6653 235.078 11.6653C235.373 11.6653 235.521 11.5176 235.964 10.6316C236.111 10.484 236.407 10.041 236.554 10.041C236.554 10.041 236.702 10.041 236.702 10.1887C236.702 10.3363 236.702 10.484 236.702 10.6316C236.554 11.5176 236.407 11.6653 236.407 12.1083C236.407 12.4036 236.407 12.6989 236.554 12.8466C236.554 12.9942 236.702 13.4372 236.702 13.4372C236.702 13.8802 236.259 14.0279 235.964 14.0279C234.783 14.0279 232.42 12.1083 232.42 8.56438C232.42 7.97373 232.715 5.7588 232.715 5.31581C232.715 4.87283 232.715 4.42984 232.568 4.28218C232.42 3.83919 232.42 3.69153 232.42 3.69153C232.42 3.69153 232.42 3.54387 232.568 3.54387C233.454 3.24854 234.34 4.72516 234.34 5.31581ZM243.347 5.7588C244.233 6.49711 244.971 7.82607 244.971 9.30269C244.971 9.59801 244.971 10.484 244.085 10.484C243.199 10.484 243.199 9.45035 243.199 9.30269C243.199 7.82607 243.199 6.94009 242.166 6.05412C242.018 5.90646 241.28 5.31581 241.28 5.16815C241.28 5.16815 241.28 5.02049 241.427 5.02049C241.575 5.02049 242.609 5.02049 243.347 5.7588Z" fill="#464B44"/>
<path d="M258.113 1.91953C258.113 1.91953 258.409 6.34939 260.771 10.3363C261.066 10.7792 263.134 14.1755 266.087 14.9138C266.087 14.9138 266.235 14.9138 266.235 15.0614C266.235 15.2091 266.235 15.2091 265.644 15.3568C265.053 15.5044 264.61 15.7998 264.315 15.9474C264.02 16.2427 263.872 16.2427 263.872 16.2427C263.872 16.2427 261.509 14.7661 259.59 10.9269C259.295 10.1886 258.113 7.67835 257.818 3.69147C257.818 3.54381 257.818 3.39615 257.67 3.39615C257.523 3.39615 257.523 3.54381 257.523 4.13446C257.523 4.72511 256.932 9.0073 255.16 12.1082C253.24 15.3568 249.992 16.5381 249.696 16.5381C249.696 16.5381 249.549 16.5381 249.549 16.3904C249.549 16.3904 249.696 16.2427 249.844 16.0951C250.878 15.3568 252.945 13.7325 254.274 11.3699C256.341 7.38302 256.341 2.06719 256.341 1.91953C256.341 1.32888 256.341 1.18122 256.341 0.738231C256.341 0.738231 256.341 0.442907 256.341 0.295245C256.341 0.147583 256.489 0.147583 256.489 0.147583C256.637 0.147583 257.375 0.442907 257.523 0.442907C258.409 0.738231 258.852 0.738231 258.852 1.18122C258.852 1.32888 258.704 1.47654 258.556 1.47654C258.409 1.47654 258.261 1.47654 258.261 1.6242C258.261 1.77187 258.113 1.77187 258.113 1.91953Z" fill="#464B44"/>
<path d="M27.3174 32.1902C27.9081 31.8949 28.0557 31.8949 28.2034 31.8949C28.4987 31.8949 29.9753 32.7809 29.9753 33.5192C29.9753 33.8145 29.8277 33.8145 29.5323 34.2575C28.9417 34.9958 28.2034 38.392 28.2034 38.5397C28.2034 38.835 28.351 38.835 29.237 39.5733C29.3847 39.721 29.5323 39.8686 29.5323 40.0163C29.5323 40.3116 29.237 40.3116 29.237 40.3116C29.0894 40.3116 28.2034 40.0163 28.0557 40.0163C27.1698 39.8686 26.2838 39.8686 25.6931 39.8686C25.3978 39.8686 22.1492 40.0163 22.0016 40.4593C21.7063 41.1976 21.5586 41.3453 21.1156 41.3453C20.525 41.3453 20.525 40.4593 20.525 40.164C20.525 36.9154 20.525 34.1098 19.7866 33.3715C19.4913 32.9285 19.4913 32.9285 19.0483 32.7809C19.0483 32.7809 19.0483 32.7809 19.0483 32.6332C19.0483 32.4855 19.639 32.1902 19.7866 32.1902C20.525 32.1902 20.9679 32.4855 21.1156 32.6332C21.5586 33.0762 21.5586 33.0762 22.0016 33.0762C22.5922 32.9285 26.8744 32.4855 27.3174 32.1902ZM23.3305 33.6668C21.5586 33.9622 21.5586 33.9622 21.5586 34.5528C21.5586 35.1435 21.7063 37.949 21.7063 38.6874C21.7063 39.278 22.0016 39.278 22.2969 39.278C22.4446 39.278 23.0352 39.1303 23.4782 39.1303C23.7735 39.1303 24.3642 38.9827 24.8072 38.9827C26.8744 38.835 27.0221 38.835 27.1697 38.5397C27.1697 38.5397 27.7604 34.1098 27.7604 33.9622C27.7604 33.8145 27.7604 33.2239 27.3174 33.2239C26.4314 33.2239 23.7735 33.6668 23.3305 33.6668Z" fill="#464B44"/>
<path d="M49.6145 35.4388C49.7621 35.4388 49.9098 35.4388 50.0575 35.4388C51.2387 35.4388 51.3864 36.1772 51.3864 36.3248C51.3864 36.9155 50.6481 36.9155 49.9098 36.9155C49.4668 36.9155 47.6949 36.9155 47.2519 36.9155C44.7416 36.9155 40.4594 37.2108 40.0164 37.2108C39.7211 37.2108 38.8351 37.5061 38.5398 37.5061C37.8015 37.5061 36.9155 36.3248 36.9155 35.7342C36.9155 35.5865 36.9155 35.4388 37.0632 35.4388C37.2109 35.4388 37.6538 35.5865 37.6538 35.7342C37.9492 35.8818 38.6875 35.8818 39.8688 35.8818C40.4594 35.7342 46.9565 35.5865 49.6145 35.4388Z" fill="#464B44"/>
<path d="M59.9509 30.123C60.3939 30.123 61.4275 30.7136 61.4275 31.1566C61.4275 31.3043 61.4275 31.7473 61.4275 31.7473C61.4275 33.9622 61.4275 35.5865 61.4275 36.0295C61.4275 36.3248 61.5752 37.2108 61.5752 37.3584C61.5752 37.8014 61.1322 38.2444 60.8369 38.2444C60.3939 38.2444 59.9509 37.2108 59.9509 36.7678C59.9509 36.6201 60.0986 36.0295 60.0986 35.8818C60.0986 34.9958 60.0986 34.2575 60.0986 33.9622C60.0986 31.8949 59.9509 31.4519 59.3603 30.8613C59.2126 30.7136 59.0649 30.566 59.0649 30.4183C59.2126 30.2707 59.5079 30.123 59.9509 30.123ZM64.9714 29.68C64.6761 29.3847 64.6761 29.3847 64.6761 29.237C64.6761 29.237 64.6761 29.0894 65.2667 29.0894C66.448 29.0894 67.334 29.5323 67.334 29.9753C67.334 30.123 67.1864 30.566 67.1864 30.7136C67.1864 31.1566 67.0387 33.9622 67.0387 34.7005C66.891 36.0295 66.5957 40.0163 62.4612 43.2649C61.8705 43.7079 60.9845 44.2985 60.8369 44.2985C60.8369 44.2985 60.6892 44.2985 60.6892 44.1509C60.6892 44.0032 61.8705 42.8219 62.1658 42.6743C65.7097 38.835 65.8574 35.5865 65.8574 31.8949C65.7097 30.7136 65.4144 30.123 64.9714 29.68Z" fill="#464B44"/>
<path d="M84.3152 32.4856C84.1676 32.4856 80.3284 33.3715 80.1807 33.3715C80.033 33.3715 79.4424 33.6669 79.2947 33.6669C78.9994 33.6669 78.1134 33.0762 77.9658 32.9286C77.8181 32.7809 77.5228 32.0426 77.5228 31.8949C77.5228 31.7473 77.5228 31.7473 77.6704 31.7473L78.1134 31.8949C78.7041 32.0426 78.8517 32.0426 79.1471 32.0426C79.7377 32.0426 83.2816 31.7473 84.1676 31.3043C84.3152 31.1566 85.0535 30.7136 85.2012 30.7136C85.6442 30.7136 86.8255 31.5996 86.8255 32.1902C86.8255 32.3379 86.0872 32.9286 86.0872 32.9286C85.6442 33.3715 84.3152 35.5865 84.0199 36.0295C84.0199 36.1771 83.8722 36.3248 83.8722 36.4724C83.8722 36.6201 83.8723 36.6201 84.7582 37.0631C85.6442 37.5061 88.8928 39.4257 88.8928 41.05C88.8928 41.493 88.5974 41.9359 88.1545 41.9359C87.7115 41.9359 87.7115 41.7883 86.9732 40.607C85.6442 38.3921 84.0199 36.9154 83.7246 36.9154C83.5769 36.9154 83.4293 36.9154 83.1339 37.5061C82.5433 38.2444 80.6237 40.3117 78.2611 41.493C77.8181 41.7883 77.2275 41.9359 77.0798 41.9359C77.0798 41.9359 76.9321 41.9359 76.9321 41.7883C76.9321 41.6406 77.6704 41.1976 77.8181 41.05C82.691 37.5061 84.9059 32.7809 84.7582 32.4856C84.4629 32.4856 84.3152 32.4856 84.3152 32.4856Z" fill="#464B44"/>
<path d="M101.001 30.123C101.001 29.9753 101.296 29.9753 101.444 29.9753C102.773 29.9753 103.216 31.009 103.216 31.009C103.216 31.3043 103.068 31.452 102.625 31.8949C102.477 32.0426 102.477 32.0426 102.477 32.1903C102.477 32.3379 102.773 32.3379 102.773 32.3379C102.92 32.3379 104.397 32.1903 105.578 31.5996C105.874 31.452 106.317 31.3043 106.464 31.3043C106.612 31.3043 106.76 31.3043 107.498 31.7473C107.646 31.7473 108.089 32.0426 108.236 32.1903C108.384 32.3379 108.532 32.4856 108.532 32.6333C108.532 32.9286 108.384 32.9286 107.793 33.3716C107.646 33.5192 107.498 33.6669 106.907 34.5529C106.021 36.0295 103.954 39.1304 100.263 41.493C98.1953 42.8219 96.7187 43.2649 96.571 43.2649C96.4233 43.2649 96.4233 43.1173 96.4233 43.1173C96.4233 42.9696 96.4233 42.9696 97.014 42.6743C102.625 39.5734 106.169 33.2239 106.169 32.6333C106.169 32.4856 106.021 32.4856 106.021 32.4856C106.021 32.4856 103.363 33.0762 102.92 33.0762C102.773 33.0762 102.33 33.0762 102.182 33.0762C101.887 33.0762 101.739 33.0762 101.001 33.9622C99.8196 35.2912 99.3766 35.7342 98.4906 36.3248C97.7523 36.9155 96.8663 37.3584 96.7187 37.3584C96.571 37.3584 96.571 37.3584 96.571 37.2108C96.571 37.0631 97.7523 36.0295 98.0476 35.8818C99.5242 34.4052 101.296 31.8949 101.149 30.7137C101.149 30.7137 101.001 30.2707 101.001 30.123Z" fill="#464B44"/>
<path d="M120.64 36.1771C120.64 35.4388 121.23 34.9958 121.821 34.9958C122.559 34.9958 123.002 35.5865 123.002 36.1771C123.002 36.9155 122.412 37.3584 121.821 37.3584C121.083 37.3584 120.64 36.9155 120.64 36.1771Z" fill="#464B44"/>
<path d="M144.118 43.1173C143.675 43.1173 143.527 42.9697 142.642 41.936C141.46 40.6071 139.541 39.5734 137.769 38.9828C137.326 38.6875 137.326 38.6875 137.326 38.5398C137.326 38.3922 137.621 38.3922 137.621 38.3922C139.393 38.3922 145.004 39.8688 145.004 42.0837C145.004 42.822 144.561 43.1173 144.118 43.1173ZM142.937 35.8819C142.937 36.1772 142.642 36.6202 142.346 36.6202C141.903 36.6202 141.756 36.4725 140.574 35.5866C140.131 35.2913 139.688 34.9959 137.916 34.4053C137.769 34.4053 137.621 34.4053 137.621 34.2576C137.621 34.11 137.769 34.11 138.802 34.11C139.688 33.9623 142.937 34.2576 142.937 35.8819ZM139.393 29.8278C141.165 29.8278 144.561 30.2707 144.561 32.0427C144.561 32.4857 144.118 32.6333 143.97 32.6333C143.675 32.6333 143.38 32.338 142.642 31.895C141.608 31.1567 141.46 31.0091 139.098 30.2707C138.655 30.1231 138.655 30.1231 138.655 29.9754C138.655 29.8278 138.95 29.8278 139.393 29.8278Z" fill="#464B44"/>
<path d="M158.146 29.2371C158.884 29.2371 160.213 29.8277 160.213 30.4184C160.213 30.566 160.065 31.1567 160.065 31.1567C159.918 31.5997 159.918 33.2239 159.918 33.8146C159.918 34.2576 160.065 34.2576 160.508 34.4052C161.69 34.7006 164.495 36.0295 164.495 37.3585C164.495 37.9491 163.905 37.9491 163.757 37.9491C163.314 37.9491 163.314 37.9491 161.985 36.3248C161.394 35.5865 160.656 34.7006 160.065 34.7006C159.918 34.7006 159.77 34.7006 159.77 36.0295C159.77 37.9491 159.77 38.9828 159.918 40.607C159.918 40.7547 159.918 41.3454 159.918 41.493C159.918 41.936 159.918 43.1173 159.327 43.1173C158.736 43.1173 158.293 41.7883 158.293 41.3454C158.293 41.1977 158.293 40.9024 158.293 40.7547C158.589 39.1304 158.441 38.6874 158.441 36.4725C158.441 31.009 158.441 30.566 158.146 29.9754C157.998 29.5324 157.85 29.3847 157.555 29.0894C157.703 29.2371 158.146 29.2371 158.146 29.2371ZM165.972 32.4856C165.972 32.781 165.824 33.2239 165.381 33.2239C165.086 33.2239 164.938 33.0763 164.495 32.338C164.2 31.895 163.905 31.7473 163.314 31.1567C163.166 31.1567 163.019 30.8614 163.019 30.8614C163.019 30.7137 163.166 30.7137 163.314 30.7137C164.643 30.7137 165.972 31.5997 165.972 32.4856ZM167.449 30.4184C167.449 30.566 167.301 31.009 167.006 31.009C166.563 31.009 166.415 30.7137 165.972 30.2707C165.677 29.9754 164.938 29.3847 164.348 29.2371C164.2 29.0894 164.052 29.0894 164.052 29.0894C164.052 28.9417 164.348 28.7941 164.791 28.7941C166.267 28.6464 167.449 29.3847 167.449 30.4184Z" fill="#464B44"/>
<path d="M176.751 37.2108C175.57 39.5734 173.651 40.7547 173.355 40.7547C173.355 40.7547 173.208 40.7547 173.208 40.6071C173.208 40.4594 173.798 39.8688 173.946 39.5734C176.013 36.7679 176.161 34.7006 176.161 34.1099C176.161 33.667 176.161 33.3716 175.865 32.4857C175.865 32.338 175.865 32.1903 175.865 32.1903C175.865 32.1903 175.865 32.0427 176.013 32.0427C176.161 32.0427 178.08 32.6333 178.08 33.667C178.08 33.8146 177.047 36.4725 176.751 37.2108ZM179.852 38.8351C179.852 38.6875 180 38.2445 180 38.0968C180 37.8015 180 36.3249 180 35.8819C180 33.667 179.705 32.9286 179.705 32.338C179.705 32.1903 179.409 31.7474 179.409 31.5997C179.409 31.452 179.409 31.452 179.557 31.452C179.705 31.452 181.624 31.7474 181.624 32.781C181.624 33.0763 181.329 33.9623 181.329 34.1099C181.181 34.5529 181.181 36.9155 181.181 37.5062C181.181 37.8015 181.181 38.0968 181.477 38.0968C182.067 38.0968 183.692 36.9155 185.463 35.1436C185.759 34.8483 187.383 33.224 187.383 33.224H187.531C187.531 33.3716 186.497 35.7342 183.249 38.5398C182.215 39.4258 182.067 39.5734 181.92 39.7211C181.624 40.0164 181.477 40.1641 181.329 40.1641C180.738 40.4594 179.852 39.4258 179.852 38.8351Z" fill="#464B44"/>
<path d="M195.947 30.123C196.39 30.123 197.424 30.7136 197.424 31.1566C197.424 31.3043 197.424 31.7473 197.424 31.7473C197.424 33.9622 197.424 35.5865 197.424 36.0295C197.424 36.3248 197.572 37.2108 197.572 37.3584C197.572 37.8014 197.129 38.2444 196.833 38.2444C196.39 38.2444 195.947 37.2108 195.947 36.7678C195.947 36.6201 196.095 36.0295 196.095 35.8818C196.095 34.9958 196.095 34.2575 196.095 33.9622C196.095 31.8949 195.947 31.4519 195.357 30.8613C195.209 30.7136 195.062 30.566 195.062 30.4183C195.209 30.2707 195.504 30.123 195.947 30.123ZM201.116 29.68C200.82 29.3847 200.82 29.3847 200.82 29.237C200.82 29.237 200.82 29.0894 201.411 29.0894C202.592 29.0894 203.478 29.5323 203.478 29.9753C203.478 30.123 203.331 30.566 203.331 30.7136C203.331 31.1566 203.183 33.9622 203.183 34.7005C203.035 36.0295 202.74 40.0163 198.605 43.2649C198.015 43.7079 197.129 44.2985 196.981 44.2985C196.981 44.2985 196.833 44.2985 196.833 44.1509C196.833 44.0032 198.015 42.8219 198.31 42.6743C201.854 38.835 202.002 35.5865 202.002 31.8949C201.854 30.7136 201.411 30.123 201.116 29.68Z" fill="#464B44"/>
<path d="M213.077 42.9696C216.916 40.7547 219.426 37.8015 219.426 37.2108C219.426 36.6202 217.211 35.2912 216.768 35.2912C216.325 35.2912 214.11 37.6538 213.52 37.6538C213.52 37.6538 213.372 37.6538 213.372 37.5061C213.372 37.3585 213.963 36.7678 214.11 36.7678C216.325 34.4052 217.802 31.7473 217.802 30.7137C217.802 30.566 217.506 29.9754 217.506 29.8277C217.506 29.6801 217.802 29.6801 217.802 29.6801C218.835 29.6801 219.426 30.4184 219.426 30.7137C219.426 30.8613 219.278 31.3043 219.278 31.452C219.278 31.7473 219.721 31.7473 219.869 31.7473C220.755 31.7473 222.379 31.452 222.675 31.3043C222.822 31.3043 223.265 30.8613 223.413 30.8613C223.561 30.8613 224.89 31.7473 224.89 32.338C224.89 32.6333 224.742 32.6333 224.447 32.781C224.151 32.9286 224.151 33.0763 223.561 33.8146C223.265 34.2576 222.084 36.0295 221.789 36.3248C221.641 36.6202 221.641 36.6202 221.641 36.7678C221.641 36.9155 221.641 36.9155 221.936 37.3585C222.379 37.9491 222.675 38.3921 222.675 38.9828C222.675 39.8687 221.936 39.8687 221.936 39.8687C221.493 39.8687 221.493 39.7211 220.755 38.5398C220.755 38.3921 220.46 38.0968 220.312 38.0968C220.164 38.0968 220.017 38.2444 219.721 38.6874C216.62 42.0837 213.077 43.1173 212.929 43.1173C212.929 43.1173 212.781 43.1173 212.781 42.9696C212.781 43.1173 212.781 43.1173 213.077 42.9696ZM222.527 32.6333C222.527 32.4856 222.379 32.338 222.232 32.338C221.936 32.338 220.312 32.6333 220.017 32.6333C219.721 32.6333 219.574 32.6333 219.426 32.4856C219.278 32.4856 219.131 32.338 218.983 32.338C218.983 32.338 218.835 32.338 218.688 32.4856C218.688 32.4856 217.063 34.4052 217.063 34.5529C217.063 34.8482 217.211 34.8482 217.654 34.9959C218.245 35.2912 218.392 35.2912 219.721 35.8819C219.721 35.8819 220.017 36.0295 220.164 36.0295C220.755 36.1772 222.527 33.2239 222.527 32.6333Z" fill="#464B44"/>
<path d="M244.085 35.4388C244.233 35.4388 244.381 35.4388 244.528 35.4388C245.709 35.4388 245.857 36.1772 245.857 36.3248C245.857 36.9155 245.119 36.9155 244.38 36.9155C243.938 36.9155 242.166 36.9155 241.723 36.9155C239.212 36.9155 234.93 37.2108 234.487 37.2108C234.192 37.2108 233.306 37.5061 233.011 37.5061C232.272 37.5061 231.386 36.3248 231.386 35.7342C231.386 35.5865 231.386 35.4388 231.534 35.4388C231.682 35.4388 232.125 35.5865 232.125 35.7342C232.42 35.8818 233.158 35.8818 234.339 35.8818C234.782 35.7342 241.28 35.5865 244.085 35.4388Z" fill="#464B44"/>
<path d="M257.818 39.8687C257.375 40.164 256.342 40.9023 256.046 41.3453C255.751 41.7883 255.603 41.7883 255.308 41.7883C254.274 41.7883 252.945 40.607 252.945 39.8687C252.945 39.7211 252.945 38.8351 253.093 38.8351C253.241 38.8351 253.536 39.1304 253.684 39.1304C253.979 39.2781 254.57 39.5734 255.013 39.5734C255.899 39.5734 260.771 36.3248 263.872 33.2239C264.168 32.9286 264.758 32.3379 264.758 32.3379C264.758 32.3379 264.906 32.3379 264.906 32.4856C264.758 32.9286 262.543 36.3248 257.818 39.8687ZM256.194 33.8146C255.751 33.8146 255.456 33.5192 254.865 32.6333C254.274 31.7473 253.684 31.452 253.241 31.1567C253.093 31.1567 253.093 31.009 253.093 31.009C253.093 31.009 253.241 30.8613 253.536 30.8613C255.456 30.8613 257.08 31.895 257.08 33.0763C257.08 33.3716 256.785 33.8146 256.194 33.8146Z" fill="#464B44"/>
</g>
<defs>
<clipPath id="clip0">
<rect width="275.685" height="180" fill="white"/>
</clipPath>
</defs>
</svg>
