<svg width="156" height="48" viewBox="0 0 156 48" fill="none" xmlns="http://www.w3.org/2000/svg">
<g clip-path="url(#clip0_1211_2281)">
<path d="M24 48C10.8 48 0 37.3 0 24C0 10.7 10.8 0 24 0C37.2 0 48 10.8 48 24C48 37.2 37.3 48 24 48ZM24 0.6C11.1 0.6 0.6 11.1 0.6 24C0.6 36.9 11.1 47.4 24 47.4C36.9 47.4 47.4 36.9 47.4 24C47.5 11.1 36.9 0.6 24 0.6Z" fill="white"/>
<path d="M28.2999 28L30.8999 28.5V25.7L28.2999 25V28Z" fill="white"/>
<path d="M24 21.2L27.1 22.1V19L24 17.9V21.2Z" fill="white"/>
<path d="M32.1 28.7L34.4 29.1V26.5L32.1 26V28.7Z" fill="white"/>
<path d="M24 27.2L27.1 27.8V24.7L24 24V27.2Z" fill="white"/>
<path d="M19.7999 30L20.3999 29.9V19.8L16.2999 22.5L19.7999 30Z" fill="white"/>
<path d="M28.2999 22.4L30.8999 23.2V20.4L28.2999 19.5V22.4Z" fill="white"/>
<path d="M35.6 24.6L37.6 25.2V22.8L35.6 22.1V24.6Z" fill="white"/>
<path d="M24 2.59998C12.2 2.59998 2.59998 12.2 2.59998 24C2.59998 35.8 12.2 45.4 24 45.4C35.8 45.4 45.4 35.8 45.4 24C45.4 12.2 35.8 2.59998 24 2.59998ZM19.8 34.8L14 22.4V22.1C14 21.8 14 21.7 14.7 21.2C15.5 20.6 17.1 19.5 20.2 17.3L20.3 17.2V12L10.3 19V34.9H8.29998V17.9L21.4 8.99998L39.7 21.5V34.9H19.8V34.8Z" fill="white"/>
<path d="M32.1 23.5L34.4 24.2V21.6L32.1 20.8V23.5Z" fill="white"/>
<path d="M35.6 29.3L37.6 29.7V27.3L35.6 26.8V29.3Z" fill="white"/>
<path d="M58.7 13.7V25.4C58.7 25.6 58.6 25.8 58.3 25.8H54.5C54.2 25.8 54.1 25.7 54.1 25.4V13.7C54.1 13.5 54.2 13.3 54.5 13.3H58.3C58.5 13.3 58.7 13.4 58.7 13.7ZM74.4 13.7V21.6C74.4 27 72.8 31.1 69.6 33.6C67.4 35.4 64.3 36.5 60.2 37.1C59.9 37.1 59.8 37 59.8 36.7V35.1C59.8 34.9 59.9 34.8 60.1 34.7C66.6 33.3 69.8 28.9 69.8 21.5V13.6C69.8 13.4 69.9 13.2 70.2 13.2H74C74.3 13.3 74.4 13.4 74.4 13.7Z" fill="white"/>
<path d="M98 24.5C96.5 26.8 94.2 28.7 91 30.3C92.9 31.3 94.7 32.7 96.2 34.2C96.4 34.4 96.4 34.6 96.2 34.7L94 37C93.9 37.1 93.8 37.1 93.7 37.1C93.6 37.1 93.5 37.1 93.4 36.9C90.7 33.6 86.5 31.1 80.7 29.3C80.5 29.2 80.4 29.1 80.4 29V27.4C80.4 27.1 80.6 27 80.9 27.1C83.8 27.6 86.2 28.3 88.2 29C90.8 27.5 92.6 25.8 93.8 23.8C95 21.8 95.6 19.3 95.6 16.4H78.4C78.2 16.4 78 16.3 78 16V14.4C78 14.2 78.1 14 78.4 14H99.8C100 14 100.2 14.1 100.2 14.4V16C100.2 19.4 99.4 22.2 98 24.5Z" fill="white"/>
<path d="M126.3 13.7V20.2C126.3 24.7 125 28.4 122.4 31.4C119.8 34.4 116.3 36.3 111.7 37.1C111.4 37.1 111.3 37 111.3 36.7V35.1C111.3 34.9 111.4 34.8 111.6 34.7C114.8 33.8 117.3 32 119.1 29.4C120.9 26.8 121.8 23.7 121.8 20.1V15.5H108.8V24.2C108.8 24.4 108.7 24.6 108.4 24.6H104.6C104.3 24.6 104.2 24.5 104.2 24.2V13.7C104.2 13.5 104.3 13.3 104.6 13.3H126C126.2 13.3 126.3 13.4 126.3 13.7Z" fill="white"/>
<path d="M139 14.1V20.4C139 25.5 138.3 29.4 136.8 32.1C135.6 34.3 133.7 35.9 131 37.1C130.9 37.2 130.8 37.2 130.6 37.1C130.5 37 130.4 36.9 130.4 36.8V35.2C130.4 35.1 130.5 35 130.6 34.9C132.1 33.8 133.1 32.2 133.6 30.1C134.1 28.1 134.4 24.8 134.4 20.4V14.1C134.4 13.9 134.5 13.7 134.8 13.7H138.6C138.8 13.7 139 13.8 139 14.1ZM155.8 22.8C154.7 30.2 150.3 34.9 142.6 37.1C142.3 37.2 142.1 37.1 142.1 36.7V13.7C142.1 13.5 142.2 13.3 142.5 13.3H146.3C146.5 13.3 146.7 13.4 146.7 13.7V31.3C148.4 30.4 149.8 29.3 150.9 27.8C152.2 26.2 153 24.5 153.4 22.6C153.4 22.4 153.5 22.3 153.7 22.3H155.3C155.7 22.4 155.8 22.5 155.8 22.8Z" fill="white"/>
</g>
<defs>
<clipPath id="clip0_1211_2281">
<rect width="155.8" height="48" fill="white"/>
</clipPath>
</defs>
</svg>
