<svg width="614" height="325" viewBox="0 0 614 325" fill="none" xmlns="http://www.w3.org/2000/svg">
<path d="M307 172C259.577 172 221 133.423 221 86C221 38.5774 259.577 0 307 0C354.423 0 393 38.5774 393 86C393 133.423 354.423 172 307 172ZM307 2.14562C260.76 2.14562 223.146 39.7597 223.146 86C223.146 132.24 260.76 169.898 307 169.898C353.24 169.898 390.898 132.24 390.898 86C390.898 39.7597 353.24 2.14562 307 2.14562Z" fill="white"/>
<path d="M322.282 100.143L331.565 101.895V91.9113L322.282 89.6343V100.143Z" fill="white"/>
<path d="M307 75.7536L317.859 78.9939V68.0469L307 64.106V75.7536Z" fill="white"/>
<path d="M335.988 102.683L344.089 104.172V94.9329L335.988 92.9624V102.683Z" fill="white"/>
<path d="M307 97.3848L317.859 99.399V88.4958L307 85.8247V97.3848Z" fill="white"/>
<path d="M292.025 107.544L294.039 107.106V70.7617L279.458 80.7016L292.025 107.544Z" fill="white"/>
<path d="M322.282 80.2637L331.565 83.0662V73.0387L322.282 69.667V80.2637Z" fill="white"/>
<path d="M348.512 88.1017L355.737 90.2474V81.7962L348.512 79.1689V88.1017Z" fill="white"/>
<path d="M307 9.37061C264.657 9.37061 230.327 43.7006 230.327 86.0437C230.327 128.387 264.657 162.717 307 162.717C349.343 162.717 383.673 128.387 383.673 86.0437C383.673 43.6568 349.343 9.37061 307 9.37061ZM292.025 124.709L271.269 80.3513L271.225 79.4317C271.225 78.5122 271.225 78.1181 273.677 76.1914C276.524 73.9582 282.216 70.061 293.557 62.3105L294.039 62.004V43.3064L258.045 67.8716V124.665H250.82V64.0621L297.673 32.0967L363.224 76.8044V124.665H292.025V124.709Z" fill="white"/>
<path d="M335.988 84.2923L344.089 86.7006V77.5051L335.988 74.5713V84.2923Z" fill="white"/>
<path d="M348.512 105.004L355.737 106.362V97.8229L348.512 96.0276V105.004Z" fill="white"/>
<g clip-path="url(#clip0)">
<path d="M184 218.9C183.9 219.2 183.5 219.4 183 219.4C181 224.3 177.3 230.7 173.2 234.9C172.6 234.3 171.3 233.5 170.5 233C174.6 229.1 178.2 222.9 179.9 217.9L184 218.9ZM207.2 232.6C207.1 232.9 206.8 233.1 206.2 233.1C201.8 245.2 192.6 251.6 175.5 254.2C175.2 253.2 174.5 252 173.9 251.2C190.4 249 199.2 243.2 203.2 231.5L207.2 232.6ZM190.2 212.1L194.2 212.3C194.1 212.6 193.9 212.8 193.3 212.9V235.6C193.3 237.6 192.8 238.5 191.3 239C189.8 239.5 187.4 239.5 183.5 239.5C183.4 238.6 182.9 237.3 182.4 236.4C184.3 236.4 186 236.5 187.3 236.5C190 236.5 190.2 236.5 190.2 235.5V212.1ZM210 234.3C208.4 230.1 204.1 223.6 200.1 218.9L202.8 217.5C206.8 222.1 211.2 228.4 213 232.6L210 234.3Z" fill="white"/>
<path d="M235.1 240.5C234.7 240.1 234.3 239.7 233.9 239.3V251.2H223.1V253.4H220.4V240.6C219.7 241 219 241.3 218.4 241.6C218 241 217.3 240 216.7 239.4C220 238 223.4 235.8 226.2 233C224.7 231.8 223.1 230.7 221.6 229.6C220.6 230.6 219.6 231.5 218.6 232.2C218.1 231.7 217.2 230.9 216.6 230.4C219.9 228.1 223.1 224.1 224.9 219.9L228.1 220.9C228 221.2 227.7 221.3 227.1 221.3C226.8 222 226.4 222.7 226.1 223.3H232.4L232.9 223.2C233.9 223.7 234.4 223.9 234.8 224.1C234.7 224.3 234.5 224.4 234.3 224.6C233.3 227.5 231.8 230.1 229.9 232.4C232.7 234.5 235.2 236.5 236.8 238.2L235.1 240.5ZM220.4 219.1V223.5H217.8V216.5H225.7V212L229.5 212.2C229.5 212.5 229.2 212.7 228.6 212.8V216.4H236.5V223.4H233.8V219.1H220.4ZM233.8 239.2C232.3 237.8 230.3 236.2 228.3 234.6C226.6 236.4 224.7 237.9 222.7 239.2H233.8ZM231.1 248.7V241.7H223V248.7H231.1ZM224.7 225.8C224.2 226.5 223.7 227.1 223.2 227.7C224.7 228.7 226.2 229.8 227.8 230.9C229.1 229.3 230.2 227.6 231 225.7H224.7V225.8ZM245.9 248.1C245.8 248.2 245.5 248.4 245.1 248.4C243.3 250.4 239.4 252.8 236.1 254.1C235.6 253.5 234.7 252.6 234 252.1C237.4 250.8 241.2 248.6 242.9 246.6L245.9 248.1ZM239 221.7H245.2C245.6 220.2 246 218.5 246.2 217H237.2V214.3H259.3V217H249.2C248.9 218.4 248.5 220.1 248 221.7H257.3V245.6H239V221.7ZM254.4 228.9V224.2H241.8V228.9H254.4ZM254.4 235.9V231.1H241.8V235.9H254.4ZM254.4 243.1V238.3H241.8V243.1H254.4ZM257.5 254.4C255.8 252.7 252.4 250.1 249.7 248.3L252 246.8C254.7 248.5 258.2 251 260 252.7L257.5 254.4Z" fill="white"/>
<path d="M265.9 241.7C269.3 244.4 273.7 248.9 276.1 251.7L273.4 254.2C271.1 251.3 266.5 246.5 263.5 243.8L265.9 241.7Z" fill="white"/>
<path d="M302.3 233.9C302.2 235.1 302 236.4 301.8 237.7C303.6 239.6 308 245.2 309.1 246.7L307.1 249.2C306 247.3 303.1 243.4 301.1 240.8C299.8 245.3 297.4 249.8 293.2 253.4C292.8 252.8 291.7 251.7 291.1 251.3C297 246.4 298.9 239.9 299.5 234H291.3V231.1H299.7C299.7 230.2 299.7 229.4 299.7 228.6V221H296.6C295.8 224.1 294.8 226.9 293.6 228.9C293.1 228.4 292 227.7 291.3 227.4C293.3 223.9 294.7 217.9 295.5 212L299.1 212.8C299 213.1 298.7 213.3 298.2 213.3C298 214.9 297.7 216.6 297.3 218.2H308.9V221H302.7V228.6C302.7 229.4 302.7 230.2 302.7 231.1H309.5V234H302.3V233.9ZM307.3 250.1H333.2V253H307.3V250.1ZM332.7 214.1V217H309.3V214.1H332.7ZM330.4 222.6V236.7H311.3V222.6H330.4ZM315.3 238.4C316.5 241.5 317.6 245.6 317.9 248.3L315.1 249.1C314.8 246.4 313.8 242.3 312.7 239.1L315.3 238.4ZM327.5 233.9V225.3H314.2V233.9H327.5ZM329.9 239.1C329.8 239.4 329.4 239.6 328.9 239.6C328 242.5 326.4 246.9 325.1 249.6C324.6 249.4 323.3 249 322.7 248.8C323.9 246 325.4 241.4 326.1 238.1L329.9 239.1Z" fill="white"/>
<path d="M360 240.2V243H337.2V240.2H341.8V221H337.9V218.3H341.8V212.6L345.5 212.8C345.5 213.1 345.2 213.3 344.6 213.4V218.3H353.4V212.6L357.1 212.8C357.1 213.1 356.8 213.3 356.2 213.4V218.3H359.6V221H356.2V240.1H360V240.2ZM347.3 245.2C347.2 245.5 346.8 245.6 346.3 245.6C344.7 248.6 342.2 252 339.7 254.1C339.2 253.6 338.1 252.8 337.4 252.4C339.8 250.5 342.2 247.2 343.7 244L347.3 245.2ZM353.4 221H344.6V225.5H353.4V221ZM344.6 228.1V232.7H353.4V228.1H344.6ZM344.6 235.1V240.1H353.4V235.1H344.6ZM378 214.4V250.4C378 254.1 376.3 254.3 369.5 254.3C369.4 253.5 369 252.2 368.5 251.4C370 251.4 371.4 251.5 372.4 251.5C374.7 251.5 375 251.5 375 250.5V238.5H364.7C364.2 244.1 362.7 250.1 359.3 254.5C358.8 253.9 357.6 253 356.9 252.7C357.4 252.2 357.8 251.6 358.2 250.9C358.1 250.9 356.2 252.1 355.7 252.4C354.8 250.5 352.8 247.5 351 245.4L353.4 244.1C355.2 246.2 357.3 249 358.2 250.9C361.7 245 362.1 237.2 362.1 231.2V214.4H378ZM365 231C365 232.5 365 234 364.9 235.7H375V227.7H365V231ZM375 217.2H365V225H375V217.2Z" fill="white"/>
<path d="M401.7 229.7H388.2V254.2H385.2V214H401.7V229.7ZM398.8 216.4H388.2V220.6H398.8V216.4ZM388.2 227.3H398.8V222.9H388.2V227.3ZM412.4 249.9H398.1V252.3H395.3V233.3H412.4V249.9ZM409.5 235.7H398.1V240.2H409.5V235.7ZM398.1 247.4H409.5V242.6H398.1V247.4ZM422.9 214V250C422.9 254 421.1 254.2 413.3 254.2C413.2 253.3 412.7 251.9 412.3 251C413.8 251 415.2 251.1 416.3 251.1C419.6 251.1 419.9 251.1 419.9 250V229.7H406V214H422.9ZM419.9 216.4H409V220.6H419.9V216.4ZM409 227.3H419.9V222.9H409V227.3Z" fill="white"/>
<path d="M442 247.8C442 251.3 439.1 254.1 435.7 254.1C432.2 254.1 429.4 251.2 429.4 247.8C429.4 244.3 432.3 241.5 435.7 241.5C439.3 241.5 442 244.4 442 247.8ZM440.4 247.8C440.4 245.2 438.3 243.1 435.7 243.1C433.1 243.1 431 245.2 431 247.8C431 250.4 433.1 252.5 435.7 252.5C438.4 252.5 440.4 250.3 440.4 247.8Z" fill="white"/>
<path d="M419.7 277.1V295C419.7 295.4 419.5 295.6 419.1 295.6H413.3C412.9 295.6 412.7 295.4 412.7 295V277.1C412.7 276.7 412.9 276.5 413.3 276.5H419.1C419.5 276.6 419.7 276.8 419.7 277.1ZM443.8 277.1V289.1C443.8 297.4 441.4 303.5 436.5 307.5C433.1 310.2 428.4 312 422.2 312.8C421.8 312.9 421.5 312.7 421.5 312.2V309.8C421.5 309.5 421.7 309.3 422 309.2C431.9 307 436.9 300.3 436.9 289V277C436.9 276.6 437.1 276.4 437.5 276.4H443.3C443.6 276.6 443.8 276.8 443.8 277.1Z" fill="white"/>
<path d="M479.7 293.6C477.4 297.1 473.9 300.1 469.1 302.5C472 304.1 474.7 306.1 477.1 308.5C477.4 308.8 477.4 309 477.1 309.3L473.7 312.7C473.6 312.8 473.4 312.9 473.3 312.9C473.1 312.9 473 312.8 472.9 312.7C468.8 307.7 462.3 303.8 453.4 301.1C453.1 301 453 300.8 453 300.6V298.2C453 297.8 453.2 297.6 453.7 297.7C458.1 298.5 461.8 299.5 464.8 300.7C468.7 298.4 471.5 295.8 473.3 292.7C475.1 289.6 476 285.9 476.1 281.4H449.8C449.4 281.4 449.2 281.2 449.2 280.8V278.4C449.2 278 449.4 277.8 449.8 277.8H482.5C482.9 277.8 483.1 278 483.1 278.4V280.8C483.1 285.8 482 290.1 479.7 293.6Z" fill="white"/>
<path d="M523 277.1V287C523 293.8 521 299.5 517.1 304.1C513.2 308.7 507.7 311.6 500.8 312.8C500.3 312.9 500.1 312.7 500.1 312.2V309.8C500.1 309.5 500.2 309.3 500.5 309.2C505.4 307.8 509.1 305.1 511.9 301.1C514.6 297.2 516 292.4 516 286.9V279.9H496.1V293.2C496.1 293.6 495.9 293.8 495.5 293.8H489.7C489.3 293.8 489.1 293.6 489.1 293.2V277.1C489.1 276.7 489.3 276.5 489.7 276.5H522.4C522.8 276.6 523 276.8 523 277.1Z" fill="white"/>
<path d="M542.3 277.7V287.3C542.3 295.1 541.2 301.1 538.9 305.1C537.1 308.4 534.1 311 530 312.7C529.8 312.8 529.6 312.8 529.4 312.7C529.2 312.6 529.1 312.4 529.1 312.2V309.8C529.1 309.6 529.2 309.5 529.3 309.3C531.5 307.6 533.1 305.1 533.9 302C534.7 298.9 535.1 293.9 535.1 287.2V277.6C535.1 277.2 535.3 277 535.7 277H541.5C542.1 277.2 542.3 277.4 542.3 277.7ZM568 291C566.4 302.3 559.7 309.5 547.9 312.8C547.4 312.9 547.2 312.7 547.2 312.2V277.1C547.2 276.7 547.4 276.5 547.8 276.5H553.6C554 276.5 554.2 276.7 554.2 277.1V304C556.7 302.7 558.9 300.9 560.7 298.7C562.7 296.3 563.9 293.6 564.5 290.8C564.5 290.5 564.7 290.4 565 290.4H567.5C567.8 290.4 568 290.6 568 291Z" fill="white"/>
<path d="M62.4 298.6V301.6H43.2V311.7C43.2 314 42.5 314.9 40.9 315.4C39.2 315.9 36.3 316 31.4 315.9C31.2 315 30.6 313.7 30.1 312.9C32.3 313 34.4 313 36 313C39.9 313 40.2 313 40.2 311.7V301.6H21V298.6H40.1V290.9H24V288H40.1V280.7C35.1 281.3 29.9 281.7 25 282C24.9 281.2 24.5 280 24.2 279.4C35.2 278.7 48.4 277.2 55.1 274.8L57.7 277.4C57.6 277.5 57.4 277.5 57.2 277.5C57.1 277.5 57 277.5 56.8 277.5C53.5 278.6 49.1 279.4 44.2 280.2C44.1 280.5 43.9 280.7 43.3 280.7V288H59.9V290.9H43.2V298.6H62.4Z" fill="white"/>
<path d="M85.7998 307.8H77.2998V316.1H74.4998V307.8H65.7998V305H74.4998V301.1H67.5998V285.2H74.4998V281.7H66.2998V279H74.4998V273.9L78.1998 274.1C78.1998 274.4 77.8998 274.6 77.2998 274.7V279H85.2998V281.7H77.2998V285.2H84.3998V301.1H77.2998V305H85.7998V307.8ZM69.9998 287.6V292H74.6998V287.6H69.9998ZM69.9998 294.3V298.8H74.6998V294.3H69.9998ZM81.8998 292V287.6H76.9998V292H81.8998ZM81.8998 298.8V294.3H76.9998V298.8H81.8998ZM90.8998 278.9C92.1998 282.1 94.0998 285 96.5998 287.4C99.0998 285 101.2 282.1 102.5 278.9H86.1998V276.2H104.1L104.6 276.1L106.6 277C106.5 277.2 106.4 277.4 106.2 277.5C104.6 282.3 102 286.3 98.6998 289.4C101.5 291.6 104.9 293.3 108.6 294.3C108 294.9 107.1 296.1 106.7 296.8C102.8 295.6 99.3998 293.7 96.4998 291.3C93.3998 293.8 89.7998 295.7 86.1998 296.9C85.7998 296.1 85.0998 295 84.4998 294.4C87.9998 293.4 91.3998 291.6 94.3998 289.3C91.7998 286.6 89.6998 283.4 88.2998 279.7L90.8998 278.9ZM98.0998 303.5V312H108.2V314.8H84.4998V312H95.0998V303.5H87.0998V300.8H95.0998V294.7L98.9998 295C98.9998 295.3 98.6998 295.5 98.0998 295.6V300.8H106.3V303.5H98.0998Z" fill="white"/>
<path d="M127.1 275.2C127 275.6 126.5 275.9 125.7 276C125.4 278 125 280.4 124.6 282.1C129 281.8 134 281.1 137.9 279.9L138.4 283C134.2 284 129.2 284.8 124 285.2C121.8 293.9 118.8 301 114.4 307.5L111.4 306.3C115.5 300.4 118.7 293.6 120.6 285.3H111.6V282.4H117C118.4 282.4 119.9 282.4 121.2 282.4C121.7 280 122.2 277.4 122.5 274.7L127.1 275.2ZM139.2 294.5C139.2 298.2 139.5 300.7 139.8 303.8C142.7 304.9 146.5 306.9 149.5 309.1L147.9 312C145.4 310.1 142.3 308.3 139.9 307.2C139.9 311.7 138.1 315.3 131.4 315.3C126.4 315.3 122.5 313 122.6 308.8C122.6 304.3 127.4 302.1 131.5 302.1C133.1 302.1 134.8 302.4 136.6 302.9C136.4 300 136.2 297 136.2 294.9L139.2 294.5ZM136.7 305.8C134.8 305.1 132.9 304.8 131.3 304.8C128.6 304.8 125.4 305.9 125.3 308.7C125.3 311.3 127.8 312.5 131.4 312.5C134.7 312.5 136.8 310.9 136.8 307.9C136.8 307.2 136.8 306.5 136.7 305.8ZM149.1 289.8C144 289.8 137.8 290.7 133 292L132.5 289.1C137.7 287.6 143.9 286.7 148.9 286.7L149.1 289.8Z" fill="white"/>
<path d="M192.9 280.1H178.9C178.7 280.4 178.3 280.5 177.8 280.5C176.8 282.4 175.6 284.3 174.4 286.2L175.7 286.6C175.6 286.9 175.3 287.1 174.7 287.2V316H171.6V289.9C166.9 295.7 160.9 301.1 154.3 305C153.8 304.3 152.9 303.1 152.3 302.5C161.7 297.3 169.9 288.6 174.5 280.1H153.5V277.1H193V280.1H192.9ZM191.7 304.5C188.4 301.2 181.5 296.2 176 292.8L178.2 290.7C183.6 293.9 190.6 298.7 194.1 302L191.7 304.5Z" fill="white"/>
<path d="M237.3 284.7L238.9 284.8C238.9 285.1 238.9 285.5 238.9 285.8C238.4 305.8 237.9 312.1 236.4 314.1C235.2 315.8 233.7 315.8 231.7 315.8C230.6 315.8 229.3 315.8 228 315.7C227.9 314.8 227.6 313.6 227.1 312.8C229.4 313 231.4 313 232.4 313C233 313 233.4 312.9 233.8 312.3C234.9 310.9 235.5 304.8 235.9 287.6H229.1C229.1 296.9 228.1 308.1 219.3 316.2C218.8 315.7 217.7 314.7 216.9 314.3C217.8 313.5 218.5 312.7 219.3 311.9C211.8 312.9 204 313.8 199 314.4C198.9 314.7 198.6 314.9 198.4 315L197.3 311.7C200 311.5 203.6 311.1 207.4 310.7V306.4H198.6V304H207.4V300.9H199V287.4H207.5V284.2H197.4V281.8H207.5V278.6C204.6 278.9 201.5 279.1 198.7 279.3C198.6 278.7 198.2 277.7 197.9 277C204.7 276.6 212.9 275.6 217.4 274.5L219.7 276.8C219.6 276.9 219.5 276.9 219.3 276.9C219.2 276.9 219 276.9 218.8 276.9C216.8 277.4 214 277.9 211.1 278.3C211 278.4 210.7 278.5 210.4 278.6V282H220.6V284.4H210.4V287.6H219.4V301H210.4V304.1H219.7V306.5H210.4V310.5C213.5 310.2 216.7 309.9 219.8 309.5V311.4C225.6 304.1 226.2 295.1 226.2 287.7H220.5V284.8H226.2V274.2L230 274.5C230 274.8 229.7 275 229.1 275.1V284.7H237.3ZM201.6 289.6V293H207.5V289.6H201.6ZM201.6 298.6H207.5V295.2H201.6V298.6ZM216.6 289.6H210.3V293H216.6V289.6ZM216.6 298.6V295.2H210.3V298.6H216.6Z" fill="white"/>
<path d="M275.7 281.6C275.5 281.9 275.2 282 274.7 282C273.9 283.7 272.7 286 271.7 287.7H284V290.4H249.3V294.8C249.3 300.9 248.6 309.8 244.5 316.1C244 315.5 242.8 314.5 242.1 314.1C245.9 308.3 246.3 300.3 246.3 294.8V287.6H255.4C255 285.9 254 283.3 252.9 281.3L255.5 280.6H245.7V277.9H262V273.6L265.9 273.8C265.9 274.1 265.6 274.3 265 274.4V277.8H281.7V280.5H273L275.7 281.6ZM268.5 306.1V312.3H283.8V315H250.8V312.3H265.4V306.1H255V303.6H265.4V298.5H256.5C255.5 300.2 254.3 301.8 253.1 303C252.5 302.6 251.5 302 250.8 301.6C253.1 299.4 255.3 295.6 256.6 291.8L260 292.8C259.9 293.1 259.5 293.3 259.1 293.2C258.7 294.1 258.4 295 257.9 295.9H265.4V291.6L269.3 291.8C269.3 292.1 269 292.3 268.4 292.4V296H281V298.5H268.4V303.6H280V306.1H268.5ZM269 287C269.9 285.3 271 282.7 271.7 280.7H255.6C256.8 282.7 258 285.2 258.3 287L256 287.7H270.7L269 287Z" fill="white"/>
<path d="M303 296.6L297.7 298.5V312.2C297.7 315.5 296.2 316 290.2 315.9C290.1 315.2 289.6 313.9 289.2 313.1C291.3 313.1 293.3 313.1 293.9 313.1C294.5 313.1 294.8 312.9 294.8 312.2V299.6C292.7 300.4 290.7 301.1 289.2 301.6C289.2 302 289 302.2 288.7 302.3L287.4 298.7C289.4 298.2 292 297.4 294.8 296.5V285.9H287.9V283H294.8V273.8L298.7 274C298.7 274.4 298.4 274.5 297.8 274.6V283H303V285.9H297.8V295.6L302.7 294.1L303 296.6ZM324.7 293.6L326.7 294.5C326.6 294.7 326.4 294.8 326.3 295C324.6 300.3 321.7 304.5 318 307.9C321.4 310.4 325.5 312.3 330.2 313.3C329.5 313.9 328.6 315.2 328.2 316C323.3 314.7 319 312.7 315.5 309.9C311.6 312.7 307.2 314.8 302.5 316C302.2 315.2 301.5 314 300.8 313.3C305.2 312.3 309.5 310.4 313.2 307.8C310.3 304.9 308 301.4 306.4 297.3L308.7 296.6H304.7V293.8H323.9L324.7 293.6ZM310.5 278.6V280.4C310.5 284.3 309.3 289.3 304.3 292.6C303.9 292 302.8 290.8 302.2 290.4C306.8 287.5 307.6 283.6 307.6 280.4V275.8H322.6V287C322.6 288 322.8 288.2 323.6 288.2H326.3C327.2 288.2 327.4 287.5 327.5 282.6C328.1 283.1 329.3 283.6 330.1 283.8C329.9 289.4 329.1 290.8 326.7 290.8H323.2C320.5 290.8 319.7 290 319.7 287V278.7H310.5V278.6ZM309.4 296.6C310.9 300.2 313 303.4 315.7 305.9C318.6 303.4 320.9 300.2 322.5 296.6H309.4Z" fill="white"/>
<path d="M334.2 287.1C337.5 286.2 342.3 284.8 347.1 283.5L347.5 285.9C343.3 287.3 339 288.7 336.2 289.5C336.2 289.9 335.9 290.1 335.7 290.2L334.2 287.1ZM351.4 310.9C351.2 311.1 350.9 311.3 350.4 311.2C346.8 313 341.2 314.9 336.7 316.1C336.2 315.5 335.2 314.4 334.6 313.9C339 312.9 344.7 311.2 348.1 309.4L351.4 310.9ZM337.9 274.9C341.1 275.8 345.3 277.3 347.6 278.5L346.2 280.9C344 279.7 339.8 278 336.5 277L337.9 274.9ZM340.4 308.7V290.1H370.2V308.7H340.4ZM343.3 292.3V295.6H367.1V292.3H343.3ZM343.3 297.6V301H367.1V297.6H343.3ZM343.3 303.1V306.5H367.1V303.1H343.3ZM362.7 279.6C363.8 283.3 366.4 286.8 375.9 288.2C375.3 288.8 374.6 289.9 374.3 290.7C366.3 289.3 363 286.2 361.3 282.7C359.7 286.1 356.4 288.5 349.4 289.9C349.2 289.3 348.5 288.2 348 287.7C355.6 286.3 358.4 283.9 359.5 279.6H354.3C353.2 281 351.8 282.4 350.1 283.6C349.6 283 348.5 282.4 347.8 282.1C351.3 279.7 353.6 276.5 354.8 273.8L358.2 274.3C358.2 274.6 357.9 274.8 357.3 274.8C356.9 275.6 356.5 276.4 355.9 277.2H372.4H372.9L374.7 277.4C374.1 279.1 371.5 282.8 369.9 284.2L367.5 283.3C368.5 282.3 369.5 280.9 370.4 279.6H362.7ZM372.1 316.1C369.2 314.6 364.2 312.7 359 311.1L361.5 309.5C366.5 311 372.1 313 375.4 314.5L372.1 316.1Z" fill="white"/>
<path d="M387.9 306.6V273.3H403V275.7H390.3V306.6H387.9Z" fill="white"/>
<path d="M591.6 282.7V316H576.5V313.6H589.2V282.7H591.6Z" fill="white"/>
</g>
<defs>
<clipPath id="clip0">
<rect width="570.6" height="104.1" fill="white" transform="translate(21 212)"/>
</clipPath>
</defs>
</svg>
