<svg width="237" height="27" viewBox="0 0 237 27" fill="none" xmlns="http://www.w3.org/2000/svg">
<path d="M1.20695 24.3803C0.724168 24.3803 0.482779 24.1389 0.482779 23.8975C0.482779 23.4148 1.20695 23.4148 1.68973 23.4148C2.65528 23.4148 3.37945 23.1734 3.86223 22.4492C3.86223 21.9664 3.86223 16.8973 3.86223 15.9317C3.86223 14.4834 3.86223 7.72445 3.86223 6.27612C3.86223 4.82778 3.37945 4.82778 0.965558 4.82778C0.482779 4.82778 0 4.82778 0 4.58639C0 4.10361 0.241389 4.10361 1.20695 4.10361C1.93112 4.10361 3.37945 3.86222 4.34501 3.37944C4.5864 3.37944 5.55196 2.65527 5.79335 2.65527C6.03474 2.65527 6.03474 2.89666 6.03474 4.10361C6.03474 4.82778 6.03474 8.44862 6.03474 9.17279C6.03474 10.8625 6.03474 21.725 6.03474 22.2078C6.51752 23.1734 7.00029 23.4148 9.1728 23.4148C9.41419 23.4148 9.89697 23.4148 9.89697 23.8975C9.89697 24.3803 9.41419 24.3803 9.1728 24.3803H1.20695Z" fill="#595757"/>
<path d="M24.3803 4.5864C23.4147 4.5864 23.4147 4.5864 22.6905 5.55196C21.0008 7.48307 17.6214 10.6211 16.6558 10.6211C16.6558 10.6211 17.38 9.89697 17.6214 9.65558C18.8283 8.44863 21.9664 4.82779 22.9319 0.965558C22.6905 0.724168 22.9319 0 23.1733 0C23.6561 0.241389 25.8286 1.20695 25.8286 1.68973C25.8286 1.93112 25.1044 2.41389 24.8631 2.41389C24.6217 2.65528 24.1389 3.13806 24.1389 3.37945C24.1389 3.62084 24.1389 3.62084 24.8631 3.62084H33.3117C34.76 3.62084 34.76 3.62084 35.0014 3.37945C35.2428 3.13806 35.967 1.93112 36.2084 1.93112C36.2084 1.93112 39.105 3.62084 39.105 4.10362C39.105 4.5864 38.6222 4.5864 37.6567 4.5864H31.1392C30.6564 4.5864 30.415 4.5864 30.1736 5.31057V9.1728C30.1736 10.1384 30.415 10.1384 31.1392 10.1384H32.3461C33.0703 10.1384 33.5531 10.1384 33.7945 10.1384C34.2772 9.65558 35.2428 8.44863 35.4842 8.44863C35.7256 8.44863 38.1395 9.89697 38.1395 10.3797C38.1395 10.8625 37.6567 10.8625 36.6911 10.8625H31.3806C30.6564 10.8625 30.415 10.8625 30.415 11.8281C30.415 12.7936 30.415 15.2075 30.415 16.1731C30.415 16.6559 30.415 17.1387 31.3806 17.1387H36.2084C37.1739 17.1387 37.4153 17.1387 37.8981 16.4145C38.6223 15.4489 38.6223 15.2075 39.105 15.2075C39.3464 15.2075 42.0017 17.1387 42.0017 17.6214C42.0017 17.8628 41.7603 17.8628 40.5534 17.8628H31.622C30.8978 17.8628 30.6564 18.1042 30.6564 18.8284V21.4837C30.6564 21.9664 30.8978 24.6217 30.8978 25.1045C30.8978 25.5873 30.8978 25.8287 30.6564 26.0701C30.1736 26.5528 29.6908 26.7942 29.2081 26.7942C28.9667 26.7942 28.2425 26.5528 28.2425 25.8287C28.2425 25.3459 28.4839 23.4148 28.4839 22.932C28.4839 21.9664 28.4839 19.5525 28.4839 18.8284C28.4839 17.8628 28.0011 17.8628 27.5183 17.8628H21.0008C20.2767 17.8628 18.3455 17.8628 17.38 17.8628C17.38 17.8628 16.8972 17.8628 16.6558 17.8628C16.6558 17.8628 16.4144 17.8628 16.4144 17.6214L15.9316 17.1387C15.9316 17.1387 15.9316 17.1387 15.9316 16.8973C16.4144 16.8973 19.3111 17.1387 20.0353 17.1387C20.7594 17.1387 20.7594 16.8973 20.7594 15.2075C20.7594 14.4834 20.518 9.89697 20.518 9.89697C20.518 9.41419 20.518 9.41419 20.518 9.41419C20.7594 9.41419 20.7594 9.41419 21.9664 9.89697C22.4492 10.1384 22.6905 10.1384 23.4147 10.1384H27.0356C28.2425 9.89697 28.2425 9.65558 28.2425 9.1728C28.2425 4.5864 28.2425 4.5864 27.2769 4.5864H24.3803ZM23.8975 10.6211C23.1733 10.6211 22.9319 10.6211 22.9319 13.2764C22.9319 17.1387 22.9319 17.1387 23.8975 17.1387H27.2769C28.2425 17.1387 28.2425 17.1386 28.2425 13.7592C28.2425 10.8625 28.2425 10.8625 27.2769 10.8625H23.8975V10.6211Z" fill="#595757"/>
<path d="M53.3475 1.93114C53.5888 1.93114 53.8302 1.93114 54.0716 1.68975C54.313 1.44836 54.5544 1.20697 54.7958 1.20697C55.0372 1.20697 56.4855 2.17253 56.4855 2.65531C56.4855 2.8967 56.0027 3.13809 56.0027 3.37948C55.7614 3.62086 55.7614 3.86225 55.7614 4.58642C55.7614 5.31059 56.0027 8.93143 56.0027 9.89699C56.0027 11.5867 55.2786 11.8281 54.7958 11.8281C54.0716 11.8281 54.0716 11.3453 54.0716 10.8625C54.0716 10.1384 53.5888 10.1384 53.1061 10.1384H49.4852C49.0024 10.1384 48.5197 10.1384 48.5197 10.6212C48.5197 10.8625 48.5197 12.0695 48.5197 12.7937C48.5197 14.242 48.5197 19.0698 48.5197 20.0353C48.5197 20.7595 48.5197 23.6562 48.5197 24.3804C48.5197 24.8631 48.5197 26.5529 47.0713 26.5529C46.3472 26.5529 46.3472 25.8287 46.3472 25.5873C46.3472 25.5873 46.3472 24.8631 46.3472 24.3804C46.5886 15.6903 46.5886 13.7592 46.5886 10.6212C46.5886 8.93143 46.5886 4.58642 46.5886 4.10364C46.5886 3.86225 46.3472 1.44836 46.3472 1.44836V1.20697C46.8299 1.20697 47.5541 1.68975 47.7955 1.68975C48.5197 2.17253 48.5197 2.17253 49.0025 2.17253H53.3475V1.93114ZM49.0025 6.51754C48.5197 6.51754 48.0369 6.51754 48.0369 7.00032V8.69004C48.0369 9.41421 48.2783 9.41421 49.0025 9.41421H53.1061C53.5888 9.41421 54.0716 9.41421 54.0716 8.93143V7.00032C54.0716 6.27615 53.8302 6.27615 53.1061 6.27615H49.0025V6.51754ZM49.0025 2.8967C48.2783 2.8967 48.2783 2.8967 48.2783 3.62086V5.0692C48.2783 5.79337 48.5197 5.79337 49.0025 5.79337H53.1061C53.8302 5.79337 53.8302 5.79337 53.8302 5.0692V3.37948C53.8302 2.8967 53.5888 2.8967 53.1061 2.8967H49.0025ZM59.6236 13.7592C60.1064 13.7592 60.1064 13.7592 60.3478 13.5178C60.5891 13.2764 60.8305 13.0351 61.0719 13.0351C61.3133 13.0351 62.7616 14.0006 62.7616 14.4834C62.7616 14.7248 62.7616 14.7248 62.5203 14.9662C62.2789 15.4489 62.0375 15.4489 62.0375 15.9317C62.0375 16.6559 62.0375 21.2423 62.0375 21.9665C62.0375 22.6906 62.0375 23.1734 61.7961 23.4148C61.3133 23.8976 60.8305 24.139 60.5891 24.139C59.865 24.139 59.865 23.4148 59.865 23.1734C59.865 22.4492 59.3822 22.4492 58.8994 22.4492H55.2786C54.5544 22.4492 54.5544 22.4492 54.313 23.1734C54.313 24.139 53.5889 24.6217 52.8647 24.6217C52.3819 24.6217 52.1405 24.3804 52.1405 23.6562C52.1405 23.4148 52.1405 22.6906 52.1405 22.4492C52.1405 21.0009 52.1405 20.0353 52.1405 18.8284C52.1405 18.587 52.1405 15.9317 52.1405 14.9662C52.1405 14.9662 52.1405 14.242 52.1405 14.0006C52.1405 13.7592 52.1405 13.7592 52.3819 13.7592C52.6233 13.7592 54.0716 14.4834 54.5544 14.4834H59.6236V13.7592ZM55.52 14.4834C54.7958 14.4834 54.7958 14.4834 54.7958 15.4489V16.8973C54.7958 17.3801 55.0372 17.3801 55.52 17.3801H59.6236C60.1064 17.3801 60.3478 17.3801 60.3478 16.8973V15.2076C60.3478 14.4834 60.1064 14.4834 59.6236 14.4834H55.52ZM55.52 18.1042C55.0372 18.1042 54.7958 18.1042 54.7958 18.8284V20.7595C54.7958 21.2423 55.0372 21.2423 55.52 21.2423H59.3822C60.1064 21.2423 60.1064 21.2423 60.1064 20.5181C60.1064 20.2767 60.1064 18.587 60.1064 18.587C60.1064 18.1042 59.865 18.1042 59.3822 18.1042H55.52ZM66.6239 1.93114C66.8653 1.93114 67.1067 1.93114 67.348 1.68975C67.5894 1.20697 67.8308 1.20697 68.0722 1.20697C68.3136 1.20697 70.0033 2.17253 70.0033 2.65531C70.0033 2.8967 69.7619 2.8967 69.7619 3.13809C69.2792 3.62086 69.2792 3.62086 69.2792 4.58642C69.2792 7.24171 69.2792 20.2767 69.2792 23.4148C69.2792 24.6217 69.0378 25.3459 68.0722 25.8287C67.5894 26.0701 66.8653 26.3115 66.6239 26.3115C66.3825 26.3115 66.1411 26.0701 65.8997 25.5873C65.6583 25.3459 65.6583 25.1045 65.1755 24.8631C64.9341 24.8631 63.7272 24.3804 63.7272 24.139C63.7272 23.8976 64.6928 23.8976 65.1755 23.8976C67.1067 23.8976 67.348 23.6562 67.348 22.932C67.348 22.6906 67.348 15.4489 67.348 11.3453C67.348 10.3798 66.8653 10.3798 66.1411 10.3798H62.2789C61.5547 10.3798 61.5547 10.6212 61.5547 11.1039C61.5547 11.8281 60.8305 12.0695 60.1064 12.0695C59.865 12.0695 59.6236 12.0695 59.3822 11.5867C59.3822 11.3453 59.3822 5.79337 59.3822 5.31059C59.3822 4.82781 59.1408 2.65531 59.1408 2.17253C59.1408 1.93114 59.1408 1.68975 59.3822 1.68975C59.865 1.68975 60.3478 1.93114 60.8305 2.17253C61.0719 2.41392 61.3133 2.41392 61.5547 2.41392H66.6239V1.93114ZM66.3825 5.55198C66.8653 5.55198 67.1067 5.55198 67.1067 4.82781V3.13809C67.1067 2.65531 66.8653 2.65531 66.3825 2.65531H62.0375C61.5547 2.65531 61.3133 2.65531 61.3133 3.37948C61.3133 3.86225 61.3133 5.0692 61.3133 5.0692C61.3133 5.55198 61.7961 5.55198 62.0375 5.55198H66.3825ZM66.3825 9.41421C66.8653 9.41421 67.1067 9.41421 67.1067 8.69004V7.00032C67.1067 6.27615 66.8653 6.27615 66.3825 6.27615H62.0375C61.5547 6.27615 61.3133 6.27615 61.3133 6.75893V8.69004C61.3133 9.41421 61.5547 9.41421 62.0375 9.41421H66.3825Z" fill="#595757"/>
<path d="M85.6933 5.06924V5.31063C85.9347 6.27619 86.176 7.24175 86.176 8.4487C86.176 10.3798 85.6933 13.0351 83.2794 16.8973C80.8655 20.5182 79.4171 21.2423 78.2102 21.2423C76.2791 21.2423 74.5894 18.3457 74.5894 14.7248C74.5894 13.2765 74.8307 10.3798 77.7274 7.24175C81.3483 3.37952 85.2105 3.37952 86.9002 3.37952C89.5555 3.37952 90.7624 3.8623 91.4866 4.34507C94.6247 5.79341 96.5558 8.93147 96.5558 12.7937C96.5558 16.6559 94.3833 21.2423 89.3141 22.9321C86.9002 23.8976 84.9691 23.8976 84.4863 23.8976C84.4863 23.8976 84.2449 23.8976 84.2449 23.6562C84.2449 23.6562 84.2449 23.6562 84.9691 23.1735C87.8658 21.9665 94.3833 19.5526 94.3833 12.3109C94.3833 11.104 94.3833 4.34507 86.4174 4.34507C85.6933 4.58646 85.6933 4.82785 85.6933 5.06924ZM76.2791 14.0007C76.2791 15.9318 77.0033 18.3457 78.693 18.3457C79.4171 18.3457 80.1413 18.1043 82.3138 14.9662C83.7622 12.5523 85.2105 9.41425 85.2105 6.51758C85.2105 4.82785 85.2105 4.58646 84.7277 4.58646C82.0724 4.82785 76.2791 8.4487 76.2791 14.0007Z" fill="#595757"/>
<path d="M105.728 7.48308C105.487 7.48308 105.004 7.24169 104.763 6.51752C104.28 4.8278 103.073 3.37946 101.625 2.17251C101.142 1.68974 101.142 1.68974 101.142 1.68974L101.383 1.44835C101.866 1.44835 103.797 2.17251 104.28 2.4139C105.97 3.37946 107.177 4.8278 107.177 5.79336C107.177 5.79336 107.177 6.03475 107.177 6.51752C106.694 7.0003 106.452 7.48308 105.728 7.48308ZM101.142 12.3109C101.142 12.0695 101.142 12.0695 101.142 12.3109C101.142 12.0695 101.142 12.0695 101.142 12.0695C101.625 12.0695 104.038 12.3109 104.763 12.3109C105.245 12.3109 105.487 12.0695 105.728 11.8281C106.452 10.8625 106.694 10.8625 106.694 10.8625C106.935 10.8625 108.625 11.8281 108.625 12.3109C108.625 12.5523 107.901 13.035 107.659 13.035C107.659 13.2764 107.659 13.5178 107.659 16.6559C107.659 19.5526 107.659 20.2767 108.383 21.2423C109.832 22.932 112.246 23.4148 118.039 23.4148C120.694 23.4148 123.108 23.4148 125.764 22.932C126.005 22.932 127.695 22.4492 128.177 22.4492H128.419C128.419 22.4492 127.936 22.932 127.936 23.1734C127.212 23.6562 127.212 23.8976 126.729 24.8631C126.488 25.3459 126.246 25.5873 122.867 25.5873C119.487 25.5873 114.66 25.3459 112.487 24.8631C111.763 24.6217 108.866 24.139 107.418 21.4837C106.935 20.5181 106.935 20.5181 106.452 20.5181C106.452 20.5181 106.211 20.7595 105.97 21.0009C105.487 21.7251 104.038 23.4148 103.797 24.139C103.556 24.8631 103.556 25.1045 103.073 25.1045C102.59 25.1045 100.9 23.1734 100.9 22.932C100.9 22.6906 101.625 22.4492 101.866 22.4492C104.038 21.7251 105.487 21.0009 105.728 19.5526C105.728 19.5526 105.728 14.9662 105.728 14.0006C105.728 13.2764 105.728 13.035 104.763 13.035C104.763 13.035 103.314 13.035 102.59 13.035C102.59 13.035 102.107 13.035 101.866 13.035C101.866 13.035 101.625 13.035 101.625 12.7937L101.142 12.3109ZM123.832 1.44835C124.315 1.44835 124.557 1.20696 124.798 1.20696L125.522 0.482788C125.764 0.482788 127.936 2.17251 127.936 2.89668C127.936 3.13807 127.695 3.62085 127.212 3.62085C127.212 3.62085 126.729 3.62085 126.488 3.62085C126.246 3.62085 126.005 3.62085 125.039 4.10363C124.074 4.8278 123.832 4.8278 123.591 4.8278C123.591 4.8278 123.35 4.8278 123.35 4.58641C123.35 4.34502 124.074 2.89668 124.074 2.65529C124.074 2.4139 123.832 2.4139 123.35 2.4139H111.522C111.039 2.4139 111.039 2.4139 111.039 3.13807C111.039 4.58641 109.832 6.03475 108.866 6.03475C108.142 6.03475 107.659 5.55197 107.659 4.8278C107.659 4.34502 107.901 4.10363 108.625 3.37946C109.59 2.4139 109.59 1.93112 109.59 0.724178V0.482788C109.832 0.482788 110.315 0.965567 110.315 1.20696C110.556 1.68974 110.556 1.68974 111.28 1.68974H123.832V1.44835ZM114.177 15.9317C113.694 15.9317 113.453 15.9317 113.211 16.1731C113.211 16.6559 112.728 16.8973 112.246 16.8973C111.522 16.8973 111.28 16.4145 111.28 15.9317C111.28 15.6903 111.28 14.7248 111.28 14.4834C111.28 13.5178 111.28 13.2764 111.28 9.65559C111.28 9.4142 111.039 8.20725 111.039 8.20725C111.039 8.20725 111.039 7.72447 111.28 7.72447C111.522 7.72447 112.487 8.20725 112.728 8.44864C112.728 8.44864 113.453 8.69003 114.177 8.69003H115.867C116.349 8.69003 116.591 8.69003 116.591 7.96586C116.591 7.0003 116.591 6.75891 115.867 6.75891H114.901C114.418 6.75891 112.728 6.75891 111.763 6.75891H111.28C111.28 6.75891 111.039 6.75891 111.039 6.51752L110.556 5.79336C110.556 5.79336 110.556 5.79336 110.556 5.55197C110.797 5.55197 111.522 5.55197 111.522 5.55197C112.246 5.55197 113.453 5.55197 114.901 5.55197H115.625C116.108 5.55197 116.349 5.55197 116.349 4.8278C116.349 4.58641 116.349 4.10363 116.349 3.86224C116.349 3.62085 116.108 2.89668 116.108 2.65529C116.108 2.4139 116.349 2.4139 116.591 2.4139C116.591 2.4139 119.005 2.65529 119.005 3.37946C119.005 3.62085 118.522 4.10363 118.522 4.34502C118.28 4.58641 118.28 5.06919 118.28 5.06919C118.28 5.79336 118.522 5.79336 119.005 5.79336H120.212C120.453 5.79336 121.177 5.79336 121.418 5.79336C121.66 5.55197 122.384 4.34502 122.867 4.34502C123.108 4.34502 125.281 5.79336 125.281 6.27613C125.281 6.75891 124.798 6.75891 123.832 6.75891H119.246C118.522 6.75891 118.522 7.0003 118.522 7.72447C118.522 8.20725 118.522 8.44864 119.246 8.44864H121.418C121.66 8.44864 121.901 8.44864 122.143 8.44864L122.867 7.96586C123.108 7.96586 124.557 8.69003 124.557 9.17281L124.074 9.89698C123.832 10.1384 123.832 11.5867 123.832 12.0695C123.832 12.5523 123.832 14.7248 123.832 15.2075C123.832 16.1731 123.108 16.6559 122.384 16.6559C121.901 16.6559 121.66 16.4145 121.66 15.9317C121.66 15.6903 121.177 15.6903 120.936 15.6903H119.246C118.522 15.6903 118.522 16.1731 118.522 16.6559C118.522 17.8628 118.522 18.1042 119.487 18.1042H122.867C124.074 18.1042 124.074 18.1042 124.557 17.6214C125.281 16.6559 125.281 16.6559 125.764 16.6559C126.005 16.6559 128.177 18.1042 128.177 18.587C128.177 19.0698 127.695 19.0698 126.729 19.0698H119.487C118.763 19.0698 118.763 19.3112 118.763 19.7939C118.763 20.0353 118.763 21.4837 118.763 21.9665C118.763 22.4492 118.763 23.4148 117.556 23.4148C116.832 23.4148 116.591 22.6906 116.591 22.4492C116.591 21.9665 116.591 20.2767 116.591 20.0353C116.591 19.3112 116.108 19.3112 115.867 19.3112H113.211C112.487 19.3112 111.28 19.3112 110.315 19.3112H109.59C109.59 19.3112 109.349 19.3112 109.349 19.0698L108.866 18.3456V18.1042C109.108 18.1042 109.59 18.1042 109.832 18.1042C111.522 18.1042 113.453 18.1042 114.901 18.1042H115.867C116.591 18.1042 116.591 17.6214 116.591 16.8973C116.591 16.1731 116.591 15.6903 115.867 15.6903H114.177V15.9317ZM115.867 11.8281C116.832 11.8281 116.832 11.3453 116.832 10.6211C116.832 9.65559 116.832 9.17281 115.867 9.17281H114.177C113.211 9.17281 113.211 9.65559 113.211 10.3798C113.211 11.3453 113.211 11.8281 114.177 11.8281H115.867ZM115.867 14.9662C116.832 14.9662 116.832 14.4834 116.832 13.5178C116.832 13.035 116.832 12.5523 115.867 12.5523H114.177C113.211 12.5523 113.211 13.035 113.211 13.7592C113.211 14.4834 113.211 14.9662 114.177 14.9662H115.867ZM119.246 9.4142C118.28 9.4142 118.28 9.89698 118.28 10.6211C118.28 11.3453 118.28 11.8281 119.246 11.8281H121.177C121.901 11.8281 122.143 11.3453 122.143 10.6211C122.143 9.89698 122.143 9.4142 121.177 9.4142H119.246ZM119.246 12.5523C118.28 12.5523 118.28 13.035 118.28 14.0006C118.28 14.7248 118.28 15.2075 119.005 15.2075H120.936C121.901 15.2075 121.901 14.7248 121.901 13.7592C121.901 13.035 121.901 12.7937 120.936 12.7937H119.246V12.5523Z" fill="#595757"/>
<path d="M136.626 16.4145C135.902 16.4145 135.902 16.6559 135.661 17.6214C135.178 22.6906 132.04 25.8287 131.557 25.8287C131.557 25.8287 131.316 25.8287 131.316 25.5873C131.316 25.5873 132.04 24.3803 132.04 24.139C133.247 21.7251 133.73 19.0698 133.73 11.8281C133.73 9.65559 133.73 4.8278 133.488 2.65529C133.488 2.4139 133.247 0.724178 133.247 0.724178C133.247 0.482788 133.247 0.482788 133.488 0.482788C133.73 0.482788 134.695 0.724178 134.937 0.965567C135.902 1.44835 136.385 1.68974 137.109 1.68974H151.351C152.075 1.68974 152.075 1.44835 152.317 1.44835C152.8 0.965567 152.8 0.965567 153.041 0.965567C153.282 0.965567 155.455 2.17251 155.455 2.65529C155.455 2.89668 155.213 3.13807 154.972 3.13807C154.248 3.37946 154.248 3.62085 154.248 6.27613C154.248 8.69003 154.489 19.3112 154.489 21.7251C154.489 22.932 154.489 26.3115 151.834 26.3115C151.593 26.3115 151.593 26.3115 151.351 25.5873C150.868 24.6217 149.179 23.8976 148.937 23.8976C148.937 23.8976 148.455 23.8976 148.455 23.6562L148.696 23.4148C149.179 23.4148 150.868 23.6562 151.351 23.6562C152.558 23.6562 152.558 23.4148 152.558 19.5526C152.558 19.0698 152.558 17.1387 152.558 16.8973C152.558 16.4145 152.075 16.4145 151.593 16.4145H145.799C145.075 16.4145 144.834 16.6559 144.834 17.6214C144.834 19.7939 144.834 21.9664 144.834 24.3803C144.834 24.8631 144.834 25.1045 144.592 25.3459C144.351 25.5873 143.868 25.8287 143.144 25.8287C142.661 25.8287 142.42 25.3459 142.42 25.1045C142.42 24.139 142.661 18.587 142.661 17.38C142.661 16.6559 142.42 16.4145 141.696 16.4145H136.626ZM141.937 8.44864C142.903 8.44864 142.903 8.44864 142.903 5.55197C142.903 2.65529 142.903 2.65529 141.937 2.65529H136.626C135.661 2.65529 135.661 2.65529 135.661 5.06919C135.661 8.44864 135.661 8.44864 136.626 8.44864H141.937ZM141.937 15.6903C142.178 15.6903 142.661 15.6903 142.661 15.4489C142.661 15.2075 142.661 12.5523 142.661 12.0695C142.661 9.4142 142.661 9.4142 141.696 9.4142H136.385C136.144 9.4142 135.661 9.4142 135.661 9.89698C135.661 10.1384 135.661 14.242 135.661 14.7248C135.661 15.2075 135.661 15.6903 136.385 15.6903H141.937ZM145.558 2.65529C145.075 2.65529 144.834 2.65529 144.592 3.13807C144.592 3.37946 144.592 6.75891 144.592 7.24169C144.592 7.96586 144.592 8.44864 145.558 8.44864H151.351C152.317 8.44864 152.317 8.20725 152.317 6.51752C152.317 2.65529 152.317 2.65529 151.351 2.65529H145.558ZM145.558 9.17281C144.592 9.17281 144.592 9.17281 144.592 11.8281C144.592 12.3109 144.592 14.9662 144.592 15.2075C144.834 15.6903 145.075 15.6903 145.317 15.6903H151.11C152.075 15.6903 152.075 15.4489 152.075 13.5178C152.075 9.17281 152.075 9.17281 151.11 9.17281H145.558Z" fill="#595757"/>
<path d="M161.731 7.24175C162.938 7.24175 163.421 7.24175 167.283 6.0348C169.939 5.31063 176.456 3.37952 178.387 3.37952C179.353 3.37952 180.801 3.8623 180.801 4.82785C180.801 5.55202 180.077 5.79341 179.594 5.79341C179.111 5.79341 177.663 5.55202 177.18 5.55202C173.559 5.55202 169.456 8.93147 169.456 16.4145C169.456 21.2423 171.387 21.4837 173.077 21.4837C173.559 21.4837 175.491 21.2423 175.732 21.2423C176.697 21.2423 177.18 21.7251 177.18 22.2079C177.18 23.6562 174.042 23.6562 173.801 23.6562C168.007 23.6562 168.007 18.8284 168.007 17.3801C168.007 16.1732 168.007 9.89703 172.111 6.27619C172.111 6.27619 172.835 5.79341 172.835 5.55202C172.835 5.55202 172.835 5.55202 172.594 5.55202C170.904 5.55202 164.869 8.2073 163.904 8.69008C163.421 8.93147 163.18 9.17286 162.938 9.17286C161.49 9.17286 160.042 7.24175 160.524 6.75897C160.766 7.00036 161.49 7.24175 161.731 7.24175ZM180.077 13.7593C180.077 14.4834 179.594 14.9662 179.111 14.9662C178.629 14.9662 178.387 14.4834 177.904 13.2765C177.663 12.5523 177.422 12.3109 176.456 11.104L176.215 10.6212C176.215 10.3798 176.456 10.3798 176.697 10.6212C179.111 10.8626 180.077 12.7937 180.077 13.7593ZM183.698 12.3109C183.698 13.0351 183.215 13.2765 182.974 13.2765C182.249 13.2765 182.008 12.5523 181.767 11.8281C181.525 11.104 180.56 10.1384 179.836 9.41425C179.594 9.41425 179.594 9.17286 179.594 8.93147C179.594 8.69008 179.836 8.69008 180.077 8.69008C180.318 8.69008 180.56 8.69008 180.801 8.93147C182.249 9.65564 183.698 10.8626 183.698 12.3109Z" fill="#595757"/>
<path d="M202.043 13.2765C202.043 12.3109 202.767 11.3453 203.974 11.3453C204.94 11.3453 205.905 12.0695 205.905 13.2765C205.905 14.4834 204.94 15.2076 203.974 15.2076C203.009 15.2076 202.043 14.4834 202.043 13.2765Z" fill="#595757"/>
<path d="M217.25 13.2765C217.25 12.3109 217.975 11.3453 219.182 11.3453C220.147 11.3453 221.113 12.0695 221.113 13.2765C221.113 14.4834 220.147 15.2076 219.182 15.2076C218.216 15.2076 217.25 14.4834 217.25 13.2765Z" fill="#595757"/>
<path d="M232.458 13.2765C232.458 12.3109 233.182 11.3453 234.389 11.3453C235.354 11.3453 236.32 12.0695 236.32 13.2765C236.32 14.4834 235.354 15.2076 234.389 15.2076C233.423 15.2076 232.458 14.4834 232.458 13.2765Z" fill="#595757"/>
</svg>
