<?xml version="1.0" encoding="utf-8"?>
<!-- Generator: Adobe Illustrator 25.2.3, SVG Export Plug-In . SVG Version: 6.00 Build 0)  -->
<svg version="1.1" id="Layer_1" xmlns="http://www.w3.org/2000/svg" xmlns:xlink="http://www.w3.org/1999/xlink" x="0px" y="0px"
	 viewBox="0 0 820 206" style="enable-background:new 0 0 820 206;" xml:space="preserve">
<style type="text/css">
	.st0{clip-path:url(#SVGID_2_);}
	.st1{fill:#AAABAB;}
	.st2{fill:#464B44;}
	.st3{fill:#464B44;stroke:#FFFFFF;stroke-width:3.3269;stroke-miterlimit:10;}
	.st4{fill:none;stroke:#FFFFFF;stroke-width:2.5641;stroke-linejoin:round;}
	.st5{fill:#D3D3D4;}
	.st6{fill:#595757;}
	.st7{fill:#FFFFFF;}
	.st8{fill:#556170;}
	.st9{fill:none;stroke:#556170;stroke-width:1.7412;stroke-linejoin:round;stroke-miterlimit:10;}
	.st10{fill:none;stroke:#556170;stroke-width:2.022;stroke-linejoin:round;stroke-miterlimit:10;}
	.st11{fill:#58595B;}
</style>
<g>
	<defs>
		<rect id="SVGID_1_" width="820" height="205.2"/>
	</defs>
	<clipPath id="SVGID_2_">
		<use xlink:href="#SVGID_1_"  style="overflow:visible;"/>
	</clipPath>
	<g class="st0">
		<path class="st1" d="M269.6,28.5l28.4,12.6l-28.4,12V28.5z"/>
		<path class="st1" d="M211.3,53.1L183,40.4l28.3-12V53.1z"/>
		<path class="st1" d="M279.3,35.4h-73.1v10.8h73.1V35.4z"/>
		<path class="st2" d="M212.4,135.1l-28.3-12.8l28.3-12V135.1z"/>
		<path class="st2" d="M297.9,117.3h-95.2v10.8h95.2V117.3z"/>
		<path class="st1" d="M598.9,28.5l28.3,12.6l-28.3,12V28.5z"/>
		<path class="st1" d="M540.2,53.1l-28.4-12.6l28.4-12V53.1z"/>
		<path class="st1" d="M608.4,35.4H535v10.8h73.4V35.4z"/>
		<path class="st2" d="M541.2,135.1l-28.3-12.8l28.3-12V135.1z"/>
		<path class="st2" d="M627.3,117.3h-95.7v10.8h95.7V117.3z"/>
		<path class="st3" d="M51.9,39c0,5.5-4.4,9.9-9.9,9.9s-9.9-4.4-9.9-9.9s4.4-9.9,9.9-9.9S51.9,33.5,51.9,39z"/>
		<path class="st2" d="M61.1,61.1c-0.8-5-5.2-9.1-10.3-9.1H33.5c-5.3,0-9.7,3.9-10.3,9.1H23v1.6l1,21.8v1.6h0.2
			c0.6,4,3.4,7.3,7.3,8.4l2.3,28.3v0.8c0.5,2.9,2.9,5.2,6,5.2h4.8c3.1,0,5.5-2.3,6-5.2v-0.8l2.4-28.3c3.7-1.1,6.6-4.5,7.3-8.4h0.2
			v-1.6l1-21.8L61.1,61.1z"/>
		<path class="st3" d="M118.2,39c0,5.5-4.4,9.9-9.9,9.9c-5.5,0-9.9-4.4-9.9-9.9s4.4-9.9,9.9-9.9C113.8,29.1,118.2,33.5,118.2,39z"/>
		<path class="st2" d="M127.4,61.1c-0.8-5-5.2-9.1-10.3-9.1H99.7c-5.3,0-9.7,3.9-10.3,9.1h-0.2v1.6l1,21.8v1.6h0.2
			c0.6,4,3.4,7.3,7.1,8.4l2.3,28.3v0.8c0.5,2.9,2.9,5.2,6,5.2h4.8c3.1,0,5.5-2.3,6-5.2v-0.8l2.4-28.3c3.7-1.1,6.6-4.5,7.3-8.4h0.2
			v-1.6l1-21.8V61.1z"/>
		<path class="st2" d="M84.7,48.5c0,5.5-4.4,9.9-9.9,9.9c-5.5,0-9.9-4.4-9.9-9.9s4.4-9.9,9.9-9.9C80.3,38.7,84.7,43.2,84.7,48.5z"/>
		<path class="st2" d="M93.9,70.8c-0.8-5-5.2-9.1-10.3-9.1H66.3c-5.3,0-9.7,3.9-10.3,9.1h-0.2v1.6l1,21.8v1.6h0.2
			c0.6,4,3.4,7.3,7.3,8.4l2.1,28.1v0.8c0.5,2.9,2.9,5.2,6,5.2h4.8c3.1,0,5.5-2.3,6-5.2v-0.8l2.6-28.3c3.7-1.1,6.6-4.5,7.3-8.4h0.2
			v-1.6l1-21.8L93.9,70.8z"/>
		<path class="st4" d="M84.7,48.5c0,5.5-4.4,9.9-9.9,9.9c-5.5,0-9.9-4.4-9.9-9.9s4.4-9.9,9.9-9.9C80.3,38.7,84.7,43.2,84.7,48.5z"/>
		<path class="st4" d="M93.9,70.8c-0.8-5-5.2-9.1-10.3-9.1H66.3c-5.3,0-9.7,3.9-10.3,9.1h-0.2v1.6l1,21.8v1.6h0.2
			c0.6,4,3.4,7.3,7.3,8.4l2.1,28.1v0.8c0.5,2.9,2.9,5.2,6,5.2h4.8c3.1,0,5.5-2.3,6-5.2v-0.8l2.6-28.3c3.7-1.1,6.6-4.5,7.3-8.4h0.2
			v-1.6l1-21.8L93.9,70.8z"/>
		<path class="st5" d="M494.8,158.7H328.1v46.6h166.7V158.7z"/>
		<path class="st5" d="M800.8,158.2h-129v28h129V158.2z"/>
		<path class="st6" d="M719.8,165.6c-0.2,0.2-0.3,0.2-0.6,0.8c-0.2,0.3-1,1.8-1,1.9c0,0.2,0.2,0.2,0.3,0.3c0.3,0,0.5,0.2,0.5,0.3
			c0,0,0,0.2-0.2,0.3c-0.2,0.2-0.2,0.3-0.2,0.5c0,0.3,0,4.2,0,4.4c0,0.3,0.2,3.6,0.2,3.7c0,0.5-0.5,0.6-0.8,0.6
			c-0.3,0-0.3-0.3-0.3-0.5c0,0,0-0.2,0-0.3c0.2-1.8,0-2.6,0-4.2c0-0.5,0-3.2,0-3.9v-0.2c0,0,0,0-0.3,0.3c-0.8,1.1-1.6,1.8-1.6,1.8
			s0.3-0.5,0.3-0.6c0.8-1.5,2.4-4.5,2.6-5.8c0-0.3,0-0.3,0.2-0.3c0,0,0.5,0.2,1,0.3c0.5,0.2,0.6,0.3,0.5,0.5
			C720.1,165.5,720.1,165.5,719.8,165.6z M719.5,169.7C719.5,169.5,719.5,169.5,719.5,169.7c0.3-0.2,1.8,0,2.1,0
			c0.5,0,0.5-0.2,0.5-1.3c0-1,0-1-0.5-1c-0.2,0-1.1,0-1.3,0c0,0,0,0-0.2-0.2l-0.3-0.3c0,0,0,0,0-0.2c0.3,0,1.5,0.2,1.8,0.2
			c0.3,0,0.5-0.2,0.5-0.3s0-0.8,0-1c0-0.2-0.2-0.5-0.2-0.6c0-0.2,0-0.2,0.2-0.2c0.2,0,1.3,0.2,1.3,0.5l-0.3,0.3c0,0.2,0,0.6,0,0.8
			c0,0.3,0,0.5,0.5,0.5h1.3c0.3,0,0.5,0,0.5-0.5c0-0.2,0-0.6,0-1c0-0.2-0.2-0.5-0.2-0.6s0-0.2,0.2-0.2c0,0,0.6,0.2,0.8,0.2
			c0.3,0,0.5,0.2,0.5,0.3c0,0.2,0,0.2-0.3,0.3c-0.2,0.2-0.2,0.2-0.2,0.8c0,0.3,0,0.5,0.5,0.5c0.5,0,0.5,0,0.6-0.3
			c0.3-0.5,0.5-0.5,0.5-0.5c0.3,0,1.1,0.8,1.1,1c0,0.2,0,0.2-0.8,0.2h-1.6c-0.3,0-0.5,0-0.5,0.5c0,0.5,0,1.1,0,1.6
			c0,0.3,0.2,0.5,0.5,0.5h0.3c0.6,0,0.6,0,1-0.3c0.3-0.5,0.5-0.5,0.5-0.5c0.2,0,1.3,0.8,1.3,1s0,0.2-0.8,0.2h-6.8
			c-0.3,0-1.5,0-1.9,0h-0.3c0,0,0,0-0.2-0.2V169.7z M726.1,171.6c0.2,0,0.5,0,0.6-0.2c0.2-0.3,0.3-0.3,0.3-0.3
			c0.2,0,1.1,0.6,1.1,0.8c0,0-0.2,0.3-0.3,0.3c-0.2,0.2-0.2,0.2-0.2,1c0,0.6,0,3.6,0,4.2c0,0.5-0.3,0.8-0.6,0.8
			c-0.5,0-0.5-0.3-0.5-0.6c0-0.3-0.3-0.3-0.5-0.3h-3.6c-0.3,0-0.5,0.2-0.5,0.5c0,0.5-0.5,0.6-0.8,0.6c-0.3,0-0.3-0.3-0.3-0.3v-0.3
			c0-0.8,0-2.3,0-3.1c0-1.5,0-1.8,0-2.4c0-0.2,0-0.6,0-0.6c0-0.2,0.2-0.2,0.2-0.2c0.2,0,0.3,0.2,0.6,0.3c0.3,0.2,0.5,0.2,0.8,0.2
			h3.6V171.6z M726.2,174.2c0.5,0,0.5-0.2,0.5-1c0-1,0-1.1-0.5-1.1h-3.7c-0.5,0-0.5,0.2-0.5,1c0,1,0,1.1,0.5,1.1H726.2z
			 M726.2,176.8c0.5,0,0.5-0.2,0.5-1.1c0-1,0-1.1-0.5-1.1h-3.7c-0.2,0-0.5,0-0.5,0.3c0,1.8,0,1.9,0.5,1.9H726.2z M723.5,167.2
			c-0.5,0-0.5,0.2-0.5,1.3c0,1,0,1.1,0.5,1.1h1.3c0.2,0,0.3,0,0.5-0.2c0-0.2,0-1,0-1.3c0-0.8,0-1-0.5-1H723.5z"/>
		<path class="st6" d="M737.1,167.9c-1.3,0-2.4,2.1-2.4,3.7c0,0.5,0,0.8,0.2,1.1c0.2,0.3,0.2,0.5,0.2,0.6c0,0.5-0.5,0.5-0.5,0.5
			c-0.6,0-1-1.3-1-2.4c0-0.8,0.2-1.6,0.3-2.4c0.2-1.3,0.2-1.6,0.2-1.9c0-0.5-0.2-0.8-0.2-1l-0.3-0.3c0,0,0.2-0.2,0.5-0.2
			c0.6,0,1.1,0.6,1.1,1c0,0.2-0.3,1-0.3,1.1c0,0.2-0.3,1.5-0.3,1.9c0,0,0,0.2,0.2,0.2c0,0,0.2-0.2,0.3-0.3c0.2-0.3,1.1-2.3,2.7-2.3
			c1,0,1.9,0.5,1.9,3.7c0,2.1-0.5,4.5-3.2,6.3c-0.6,0.3-1,0.5-1.1,0.5c0,0,0,0,0.3-0.3c2.4-1.9,2.9-3.7,2.9-6.8
			C738.4,168.9,738,167.9,737.1,167.9z"/>
		<path class="st6" d="M743.2,167.4C743.1,167.4,743.1,167.4,743.2,167.4C743.1,167.2,743.1,167.2,743.2,167.4
			c0.2-0.2,0.5-0.2,0.6-0.2c0.8,0,1.3,0,2.1,0h7c0.5,0,0.6,0,0.8-0.5c0-0.2,0.3-0.6,0.5-0.6c0.2,0,1,0.6,1.3,0.8
			c0.3,0.3,0.3,0.3,0.3,0.3c0,0.3,0,0.3-0.8,0.3h-4.5c-0.3,0-0.5,0.2-0.5,0.3c0,0.3,0,2.8,0,3.2s0,0.8,0.5,0.8h1.8
			c0.5,0,0.6,0,0.8-0.5c0-0.2,0.3-0.6,0.5-0.6c0.2,0,0.8,0.5,1,0.6c0.5,0.5,0.6,0.5,0.6,0.5c0,0.2,0,0.2-0.8,0.2h-4
			c-0.5,0-0.5,0.3-0.5,0.5c0,0.2,0,3.7,0,3.9c0,0.3,0.2,0.5,0.5,0.5h2.9c0.3,0,0.5,0,0.6-0.3c0.6-0.8,0.6-1,0.8-1c0.2,0,1,0.6,1.3,1
			c0.2,0.2,0.3,0.3,0.3,0.3c0,0.3-0.3,0.3-0.8,0.3h-10.2c-1.3,0-1.8,0-1.9,0h-0.3c0,0,0,0-0.2-0.2l-0.3-0.3v-0.2c0.2,0,0.6,0,0.6,0
			c0.8,0,1.3,0,2.1,0h3.1c0.5,0,0.5-0.3,0.5-0.5c0-0.8,0-3.6,0-3.7c0-0.3,0-0.6-0.5-0.6h-1.8c-1.3,0-1.8,0-1.9,0h-0.3
			c0,0-0.2,0-0.2-0.2l-0.3-0.3c0,0,0,0,0-0.2c0.2,0,0.6,0,0.6,0c0.8,0,1.3,0,2.1,0h1.8c0.5,0,0.5-0.2,0.5-0.5c0-0.3,0-3.2,0-3.4
			c0-0.3-0.3-0.3-0.5-0.3H746c-1.3,0-1.8,0-1.9,0h-0.3c0,0-0.2,0-0.2-0.2L743.2,167.4z M750.7,166.6c0,0.3-0.3,0.6-0.6,0.6
			s-0.5-0.2-1.1-1c-0.5-0.6-1-1.1-1.3-1.3c0,0-0.3-0.2-0.3-0.3h0.2h0.2C750.2,165.1,750.7,166.1,750.7,166.6z"/>
		<path class="st2" d="M153.4,146.4H0v29.4h153.4V146.4z"/>
		<path class="st7" d="M61.3,157.4c0,0.5-1.1,1-1.5,1.1c-0.2,0-0.2,0.2-0.3,0.6c0,0.3,0,1.6,0,1.6c0,0.2,0,0.3,0.2,0.3
			c0,0,1.3-0.5,1.5-0.6c1.5-0.5,2.3-0.6,2.6-0.6c1.1,0,2.3,0.8,2.3,2.3c0,1.9-2.1,2.9-3.4,2.9c-0.8,0-1.6-0.5-1.6-1.3
			c0-0.6,0.6-1.1,0.8-1.1c0,0,0,0,0,0.2c0,0-0.2,0.2-0.2,0.5c0,0.8,0.8,0.8,1,0.8c1,0,2.3-0.6,2.3-1.9c0-1.1-0.8-1.6-1.5-1.6
			c-0.5,0-1.3,0.2-3.1,1.1c-0.8,0.5-1,0.5-1,0.8c0,0.2,0,0.8,0,1c0,0.6-0.2,1.8-0.8,1.8c-0.5,0-0.6-0.3-0.6-0.5c-0.5-1-0.5-1-0.8-1
			c-0.2,0-0.3,0-0.3,0.2c-0.2,0-0.5,0.3-0.6,0.3c-0.2,0-1-0.5-1-1c0-0.3,0.2-0.6,0.5-0.6c0.2,0,0.5,0,0.6,0c0.5,0,0.6,0,1.6-0.5
			c0.8-0.3,0.8-0.5,0.8-0.8c0-0.3,0-1.6,0-1.9c0-0.2,0-0.3-0.2-0.3c-0.2,0-0.6,0.2-0.6,0.2c-0.8,0.3-0.8,0.3-1.1,0.3
			c-0.5,0-1.1-1-1.1-1.1c0,0,0-0.2,0.2-0.2c0,0,0.2,0,0.3,0c0.3,0,0.5,0,0.6,0c0.5,0,1.8-0.3,1.9-0.5c0-0.2,0.2-1.5,0.2-1.6
			c0-0.5,0-0.8-0.5-1.3c0,0-0.2-0.2-0.2-0.3c0-0.2,0.2-0.2,0.3-0.2c1,0,1.6,0.8,1.6,1s-0.3,0.6-0.3,0.8s-0.2,0.6-0.2,1
			c0,0,0,0.2,0.2,0.2c0.2,0,0.5-0.2,0.5-0.3v-0.2C60.6,156.6,61.3,156.9,61.3,157.4z M57.9,163c0,0.2,0.5,0.6,0.6,0.6
			c0.2,0,0.5-0.5,0.5-1.1c0,0,0-0.2,0-0.3C58.8,162.4,57.9,162.9,57.9,163z M67.7,158.3c0,0.3-0.2,0.8-0.5,0.8c-0.2,0-0.5,0-0.5,0
			s-0.3,0.2-0.5,0.2v-0.2c0-0.2,0-0.2,0-0.3c0-0.6-0.8-0.8-1.3-0.8c-0.3,0-0.3,0-0.6,0.2h-0.2c0-0.2,0.6-1,1.6-1
			C67.1,157.1,67.7,157.7,67.7,158.3z"/>
		<path class="st7" d="M74.4,165.8c-0.3,0-0.3,0-0.5,0.3c-0.2,0.3-0.3,0.5-0.6,0.5c-0.5,0-0.5-0.2-0.5-0.5c0-0.5,0-2.3,0-2.6
			c0-1.3,0-1.3-0.3-1.3c-0.2,0-0.5,0.2-0.6,0.2c-0.5,0.2-1.6,0.5-2.7,0.5h-0.2c0-0.2,1-0.3,1.1-0.3c0.8-0.3,2.7-1,4.4-2.1
			c0.3-0.2,1-0.8,1-1c0,0-0.3-0.5-0.3-0.6c-0.3-0.3-0.5-0.8-0.8-1.1c0-0.2-0.2-0.2-0.3-0.2c-0.2,0-0.2,0-0.5,0.3
			c-0.6,0.6-1.8,1.3-2.7,1.6l-0.6,0.3c0,0,0,0,0.6-0.5c0.8-0.5,2.9-2.3,3.4-3.6c0.3-0.5,0.3-0.5,0.5-0.5c0,0,1.1,0.6,1.1,0.8
			c0,0,0,0.2-0.3,0.2c-0.2,0-0.3,0.2-0.3,0.2c0,0.2,0.2,0.2,0.2,0.2h2.6c0.2,0,0.3,0,0.5-0.2c0.2-0.2,0.5-0.5,0.5-0.5
			c0.2,0,0.2,0,0.6,0.5c0.5,0.3,0.5,0.5,0.5,0.5c0,0.2-0.2,0.3-0.5,0.3c-0.3,0-0.3,0.2-0.6,0.5c-0.3,0.5-1,1.1-1.5,1.5
			c-0.3,0.3-0.3,0.3-0.3,0.5c0,0.3,2.9,1.8,6,1.8c0.2,0,0.2,0,0.2,0s0,0.2-0.2,0.2c-0.3,0.2-0.8,0.6-1,1c0,0.2,0,0.2-0.2,0.2
			c-0.3,0-2.6-1-3.4-1.3c-0.8-0.3-1-0.5-1.6-1.1c0-0.2-0.2-0.2-0.3-0.2c-0.2,0-0.2,0-0.6,0.3c-1,0.6-1.9,1.1-2.1,1.3
			c-0.3,0.2-0.5,0.2-0.5,0.3s0.6,0.5,1,0.5h4.2c0.2-0.2,0.3-0.3,0.5-0.3c0,0,1.1,0.6,1.1,1c0,0.2,0,0.2-0.3,0.3
			c-0.2,0-0.2,0.2-0.2,0.3c0,0.3,0.2,2.1,0.2,2.3c0,0.6-0.6,0.6-0.8,0.6c-0.3,0-0.5-0.2-0.5-0.5c0-0.3-0.2-0.3-0.5-0.3h-3.6V165.8z
			 M80.3,154.6c0.3,0,0.3,0,0.5-0.3c0.2-0.2,0.2-0.2,0.2-0.2s0.6,0.3,0.8,0.5c0.8,0.5,0.8,0.5,0.8,0.8c0,0.2,0,0.3-0.3,0.3
			c-0.5,0-1,0.2-1.5,0.3c-0.2,0-0.5,0.5-0.6,0.5c0,0,0.2-1,0.2-1.1c0-0.3-0.2-0.3-0.3-0.3h-8.7c-0.3,0-0.3,0.2-0.5,0.6
			c0,0.3-0.3,1.3-1,1.3c-0.3,0-0.6-0.2-0.6-0.6c0-0.3,0-0.3,0.6-1.1c0.2-0.3,0.5-1,0.5-1.5v-0.2c0,0,0.3,0.2,0.3,0.3
			c0.2,0.3,0.2,0.5,0.5,0.5h3.6c0.5,0,0.5-0.3,0.5-0.5s0-0.8,0-1c0,0,0-0.2,0-0.3c0,0,0-0.2,0.2-0.2l1,0.3c0.5,0.2,0.5,0.2,0.5,0.3
			c0,0.2-0.2,0.2-0.3,0.3c-0.2,0.2-0.2,0.2-0.2,0.6c0,0.3,0.2,0.5,0.5,0.5H80.3z M74.4,162.9c-0.2,0-0.5,0-0.5,0.3
			c0,0.2,0,1.8,0,1.8c0,0.2,0.2,0.3,0.5,0.3h3.6c0.3,0,0.3-0.2,0.5-0.3c0,0,0-1.1,0-1.8c0-0.3-0.3-0.3-0.5-0.3H74.4z M75,156.9
			c0,0-0.3,0-0.3,0.2s1.1,1.8,1.5,1.8c0.2,0,0.2,0,0.8-0.6c0.2-0.2,0.8-1,0.8-1.1s-0.2-0.2-0.3-0.2H75z"/>
		<path class="st7" d="M88.3,156.9c-0.5,0-0.5,0.2-0.5,0.8c0,0.2,0.2,0.3,0.5,0.5c1.3,0.6,1.5,1.3,1.5,1.6c0,0.5-0.2,0.8-0.6,0.8
			s-0.5-0.3-0.6-1.1c0-0.5-0.3-1-0.5-1v0.2c0,1,0,5.7,0,6.6c0,0.6,0,1.3-0.6,1.3c-0.3,0-0.3-0.3-0.3-0.5c0-0.3,0-1,0-1.3
			c0-0.5,0.2-4.7,0.2-4.9v-0.2c0,0-0.2,0-0.2,0.2c-0.5,0.6-1.6,2.6-2.1,2.6c0,0,0.5-0.8,0.6-1c1-1.8,1.5-4,1.5-4.2
			c0-0.3-0.3-0.3-0.5-0.3c-0.2,0-1,0-1.1,0c0,0-0.2,0-0.2-0.2l-0.3-0.3c0,0,0,0,0-0.2c0.3,0,1.5,0.2,1.8,0.2c0.5,0,0.5-0.5,0.5-0.6
			c0-0.3,0-1.6,0-1.8c0-0.3-0.2-1-0.2-1.1c0,0,0-0.2,0.2-0.2c0,0,0.6,0.2,1.1,0.3c0,0,0.2,0,0.2,0.2c0,0.2-0.3,0.5-0.3,0.6
			c-0.2,0.5-0.2,1.8-0.2,2.3c0,0.3,0.2,0.3,0.3,0.3c0.2,0,0.3,0,0.5-0.2c0.2-0.3,0.3-0.3,0.3-0.3c0.2,0,1,0.8,1,0.8
			c0,0.2-0.3,0.2-0.8,0.2h-1V156.9z M91.5,163.5c0.2,0,0.8-0.5,1-0.5c0,0.2-1.9,1.8-2.1,2.1c0,0.2-0.2,0.3-0.3,0.3
			c-0.2,0-1-1.3-1-1.3s0,0,0.2,0c0.2,0,0.3,0,0.5,0C90.4,164,91,163.8,91.5,163.5z M92.1,162.2c0,0.3-0.2,0.5-0.5,0.5
			c-0.3,0-0.5-0.3-0.6-0.6c-0.2-0.2-0.5-1-1-1.6c0,0,0,0,0-0.2c0.2,0,1.1,0.5,1.6,1C91.7,161.4,92.1,161.7,92.1,162.2z M94.6,158.2
			c-0.5,0-0.5,0.2-0.5,1.1c0,0.5,0.3,0.5,0.5,0.5h1.1c0.6,0,0.6,0,0.8-0.2c0.2-0.2,0.5-0.6,0.6-0.6c0,0,1.3,0.8,1.3,1
			c0,0.2-0.3,0.2-0.8,0.2H97c0,0-0.2,0-0.2,0.2s0.8,0.6,0.8,0.8c0,0.2,0,0.2-0.5,0.3c-0.6,0.2-0.6,0.3-1.6,1.1
			c-0.2,0.2-0.2,0.2-0.2,0.2c0,0.3,1.8,1.8,3.4,1.8h0.2c0,0-0.8,0.5-1,0.5c-0.2,0-0.5,0.5-0.6,0.5c-0.2,0-1.6-0.8-2.9-3.6
			c-0.2-0.3-0.2-0.3-0.2-0.3s0,0,0,0.2v0.5c0,0.5,0.2,2.4,0.2,2.9c0,0.6-0.2,1-0.5,1.1c-0.3,0.2-0.6,0.3-0.8,0.3
			c-0.2,0-0.2,0-0.2-0.2c-0.3-0.6-1.1-1-1.3-1c-0.2,0-0.2,0-0.2-0.2c0.2,0,0.6,0,0.8,0c0.8,0,0.8-0.2,0.8-1c0-1,0-3.6,0-3.9
			c0-0.2,0-0.5-0.3-0.5c-0.8,0-1.8,0-2.1,0h-0.2c0,0-0.2,0-0.2-0.2l-0.3-0.3c0,0,0,0,0-0.2h0.5c0.5,0,1.5,0,2.1,0
			c0.3,0,0.5,0,0.5-0.5c0-1,0-1.1-0.5-1.1c-0.5,0-1.3,0-1.8,0h-0.3c0,0,0,0-0.2-0.2l-0.3-0.3c0,0,0,0,0-0.2c0.2,0,0.6,0,0.6,0
			c0.5,0,1.3,0,1.8,0s0.5-0.3,0.5-0.5c0-0.8,0-1-0.5-1h-0.3c-0.5,0-1.3,0-1.5,0h-0.3c0,0-0.2,0-0.2-0.2l-0.3-0.3c0,0,0,0,0-0.2
			c0.2,0,0.6,0,0.6,0c0.2,0,1.3,0,1.9,0h1.3c0.3,0,0.5,0,1.3-1.8c0.2-0.5,0.3-1.1,0.3-1.1s0-0.2,0.2-0.2c0,0,1.3,0.5,1.3,0.8
			c0,0.2,0,0.2-0.3,0.3c-0.3,0.2-1.8,1.8-1.8,1.8l0.2,0.2c1,0,1,0,1.1-0.3c0.3-0.5,0.3-0.5,0.5-0.5c0.2,0,1.5,0.8,1.5,1
			c0,0.2-0.3,0.2-0.8,0.2h-2.4c-0.5,0-0.5,0-0.5,1.1c0,0.3,0.3,0.5,0.5,0.5H95c0.6,0,0.6,0,0.8-0.2c0.2-0.2,0.5-0.8,0.6-0.8
			c0,0,1.3,0.8,1.3,1c0,0.2-0.3,0.2-0.8,0.2h-2.4V158.2z M92.9,154.8c0,0.6-0.3,0.8-0.6,0.8c-0.3,0-0.3-0.3-0.5-0.6
			c-0.2-0.8-0.5-1.3-0.8-1.8c0-0.2-0.2-0.2-0.2-0.2s0,0,0.2,0c0.2,0,1,0.3,1.5,1C92.9,154.3,92.9,154.5,92.9,154.8z M94.6,160.1
			c-0.2,0-0.5,0-0.5,0.3c0,0.3,0.6,1.8,1,1.8c0.3,0,1.5-1.8,1.5-1.9s-0.2-0.2-0.2-0.2H94.6z"/>
		<path class="st8" d="M718,26.2v122.1h90V52.2L718,26.2z M746.5,119.2l-11.3-0.5v-13.4l11.3,1V119.2z M746.5,92.2l-11.3-1.5V77.3
			l11.3,1.8V92.2z M746.5,65l-11.3-2.3V49.3l11.3,2.7V65z M773.9,120.5l-9.5-0.5v-12.3l9.5,0.8V120.5z M773.9,95.6l-9.5-1.1V82.2
			l9.5,1.6V95.6z M773.9,70.5l-9.5-1.9V56.3l9.5,2.3V70.5z M797.2,121.6l-8.2-0.3V110l8.2,0.6V121.6z M797.2,98.5l-8.2-1V86.2
			l8.2,1.3V98.5z M797.2,75.4l-8.2-1.6V62.4l8.2,1.9V75.4z"/>
		<path class="st8" d="M663.7,50.9v14.4l8.6-2.4V75l-8.6,2.1V88l8.6-1.6v12.1l-8.6,1.3v10.8l8.6-1V122l-8.6,0.5v25.9h50.9V26.2
			L663.7,50.9z"/>
		<path class="st9" d="M651.7,148.3H820"/>
		<path class="st10" d="M327.5,148.5h168.1"/>
		<path class="st8" d="M406.4,148.5V18.6l13.3,6v123.9h5.2V26.8l13.3,6v115.6h5.2V35.3l13.3,6v107.2h5.2V27.3L401.2,0l-39.8,19.9
			v128.6H406.4z"/>
		<path class="st6" d="M200.3,77.3c-0.2,0-0.5,0-0.5,0.3c0,0.3-0.2,0.6-0.8,0.6c-0.3,0-0.5-0.2-0.5-0.5v-1c0-0.8,0-1.3,0-2.7
			c0-1.8,0-8.1-0.2-8.4c0-0.2-0.2-0.6-0.2-0.8c0,0,0-0.2,0.2-0.2c0,0,0.5,0.3,0.8,0.3c0.6,0.3,0.8,0.3,1.1,0.3h7.6
			c0.6,0,0.8,0,1-0.3c0.3-0.5,0.3-0.5,0.5-0.5c0.2,0,1.5,0.8,1.5,1c0,0.2-0.2,0.2-0.3,0.2c-0.2,0-1,0-1.1,0h-9.2
			c-0.5,0-0.5,0.2-0.5,1c0,0.6,0,3.6,0,4.2c0,2.7,0.2,5.5,0.2,5.5c0,0.2,0.3,0.2,0.5,0.2h8.1c0.5,0,0.6,0,0.6-0.2
			c0.2-0.2,0.5-0.8,0.6-0.8s1.8,1,1.8,1.1c0,0.2-0.3,0.2-1.1,0.2h-10V77.3z M203,70.8c0.5,0,0.6-0.2,1-1c0.3-0.6,0.3-0.6,0.3-1.3
			v-0.2c0,0,0.5,0.2,0.6,0.2c0.8,0.3,1,0.3,1,0.5c0,0,0,0.2-0.3,0.3c-0.3,0.3-0.8,1-0.8,1.1c0,0.2,0.2,0.2,0.3,0.2h2.7
			c0.2,0,0.6,0,0.8,0c0.2,0,0.6-0.8,0.8-0.8c0.2,0,1.5,1,1.5,1.1c0,0.2-0.3,0.2-0.8,0.2H205c-0.2,0-0.5,0-0.6,0.3
			c-0.2,0.2-0.5,0.5-0.5,0.6c0,0.2,0,0.3,0.6,0.3h3.1c0.2,0,0.3,0,0.3-0.2c0.2-0.2,0.2-0.3,0.3-0.3c0,0,1.1,0.6,1.1,0.8
			c0,0,0,0.2-0.2,0.2c-0.3,0.3-0.3,0.3-0.3,0.6c0,0.2,0,1.1,0,1.3c0,0.6-0.5,0.8-0.8,0.8c-0.3,0-0.3-0.2-0.5-0.3
			c0-0.3-0.3-0.3-0.5-0.3h-2.7c-0.3,0-0.5,0-0.5,0.3c0,0-0.3,0.5-0.8,0.5c0,0-0.3,0-0.3-0.3c0-0.2,0-1,0-1.1c0-0.5,0-1.1,0-1.3
			c0,0,0-0.2-0.2-0.2l-0.3,0.3c-1.3,1.5-2.3,2.1-2.3,2.1s0-0.2,0.2-0.3c0.6-0.8,2.7-3.6,2.7-3.9c0-0.2-0.2-0.2-0.3-0.2
			c-0.6,0-1.3,0-1.9,0h-0.5c0,0-0.2,0-0.2-0.2l-0.3-0.3c0,0,0,0,0-0.2c0.2,0,0.5,0,0.6,0c0.5,0,1.3,0,2.1,0h0.6V70.8z M207.7,68.1
			c-0.3,0-0.3,0-0.3,0.3c0,0.2,0,0.6,0,0.8c0,0.3-0.3,0.6-0.6,0.6c-0.5,0-0.5-0.3-0.5-0.5c0-0.2,0-0.8,0-1c0-0.3-0.2-0.3-0.3-0.3
			H204c-0.3,0-0.3,0-0.3,0.3v0.5c0,0.5-0.3,0.6-0.6,0.6c-0.5,0-0.5-0.3-0.5-0.5c0-0.2,0-0.5,0-0.6c0-0.2-0.2-0.3-0.3-0.3
			c-0.2,0-1,0-1.3,0h-0.3c0,0,0,0-0.2-0.2l-0.3-0.3c0,0,0,0,0-0.2c0.3,0,1.8,0.2,2.1,0.2c0.3,0,0.3-0.2,0.3-0.3c0-0.2,0-0.5,0-0.6
			c0-0.2,0-0.2,0-0.3c0-0.2,0-0.2,0.2-0.2c0,0,1,0.3,1.3,0.3c0,0,0.2,0,0.2,0.2c0,0.2,0,0.2-0.2,0.2c-0.2,0.2-0.2,0.5-0.2,0.5
			c0,0.3,0.2,0.3,0.3,0.3h2.1c0.3,0,0.3-0.2,0.3-0.3c0-0.2,0-0.3-0.2-0.6c0-0.2,0-0.3,0-0.3c0-0.2,0.2-0.2,0.2-0.2l1.1,0.3l0.2,0.2
			c0,0,0,0-0.2,0.2c-0.2,0.2-0.3,0.5-0.3,0.6c0,0.2,0.2,0.2,0.3,0.2c0.3,0,0.6,0,0.6,0c0.2,0,0.6-0.8,0.8-0.8c0.2,0,1.5,0.8,1.5,1
			s-0.3,0.2-0.8,0.2h-2.1V68.1z M207.5,74.9c0.5,0,0.5-0.2,0.5-1s0-1-0.5-1h-2.9c-0.3,0-0.5,0-0.5,0.5c0,1.3,0.2,1.3,0.5,1.3h2.9
			V74.9z"/>
		<path class="st6" d="M222.7,72.6c0.2,0,0.3,0,0.5-0.2c0.2-0.2,0.3-0.3,0.3-0.3c0.2,0,1.3,0.6,1.3,0.8c0,0.2,0,0.2-0.2,0.3
			c-0.2,0.2-0.3,0.2-0.3,0.2c-0.2,0.2-0.2,1-0.2,1.8c0,0.3,0.2,1.6,0.2,1.9c0,0.3,0,0.8-0.8,0.8c-0.3,0-0.5-0.2-0.5-0.6
			c0-0.3-0.3-0.3-0.5-0.3h-4.4c-0.5,0-0.5,0.2-0.5,0.5c0,0.2,0,0.3-0.2,0.3c-0.2,0.2-0.5,0.3-0.6,0.3c-0.3,0-0.5-0.3-0.5-0.5
			c0-0.2,0-0.6,0-0.8c0-0.3,0-0.8,0-1.8c0-0.5,0-1,0-1.5c0-0.2,0-0.3-0.2-0.3l-0.3,0.2c-1.6,0.6-3.1,1.1-3.4,1.1c0,0-0.2,0-0.2-0.2
			c0,0,0-0.2,0.5-0.3c1.5-0.6,4.7-1.9,7.4-5c0.8-1,1.5-2.1,1.5-2.3c0-0.2-0.2-0.2-0.3-0.2h-3.7c-0.5,0-0.5,0-1,0.5
			c-1.6,1.6-3.4,2.9-3.9,2.9h-0.2c0,0,0.8-0.8,1-1c0.6-0.5,2.9-2.9,3.4-4.5c0-0.2,0-0.3,0.2-0.3s1.5,0.6,1.5,0.8
			c0,0-0.3,0.3-0.5,0.3c-0.2,0.2-0.6,0.8-0.6,0.8c0,0.2,0.2,0.2,0.3,0.2h3.4c0.3,0,0.3,0,0.5-0.3c0.3-0.5,0.3-0.5,0.5-0.5
			c0.2,0,1.5,0.5,1.5,0.8c0,0.2,0,0.2-0.5,0.5c-0.2,0.2-0.3,0.3-0.5,0.6c-1.8,2.6-3.9,4-4.7,4.5c-0.3,0.2-0.3,0.2-0.3,0.3
			c0,0.2,0.3,0.2,0.5,0.2h4.5V72.6z M218.7,70c0,0.8-0.6,0.8-0.6,0.8c-0.3,0-0.3,0-0.5-0.8c-0.2-0.6-0.3-0.8-0.6-1.3
			c-0.2-0.2-0.2-0.3-0.2-0.3C216.9,68.4,218.7,68.7,218.7,70z M218.2,73.1c-0.2,0-0.3,0-0.5,0.2c0,0.2,0,1.1,0,1.3
			c0,0.3,0,1.8,0,1.8c0,0.2,0.3,0.2,0.5,0.2h4.7c0.3,0,0.3-0.2,0.5-0.2c0-0.2,0-1.8,0-2.1c0-1.1,0-1.1-0.5-1.1H218.2z"/>
		<path class="st6" d="M229,72.1c-0.2,0-0.8,0.2-1.1,0.3l-0.3,0.3c0,0-0.2,0-0.2-0.2c0-0.2-0.5-1.1-0.5-1.3c0-0.2,0-0.2,0.2-0.2
			c0,0,0.3,0,0.5,0s0.6,0,0.8,0c0.5,0,0.6-0.2,1-0.5c0.6-0.8,1.6-2.6,1.8-2.7c0-0.2,0.3-0.8,0.3-0.8c0.2,0,1.3,0.8,1.3,1
			c0,0.2-0.3,0.3-0.5,0.3c-0.5,0.2-0.5,0.2-1.3,1.3c-1.1,1.3-1.3,1.5-1.3,1.5c0,0.2,0.2,0.2,0.3,0.2c0.2,0,0.8,0,1,0
			c0.6,0,0.8,0,0.8-0.2c0-0.2-0.2-0.5-0.3-0.6l-0.2-0.2c0.3,0,1.9,1.1,1.9,2.4c0,0.5-0.5,0.6-0.6,0.6c-0.3,0-0.5-0.3-0.5-0.5
			c-0.2-0.8-0.2-0.8-0.3-0.8c-0.2,0-1,0.2-1.1,0.2c-0.3,0.2-0.3,0.2-0.3,0.8c0,0.3,0,1.8,0,2.1c0,0.5,0,1.8,0,2.1c0,0,0,0.5,0,0.6
			c0,0.6-0.6,0.8-0.8,0.8c-0.3,0-0.3-0.3-0.3-0.5c0-0.5,0-3.6,0-4.4v-0.8c0-0.2,0-0.3,0-0.5C229.4,72.1,229.2,72.1,229,72.1z
			 M229,73.6c0,0.2-0.3,0.5-0.5,0.6c0,0.2-0.5,1-0.5,1.1c-0.5,1.1-1,1.8-1.1,1.8c0,0,0,0,0-0.2c0,0,0.2-0.3,0.2-0.5
			c0.2-0.8,0.5-2.4,0.5-3.1c0-0.5,0-0.5,0.2-0.5h0.2C228.4,73.3,229,73.4,229,73.6z M231.3,65.3c0,0,0,0.2-0.3,0.3
			c0,0-1.6,2.3-1.6,2.4c0,0,0,0.2,0.3,0.5c0.2,0.2,0.2,0.5,0.2,0.6c0,0.5-0.3,0.6-0.5,0.6c-0.5,0-0.6-0.6-0.8-0.8
			c-0.2-0.5-0.5-1-1-1.3l-0.3-0.3h0.2c0.2,0,0.5,0.2,0.8,0.2c0.2,0,0.5,0.3,0.6,0.3c0.3,0,0.8-2.1,1-2.7c0.2-0.5,0.2-0.5,0.3-0.5
			C230,64.5,231.3,65,231.3,65.3z M232.9,75.2c0,0.3-0.3,0.6-0.6,0.6c-0.3,0-0.3-0.2-0.5-0.5c-0.2-0.6-0.5-1.5-0.8-1.9l-0.2-0.5
			c0,0,0.2,0,0.3,0.2C232.3,73.9,232.9,74.6,232.9,75.2z M231.5,77C231.3,77,231.3,77,231.5,77C231.3,77,231.5,77,231.5,77
			c0.3-0.2,1.8,0,2.1,0c0.3,0,0.3-0.2,0.3-0.3c0-0.8,0.2-7.1,0.2-8.4c0-0.6,0-2.3,0-2.9c0-0.2,0-0.5,0-0.6v-0.2
			c0.2,0,0.6,0.3,0.6,0.3c0.3,0.2,0.5,0.2,0.8,0.2h2.3c0.3,0,0.3,0,0.5-0.2c0.3-0.3,0.3-0.3,0.5-0.3c0,0,1.1,0.5,1.1,0.8
			c0,0.2,0,0.2-0.3,0.3c-0.2,0.2-0.2,0.6-0.2,1.1c0,0.3,0,1.9,0,2.3c0,1,0,6,0,7.1c0,0.2,0,0.3,0,0.3c0.2,0,0.5-0.6,0.6-0.6
			c0.2,0,1,0.8,1,1.1c0,0.2,0,0.2-0.6,0.2h-6.5c-0.5,0-1.1,0-1.6,0H232c0,0-0.2,0-0.2-0.2H231.5z M237.8,73.1c0.5,0,0.5-0.2,0.5-0.6
			v-2.7c0-0.2,0-0.3-0.5-0.3h-2.4c-0.2,0-0.3,0-0.3,0.2c0,0.2,0,1.5,0,1.6c0,0.3,0,1.6,0,1.8c0.2,0.2,0.3,0.2,0.3,0.2H237.8z
			 M237.8,77c0.5,0,0.5,0,0.5-1.6c0-0.3,0-1.6,0-1.8c-0.2-0.2-0.3-0.2-0.3-0.2h-2.3c-0.2,0-0.3,0-0.3,0.2c0,0.2,0,1.5,0,1.6
			c0,0.2,0,1.5,0,1.5c0.2,0.2,0.3,0.2,0.3,0.2h2.1V77z M237.8,68.9c0.5,0,0.5-0.3,0.5-0.5c0-0.2,0-2.4,0-2.4c0-0.2-0.2-0.3-0.5-0.3
			h-2.3c-0.5,0-0.5,0.2-0.5,0.5v2.4c0,0.2,0.2,0.3,0.5,0.3H237.8z"/>
		<path class="st6" d="M249.2,64.9c0,0.2,0,0.2-0.2,0.3c0,0,0,0,0,0.2c0,0.2,1,1.9,2.4,3.2c1.1,1,2.3,1.8,3.9,2.3
			c0.5,0.2,0.5,0.2,0.5,0.3s0,0.2-0.5,0.3c-0.3,0-0.8,0.2-1,0.5l-0.2,0.2c0,0-0.8-0.3-2.3-1.6c-1.6-1.6-2.3-2.6-2.9-4
			c-0.2-0.2-0.3-0.6-0.3-0.6s-0.2,0-0.5,0.5c-2.4,3.6-6,6-6.3,6c0,0-0.2,0-0.2-0.2c0,0,1.5-1.5,1.8-1.6c2.1-2.1,3.2-4,3.7-5
			c0-0.2,0.3-1,0.3-1C247.6,64,249.2,64.7,249.2,64.9z M250.7,72.8c0.2,0,0.2,0,0.3,0c0.2,0,0.5-0.5,0.6-0.5c0.2,0,1,0.6,1,1
			c0,0.2,0,0.2-0.2,0.3c-0.2,0.2-0.2,0.8-0.2,1c0,0.5,0.2,2.6,0.2,3.1c0,0.5-0.8,0.6-1,0.6c-0.3,0-0.3-0.3-0.3-0.3
			c0-0.6,0-0.8-0.3-0.8h-4.5c-0.2,0-0.5,0-0.5,0.5c0,0.5,0,0.5-0.2,0.5c-0.2,0.2-0.5,0.3-0.8,0.3c-0.3,0-0.3-0.3-0.3-0.3
			c0-0.2,0.2-2.9,0.2-3.4c0-0.3,0-1.1,0-1.5v-0.5c0,0,0-0.2,0.2-0.2c0.2,0,0.8,0.3,1,0.5c0.2,0.2,0.3,0.2,0.6,0.2h4.2V72.8z
			 M248.4,70.4c0.5,0,0.8,0,1-0.2c0.2-0.2,0.6-0.8,0.8-0.8c0.2,0,1.5,1,1.5,1.1c0,0.2-0.3,0.2-0.8,0.2H248c-1.1,0-1.5,0-1.9,0h-0.3
			c0,0,0,0-0.2-0.2l-0.3-0.3c0,0,0,0,0-0.2c0.2,0,0.6,0,0.6,0c0.8,0,1.5,0,2.1,0h0.5V70.4z M250.5,76.5c0.5,0,0.5-0.3,0.5-0.5
			c0-0.3,0-2.1,0-2.4c0-0.2,0-0.5-0.5-0.5h-4.7c-0.5,0-0.5,0.3-0.5,0.5c0,0.3,0,2.1,0,2.4c0,0.2,0,0.5,0.5,0.5H250.5z"/>
		<path class="st6" d="M259.9,73.6c-0.5,0-1.5,0-2.1,0h-0.3c0,0,0,0-0.2-0.2l-0.3-0.3c0,0,0,0,0-0.2c0.2,0,0.6,0,0.6,0
			c0.6,0,1.3,0,2.1,0h2.6c0.3,0,0.6,0,0.6-1.1c0,0,0-0.2,0-0.3l-0.2-0.3c0-0.2,0.2-0.2,0.2-0.2s1.6,0.2,1.6,0.5
			c0,0.2-0.3,0.5-0.5,0.5c0,0.2-0.2,0.5-0.2,0.5c0,0.3,0.2,0.3,0.3,0.3h3.4c0.6,0,0.8,0,1-0.3c0.3-0.5,0.3-0.6,0.5-0.6
			c0.2,0,1.3,0.8,1.5,1c0,0,0,0,0,0.2c0,0.2-0.3,0.2-0.8,0.2h-5.2c-0.2,0-0.3,0-0.3,0.2c0,0.2,0.8,1.3,2.6,1.9c1,0.3,2.3,0.8,3.2,1
			c0.2,0,0.2,0.2,0.2,0.2l-0.5,0.2c-0.2,0.2-0.3,0.3-0.8,0.6c0,0-0.2,0.2-0.3,0.2c-0.2,0-2.1-1-3.2-1.9c-0.6-0.6-1.1-1.3-1.5-2.1
			c-0.2-0.2-0.2-0.2-0.2-0.2c-0.2,0-0.2,0-0.3,0.5c-0.5,1.3-1.6,2.7-3.9,3.6c-1,0.3-1.6,0.3-2.3,0.3c-0.2,0-0.3,0-0.3-0.2
			c0,0,0.2,0,0.5-0.2c1.3-0.2,2.7-1.1,3.7-1.9c1-1,1.3-1.9,1.3-2.1c0-0.2-0.2-0.2-0.3-0.2h-2.3V73.6z M257.8,68.1
			c0.3-0.2,1.8,0,2.1,0c0.5,0,0.5-0.2,0.5-0.5c0-0.8,0-1-0.5-1c-0.5,0-1.5,0-1.8,0H258c0,0-0.2,0-0.2-0.2l-0.3-0.3c0,0,0,0,0-0.2
			c0.2,0,0.6,0,0.6,0c0.2,0,1.3,0,1.8,0c0.2,0,0.5,0,0.5-0.5c0-0.2,0-0.8,0-1l-0.2-0.3c0,0,0,0,0.2,0c0,0,0.8,0.2,1.1,0.2
			c0.3,0,0.3,0.2,0.3,0.2s0,0.2-0.2,0.3c-0.2,0.2-0.2,0.3-0.2,0.5c0,0.3,0.2,0.5,0.5,0.5c0.5,0,0.6,0,0.8-0.3
			C263,65,263,65,263.1,65c0.2,0,1.1,0.6,1.1,1c0,0.2-0.3,0.2-0.8,0.2h-1.6c-0.3,0-0.5,0-0.5,0.5c0,0.8,0,1.1,0.5,1.1
			c0.5,0,0.5,0,0.6-0.2c0.2-0.2,0.5-0.6,0.5-0.6c0.2,0,1,0.5,1,1c0,0.3-0.3,0.3-0.8,0.3h-1.3c-0.5,0-0.5,0.2-0.5,0.5
			c0,0.8,0,1,0.3,1c0.3,0,1.9-0.3,2.1-0.3h0.2c0,0.2-1.5,0.6-2.4,1c-2.4,0.6-2.7,0.6-2.9,1c0,0-0.2,0.3-0.3,0.3
			c-0.2,0-0.2-0.2-0.2-0.2l-0.6-1.3c0-0.2,0-0.2,0.2-0.2l0.3,0.2c0.2,0,0.5,0,0.8,0s1.1-0.2,1.5-0.2c0.3,0,0.3-0.2,0.3-0.5
			c0-1.1,0-1.1-0.5-1.1c0,0-1.1,0-1.5,0h-0.2c0,0-0.2,0-0.2-0.2L257.8,68.1z M267.2,65.8c-0.5,0-0.5,0.2-0.5,0.8
			c-0.2,2.4-1.1,3.2-1.9,3.9c-0.5,0.3-1,0.5-1,0.5l0.3-0.3c1.1-1.1,1.6-2.6,1.6-4.2c0-0.2,0-0.5-0.5-0.5c-0.2,0-0.5,0-0.6,0
			c0,0-0.2,0-0.2-0.2l-0.3-0.3c0,0,0,0,0-0.2c0.2,0,0.6,0,0.6,0c0.6,0,1.5,0,2.1,0h1.3c0.2,0,0.3,0,0.5-0.2c0,0,0.2-0.3,0.3-0.3
			c0,0,0.2,0,0.6,0.3c0.5,0.2,0.5,0.3,0.5,0.5c0,0.2,0,0.2-0.2,0.3c-0.2,0.2-0.2,0.3-0.3,1.5c-0.2,1-0.3,2.3-1,3.2
			c-0.3,0.5-1,0.8-1.3,0.8c-0.3,0-0.3-0.2-0.5-0.3c0-0.2-0.2-0.3-0.8-1l-0.2-0.2c0.2,0,1.3,0.2,1.5,0.2c0.3,0,0.5,0,0.8-1.5
			c0.3-1.3,0.3-2.3,0.3-2.4c0-0.3-0.2-0.5-0.5-0.5H267.2z"/>
		<path class="st6" d="M275,73.6c0,0.2-0.3,0.3-0.3,0.3c-0.3,0.3-1.3,1.9-1.6,2.3c-0.2,0.2-0.5,0.5-0.5,0.5s0.5-1.1,0.5-1.3
			c0.3-0.8,0.5-1.6,0.5-1.9c0-0.5,0-0.5,0.2-0.5c0.2,0,0.5,0.2,0.6,0.2C274.5,73.3,275,73.4,275,73.6z M278.2,71.8
			c0-0.2,0-0.2-0.2-0.2c-0.2,0-0.8,0.2-1,0.2c-0.5,0-0.5,0.2-0.5,0.8c0,0.6,0,4,0,4.7c0,0.8-0.6,0.8-0.8,0.8c-0.3,0-0.3-0.3-0.3-0.3
			c0-0.2,0-1.1,0-1.3c0-1.1,0-2.9,0-4c0-0.2,0-0.3-0.3-0.3c-0.3,0-1.5,0.2-1.8,0.2c0,0-0.3,0.2-0.5,0.2c-0.3,0-0.3-1.3-0.3-1.3
			s0-0.2,0.2-0.2c0,0,0.3,0.2,0.5,0.2c0.3,0.2,0.8,0.2,1.5,0.2c0.5,0,0.5,0,0.6-0.3c0.8-1.3,1.6-3.4,1.8-4.2c0-0.3,0-0.3,0.2-0.3
			c0,0,1.5,0.5,1.5,0.8c0,0.2-0.2,0.2-0.2,0.2c-0.2,0-0.3,0-0.5,0.3c-0.5,0.5-2.4,3.4-2.4,3.4s1,0,1.1,0c0.2,0,0.6,0,0.8,0
			c0,0,0.2,0,0.2-0.2c0-0.2-0.5-1-0.5-1.1c0.3,0,1.6,0.8,1.6,1.9c0,0.3-0.2,0.6-0.5,0.6C278.3,72.5,278.2,72.5,278.2,71.8z
			 M274.8,69.9c-0.2,0-0.3-0.2-0.5-0.5c0-0.2-0.3-0.8-1-1.6c-0.2-0.2-0.2-0.2-0.2-0.3s0-0.2,0.2-0.2c0.2,0,1,0.3,1.1,0.3
			c0.2,0,0.8-1.9,1-3.1c0-0.3,0-0.3,0.2-0.3c0.2,0,1.3,0.5,1.3,0.6c0,0.2-0.3,0.3-0.5,0.3c-0.2,0.2-1.5,2.3-1.5,2.4
			c0,0.2,0,0.2,0.2,0.3c0.2,0.2,0.3,0.6,0.3,0.8C275.3,69.5,275.1,69.9,274.8,69.9z M279.2,75.5c0,0.5-0.3,0.8-0.6,0.8
			s-0.3-0.2-0.5-1.1c-0.2-0.6-0.2-0.6-0.5-1.3c0,0-0.2-0.2-0.2-0.3c0.2,0,0.6,0.3,0.8,0.6C278.8,74.6,279.2,75,279.2,75.5z
			 M280.8,68.3c-0.3,0-0.5,0-0.5,0.2c-0.3,0.5-1.1,1.9-1.5,1.9c0,0-0.2,0-0.2-0.2c0,0,0.5-1.1,0.6-1.3c0.6-1.3,1.3-3.4,1.3-4.2v-0.2
			v-0.2c0,0,1.6,0.5,1.6,0.8c0,0.2-0.2,0.2-0.5,0.3c-0.3,0.2-1.1,2.3-1.1,2.3c0,0.2,0.2,0.2,0.3,0.2h2.7c0.5,0,0.5,0,0.6-0.2
			c0.3-0.3,0.3-0.3,0.5-0.3c0.2,0,1.1,0.5,1.1,0.8c0,0.2,0,0.2-0.3,0.3c-0.2,0.2-0.2,0.8-0.2,1.1c0,2.7-0.5,6.1-1.3,7.4
			c-0.3,0.6-1.3,1-1.6,1c-0.2,0-0.2-0.2-0.3-0.5c-0.2-0.3-0.5-0.6-0.8-1c-0.2-0.2-0.3-0.2-0.3-0.2l0.5,0.2c0.5,0.2,0.6,0.2,1,0.2
			c0.6,0,1-0.6,1.1-1.3c0.5-1.8,0.6-3.7,0.6-5.7c0-0.3,0-1.3,0-1.5c-0.2-0.2-0.3-0.2-0.5-0.2H280.8z M282.4,73.1c0,0.6-0.3,1-0.8,1
			c-0.3,0-0.5-0.2-0.6-1.1c-0.2-0.8-0.3-1.3-0.5-1.5c-0.2-0.2-0.2-0.3-0.2-0.3V71c0.3,0,1,0.6,1.1,0.8
			C282.1,72.3,282.4,72.8,282.4,73.1z"/>
		<path class="st2" d="M208.2,146.9c-0.3,0-1.5,0-1.9,0h-0.3c0,0,0,0-0.2-0.2l-0.3-0.3c0,0,0,0,0-0.2c0,0,0.8,0,1,0
			c1.1,0,1.1,0,1.9,0c0.5,0,0.5-0.2,0.5-1c0-0.2,0-1.5,0-1.5c-0.2-0.2-0.2-0.2-0.3-0.2c-0.2,0-1.8,0-2.1,0c-0.3,0-0.3,0-0.3,0
			s0,0,0.3-0.2c2.6-0.5,3.4-0.8,3.7-1c0.5-0.3,0.6-0.3,0.8-0.3c0.2,0,1.5,0.6,1.5,0.8s0,0.2-1,0.3c-1.6,0.2-1.6,0.2-1.6,0.8
			c0,0.2,0,1.9,0,1.9c0,0.3,0.3,0.3,0.5,0.3h0.3c0.3,0,0.5,0,0.6-0.3c0.5-0.5,0.5-0.5,0.6-0.5c0.2,0,1.3,0.8,1.3,1s-0.3,0.2-0.8,0.2
			h-2.1c-0.5,0-0.5,0-0.5,1.1c0,0.5,0.2,0.5,0.3,0.5c0.6,0.2,2.3,0.5,2.3,1.6c0,0.5-0.3,0.8-0.5,0.8c-0.3,0-0.3-0.2-0.8-1
			c-0.3-0.8-1-1.1-1.1-1.1c-0.2,0-0.2,0.2-0.2,0.2c0,0.6,0,4.9,0.2,5.5c0,0.3,0,0.8,0,0.8c0,0.6-0.6,0.8-0.8,0.8
			c-0.3,0-0.3-0.2-0.3-0.5c0-0.8,0.2-4,0.2-4.7c0-0.2,0-0.8,0-1s0-0.3-0.2-0.3c0,0-0.2,0-0.3,0.2c-0.8,1-1.6,1.8-2.9,2.8
			c-0.2,0.2-0.2,0.2-0.3,0.2c0,0,1-1.1,1.1-1.3c1.5-1.8,2.6-4.2,2.6-4.4c0-0.2-0.2-0.2-0.2-0.2h-0.6V146.9z M215,147.8
			c0,2.6,0,2.9,0,3.6c0,0.2,0,0.6,0,0.6c0,0.5-0.2,0.8-0.8,0.8c-0.3,0-0.3-0.2-0.3-0.3c0-0.2,0-0.3,0-0.5c0-0.5,0-2.3,0-4.4
			c0-0.6,0-2.4-0.2-3.6c0-0.2,0-0.3,0-0.3s0-0.2,0.2-0.2c0,0,1.6,0.3,1.6,0.5v0.2c-0.3,0.3-0.3,0.3-0.3,0.5
			C215.1,145.2,215,146.5,215,147.8z M218.1,148.2c0,1,0.2,4.9,0.2,5.7c0,1.1,0,1.5-0.3,1.6c-0.3,0.3-0.8,0.5-1.1,0.5
			c-0.2,0-0.3-0.2-0.3-0.3c-0.2-0.5-1.1-1-1.3-1c0,0-0.2,0-0.2-0.2h0.2c0.2,0,1,0.2,1.1,0.2c0.8,0,0.8-0.2,0.8-1.3
			c0-1.5,0-8.7,0-9.9c0-0.2-0.2-1-0.2-1l0.2-0.2c0,0,1.3,0.2,1.5,0.3c0.2,0,0.2,0,0.2,0.2s0,0.2-0.3,0.3c-0.2,0-0.2,0.3-0.2,0.5
			C218.1,143.8,218.1,147.3,218.1,148.2z"/>
		<path class="st2" d="M230.2,150.3c0.2,0,0.3,0,0.5-0.2c0.2-0.2,0.3-0.3,0.5-0.3c0.3,0,0.8,0.6,0.8,0.8c0,0.2-0.3,0.3-0.3,0.5
			c0,0.3-0.2,1.3-0.2,3.4c0,0.5,0.2,0.5,0.5,0.5c0.2,0,0.2,0,0.5-0.3c0.3-0.5,0.5-0.5,0.5-0.5c0.3,0,1.3,1,1.3,1.1s0,0.2-0.8,0.2
			h-10.3c-1.3,0-1.8,0-1.9,0h-0.3c0,0,0,0-0.2-0.2l-0.3-0.3c0,0,0,0,0-0.2c0.2,0,0.6,0,0.6,0c0.2,0,1.3,0,1.5,0
			c0.3,0,0.5-0.2,0.5-0.5c0-1.1,0-2.3,0-3.4c0-0.3,0-0.5-0.2-0.5c0,0-1.8,1-2.1,1h-0.2c0,0,1-0.6,1.1-0.8c2.3-1.8,3.2-4.2,3.2-4.5
			c0-0.2-0.2-0.2-0.3-0.2h-1.3c-1.3,0-1.8,0-1.9,0H221c0,0-0.2,0-0.2-0.2l-0.3-0.3c0,0,0,0,0-0.2c0.2,0,0.6,0,0.6,0
			c0.8,0,1.5,0,2.1,0h7.3c0.6,0,0.8,0,0.8-0.2c0.5-0.5,0.6-0.8,0.8-0.8c0.2,0,1.3,0.8,1.3,1.1c0,0.2,0,0.2-0.8,0.2h-3.2
			c-0.2,0-0.3,0-0.3,0.2c0,0.5,1.8,2.8,4.4,3.6c0,0,0.3,0,0.3,0.2c0,0,0.2,0,0.2,0.2c0,0.2-0.6,0.3-0.8,0.5c-0.2,0-0.5,0.5-0.6,0.5
			c-0.2,0-2.4-1.3-3.6-3.7c-0.2-0.3-0.3-0.8-0.5-1c-0.2-0.2-0.3-0.2-0.5-0.2h-2.1h-0.2l0.3,0.5c0,0,0,0.2-0.3,0.2
			c-0.2,0-0.2,0.2-0.3,0.2c-0.2,0.2-1,1.5-2.3,2.8c-0.2,0.2-0.3,0.3-0.3,0.3c0,0.2,0.2,0.2,0.5,0.2h6.9V150.3z M225.3,145.4
			c-0.3,0-0.5-0.2-1.1-1.1c-0.3-0.5-1.1-1.3-1.5-1.6c-0.3-0.2-0.3-0.2-0.3-0.3c0,0,0,0,0.2,0c0,0,3.4,1,3.4,2.4
			C226,145.1,225.6,145.4,225.3,145.4z M225,155.1c0.2,0,0.3,0,0.5-0.3c0-0.2,0-0.5,0-3.6c0-0.3,0-0.5-0.5-0.5h-0.5
			c-0.2,0-0.3,0-0.5,0.3c0,0,0,3.2,0,3.6c0,0.2,0,0.5,0.5,0.5H225z M227.6,155.1c0.2,0,0.5,0,0.5-0.3c0,0,0-3.2,0-3.6
			c0-0.2,0-0.5-0.5-0.5h-0.6c-0.2,0-0.5,0-0.5,0.3c0,0.2,0,2.9,0,3.2c0,0.5,0,0.8,0.3,0.8H227.6z M232.1,143c0,0.2,0,0.2-0.3,0.3
			c-0.6,0.2-2.9,2.3-3.2,2.3h-0.2c0,0,0.3-0.5,0.5-0.6c0.5-0.6,1.3-1.8,1.5-2.3c0.2-0.3,0.2-0.3,0.3-0.3h0.2
			C232,142.7,232.1,142.7,232.1,143z M230,155.1c0.2,0,0.3,0,0.5-0.2c0-0.2,0-3.2,0-3.6c0-0.3,0-0.6-0.5-0.6h-0.5
			c-0.2,0-0.3,0-0.5,0.2c0,0.2,0,2.1,0,2.4c0,0.2,0,1.5,0,1.5c0.2,0.2,0.3,0.2,0.5,0.2h0.5V155.1z"/>
		<path class="st2" d="M241.7,144.3c0,0.2-0.2,0.2-0.5,0.3c-0.2,0-0.5,0.5-0.8,1c-1.8,2.9-4.2,4.2-4.5,4.2c0,0-0.2,0-0.2-0.2
			c0-0.2,0-0.2,0.3-0.3c2.1-1.6,3.2-4.2,3.4-4.5c0.2-0.2,0.5-1.5,0.5-1.5C240.2,143.1,241.7,143.9,241.7,144.3z M243.1,148.6
			c-0.3,0-0.3,0-0.5,0.8c-0.2,1.3-0.5,3.9-3.1,5.5c-1.3,0.6-2.7,1-2.9,1c0,0-0.2,0-0.2-0.2c0,0,0-0.2,0.3-0.2c1-0.3,2.3-1.1,2.9-1.8
			c1.1-1.1,1.8-3.2,1.8-4.9c0-0.3-0.2-0.3-0.3-0.3h-0.5c-0.5,0-1.3,0-1.6,0h-0.3c0,0-0.2,0-0.2-0.2l-0.3-0.3c0,0,0,0,0-0.2
			c0.2,0,0.5,0,0.6,0c0.8,0,1.3,0,2.1,0h3.4c0.6,0,0.8,0,1-0.3c0.2-0.3,0.3-0.3,0.5-0.3c0.2,0,1.1,0.6,1.1,1c0,0-0.3,0.3-0.3,0.5
			c0,0.2-0.2,1.9-0.2,2.3c-0.2,1.8-0.3,3.1-0.6,3.7c-0.5,0.6-1.3,1-1.6,1c-0.2,0-0.2,0-0.3-0.5c-0.2-0.3-0.6-0.5-1.5-0.8
			c-0.3-0.2-0.5-0.2-0.5-0.3c0-0.2,0.2-0.2,0.2-0.2c0.2,0,0.5,0.2,0.6,0.2c0.8,0.2,1,0.2,1.1,0.2c0.8,0,1.1-0.2,1.3-1.8
			c0.2-1.1,0.3-2.9,0.3-3.7c0-0.5,0-0.5-0.5-0.5h-1.9V148.6z M243.9,143.8c-0.3,0-1,0-1.3,0h-0.3c0,0,0,0-0.2-0.2l-0.3-0.3
			c0,0,0,0,0-0.2c0.2,0,0.5,0,0.6,0c0.2,0,0.8,0,1,0c0.3,0,0.5-0.3,0.6-0.3c0.3-0.5,0.3-0.5,0.5-0.5c0.2,0,1.3,0.8,1.3,1.1
			c0,0.2,0,0.2-0.5,0.3c0,0-0.3,0.2-0.3,0.3c0,0.8,1.9,3.2,4.5,3.4c0,0,0.2,0,0.2,0.2c0,0-0.3,0.2-0.5,0.2c-0.3,0.2-0.8,0.5-1,0.6
			c0,0-0.2,0.2-0.3,0.2c-0.5,0-3.1-2.1-3.6-4.4c-0.2-0.6-0.2-0.6-0.5-0.6V143.8z"/>
		<path class="st2" d="M256.8,146.1c0.2,0,0.3,0,0.3,0l0.3-0.3c0,0,1,0.5,1,0.8l-0.3,0.3c-0.2,0.2-0.2,1.3-0.2,1.5
			c0,0.6,0,4,0.2,4.9c0,0.3,0.2,1.9,0.2,2.3c0,0.5-0.3,0.6-0.6,0.6s-0.3,0-0.3-0.8c0-0.5-0.3-0.5-0.5-0.5h-3.6
			c-0.3,0-0.3,0.2-0.5,0.6c0,0.2,0,0.6-0.6,0.6c-0.3,0-0.3-0.2-0.3-0.3v-0.5c0-1.9,0.2-2.7,0.2-6.6c0-1.6,0-1.9,0-2.3l-0.2-0.5
			c0,0,0-0.2,0.2-0.2c0.2,0,0.3,0.2,0.5,0.2c0.3,0.2,0.5,0.2,0.6,0.2c0.5,0,0.8,0,0.8-0.5c0-1.9,0-1.9-0.5-1.9c-0.3,0-0.6,0-1,0
			c0,0-0.3,0-0.5,0c0,0,0,0-0.2-0.2l-0.3-0.3c0,0,0,0,0-0.2c0.2,0,0.5,0,0.6,0c0.5,0,1.1,0,1.9,0h1.9c0.6,0,0.6,0,1-0.3
			c0.3-0.5,0.3-0.5,0.5-0.5c0.2,0,1.1,0.6,1.1,1c0,0.2-0.3,0.2-0.8,0.2h-1.3c-0.5,0-0.5,0.2-0.5,1c0,1.5,0,1.5,0.3,1.5h0.5V146.1z
			 M252.8,146.5c0,0.2,0,2.8,0,3.2c0,0.3,0,0.3,0,0.3c0.2,0,0.5-0.5,0.6-1c0.2-0.6,0.3-1.6,0.3-2.4c0-0.2,0-0.5-0.3-0.5
			C253.1,146.4,253,146.4,252.8,146.5z M256.8,152c0.5,0,0.5-0.3,0.5-0.6c0-0.2,0-1.1,0-1.3c0-0.2,0-0.2-0.2-0.2H257
			c-0.3,0-0.5,0-0.6,0c-1,0-1-0.3-1-1.5v-1.9c0-0.2-0.2-0.2-0.5-0.2c-0.3,0-0.3,0-0.3,0.8c0,1.1-0.3,2.1-1.6,3.2
			c-0.2,0.2-0.2,0.2-0.2,0.6c0,0.6,0,0.8,0.5,0.8h3.6V152z M256.8,154.1c0.5,0,0.5-0.2,0.5-1.5c0-0.3-0.3-0.5-0.5-0.5h-3.7
			c-0.5,0-0.5,0.3-0.5,0.6c0,1.1,0,1.1,0.5,1.1h3.7V154.1z M255.2,145.9c0,0,0-1,0-1.1c0-1,0-1.1-0.2-1.1c0,0,0,0-0.3,0
			c0,0-0.3,0-0.3,0.2c0,0,0,1.6,0,1.8c0,0.2,0,0.3,0.3,0.3C255.2,146.1,255.2,146.1,255.2,145.9z M256.5,146.4c-0.2,0-0.3,0-0.3,0.3
			v2.1c0,0.2,0,0.3,0.3,0.3c0.3,0,0.3-0.3,0.3-0.5s0-0.3,0.2-0.3c0,0,0.2,0.3,0.2,0.5c0,0.2,0,0.3,0.2,0.3c0.2,0,0.2-0.2,0.2-0.2
			c0-0.3,0-1.8,0-2.1c0-0.3-0.2-0.3-0.3-0.3h-0.6V146.4z M260.7,148.2c-0.5,0-0.5,0.3-0.5,0.5v4.7c0,1.1,0.2,1.3,1.9,1.3
			c0.3,0,1,0,1.5-0.3c0.2-0.2,0.3-0.3,0.6-1.3c0-0.2,0-0.2,0.2-0.2c0.2,0,0.2,1,0.2,1.1s0.3,0.5,0.3,0.6c0,0.2-0.3,0.5-0.8,0.6
			c-0.5,0.2-1.6,0.2-1.9,0.2c-2.7,0-3.1-0.2-3.1-2.4c0-0.3,0-2.4,0-2.8c0-0.5,0-2.1,0-2.4c0-0.2-0.2-0.5-0.2-0.6
			c0-0.2,0-0.2,0.2-0.2c0.2,0,0.5,0.2,0.6,0.3c0.2,0.2,0.3,0.2,0.8,0.2h2.1c0.3,0,0.5-0.2,0.5-0.3v-3.1c0-0.5,0-0.6-0.5-0.6h-1.1
			c-0.3,0-1.5,0-1.9,0h-0.3c0,0,0,0-0.2-0.2l-0.3-0.3c0,0,0,0,0-0.2c0.2,0,0.5,0,0.6,0c0.5,0,1.3,0,2.1,0h1c0.3,0,0.3,0,0.5-0.2
			c0.2-0.2,0.2-0.3,0.3-0.3c0.2,0,1.1,0.6,1.1,0.8l-0.3,0.3c-0.2,0.2-0.2,0.3-0.2,0.6c0,0.5,0,2.9,0,3.6c0,0.2,0,0.8-0.8,0.8
			c-0.3,0-0.3-0.3-0.3-0.5c0-0.3-0.2-0.3-0.3-0.3h-1.8V148.2z"/>
		<path class="st2" d="M274.1,143.3c0,0.2,0.2,0.2,0.2,0.5c1.8,2.4,4.4,3.2,5.3,3.6c0.2,0,0.6,0.2,0.6,0.2s0,0-0.5,0.2
			c-0.2,0-0.6,0.3-0.8,0.6c-0.2,0.2-0.2,0.3-0.2,0.3c-0.2,0-1.1-0.6-1.5-0.8c-1.3-1-2.4-1.9-3.4-3.7c-0.3-0.5-0.3-0.5-0.3-0.5
			c-0.2,0-0.2,0-0.2,0.2c-0.6,0.8-1.5,1.6-1.8,1.8c-1.8,1.8-4.7,3.4-5.3,3.4h-0.2c0,0,0.3-0.3,0.5-0.3c3.2-2.1,5.3-5,5.7-5.8
			c0.2-0.3,0.2-0.3,0.2-0.3s1.5,0.6,1.5,0.8C274.3,143,274.1,143.3,274.1,143.3z M276.7,154.8c0.5,0,0.6,0,0.8-0.2
			c0.2-0.2,0.6-0.8,0.8-0.8c0.2,0,0.8,0.5,1,0.6c0.5,0.3,0.5,0.3,0.5,0.5s-0.3,0.2-1,0.2h-9.4c-0.3,0-1.5,0-1.9,0h-0.3
			c0,0,0,0-0.2-0.2l-0.3-0.3c0,0,0,0,0-0.2c0.2,0,0.6,0,0.6,0c0.6,0,1.3,0,2.1,0h2.6c0.2,0,0.3,0,0.5-0.2c0-0.2,0-1.8,0-2.1
			c0-0.2,0-2.3,0-2.3c-0.2-0.2-0.3-0.2-0.3-0.2h-0.6c-0.3,0-1.5,0-1.9,0h-0.3c0,0,0,0-0.2-0.2l-0.3-0.3c0,0,0,0,0-0.2
			c0.2,0,0.6,0,0.6,0c0.6,0,1.3,0,2.1,0h0.8c0.5,0,0.5-0.2,0.5-0.8c0-1.5,0-1.5-0.5-1.5c0,0-0.8,0-1.1,0c0,0-0.2,0-0.3,0
			c0,0,0,0-0.2-0.2l-0.2-0.3c0,0,0,0,0-0.2c0,0,0.3,0,0.5,0c0.5,0,1.3,0,1.8,0h0.6c0.6,0,0.6,0,0.6-0.2c0.2-0.2,0.5-0.6,0.6-0.6
			c0,0,1.1,0.8,1.1,1c0,0.2-0.3,0.2-0.6,0.2h-1c-0.5,0-0.5,0.2-0.5,0.8c0,1.3,0,1.3,0.5,1.3h0.6c0.8,0,1,0,1.1-0.3
			c0.3-0.3,0.3-0.5,0.5-0.5c0.2,0,1.1,0.8,1.1,1c0,0.2-0.3,0.2-0.8,0.2h-2.6c-0.3,0-0.5,0.2-0.5,0.5c0,0.5,0,3.7,0,3.9
			c0,0.3,0.2,0.3,0.5,0.3h2.4V154.8z M271.6,153.3c0,0.6-0.5,1-0.8,1c-0.3,0-0.3-0.2-0.6-1.1c0-0.3-0.3-1.1-0.6-1.6l-0.2-0.3
			c0,0,0,0,0.2,0C269.8,151.1,271.6,151.9,271.6,153.3z M277.7,151.7c0,0.2,0,0.2-0.5,0.3c-0.3,0.2-0.5,0.2-1.1,1
			c-0.5,0.5-1.5,1.5-1.6,1.5c0,0,0,0,0-0.2c0-0.2,0.3-0.5,0.3-0.5c0.6-1,1.1-2.3,1.1-2.8c0-0.2,0-0.3,0.2-0.3c0,0,0.2,0,0.3,0
			C276.6,150.9,277.7,151.6,277.7,151.7z"/>
		<path class="st6" d="M535.2,76.5c0,0.2,0,0.2-0.8,0.3c0,0-2.9,0.8-3.4,1c-0.8,0.2-1.6,0.2-1.6,0.2h-0.2c0,0,1.5-0.6,1.8-0.6
			c0.6-0.3,2.1-0.8,2.6-1.3l0.2-0.3c0,0,0.6,0.3,0.6,0.5C535,76.3,535.2,76.3,535.2,76.5z M533.4,66.5c0,0.2-0.2,0.3-0.2,0.3
			c-0.2,0.2-0.2,0.2-0.2,0.5c0,0,0.2,1.5,0.2,1.8s0,0.8-0.5,0.8c-0.2,0-0.3,0-0.5-0.2c0-0.2,0-1.3,0-1.5c0-1,0-1.1-0.2-1.1
			c-0.2,0-0.6,0.3-0.8,0.3c-0.3,0.2-1.6,0.8-1.8,0.8c0,0,0.2-0.2,0.3-0.3c1.8-1.3,2.9-2.3,3.4-3.2c0-0.2,0.2-0.3,0.2-0.3
			s1.3,0.6,1.3,1c0,0.2-0.2,0.2-0.3,0.2c-0.3,0-1,0.6-1,0.6C533.2,66.2,533.4,66.3,533.4,66.5z M538.7,70.5c0.3,0,0.3,0,0.5-0.2
			c0.2-0.2,0.3-0.3,0.5-0.3s1.1,0.5,1.1,0.8c0,0-0.3,0.3-0.5,0.5v0.3c0,0.5,0,2.7,0,3.4c0,0.5,0,1-0.6,1c-0.2,0-0.3,0-0.5-0.2
			c-0.2-0.2-0.2-0.3-0.5-0.3h-5.8c-0.3,0-0.3,0-0.5,0.3c-0.2,0.3-0.5,0.3-0.6,0.3c-0.3,0-0.3-0.3-0.3-0.5c0-0.3,0-2.1,0-2.4
			c0-0.3,0-1.8,0-2.3c0-0.2,0-0.6,0-0.8c0-0.2,0-0.2,0.2-0.2c0.2,0,0.5,0.2,0.8,0.3c0.2,0.2,0.3,0.2,0.5,0.2H538.7z M532.9,72.3
			c-0.3,0-0.5,0-0.5,0.5s0.2,0.5,0.5,0.5h5.8c0.3,0,0.5,0,0.5-0.5s-0.2-0.5-0.5-0.5H532.9z M538.7,72c0.2,0,0.5,0,0.5-0.5
			s0-0.6-0.5-0.6h-5.8c-0.3,0-0.5,0-0.5,0.5c0,0.5,0,0.6,0.5,0.6H538.7z M538.7,75c0.5,0,0.5-0.2,0.5-0.6c0-0.5,0-0.6-0.5-0.6h-5.8
			c-0.5,0-0.5,0.2-0.5,0.5c0,0.5,0,0.6,0.5,0.6h5.8V75z M537.3,69.5c-0.3,0-1.5,0-1.9,0H535c0,0,0,0-0.2-0.2l-0.3-0.3c0,0,0,0,0-0.2
			h0.5c0.3,0,1.5,0,1.6,0c0.3,0,0.5,0,0.5-0.5c0-1,0-1.1-0.5-1.1h-0.5c-0.3,0-1.5,0-1.9,0h-0.3c0,0-0.2,0-0.2-0.2l-0.3-0.3
			c0-0.2,0-0.2,0-0.2c0.2,0,0.5,0,0.6,0c0.5,0,1.3,0,2.1,0h0.3c0.3,0,0.5-0.2,0.5-0.5c0-0.2,0-0.8,0-0.8c0-0.2-0.2-0.2-0.5-0.2
			c-0.2,0-1,0-1.1,0H535c0,0,0.2-0.2,0.3-0.2c0.2,0,2.4-0.6,3.1-1c0,0,0.3-0.3,0.5-0.3c0,0,1.1,0.8,1.1,1c0,0.2-1.6,0.2-1.8,0.3
			c-0.3,0-0.3,0.2-0.3,1c0,0.3,0,0.5,0.5,0.5h1.3c0.6,0,0.6,0,0.8-0.2c0.2-0.2,0.6-0.8,0.8-0.8c0.2,0,1.3,0.8,1.3,1
			c0,0.2-0.3,0.2-0.8,0.2h-3.2c-0.5,0-0.5,0-0.5,1.1c0,0.3,0.2,0.5,0.3,0.5h0.5c0.6,0,0.6,0,0.8-0.2c0,0,0.5-0.5,0.6-0.5
			c0.2,0,1.1,0.6,1.1,0.8c0,0.2-0.3,0.2-0.8,0.2h-3.4V69.5z M540.8,78.3c-0.3,0-0.3,0-1.5-0.8c-0.6-0.5-1.8-1.1-2.6-1.6
			c-0.3-0.2-0.3-0.2-0.3-0.2s0,0,0.2,0c0.2,0,1.1,0.2,2.1,0.6c1.8,0.6,2.3,1,2.4,1.6C541.3,78,541,78.3,540.8,78.3z"/>
		<path class="st6" d="M548.4,66.3c0,0,0.3,0.2,0.3,0.3l-0.2,0.2c-0.2,0.2-0.2,0.2-0.2,0.5c0,0.3,0,1.6,0,1.9s-0.3,0.6-0.6,0.6
			c-0.5,0-0.5-0.3-0.5-0.6v-1.8c0-0.5,0-0.5-0.2-0.5c0,0-0.5,0.2-0.6,0.3c-1.3,0.6-2.1,0.8-2.3,0.8c0,0,0,0,0.2-0.2
			c0.3-0.2,1-0.5,1.3-0.8c1-0.6,2.7-2.1,2.9-2.7c0-0.2,0-0.2,0.2-0.2c0,0,1.3,0.8,1.3,1.1c0,0.2-0.2,0.2-0.3,0.2
			c-0.3,0-1.1,0.5-1.1,0.6C548.4,66.2,548.4,66.3,548.4,66.3z M550.5,76.3c0,0.2-0.2,0.2-0.5,0.2c-0.2,0-1.1,0.5-1.3,0.5
			c-1,0.3-1.8,0.6-2.7,1l-0.6,0.2c0,0,1.6-1,1.9-1.1c0.3-0.2,1.5-0.8,1.8-1.3c0.2-0.2,0.2-0.3,0.3-0.3c0,0,0.5,0.3,0.6,0.3
			C550.5,76.2,550.5,76.2,550.5,76.3z M554.1,70.4c0.2,0,0.3,0,0.5,0l0.3-0.3c0,0,1,0.5,1,0.6c0,0.2-0.3,0.3-0.5,0.5v1
			c0,0.3,0,2.3,0,2.7c0,0.3,0,1-0.6,1c-0.3,0-0.3-0.2-0.5-0.3c-0.2-0.2-0.2-0.2-0.3-0.2h-5.7c-0.2,0-0.3,0-0.5,0.3
			c0,0.2-0.3,0.3-0.6,0.3c-0.5,0-0.5-0.5-0.5-1c0-0.5,0-3.2,0-3.7c0-0.2,0-0.3,0-0.5v-0.5c0-0.2,0-0.2,0.2-0.2c0.2,0,0.3,0,0.8,0.3
			c0.3,0.2,0.5,0.2,0.5,0.2h6V70.4z M554.1,71.8c0.3,0,0.5-0.2,0.5-0.5s0-0.5-0.5-0.5h-5.7c-0.3,0-0.5,0.2-0.5,0.5s0,0.5,0.5,0.5
			H554.1z M548.4,72.3c-0.3,0-0.5,0.2-0.5,0.6c0,0.2,0,0.5,0.5,0.5h5.7c0.5,0,0.5-0.3,0.5-0.6c0-0.2,0-0.5-0.5-0.5H548.4z
			 M554.1,74.9c0.3,0,0.3-0.2,0.3-0.6c0-0.3,0-0.5-0.3-0.5h-5.7c-0.3,0-0.3,0.3-0.3,0.5c0,0.5,0,0.6,0.3,0.6H554.1z M554.6,66.3
			c0.6-0.2,0.8-0.2,1-0.3c0.3-0.5,0.5-0.6,0.6-0.6c0.2,0,1.3,0.6,1.3,0.8c0,0.2-0.3,0.2-0.8,0.3l-3.2,0.3c-0.2,0-0.3,0-0.3,0.2
			c0,0.5,2.4,2.1,3.2,2.1c0.3,0,0.3,0,0.6-0.6c0.2-0.2,0.3-0.6,0.5-0.6c0,0,0,0,0,0.2c0,0-0.2,0.8-0.2,1c0,0.2,0,0.3,0.2,0.3
			c0.2,0.3,0.3,0.3,0.3,0.5c0,0.3-0.5,0.3-0.6,0.3c-0.8,0-2.7-0.6-4.2-2.1c-0.2-0.2-0.8-1-1-1c-0.2,0-0.3,0-0.3,0h-0.3
			c-0.8,0.2-1.5,0.2-1.9,0.3h-0.3c0,0,0,0-0.2,0l-0.3-0.3c0,0,0,0,0-0.2c0,0,0,0,0.5,0c0.2,0,1.6-0.2,1.9-0.2c0.5,0,0.6,0,0.6-0.3
			c0-0.2-0.8-1.9-0.8-1.9h0.2c0.2,0,1.6,0.2,1.6,0.5c0,0.2,0,0.2-0.5,0.5v0.2c0,0.2,0.2,0.3,0.2,0.6c0.2,0.3,0.2,0.3,0.5,0.3
			c0.2,0,0.2,0,0.3,0L554.6,66.3z M555.9,78.1c-0.2,0-0.3-0.2-1.3-0.8c-0.5-0.3-1.6-1.1-2.3-1.5c-0.3-0.2-0.3-0.2-0.3-0.2s0,0,0.2,0
			c0,0,1.3,0.2,2.1,0.5c0.5,0.2,2.1,0.6,2.1,1.5C556.4,78.1,556,78.1,555.9,78.1z M554.6,65.8c-0.2,0-0.2,0-0.6-0.5
			c-0.2-0.2-0.3-0.5-0.6-0.6l-0.2-0.2c0.2,0,0.5,0,1,0.2c0.3,0,0.8,0.2,0.8,0.8C555.1,65.7,554.7,65.8,554.6,65.8z"/>
		<path class="st6" d="M563.5,65.5c-0.2,0.2-0.3,0.2-0.6,0.8c-0.2,0.3-1,1.8-1,1.9c0,0.2,0.2,0.2,0.3,0.3c0.3,0,0.5,0.2,0.5,0.3
			c0,0,0,0.2-0.2,0.3c-0.2,0.2-0.2,0.3-0.2,0.5c0,0.3,0,4.2,0,4.4c0,0.3,0.2,3.6,0.2,3.7c0,0.5-0.5,0.6-0.8,0.6s-0.3-0.3-0.3-0.5
			c0,0,0-0.2,0-0.3c0.2-1.8,0-2.6,0-4.2c0-0.5,0-3.2,0-3.9v-0.2c0,0,0,0-0.3,0.3c-0.8,1.1-1.6,1.8-1.6,1.8s0.3-0.5,0.3-0.6
			c0.8-1.5,2.4-4.5,2.6-5.8c0-0.3,0-0.3,0.2-0.3c0,0,0.5,0.2,1,0.3c0.5,0.2,0.6,0.3,0.5,0.5C563.8,65.2,563.6,65.3,563.5,65.5z
			 M563.2,69.5C563,69.4,563,69.4,563.2,69.5C563,69.4,563.2,69.4,563.2,69.5c0.3-0.2,1.8,0,2.1,0c0.5,0,0.5-0.2,0.5-1.3
			c0-1,0-1-0.5-1c-0.2,0-1.1,0-1.3,0c0,0,0,0-0.2-0.2l-0.3-0.3c0,0,0,0,0-0.2c0.3,0,1.5,0.2,1.8,0.2s0.5-0.2,0.5-0.3
			c0-0.2,0-0.8,0-1c0-0.2-0.2-0.5-0.2-0.6c0-0.2,0-0.2,0.2-0.2s1.3,0.2,1.3,0.5l-0.3,0.3c0,0.2,0,0.6,0,0.8c0,0.3,0,0.5,0.5,0.5h1.3
			c0.3,0,0.5,0,0.5-0.5c0-0.2,0-0.6,0-1c0-0.2-0.2-0.5-0.2-0.6c0-0.2,0-0.2,0.2-0.2c0,0,0.6,0.2,0.8,0.2c0.3,0,0.5,0.2,0.5,0.3
			c0,0.2,0,0.2-0.3,0.3c-0.2,0.2-0.2,0.2-0.2,0.8c0,0.3,0,0.5,0.5,0.5s0.5,0,0.8-0.3c0.3-0.5,0.5-0.5,0.5-0.5c0.3,0,1.1,0.8,1.1,1
			c0,0.2,0,0.2-0.8,0.2h-1.6c-0.3,0-0.5,0-0.5,0.5s0,1.1,0,1.6c0,0.3,0.2,0.5,0.5,0.5h0.3c0.6,0,0.8,0,1-0.3
			c0.3-0.5,0.5-0.5,0.5-0.5c0.2,0,1.3,0.8,1.3,1c0,0.2,0,0.2-0.8,0.2h-6.8c-0.3,0-1.5,0-1.9,0h-0.3c0,0,0,0-0.2-0.2L563.2,69.5z
			 M569.8,71.5c0.2,0,0.5,0,0.6-0.2c0.2-0.3,0.3-0.3,0.3-0.3c0.2,0,1.1,0.6,1.1,0.8c0,0-0.2,0.3-0.3,0.3c-0.2,0.2-0.2,0.2-0.2,1
			c0,0.6,0,3.6,0,4.2c0,0.5-0.3,0.8-0.6,0.8c-0.5,0-0.5-0.3-0.5-0.6s-0.3-0.3-0.5-0.3h-3.7c-0.3,0-0.5,0.2-0.5,0.5
			c0,0.5-0.5,0.6-0.8,0.6s-0.3-0.3-0.3-0.3v-0.3c0-0.8,0-2.3,0-3.1c0-1.5,0-1.8,0-2.4c0-0.2,0-0.6,0-0.6c0-0.2,0.2-0.2,0.2-0.2
			c0.2,0,0.3,0.2,0.6,0.3c0.3,0.2,0.5,0.2,0.8,0.2h3.7V71.5z M569.9,73.9c0.5,0,0.5-0.2,0.5-1c0-1,0-1.1-0.5-1.1h-3.7
			c-0.5,0-0.5,0.2-0.5,1c0,1,0,1.1,0.5,1.1H569.9z M569.9,76.7c0.5,0,0.5-0.2,0.5-1.1c0-1,0-1.1-0.5-1.1h-3.7c-0.2,0-0.5,0-0.5,0.3
			c0,1.8,0,1.9,0.5,1.9H569.9z M567.2,67.1c-0.5,0-0.5,0.2-0.5,1.3c0,1,0,1.1,0.5,1.1h1.3c0.2,0,0.3,0,0.5-0.2c0-0.2,0-1,0-1.3
			c0-0.8,0-1-0.5-1H567.2z"/>
		<path class="st6" d="M577.7,73.6c-0.5,0-1.5,0-2.1,0h-0.3c0,0,0,0-0.2-0.2l-0.3-0.3c0,0,0,0,0-0.2c0.2,0,0.6,0,0.6,0
			c0.6,0,1.3,0,2.1,0h2.6c0.3,0,0.6,0,0.6-1.1c0,0,0-0.2,0-0.3l-0.2-0.3c0-0.2,0.2-0.2,0.2-0.2s1.6,0.2,1.6,0.5
			c0,0.2-0.3,0.5-0.5,0.5c0,0.2-0.2,0.5-0.2,0.5c0,0.3,0.2,0.3,0.3,0.3h3.4c0.6,0,0.8,0,1-0.3c0.3-0.5,0.3-0.6,0.5-0.6
			c0.2,0,1.3,0.8,1.5,1c0,0,0,0,0,0.2c0,0.2-0.3,0.2-0.8,0.2h-5.2c-0.2,0-0.3,0-0.3,0.2c0,0.2,0.8,1.3,2.6,1.9c1,0.3,2.3,0.8,3.2,1
			c0.2,0,0.2,0.2,0.2,0.2l-0.5,0.2c-0.2,0.2-0.3,0.3-0.8,0.6c0,0-0.2,0.2-0.3,0.2c-0.2,0-2.1-1-3.2-1.9c-0.6-0.6-1.1-1.3-1.5-2.1
			c-0.2-0.2-0.2-0.2-0.2-0.2c-0.2,0-0.2,0-0.3,0.5c-0.5,1.3-1.6,2.7-3.9,3.6c-1,0.3-1.6,0.3-2.3,0.3c-0.2,0-0.3,0-0.3-0.2
			c0,0,0.2,0,0.5-0.2c1.3-0.2,2.7-1.1,3.7-1.9c1-1,1.3-1.9,1.3-2.1c0-0.2-0.2-0.2-0.3-0.2h-2.3V73.6z M575.6,68.1
			C575.4,68.1,575.4,68.1,575.6,68.1C575.4,68.1,575.4,68.1,575.6,68.1c0.3-0.2,1.8,0,2.1,0c0.5,0,0.5-0.2,0.5-0.5c0-0.8,0-1-0.5-1
			s-1.5,0-1.8,0h-0.2c0,0-0.2,0-0.2-0.2l-0.3-0.3c0,0,0,0,0-0.2c0.2,0,0.6,0,0.6,0c0.2,0,1.3,0,1.8,0c0.2,0,0.5,0,0.5-0.5
			c0-0.2,0-0.8,0-1l-0.2-0.3c0,0,0,0,0.2,0c0,0,0.8,0.2,1.1,0.2c0.3,0,0.3,0.2,0.3,0.2s0,0.2-0.2,0.3c-0.2,0.2-0.2,0.3-0.2,0.5
			c0,0.3,0.2,0.5,0.5,0.5c0.5,0,0.6,0,0.8-0.3c0.2-0.5,0.3-0.5,0.3-0.5c0.2,0,1.1,0.6,1.1,1c0,0.2-0.3,0.2-0.8,0.2h-1.5
			c-0.3,0-0.5,0-0.5,0.5c0,0.8,0,1.1,0.5,1.1s0.5,0,0.6-0.2c0.2-0.2,0.5-0.6,0.5-0.6c0.2,0,1,0.5,1,1c0,0.3-0.3,0.3-0.8,0.3h-1.3
			c-0.5,0-0.5,0.2-0.5,0.5c0,0.8,0,1,0.3,1c0.3,0,1.9-0.3,2.1-0.3h0.2c0,0.2-1.5,0.6-2.4,1c-2.4,0.6-2.7,0.6-2.9,1
			c0,0-0.2,0.3-0.3,0.3c-0.2,0-0.2-0.2-0.2-0.2l-0.6-1.3c0-0.2,0-0.2,0.2-0.2l0.3,0.2c0.2,0,0.5,0,0.8,0s1.1-0.2,1.5-0.2
			s0.3-0.2,0.3-0.5c0-1.1,0-1.1-0.5-1.1c0,0-1.1,0-1.5,0h-0.2c0,0-0.2,0-0.2-0.2L575.6,68.1z M585,65.8c-0.5,0-0.5,0.2-0.5,0.8
			c-0.2,2.4-1.1,3.2-1.9,3.9c-0.5,0.3-1,0.5-1,0.5l0.3-0.3c1.1-1.1,1.6-2.6,1.6-4.2c0-0.2,0-0.5-0.5-0.5c-0.2,0-0.5,0-0.6,0
			c0,0-0.2,0-0.2-0.2l-0.3-0.3c0,0,0,0,0-0.2c0.2,0,0.6,0,0.6,0c0.6,0,1.5,0,2.1,0h1.3c0.2,0,0.3,0,0.5-0.2c0,0,0.2-0.3,0.3-0.3
			c0,0,0.2,0,0.6,0.3c0.5,0.2,0.5,0.3,0.5,0.5c0,0.2,0,0.2-0.2,0.3c-0.2,0.2-0.2,0.3-0.3,1.5c-0.2,1-0.3,2.3-1,3.2
			c-0.3,0.5-1,0.8-1.3,0.8c-0.3,0-0.3-0.2-0.5-0.3c0-0.2-0.2-0.3-0.8-1l-0.2-0.2c0.2,0,1.3,0.2,1.5,0.2c0.3,0,0.5,0,0.8-1.5
			c0.3-1.3,0.3-2.3,0.3-2.4c0-0.3-0.2-0.5-0.5-0.5H585z"/>
		<path class="st6" d="M592.6,73.6c0,0.2-0.3,0.3-0.3,0.3c-0.3,0.3-1.3,1.9-1.6,2.3c-0.2,0.2-0.5,0.5-0.5,0.5s0.5-1.1,0.5-1.3
			c0.3-0.8,0.5-1.6,0.5-1.9c0-0.5,0-0.5,0.2-0.5s0.5,0.2,0.6,0.2C592.1,73.3,592.6,73.4,592.6,73.6z M595.8,71.8
			c0-0.2,0-0.2-0.2-0.2c-0.2,0-0.8,0.2-1,0.2c-0.5,0-0.5,0.2-0.5,0.8c0,0.6,0,4,0,4.7c0,0.8-0.6,0.8-0.8,0.8c-0.3,0-0.3-0.3-0.3-0.3
			c0-0.2,0-1.1,0-1.3c0-1.1,0-2.9,0-4c0-0.2,0-0.3-0.3-0.3c-0.3,0-1.5,0.2-1.8,0.2c0,0-0.3,0.2-0.5,0.2c-0.3,0-0.3-1.3-0.3-1.3
			s0-0.2,0.2-0.2c0,0,0.3,0.2,0.5,0.2c0.3,0.2,0.8,0.2,1.5,0.2c0.5,0,0.5,0,0.6-0.3c0.8-1.3,1.6-3.4,1.8-4.2c0-0.3,0-0.3,0.2-0.3
			c0,0,1.5,0.5,1.5,0.8c0,0.2-0.2,0.2-0.2,0.2c-0.2,0-0.3,0-0.5,0.3c-0.5,0.5-2.4,3.4-2.4,3.4s1,0,1.1,0c0.2,0,0.6,0,0.8,0
			c0,0,0.2,0,0.2-0.2c0-0.2-0.5-1-0.5-1.1c0.3,0,1.6,0.8,1.6,1.9c0,0.3-0.2,0.6-0.5,0.6C596.1,72.5,596,72.5,595.8,71.8z
			 M592.6,69.9c-0.2,0-0.3-0.2-0.5-0.5c0-0.2-0.3-0.8-1-1.6c-0.2-0.2-0.2-0.2-0.2-0.3c0-0.2,0-0.2,0.2-0.2c0.2,0,1,0.3,1.1,0.3
			c0.2,0,0.8-1.9,1-3.1c0-0.3,0-0.3,0.2-0.3c0.2,0,1.3,0.5,1.3,0.6c0,0.2-0.3,0.3-0.5,0.3c-0.2,0.2-1.5,2.3-1.5,2.4
			c0,0.2,0,0.2,0.2,0.3c0.2,0.2,0.3,0.6,0.3,0.8C593.1,69.5,592.9,69.9,592.6,69.9z M596.9,75.5c0,0.5-0.3,0.8-0.6,0.8
			c-0.3,0-0.3-0.2-0.5-1.1c-0.2-0.6-0.2-0.6-0.5-1.3c0,0-0.2-0.2-0.2-0.3c0.2,0,0.6,0.3,0.8,0.6C596.5,74.6,596.9,75,596.9,75.5z
			 M598.4,68.3c-0.3,0-0.5,0-0.5,0.2c-0.3,0.5-1.1,1.9-1.5,1.9c0,0-0.2,0-0.2-0.2c0,0,0.5-1.1,0.6-1.3c0.6-1.3,1.3-3.4,1.3-4.2v-0.2
			v-0.2c0,0,1.6,0.5,1.6,0.8c0,0.2-0.2,0.2-0.5,0.3c-0.3,0.2-1.1,2.3-1.1,2.3c0,0.2,0.2,0.2,0.3,0.2h2.7c0.5,0,0.5,0,0.6-0.2
			c0.3-0.3,0.3-0.3,0.5-0.3s1.1,0.5,1.1,0.8c0,0.2,0,0.2-0.3,0.3c-0.2,0.2-0.2,0.8-0.2,1.1c0,2.7-0.5,6.1-1.3,7.4
			c-0.3,0.6-1.3,1-1.6,1c-0.2,0-0.2-0.2-0.3-0.5c-0.2-0.3-0.5-0.6-0.8-1c-0.2-0.2-0.3-0.2-0.3-0.2l0.5,0.2c0.5,0.2,0.6,0.2,1,0.2
			c0.6,0,1-0.6,1.1-1.3c0.5-1.8,0.6-3.7,0.6-5.7c0-0.3,0-1.3,0-1.5c-0.2-0.2-0.3-0.2-0.5-0.2H598.4z M600,73.1c0,0.6-0.3,1-0.8,1
			c-0.3,0-0.5-0.2-0.6-1.1c-0.2-0.8-0.3-1.3-0.5-1.5c0-0.3,0-0.3,0-0.3V71c0.3,0,1,0.6,1.1,0.8C599.8,72.3,600,72.8,600,73.1z"/>
		<path class="st2" d="M564.3,154.3c0,0.2,0,0.2-0.8,0.3c0,0-2.9,0.8-3.4,1c-0.8,0.2-1.6,0.2-1.6,0.2h-0.2c0,0,1.5-0.6,1.8-0.6
			c0.6-0.3,2.1-0.8,2.6-1.3l0.2-0.3c0,0,0.6,0.3,0.6,0.5C564.3,154.1,564.3,154.1,564.3,154.3z M562.7,144.3c0,0.2-0.2,0.3-0.2,0.3
			c-0.2,0.2-0.2,0.2-0.2,0.5c0,0,0.2,1.5,0.2,1.8c0,0.3,0,0.8-0.5,0.8c-0.2,0-0.3,0-0.5-0.2c0-0.2,0-1.3,0-1.5c0-1,0-1.1-0.2-1.1
			c-0.2,0-0.6,0.3-0.8,0.3c-0.3,0.2-1.6,0.8-1.8,0.8c0,0,0.2-0.2,0.3-0.3c1.8-1.3,2.9-2.3,3.4-3.2c0-0.2,0.2-0.3,0.2-0.3
			s1.3,0.6,1.3,1c0,0.2-0.2,0.2-0.3,0.2c-0.3,0-1,0.6-1,0.6C562.3,143.9,562.7,144.3,562.7,144.3z M567.8,148.3c0.3,0,0.3,0,0.5-0.2
			c0.2-0.2,0.3-0.3,0.5-0.3c0.2,0,1.1,0.5,1.1,0.8c0,0-0.3,0.3-0.5,0.5v0.3c0,0.5,0,2.7,0,3.4c0,0.5,0,1-0.6,1c-0.2,0-0.3,0-0.5-0.2
			c-0.2-0.2-0.2-0.3-0.5-0.3H562c-0.3,0-0.3,0-0.5,0.3c-0.2,0.3-0.5,0.3-0.6,0.3c-0.3,0-0.3-0.3-0.3-0.5c0-0.3,0-2.1,0-2.4
			c0-0.3,0-1.8,0-2.3c0-0.2,0-0.6,0-0.8s0-0.2,0.2-0.2c0.2,0,0.5,0.2,0.8,0.3c0.2,0.2,0.3,0.2,0.5,0.2H567.8z M562.2,150.1
			c-0.3,0-0.5,0-0.5,0.5c0,0.5,0.2,0.5,0.5,0.5h5.8c0.3,0,0.5,0,0.5-0.5c0-0.5-0.2-0.5-0.5-0.5H562.2z M568,149.8
			c0.2,0,0.5,0,0.5-0.5s0-0.6-0.5-0.6h-5.8c-0.3,0-0.5,0-0.5,0.5s0,0.6,0.5,0.6H568z M568,152.8c0.5,0,0.5-0.2,0.5-0.6
			s0-0.6-0.5-0.6h-5.8c-0.5,0-0.5,0.2-0.5,0.5c0,0.5,0,0.6,0.5,0.6h5.8V152.8z M566.4,147.3c-0.3,0-1.5,0-1.9,0h-0.3
			c0,0,0,0-0.2-0.2l-0.3-0.3c0,0,0,0,0-0.2h0.5c0.3,0,1.5,0,1.6,0c0.3,0,0.5,0,0.5-0.5c0-1,0-1.1-0.5-1.1h-0.5c-0.3,0-1.5,0-1.9,0
			H563c0,0-0.2,0-0.2-0.2l-0.3-0.3c0-0.2,0-0.2,0-0.2c0.2,0,0.5,0,0.6,0c0.5,0,1.3,0,2.1,0h0.3c0.3,0,0.5-0.2,0.5-0.5
			c0-0.2,0-0.8,0-0.8c0-0.2-0.2-0.2-0.5-0.2c-0.2,0-1,0-1.1,0h-0.3c0,0,0.2-0.2,0.3-0.2c0.2,0,2.4-0.6,3.1-1c0,0,0.3-0.3,0.5-0.3
			c0,0,1.1,0.8,1.1,1c0,0.2-1.6,0.2-1.8,0.3c-0.3,0-0.3,0.2-0.3,1c0,0.3,0,0.5,0.5,0.5h1.3c0.6,0,0.6,0,0.8-0.2
			c0.2-0.2,0.6-0.8,0.8-0.8c0.2,0,1.3,0.8,1.3,1s-0.3,0.2-0.8,0.2h-3.2c-0.5,0-0.5,0-0.5,1.1c0,0.3,0.2,0.5,0.3,0.5h0.5
			c0.6,0,0.6,0,0.8-0.2c0,0,0.5-0.5,0.6-0.5s1.1,0.6,1.1,0.8c0,0.2-0.3,0.2-0.8,0.2h-3.4V147.3z M570.1,156.1c-0.3,0-0.3,0-1.5-0.8
			c-0.6-0.5-1.8-1.1-2.6-1.6c-0.3-0.2-0.3-0.2-0.3-0.2s0,0,0.2,0c0.2,0,1.1,0.2,2.1,0.6c1.8,0.6,2.3,1,2.4,1.6
			C570.4,155.9,570.3,156.1,570.1,156.1z"/>
		<path class="st2" d="M577.4,147.7c-0.2,0-0.5,0-0.5,0.3c0,0,0,0.2,0.2,0.2c0.8,0.5,2.4,1.6,2.4,2.4c0,0.2-0.2,0.6-0.5,0.6
			s-0.3-0.2-0.5-0.8c-0.3-1.1-1.3-1.9-1.3-1.9s0,0,0,0.3c0,0.3,0,2.1,0,2.6c0,0.6,0,3.4,0,4s-0.6,0.8-0.8,0.8s-0.5-0.2-0.5-0.5
			c0-0.3,0.2-1.9,0.2-2.3c0-0.2,0.2-2.9,0.2-3.1c0-0.2,0-0.2-0.2-0.2c0,0-0.2,0-0.3,0.5c-0.6,1.1-1.9,2.9-2.1,2.9
			c0,0,0.2-0.5,0.3-0.5c1.6-3.2,1.9-4.7,1.9-4.9c0-0.2-0.2-0.3-0.3-0.3c-0.3,0-1.1,0-1.3,0h-0.2c0,0-0.2,0-0.2-0.2l-0.3-0.3
			c0,0,0,0,0-0.2h0.5c0.3,0,1.6,0,1.9,0c0.3,0,0.5-0.2,0.5-0.5c0-0.8,0-2.4,0-3.2c0-0.2-0.2-1-0.2-1.1c0,0,0-0.2,0.2-0.2
			c0,0,1.5,0.3,1.5,0.5c0,0,0,0.2-0.2,0.2c-0.2,0.2-0.3,0.2-0.3,0.6c0,0-0.2,2.9-0.2,3.1c0,0.5,0.3,0.5,0.5,0.5c0.2,0,0.5,0,0.6-0.2
			c0.2-0.2,0.5-0.6,0.6-0.6c0,0,1.1,0.8,1.1,1c0,0.2-0.2,0.2-0.6,0.2h-2.3V147.7z M574.8,146.4c-0.3,0-0.3-0.2-0.5-1
			c-0.2-0.6-0.5-1.3-0.8-1.6c0,0,0,0,0-0.2c0,0,0-0.2,0.2-0.2c0.3,0,1.8,1.1,1.8,2.1C575.4,146.2,575,146.4,574.8,146.4z
			 M577.7,146.5c0-0.2,0.3-0.6,0.3-0.8c0.3-0.6,0.6-1.8,0.6-2.4c0,0,0-0.2,0.2-0.2c0.2,0,1.3,0.8,1.3,1c0,0.2-0.2,0.2-0.2,0.2
			c-0.2,0-0.3,0.2-0.5,0.3C579.3,144.6,577.9,146.5,577.7,146.5z M580.8,151.7c-0.6,0.2-1.5,0.3-1.9,0.5l-0.3,0.2c0,0,0,0-0.2,0
			L578,152c0,0,0,0,0-0.2c0,0,0,0,0.5,0c0.2,0,1.3-0.2,2.4-0.5l2.4-0.5c0.5-0.2,0.5-0.5,0.5-0.5c0-2.8,0-5.7-0.2-6.6
			c0-0.2-0.2-1-0.2-1.1c0,0,0-0.2,0.2-0.2c0.2,0,1.6,0.3,1.6,0.5s-0.3,0.3-0.3,0.5s-0.2,0.5-0.2,0.5s0,2.4,0,2.9c0,0.6,0,2.9,0,3.4
			c0,0.2,0.2,0.3,0.3,0.3c0,0,0.3,0,0.3-0.2c0.2-0.2,0.3-1,0.5-1c0,0,1.3,0.6,1.3,0.8s-0.5,0.3-0.5,0.3l-1.5,0.3
			c-0.3,0-0.5,0.2-0.5,0.5c0,0.6,0.2,3.6,0.2,3.9c0,0.5-0.5,0.8-0.8,0.8c-0.3,0-0.5-0.2-0.5-0.5c0-0.2,0-0.8,0-1c0-0.6,0-2.3,0-2.7
			c0-0.3,0-0.8-0.5-0.6L580.8,151.7z M581.9,149.3c-0.3,0-0.3-0.2-0.5-0.5c0-0.3-0.6-1.3-1-1.6l-0.2-0.2c0,0,0,0,0.2,0
			s2.1,0.8,2.1,1.8C582.4,149.3,582.1,149.3,581.9,149.3z M582.1,145.6c-0.3,0-0.5-0.3-0.6-0.5c-0.3-0.5-0.3-0.6-1-1.1l-0.2-0.2
			c0,0,0,0,0.2,0c0,0,1.9,0.3,1.9,1.3C582.6,145.1,582.6,145.6,582.1,145.6z"/>
		<g>
			<path class="st11" d="M348.8,170.1c-0.5,0-0.5,0.1-0.5,1c0,0.3,0.1,0.4,0.7,0.6c0.4,0.2,1.2,0.5,1.2,1.3c0,0.1,0,0.6-0.4,0.6
				c-0.3,0-0.3-0.2-0.6-0.8c-0.1-0.3-0.5-1-0.8-1c-0.1,0-0.1,0.1-0.1,0.3c0,0.5,0,2.7,0,3.1c0,0.5,0,2.8,0,3.3
				c0,0.7-0.6,0.7-0.7,0.7c-0.2,0-0.3-0.1-0.3-0.3c0-0.1,0-1.2,0-1.4c0-0.4,0.1-3.8,0.1-4.2c0,0,0-0.2,0-0.2c0,0-1.6,3.1-2,3.1
				c0,0,0,0,0,0c0,0,0.5-1,0.6-1.2c1-2.4,1.4-4.4,1.4-4.5c0-0.4-0.3-0.4-0.5-0.4s-0.8,0-1,0c0,0-0.2,0-0.3,0s-0.1,0-0.1-0.1
				l-0.2-0.3c0-0.1-0.1-0.1-0.1-0.1c0,0,0,0,0,0c0.2,0,1.6,0.1,1.9,0.1c0.4,0,0.4,0,0.4-2.5c0-0.2-0.1-1.3-0.1-1.4c0,0,0-0.1,0-0.1
				c0.2,0,0.9,0.3,1,0.3c0.3,0.1,0.4,0.1,0.4,0.3c0,0.1,0,0.1-0.2,0.3c-0.2,0.1-0.2,0.2-0.2,0.5c0,0.3-0.1,2.1-0.1,2.3
				c0,0.1,0,0.3,0.3,0.3c0.2,0,0.3-0.2,0.4-0.3c0.2-0.3,0.2-0.4,0.3-0.4c0.1,0,1.1,0.7,1.1,0.9c0,0.2-0.3,0.2-0.7,0.2H348.8z
				 M355.4,172.5c-0.2,0-0.4,0-0.4,0.2c0,0.3,1,2.7,3.5,4.2c0.2,0.1,0.6,0.3,0.6,0.4s-0.1,0.1-0.2,0.1c-0.3,0-0.5,0.1-0.8,0.2
				c-0.1,0.1-0.6,0.4-0.7,0.4c-0.1,0-1.5-1.7-2.4-3.8c0-0.1-0.2-0.6-0.3-0.7c0,0,0-0.1-0.1-0.1c-0.1,0-0.1,0.1-0.1,0.2
				c0,0.8,0,4.4,0,5.1c0,0.2,0,0.4-0.2,0.5c-0.2,0.2-0.5,0.2-0.6,0.2c-0.2,0-0.3-0.1-0.3-0.3c0-0.5,0.1-1.4,0.1-1.9
				c0-0.7,0.1-3.1,0.1-3.1c0-0.2,0-0.3-0.1-0.3c-0.1,0-0.1,0-0.2,0.2c-0.9,1.4-1.8,2.8-3.6,3.9c-0.1,0.1-0.4,0.3-0.5,0.3
				c0,0-0.1,0-0.1-0.1c0-0.1,0.4-0.4,0.5-0.5c2.3-2.1,3.2-4.5,3.2-4.7c0-0.3-0.2-0.3-0.6-0.3c-0.4,0-1.2,0-1.5,0c0,0-0.3,0-0.3,0
				c-0.1,0-0.1,0-0.1-0.1l-0.3-0.3c-0.1-0.1-0.1-0.1-0.1-0.1c0,0,0,0,0.1,0c0.1,0,0.6,0,0.7,0c0.1,0,1.2,0.1,1.9,0.1h0.5
				c0.4,0,0.5-0.1,0.5-0.5c0-0.4,0-1.8,0-2.1c0-0.2-0.1-0.3-0.4-0.3h-1.4c-0.3,0-0.3,0-0.5,0.4c-0.4,0.8-1.2,1.6-1.3,1.6
				c0,0,0,0,0,0c0,0,0.4-1,0.5-1.2c0.6-1.5,0.8-2.8,0.9-3.1c0-0.3,0-0.3,0.2-0.3c0,0,1.4,0.4,1.4,0.6c0,0.1-0.1,0.1-0.4,0.2
				c-0.2,0-0.2,0.1-0.4,0.6c-0.1,0.2-0.3,0.6-0.3,0.7c0,0.1,0.1,0.1,0.2,0.1h1.2c0.1,0,0.4,0,0.4-0.4c0-0.2,0-1.1,0-1.2
				c0-0.2-0.2-1.3-0.2-1.4c0,0,0-0.1,0.1-0.1c0,0,1.4,0.3,1.4,0.5c0,0.1-0.2,0.3-0.3,0.4c-0.1,0.2-0.1,1.5-0.1,1.8
				c0,0.4,0.2,0.5,0.5,0.5h0.4c0.3,0,0.5,0,0.6-0.1c0.1-0.1,0.6-0.7,0.7-0.7c0.2,0,1.2,0.9,1.2,1c0,0.2-0.3,0.2-0.8,0.2h-2.1
				c-0.2,0-0.3,0-0.4,0.2c-0.1,0.1-0.1,1.7-0.1,2c0,0.6,0,0.7,0.5,0.7h0.7c0.6,0,0.7,0,0.8-0.1c0.1-0.1,0.5-0.7,0.7-0.7
				c0.1,0,1.3,0.8,1.3,1c0,0.2-0.3,0.2-0.8,0.2H355.4z"/>
			<path class="st11" d="M367.1,169c0.3,0,0.3,0,0.3-0.2c0-0.1-0.2-1.7-0.3-2c0-0.2-0.2-0.9-0.2-1.1c0,0,0.1,0,0.1,0
				c0.2,0,0.6,0.1,1.1,0.2c0.4,0.1,0.6,0.1,0.6,0.3c0,0.1,0,0.1-0.1,0.3c-0.2,0.2-0.2,0.2-0.2,0.9c0,1.6,0.1,1.6,0.5,1.6h1.7
				c0.7,0,0.8,0,1-0.3c0.5-0.6,0.5-0.7,0.7-0.7c0.2,0,1.4,0.9,1.4,1.1c0,0.2-0.3,0.2-0.8,0.2h-4c-0.3,0-0.3,0-0.3,0.2
				c0,0.2,0.3,1.7,0.6,2.7c0.9,2.9,2.6,4.8,3,4.8c0.2,0,0.5-0.4,0.7-0.8c0.1-0.1,0.4-0.8,0.4-0.8c0,0,0,0.1,0,0.1c0,0-0.2,1.7-0.2,2
				c0,0.3,0,0.4,0.2,0.6s0.2,0.3,0.2,0.4c0,0.3-0.2,0.4-0.4,0.4c-1.3,0-4.5-3.2-5.4-9c-0.1-0.6-0.1-0.6-0.5-0.6h-4.1
				c-0.3,0-1.4,0-1.9,0c-0.1,0-0.3,0-0.3,0c0,0-0.1,0-0.1-0.1l-0.3-0.3c-0.1-0.1-0.1-0.1-0.1-0.1c0,0,0,0,0.1,0c0.1,0,0.6,0,0.7,0.1
				c0.7,0,1.4,0,2.1,0H367.1z M365.1,172.9c-0.1,0-0.4,0-0.4,0.3c0,0.2-0.1,1.7-0.1,2.6s0,1.1,0.3,1.1c0.2,0,3.6-0.8,3.7-0.8
				c0,0,0.1,0,0.1,0c0,0.2-2.1,1-4,1.6c-2.2,0.7-2.6,0.8-2.8,0.9c-0.1,0-0.4,0.4-0.5,0.4c-0.2,0-0.6-1.6-0.6-1.6
				c0-0.1,0-0.1,0.5-0.1c0.3,0,1.9-0.2,2.1-0.3c0.1-0.1,0.1-0.1,0.1-0.2c0-0.1,0-2,0-2.1c0-0.1,0-1.4,0-1.5c0-0.4-0.3-0.4-0.4-0.4
				c-0.5,0-1.1,0-1.4,0c0,0-0.2,0-0.2,0c-0.1,0-0.1,0-0.1-0.1l-0.3-0.3c-0.1-0.1-0.1-0.1-0.1-0.1c0,0,0,0,0.1,0c0.1,0,0.6,0,0.7,0.1
				c0.7,0,1.4,0,2.1,0h1.2c0.4,0,0.6,0,0.7,0c0.2-0.1,0.6-0.8,0.8-0.8c0.2,0,1.1,0.8,1.1,1s-0.3,0.2-0.8,0.2H365.1z M369.6,165.9
				c0.2,0,2.3,0.5,2.3,1.4c0,0.6-0.5,0.6-0.6,0.6c-0.2,0-0.2,0-0.5-0.5c-0.3-0.4-0.9-1.2-1.2-1.3C369.6,166,369.5,165.9,369.6,165.9
				C369.5,165.9,369.6,165.9,369.6,165.9z"/>
			<path class="st11" d="M374.2,172.3c0-0.1,0-0.1,0.2-0.2c0.1-0.1,1.3-0.9,2.3-1.8c2.6-2.2,3.5-4,3.6-4.3c0.1-0.5,0.1-0.5,0.3-0.5
				c0,0,1.4,0.7,1.4,0.9c0,0.1,0,0.1-0.2,0.2c-0.1,0-0.1,0.1-0.1,0.2c0,0.5,2.7,3.8,6.2,4.8c0.4,0.1,0.4,0.1,0.4,0.2
				c0,0.1,0,0.1-0.4,0.2c-0.2,0.1-0.7,0.2-1,0.6c-0.1,0.1-0.1,0.2-0.2,0.2c-0.3,0-3.5-2.2-5.2-5.3c-0.2-0.3-0.2-0.4-0.3-0.4
				s-0.3,0.3-0.4,0.5c-2.7,3.3-6,4.7-6.6,4.8C374.3,172.3,374.2,172.4,374.2,172.3z M378.3,174.3c-1.1,0-1.5,0-1.9,0
				c0,0-0.3,0-0.3,0c-0.1,0-0.1,0-0.1-0.1l-0.3-0.3c0,0-0.1-0.1-0.1-0.1c0,0,0,0,0.1,0c0.1,0,0.6,0,0.7,0c0.7,0,1.5,0.1,2.1,0.1h5
				c0.6,0,0.8,0,1.2-0.5c0.2-0.3,0.3-0.4,0.4-0.4c0.1,0,0.2,0,0.5,0.3c0.8,0.6,0.8,0.6,0.8,0.8c0,0.2-0.1,0.2-0.8,0.2h-4.6
				c-0.1,0-0.2,0-0.2,0c0,0,0.7,0.6,0.7,0.8c0,0.1,0,0.1-0.5,0.3c-0.1,0-0.2,0.1-0.5,0.6c-0.3,0.4-0.9,1.2-1,1.2
				c-0.1,0.1-0.2,0.2-0.2,0.4s0.2,0.2,0.3,0.2c0.2,0,1.6-0.1,3.3-0.3c1.1-0.1,1.2-0.1,1.2-0.3c0-0.2-0.9-1-0.9-1.2
				c0-0.1,0.1-0.1,0.1-0.1c0.2,0,1.7,0.8,1.9,0.9c0.4,0.2,1.3,0.8,1.3,1.7c0,0.5-0.3,0.8-0.6,0.8c-0.4,0-0.8-0.6-1-1.1
				c-0.3-0.5-0.4-0.6-0.6-0.6c-0.7,0-6.5,1.2-7,1.4c-0.1,0-0.4,0.2-0.4,0.2c0,0-0.1,0-0.2-0.1c-0.3-0.5-0.8-1.5-0.8-1.6
				c0-0.1,0.1-0.1,0.1-0.1c0.1,0,0.6,0.1,0.7,0.1c0.2,0,0.6,0.1,0.9,0.1c0.8,0,0.9,0,1.6-1.2c0.4-0.7,0.8-1.8,0.8-2
				c0-0.3-0.2-0.3-0.5-0.3H378.3z M381.5,171.6c0.7,0,0.8,0,1.1-0.4c0.2-0.3,0.4-0.5,0.5-0.5c0.1,0,1.1,1,1.1,1.1
				c0,0.2-0.1,0.2-0.8,0.2h-3.5c-0.9,0-1.4,0-1.9,0c0,0-0.3,0-0.3,0c0,0-0.1,0-0.1-0.1l-0.3-0.3c-0.1-0.1-0.1-0.1-0.1-0.1
				c0,0,0,0,0,0c0.1,0,0.6,0,0.7,0c0.7,0,1.5,0.1,2.1,0.1H381.5z"/>
			<path class="st11" d="M388.7,169.2c-0.1-0.1-0.1-0.1-0.1-0.1c0,0,0,0,0.1,0c0.3,0,1.7,0.1,2,0.1c0.4,0,0.4-0.1,0.4-1.1
				c0-0.2,0-1.1-0.1-1.7c0-0.1-0.1-0.4-0.1-0.5c0,0,0,0,0.1,0c0.1,0,1.2,0.3,1.4,0.4c0.1,0,0.2,0.1,0.2,0.2c0,0.1-0.3,0.3-0.3,0.3
				c-0.1,0.1-0.1,0.2-0.1,0.8v1.3c0,0.2,0.1,0.2,0.2,0.2c0.1,0,0.2,0,0.4-0.1c0.1-0.1,0.5-0.5,0.7-0.5c0.1,0,0.2,0.1,0.2,0.1
				c0.2,0.2,0.5,0.6,0.5,0.6c0.3,0.3,0.4,0.3,0.4,0.4c0,0.1-0.1,0.2-0.2,0.2c0,0-0.3,0.1-0.3,0.1c-0.2,0.1-1.2,1.3-1.4,1.5
				c-0.4,0.5-0.5,0.5-0.5,0.8c0,0.3,0.1,0.3,0.5,0.4c0.5,0.1,1.9,0.5,1.9,1.7c0,0.5-0.3,0.7-0.5,0.7c-0.4,0-0.5-0.3-0.9-1.1
				c-0.1-0.2-0.6-0.9-0.9-0.9c-0.1,0-0.1,0.2-0.1,0.4c0,0.6,0,3.4,0,4c0,0.2,0.1,1.1,0.1,1.3c0,0.5-0.4,0.7-0.8,0.7
				c-0.4,0-0.5-0.2-0.5-0.4c0-0.2,0.1-0.8,0.1-1c0-1.1,0.1-2.7,0.1-4.4c0-0.2,0-0.4-0.2-0.4s-2.1,1.7-2.5,1.7c0,0-0.1,0-0.1,0
				c0-0.1,1.1-1.1,1.3-1.3c0.6-0.6,2.7-3.2,2.7-3.7c0-0.1-0.1-0.2-0.2-0.2h-1.1c-0.6,0-1.2,0-1.7,0c0,0-0.3,0-0.3,0
				c-0.1,0-0.1,0-0.1-0.1L388.7,169.2z M393.6,178.4C393.6,178.3,393.6,178.3,393.6,178.4c-0.1-0.1,0-0.1,0-0.1
				c0.1,0,0.6,0.1,0.7,0.1c0.4,0,1.2,0,2.1,0h0.6c0.1,0,0.4,0,0.4-0.3c0-0.3,0.1-6.1,0.1-6.8c0-0.2,0-0.5-0.4-0.5
				c-0.4,0-1.2,0-1.8,0c0,0-0.3,0-0.3,0c0,0-0.1,0-0.1-0.1l-0.3-0.3c-0.1-0.1-0.1-0.1-0.1-0.1s0,0,0,0c0,0,0.6,0,0.6,0
				c0.2,0,1.4,0.1,1.9,0.1c0.4,0,0.4-0.2,0.4-0.6c0-1.4,0-2.1-0.1-3.2c0-0.1-0.1-0.6-0.1-0.8c0-0.1,0-0.1,0.1-0.1c0,0,1,0.3,1.1,0.3
				c0.1,0,0.5,0.1,0.5,0.4c0,0.1-0.3,0.3-0.3,0.4c-0.1,0.2-0.1,2.7-0.1,3.1c0,0.2,0,0.5,0.4,0.5c0.7,0,0.8,0,1.1-0.4
				c0.4-0.6,0.5-0.6,0.6-0.6c0.2,0,1.3,1,1.3,1.3c0,0.2-0.3,0.2-0.8,0.2h-2.1c-0.4,0-0.4,0.2-0.4,0.5c0,0.9,0,5.3,0,6.3
				c0,0.6,0,0.8,0.4,0.8h0.6c0.3,0,0.5,0,0.9-0.5c0.4-0.5,0.5-0.6,0.6-0.6c0.1,0,1.5,1,1.5,1.2c0,0.2-0.3,0.2-0.8,0.2h-5.3
				c-0.4,0-1.4,0-1.9,0c0,0-0.3,0-0.3,0c0,0-0.1,0-0.1-0.1L393.6,178.4z"/>
			<path class="st11" d="M404.5,168.9c0.3,0.1,0.9,0.3,1.2,0.3c0.6,0,5-0.4,5.7-0.7c0.5-0.2,0.5-0.2,0.6-0.2c0.3,0,0.6,0.2,1,0.6
				c0.7,0.6,0.8,0.8,0.8,1c0,0.2-0.1,0.3-0.3,0.5c-0.2,0.2-0.3,0.3-0.6,0.9c-2.4,4.9-7.6,7-7.8,7c-0.1,0-0.1-0.1-0.1-0.1
				c0-0.1,0-0.1,0.2-0.2c2.6-1.8,4.7-3.8,5.9-6c0.7-1.3,1-2.4,1-2.5c0-0.3-0.3-0.3-0.3-0.3c-0.2,0-4.5,0.7-5.4,1.1
				c-0.1,0-0.6,0.3-0.8,0.3c-0.3,0-1.5-0.8-1.5-1.6c0-0.3,0-0.3,0.1-0.3C404.3,168.8,404.4,168.9,404.5,168.9z M416.5,167.9
				c0,0.8-0.7,1.5-1.4,1.5c-0.7,0-1.5-0.6-1.5-1.5c0-0.8,0.6-1.4,1.5-1.4C416.2,166.5,416.5,167.4,416.5,167.9z M414.1,168
				c0,0.6,0.6,0.9,1,0.9c0.6,0,0.9-0.6,0.9-0.9c0-0.6-0.6-0.9-1-0.9C414.7,167,414.1,167.3,414.1,168z"/>
			<path class="st11" d="M425.4,169.3c0.5-0.3,0.6-0.3,0.7-0.3c0.2,0,1.4,0.7,1.4,1.4c0,0.2-0.1,0.2-0.3,0.6c-0.5,0.6-1,3.3-1,3.5
				c0,0.2,0.1,0.3,0.8,0.8c0.1,0.1,0.2,0.2,0.2,0.3c0,0.2-0.2,0.3-0.3,0.3c-0.1,0-0.8-0.2-0.9-0.2c-0.6-0.1-1.4-0.1-1.9-0.1
				c-0.3,0-2.9,0.1-3,0.4c-0.3,0.6-0.3,0.8-0.7,0.8c-0.5,0-0.5-0.7-0.5-0.9c0-2.6,0-4.9-0.5-5.6c-0.2-0.3-0.3-0.3-0.6-0.5
				c0,0-0.1-0.1-0.1-0.1c0-0.2,0.4-0.4,0.6-0.4c0.6,0,0.9,0.2,1,0.3c0.4,0.3,0.4,0.3,0.8,0.3C421.6,169.9,425,169.5,425.4,169.3z
				 M422.2,170.5c-1.4,0.2-1.4,0.3-1.4,0.7c0,0.5,0.1,2.8,0.1,3.3c0,0.5,0.3,0.5,0.4,0.5c0.1,0,0.6-0.1,1-0.1c0.2,0,0.7-0.1,1.1-0.1
				c1.7-0.1,1.8-0.1,1.9-0.3c0,0,0.5-3.6,0.5-3.7c0-0.2,0-0.6-0.4-0.6C424.7,170.1,422.6,170.4,422.2,170.5z"/>
			<path class="st11" d="M436.8,169.5c-0.1,0-3.3,0.7-3.3,0.8c-0.1,0-0.6,0.3-0.7,0.3c-0.2,0-0.9-0.5-1-0.5
				c-0.1-0.1-0.4-0.8-0.4-0.9c0-0.1,0-0.1,0.1-0.1c0,0,0.3,0.1,0.4,0.1c0.5,0.1,0.6,0.2,0.8,0.2c0.5,0,3.3-0.2,4.1-0.6
				c0.1-0.1,0.7-0.5,0.8-0.5c0.4,0,1.3,0.8,1.3,1.1c0,0.1-0.6,0.5-0.6,0.6c-0.3,0.4-1.5,2.1-1.7,2.5c-0.1,0.1-0.1,0.2-0.1,0.3
				c0,0.1,0,0.2,0.7,0.5c0.7,0.4,3.4,1.9,3.4,3.3c0,0.3-0.3,0.7-0.6,0.7s-0.4-0.1-0.9-1c-1-1.8-2.4-3-2.7-3c-0.2,0-0.2,0-0.5,0.4
				c-0.5,0.6-2.1,2.2-4,3.2c-0.4,0.2-0.8,0.3-0.9,0.3c0,0-0.1,0-0.1-0.1c0-0.1,0.6-0.5,0.7-0.6c3.9-2.8,5.7-6.7,5.7-7
				C436.9,169.5,436.8,169.5,436.8,169.5z"/>
			<path class="st11" d="M443.3,178c3.1-1.7,5.1-4.2,5.1-4.7s-1.8-1.6-2.2-1.6c-0.3,0-2.2,2-2.7,2c-0.1,0-0.1,0-0.1-0.1
				c0-0.1,0.5-0.6,0.5-0.6c1.8-1.9,3-4.1,3-4.9c0-0.1-0.2-0.6-0.2-0.7c0-0.1,0.2-0.1,0.3-0.1c0.8,0,1.4,0.6,1.4,0.9
				c0,0.1-0.2,0.5-0.2,0.6c0,0.2,0.3,0.3,0.5,0.3c0.7,0,2-0.3,2.3-0.4c0.1,0,0.5-0.3,0.6-0.3c0.2,0,1.2,0.7,1.2,1.2
				c0,0.2-0.1,0.3-0.4,0.4c-0.2,0.1-0.3,0.2-0.7,0.9c-0.2,0.3-1.2,1.8-1.4,2.1c-0.1,0.2-0.2,0.3-0.2,0.4c0,0.1,0,0.2,0.3,0.5
				c0.4,0.5,0.6,0.8,0.6,1.3c0,0.7-0.6,0.7-0.6,0.7c-0.3,0-0.4-0.1-0.9-1.1c0-0.1-0.2-0.3-0.3-0.3c-0.1,0-0.2,0.1-0.5,0.4
				c-2.6,2.8-5.4,3.6-5.5,3.6c0,0-0.2,0-0.1-0.1C443,178.1,443,178.1,443.3,178z M451,169.6c0-0.2-0.2-0.2-0.3-0.2
				c-0.2,0-1.5,0.2-1.8,0.2c-0.2,0-0.3,0-0.5-0.1s-0.2-0.1-0.4-0.1c0,0-0.1,0-0.2,0.1c0,0-1.3,1.5-1.3,1.7c0,0.2,0.1,0.3,0.5,0.4
				c0.5,0.2,0.6,0.2,1.7,0.8c0.1,0,0.3,0.1,0.3,0.1C449.5,172.5,451,170.2,451,169.6z"/>
			<path class="st11" d="M460.9,171c0.6,0.4,0.6,0.4,0.6,0.6c0,0.1-0.2,0.5-0.2,0.6c-0.1,0.3-0.1,0.6-0.1,2.7c0,0.4,0,1.2,0,1.8
				c0,0.2,0.1,1.1,0.1,1.2c0,0.2,0,0.7-0.4,0.7c-0.4,0-0.9-0.6-0.9-1.1c0-0.2,0.2-0.8,0.2-1c0.1-0.8,0.1-2,0.1-2.8
				c0-0.5,0-2.1-0.4-2.1c-0.1,0-0.1,0.1-0.3,0.2c-1.5,1.4-4,2.9-4.3,2.9c0,0-0.1,0-0.1-0.1c0,0,0-0.1,0-0.1c0.4-0.3,0.8-0.7,1.1-0.9
				c3.5-3,4.7-5.6,4.7-6c0-0.1,0-0.3-0.1-0.4c0,0-0.1-0.2-0.1-0.2c0-0.1,0.1-0.1,0.2-0.1c0.2,0,1.7,0.6,1.7,1.2
				c0,0.2-0.1,0.3-0.1,0.3c-0.4,0.3-0.5,0.4-1,1.2c-0.3,0.4-0.7,0.9-1,1.3C460.7,170.9,460.8,171,460.9,171z"/>
			<path class="st11" d="M469.2,173.3c-0.9,2-2.5,2.9-2.8,2.9c-0.1,0-0.1,0-0.1-0.1c0-0.1,0.5-0.6,0.6-0.8c1.7-2.3,1.8-3.9,1.8-4.4
				c0-0.4,0-0.6-0.3-1.3c0-0.1-0.1-0.2-0.1-0.3c0,0,0-0.1,0.1-0.1c0.1,0,1.7,0.5,1.7,1.3C470.2,170.6,469.4,172.7,469.2,173.3z
				 M471.6,174.7c0-0.1,0.1-0.5,0.1-0.5c0-0.3,0.1-1.5,0.1-1.8c0-1.8-0.2-2.4-0.3-2.8c0-0.1-0.2-0.5-0.2-0.5c0-0.1,0.1-0.1,0.1-0.1
				c0.1,0,1.7,0.3,1.7,1.1c0,0.2-0.2,1-0.2,1.1c-0.1,0.4-0.1,2.2-0.1,2.7c0,0.2,0,0.5,0.3,0.5c0.5,0,1.8-1,3.3-2.4
				c0.3-0.3,1.5-1.6,1.6-1.6c0,0,0.1,0,0.1,0.1c0,0.1-0.9,2-3.5,4.3c-0.8,0.7-0.9,0.8-1,1c-0.3,0.3-0.4,0.4-0.5,0.4
				C472.4,176,471.6,175.1,471.6,174.7z"/>
			<path class="st11" d="M381.2,197.5c0.1,0.1,0.7,0.8,0.7,0.9c0,0,0,0.1-0.1,0.1c-0.2,0-3.6-2.5-3.6-7.2c0-4.7,3.5-7.2,3.6-7.2
				c0.1,0,0.1,0.1,0.1,0.1c0,0.1-0.6,0.8-0.7,0.9c-0.6,0.8-2.2,2.9-2.2,6.2C379.1,194.6,380.6,196.7,381.2,197.5z"/>
			<path class="st11" d="M385.7,188.3c-0.2,0-0.3-0.1-0.5-0.5c-0.4-0.9-1-1.6-1.7-2.3c-0.2-0.2-0.3-0.3-0.3-0.3
				c0-0.1,0.1-0.1,0.1-0.1c0.3,0,1.3,0.4,1.5,0.5c0.9,0.5,1.5,1.3,1.5,1.8c0,0.1,0,0.2,0,0.3C386.2,188,386,188.3,385.7,188.3z
				 M383.3,190.8c-0.1-0.1-0.1-0.1-0.1-0.1c0,0,0,0,0,0c0.3,0,1.5,0.1,1.8,0.1c0.2,0,0.3-0.1,0.5-0.2c0.4-0.5,0.5-0.5,0.5-0.5
				c0.1,0,1,0.5,1,0.8c0,0.1-0.4,0.3-0.5,0.4c0,0.1,0,0.3,0,1.8c0,1.5,0,1.9,0.4,2.4c0.7,0.9,2,1.1,5,1.1c1.3,0,2.7,0,4-0.2
				c0.2,0,1-0.3,1.2-0.3c0,0,0.1,0,0.1,0c0,0-0.2,0.3-0.3,0.3c-0.2,0.2-0.2,0.4-0.4,0.9c-0.1,0.3-0.3,0.3-2,0.3
				c-1.8,0-4.3-0.2-5.4-0.4c-0.4-0.1-1.8-0.4-2.6-1.7c-0.2-0.5-0.3-0.5-0.5-0.5c-0.1,0-0.1,0.1-0.3,0.3c-0.3,0.4-1,1.3-1.1,1.7
				c-0.1,0.4-0.2,0.5-0.4,0.5c-0.3,0-1.1-1-1.1-1.1c0-0.1,0.4-0.2,0.5-0.3c0.9-0.5,1.7-0.9,1.8-1.6c0,0,0-2.4,0-2.9
				c0-0.3,0-0.6-0.5-0.6c0,0-0.8,0-1.1,0c-0.1,0-0.3,0-0.3,0c0,0-0.1,0-0.1-0.1L383.3,190.8z M395.1,185.2c0.3,0,0.4-0.1,0.5-0.1
				c0.1-0.1,0.3-0.3,0.4-0.3c0.1,0,1.3,0.9,1.3,1.2c0,0.2-0.2,0.3-0.3,0.3c0,0-0.3,0-0.3,0c-0.1,0-0.3,0-0.7,0.3
				c-0.5,0.3-0.6,0.3-0.7,0.3c0,0-0.1,0-0.1-0.1c0-0.1,0.3-0.8,0.3-1s-0.1-0.2-0.3-0.2h-6.2c-0.2,0-0.3,0-0.3,0.3
				c0,0.7-0.6,1.6-1.1,1.6c-0.3,0-0.6-0.3-0.6-0.6c0-0.3,0.1-0.3,0.5-0.8c0.5-0.5,0.5-0.8,0.5-1.4c0,0,0-0.1,0-0.1
				c0.1,0,0.4,0.2,0.4,0.3c0.2,0.2,0.2,0.2,0.5,0.2H395.1z M390.1,192.6c-0.2,0-0.3,0-0.5,0.2c-0.2,0.2-0.3,0.4-0.6,0.4
				c-0.4,0-0.5-0.2-0.5-0.5c0-0.1,0-0.6,0-0.8c0-0.5,0-0.6,0-2.5c0-0.1-0.1-0.7-0.1-0.8c0,0,0-0.2,0.2-0.2c0.1,0,0.6,0.3,0.7,0.3
				c0,0,0.4,0.2,0.7,0.2h0.8c0.2,0,0.3,0,0.3-0.3c0-0.5,0-0.6-0.3-0.6h-0.5c-0.3,0-1.2,0-1.6,0c0,0-0.2,0-0.3,0c0,0-0.1,0-0.1-0.1
				l-0.2-0.3c0,0-0.1,0-0.1-0.1c0,0,0,0,0,0c0.1,0,0.5,0,0.6,0.1c0.3,0,1,0,1.8,0h0.4c0.3,0,0.4-0.1,0.4-0.3c0-0.1,0-0.4,0-0.5
				c0-0.1-0.1-0.6-0.1-0.7s0.1-0.1,0.2-0.1c0.1,0,1.3,0.1,1.3,0.5c0,0.1-0.3,0.4-0.3,0.5c-0.1,0.2-0.1,0.4-0.1,0.4
				c0,0.3,0.2,0.3,0.3,0.3h0.6c0.2,0,0.5,0,0.6,0c0.1-0.1,0.5-0.8,0.7-0.8c0.1,0,1.2,0.8,1.2,1c0,0.2-0.3,0.2-0.7,0.2h-2.4
				c-0.4,0-0.4,0.1-0.4,0.5c0,0.3,0,0.4,0.3,0.4h1.2c0.1,0,0.3,0,0.4-0.1c0.1,0,0.3-0.2,0.4-0.2c0.1,0,0.9,0.4,0.9,0.7
				c0,0-0.3,0.3-0.3,0.4c-0.1,0.2-0.1,0.9-0.1,1.1c0,0.2,0,1.4,0,1.6c0,0.5-0.4,0.8-0.7,0.8c-0.3,0-0.3-0.1-0.4-0.4
				c0-0.2-0.3-0.2-0.3-0.2h-0.9c-0.4,0-0.4,0.2-0.4,0.5c0,0.6,0,0.8,0.5,0.8h1.7c0.6,0,0.6,0,0.9-0.3c0.3-0.5,0.4-0.6,0.6-0.6
				c0.2,0,1.2,0.8,1.2,1c0,0.2-0.3,0.2-0.7,0.2h-3.7c-0.3,0-0.4,0.1-0.4,0.4c0,0.1,0,0.9,0,1.1c0,0.2,0,0.7-0.6,0.7
				c-0.4,0-0.5-0.3-0.5-0.5c0-0.2,0-1.1,0-1.3c0-0.4-0.3-0.4-0.4-0.4h-1.4c-0.4,0-1,0-1.5,0c0,0-0.4,0-0.4,0c0,0-0.1,0-0.1-0.1
				l-0.2-0.3c0,0-0.1-0.1-0.1-0.1c0,0,0,0,0,0c0.1,0,0.4,0,0.5,0c0.8,0.1,1.9,0.1,2.7,0.1h0.5c0.4,0,0.4-0.3,0.4-0.6
				c0-0.4,0-0.6-0.4-0.6H390.1z M390.9,190.6c0.5,0,0.5-0.2,0.5-0.6c0-0.5,0-0.7-0.5-0.7H390c-0.5,0-0.5,0.2-0.5,0.6
				c0,0.5,0,0.7,0.5,0.7H390.9z M390.9,192.2c0.5,0,0.5-0.2,0.5-0.7c0-0.3,0-0.5-0.5-0.5H390c-0.5,0-0.5,0.2-0.5,0.6
				c0,0.4,0,0.6,0.5,0.6H390.9z M392.7,189.3c-0.5,0-0.5,0.2-0.5,0.7c0,0.3,0,0.6,0.5,0.6h1c0.4,0,0.5-0.2,0.5-0.6
				c0-0.4,0-0.6-0.5-0.6H392.7z M392.7,191c-0.5,0-0.5,0.2-0.5,0.7c0,0.3,0,0.6,0.4,0.6h1c0.5,0,0.5-0.2,0.5-0.7
				c0-0.3,0-0.6-0.5-0.6H392.7z"/>
			<path class="st11" d="M405.4,187.9c0.7,0,0.8,0,1.4-1.2c0.3-0.6,0.9-1.7,0.9-2c0-0.3,0-0.3,0.1-0.3c0.1,0,1.4,0.8,1.4,1.1
				c0,0.2-0.1,0.2-0.5,0.2c-0.3,0-0.4,0.1-1.3,1c-0.2,0.2-0.8,0.8-0.8,0.9c0,0.2,0.1,0.2,0.4,0.2h2c0.5,0,0.5,0,0.6,0
				c0.1,0,0.3-0.3,0.4-0.3c0.2,0,1.4,0.9,1.4,1.4c0,0.2-0.2,0.3-0.4,0.3c-0.1,0-0.4,0-0.5,0c-0.2,0-0.5,0.1-1,0.5
				c-0.3,0.2-0.3,0.3-0.4,0.3s-0.1-0.1-0.1-0.1c0-0.1,0.4-1.2,0.4-1.4s-0.1-0.2-0.6-0.2h-8.8c-0.5,0-0.6,0-0.7,0.4
				c-0.2,1-0.6,1.5-1,1.5c-0.4,0-0.6-0.3-0.6-0.6c0-0.2,0.1-0.3,0.5-1.1c0.3-0.5,0.4-1.1,0.5-1.4c0-0.1,0-0.2,0.1-0.2
				c0.1,0,0.4,0.6,0.5,0.8c0.1,0.2,0.2,0.2,0.7,0.2H405.4z M402.5,194c0.3,0,0.6,0,0.7-0.3c0.2-0.3,0.3-0.9,0.3-1.1
				c0-0.3-0.1-0.3-0.5-0.3h-0.9c-0.3,0-0.3,0-0.4,0.3c-0.1,0.3-0.6,0.3-0.7,0.3c-0.2,0-0.4-0.1-0.5-0.3c0-0.2,0-1,0-1.1
				c0-0.1,0-1.2,0-1.6c0-0.1-0.1-0.4-0.1-0.5c0-0.1,0-0.2,0.1-0.2c0.2,0,0.7,0.4,0.9,0.4c0.2,0.1,0.3,0.1,0.5,0.1h4.7
				c0.6,0,0.7,0,0.8-0.1c0.1-0.1,0.5-0.6,0.6-0.6c0.2,0,0.9,0.7,0.9,1c0,0.1-0.1,0.2-0.3,0.3c-0.2,0.1-0.2,0.2-0.2,0.9
				c0,0.2,0,1-0.1,1.2c-0.2,0.4-0.5,0.4-0.7,0.4c-0.2,0-0.3-0.1-0.3-0.3c-0.1-0.1-0.2-0.2-0.4-0.2h-1.7c-0.4,0-0.5,0.1-0.6,0.3
				c-0.2,0.3-1,1.1-1,1.3c0,0.2,0.2,0.2,0.4,0.2h3.8c0.3,0,0.6,0,0.7,0c0.1,0,0.4-0.4,0.5-0.4c0.1,0,0.9,0.5,0.9,0.8
				c0,0.1,0,0.2-0.2,0.3c-0.1,0.1-0.1,0.3-0.1,0.4c0,0.2,0.1,1.4,0.1,1.7c0,0.4,0,0.6-0.2,0.8c-0.2,0.2-0.5,0.3-0.7,0.3
				c-0.3,0-0.3-0.2-0.3-0.5c0-0.2-0.2-0.2-0.4-0.2h-7.1c-0.3,0-0.3,0.1-0.4,0.3c-0.1,0.4-0.4,0.5-0.8,0.5c-0.5,0-0.5-0.3-0.5-0.5
				c0-0.1,0.1-2,0.1-2.3c0-0.2,0-1.3,0-1.5c0-0.1,0-0.2,0.1-0.2c0.2,0,0.7,0.2,1,0.4c0.2,0.1,0.4,0.1,0.7,0.1H402.5z M399.7,184.9
				c1.6,0,2.7,1,2.7,1.7c0,0.4-0.3,0.7-0.6,0.7c-0.3,0-0.5-0.3-0.6-0.6c-0.4-0.9-1.1-1.3-1.3-1.5c-0.3-0.2-0.3-0.2-0.3-0.3
				C399.6,184.9,399.7,184.9,399.7,184.9z M401.2,194.5c-0.2,0-0.3,0-0.4,0.2c-0.1,0.1-0.1,1.4-0.1,1.7c0,0.3,0,0.5,0.4,0.5h7
				c0.4,0,0.5-0.2,0.5-0.4c0-0.2,0-1.6,0-1.7c-0.1-0.2-0.3-0.2-0.4-0.2H401.2z M402.2,190.1c-0.2,0-0.5,0-0.5,0.4
				c0,1.4,0,1.4,0.5,1.4h4.9c0.5,0,0.5-0.1,0.5-0.9c0-0.7,0-0.9-0.5-0.9H402.2z M405.6,186.4c0,0.4-0.2,0.6-0.5,0.6
				c-0.4,0-0.6-0.4-0.7-0.7c-0.2-0.4-0.4-0.9-0.9-1.5c0,0-0.2-0.3-0.2-0.3c0-0.1,0.1-0.1,0.1-0.1
				C403.9,184.4,405.6,185.2,405.6,186.4z"/>
			<path class="st11" d="M412.2,191.1c0-0.1,0-0.1,0.2-0.2c0.1-0.1,1.3-0.9,2.3-1.8c2.6-2.2,3.5-4,3.6-4.3c0.1-0.5,0.1-0.5,0.3-0.5
				c0,0,1.4,0.7,1.4,0.9c0,0.1,0,0.1-0.2,0.2c-0.1,0-0.1,0.1-0.1,0.2c0,0.5,2.7,3.8,6.2,4.8c0.4,0.1,0.4,0.1,0.4,0.2
				c0,0.1,0,0.1-0.4,0.2c-0.2,0.1-0.7,0.2-1,0.6c-0.1,0.1-0.1,0.2-0.2,0.2c-0.3,0-3.5-2.2-5.2-5.3c-0.2-0.3-0.2-0.4-0.3-0.4
				c-0.1,0-0.3,0.3-0.4,0.5c-2.7,3.3-6,4.7-6.6,4.8C412.3,191.1,412.2,191.1,412.2,191.1z M416.3,193.1c-1.1,0-1.5,0-1.9,0
				c0,0-0.3,0-0.3,0c-0.1,0-0.1,0-0.1-0.1l-0.3-0.3c0,0-0.1-0.1-0.1-0.1c0,0,0,0,0.1,0c0.1,0,0.6,0,0.7,0c0.7,0,1.5,0.1,2.1,0.1h5
				c0.6,0,0.8,0,1.2-0.5c0.2-0.3,0.3-0.4,0.4-0.4c0.1,0,0.2,0,0.5,0.3c0.8,0.6,0.8,0.6,0.8,0.8c0,0.2-0.1,0.2-0.8,0.2h-4.6
				c-0.2,0-0.2,0-0.2,0c0,0,0.7,0.6,0.7,0.8c0,0.1,0,0.1-0.5,0.3c-0.1,0-0.2,0.1-0.5,0.6c-0.3,0.4-0.9,1.2-1,1.2
				c-0.1,0.1-0.2,0.2-0.2,0.4s0.2,0.2,0.3,0.2c0.2,0,1.6-0.1,3.3-0.3c1.1-0.1,1.2-0.1,1.2-0.3c0-0.2-0.9-1-0.9-1.2
				c0-0.1,0.1-0.1,0.1-0.1c0.2,0,1.7,0.8,1.9,0.9c0.4,0.2,1.3,0.8,1.3,1.7c0,0.5-0.3,0.8-0.6,0.8c-0.4,0-0.8-0.6-1-1.1
				c-0.3-0.5-0.4-0.6-0.6-0.6c-0.7,0-6.5,1.2-7,1.4c-0.1,0-0.4,0.2-0.4,0.2c0,0-0.1,0-0.2-0.1c-0.3-0.5-0.8-1.5-0.8-1.6
				c0-0.1,0.1-0.1,0.1-0.1c0.1,0,0.6,0.1,0.7,0.1c0.2,0,0.6,0.1,0.9,0.1c0.8,0,0.9,0,1.6-1.2c0.4-0.7,0.8-1.8,0.8-2
				c0-0.3-0.2-0.3-0.5-0.3H416.3z M419.4,190.3c0.7,0,0.8,0,1.1-0.4c0.2-0.3,0.4-0.5,0.5-0.5c0.1,0,1.1,1,1.1,1.1
				c0,0.2-0.1,0.2-0.8,0.2h-3.5c-0.9,0-1.4,0-1.9,0c0,0-0.3,0-0.3,0s-0.1,0-0.1-0.1l-0.3-0.3c-0.1-0.1-0.1-0.1-0.1-0.1c0,0,0,0,0,0
				c0.1,0,0.6,0,0.7,0c0.7,0,1.5,0.1,2.1,0.1H419.4z"/>
			<path class="st11" d="M426.7,188c-0.1-0.1-0.1-0.1-0.1-0.1c0,0,0,0,0.1,0c0.3,0,1.7,0.1,2,0.1c0.4,0,0.4-0.1,0.4-1.1
				c0-0.2,0-1.1-0.1-1.7c0-0.1-0.1-0.4-0.1-0.5c0,0,0,0,0.1,0c0.1,0,1.2,0.3,1.4,0.4c0.1,0,0.2,0.1,0.2,0.2c0,0.1-0.3,0.3-0.3,0.3
				c-0.1,0.1-0.1,0.2-0.1,0.8v1.3c0,0.2,0.1,0.2,0.2,0.2c0.1,0,0.2,0,0.4-0.1c0.1-0.1,0.5-0.5,0.7-0.5c0.1,0,0.2,0.1,0.2,0.1
				c0.2,0.2,0.5,0.6,0.5,0.6c0.3,0.3,0.4,0.3,0.4,0.4c0,0.1-0.1,0.2-0.2,0.2c0,0-0.3,0.1-0.3,0.1c-0.2,0.1-1.2,1.3-1.4,1.5
				c-0.4,0.5-0.5,0.5-0.5,0.8c0,0.3,0.1,0.3,0.5,0.4c0.5,0.1,1.9,0.5,1.9,1.7c0,0.5-0.3,0.7-0.5,0.7c-0.4,0-0.5-0.3-0.9-1.1
				c-0.1-0.2-0.6-0.9-0.9-0.9c-0.1,0-0.1,0.2-0.1,0.4c0,0.6,0,3.4,0,4c0,0.2,0.1,1.1,0.1,1.3c0,0.5-0.4,0.7-0.8,0.7
				c-0.4,0-0.5-0.2-0.5-0.4c0-0.2,0.1-0.8,0.1-1c0-1.1,0.1-2.7,0.1-4.4c0-0.2,0-0.4-0.2-0.4s-2.1,1.7-2.5,1.7c0,0-0.1,0-0.1,0
				c0-0.1,1.1-1.1,1.3-1.3c0.6-0.6,2.7-3.2,2.7-3.7c0-0.1-0.1-0.2-0.2-0.2h-1.1c-0.6,0-1.2,0-1.7,0c0,0-0.3,0-0.3,0
				c-0.1,0-0.1,0-0.1-0.1L426.7,188z M431.6,197.2C431.5,197.1,431.5,197.1,431.6,197.2c-0.1-0.1,0-0.1,0-0.1c0.1,0,0.6,0.1,0.7,0.1
				c0.4,0,1.2,0,2.1,0h0.6c0.1,0,0.4,0,0.4-0.3c0-0.3,0.1-6.1,0.1-6.8c0-0.2,0-0.5-0.4-0.5c-0.4,0-1.2,0-1.8,0c0,0-0.3,0-0.3,0
				c0,0-0.1,0-0.1-0.1l-0.3-0.3c-0.1-0.1-0.1-0.1-0.1-0.1s0,0,0,0c0,0,0.6,0,0.6,0c0.1,0,1.4,0.1,1.9,0.1c0.4,0,0.4-0.2,0.4-0.6
				c0-1.4,0-2.1-0.1-3.2c0-0.1-0.1-0.6-0.1-0.8c0-0.1,0-0.1,0.1-0.1c0,0,1,0.3,1.1,0.3c0.1,0,0.5,0.1,0.5,0.4c0,0.1-0.3,0.3-0.3,0.4
				c-0.1,0.2-0.1,2.7-0.1,3.1c0,0.2,0,0.5,0.4,0.5c0.7,0,0.8,0,1.1-0.4c0.4-0.6,0.5-0.6,0.6-0.6c0.2,0,1.3,1,1.3,1.3
				c0,0.2-0.3,0.2-0.8,0.2h-2.1c-0.4,0-0.4,0.2-0.4,0.5c0,0.9,0,5.3,0,6.3c0,0.6,0,0.8,0.4,0.8h0.6c0.3,0,0.5,0,0.9-0.5
				c0.4-0.5,0.5-0.6,0.6-0.6c0.1,0,1.5,1,1.5,1.2c0,0.2-0.3,0.2-0.8,0.2h-5.3c-0.4,0-1.4,0-1.9,0c0,0-0.3,0-0.3,0c0,0-0.1,0-0.1-0.1
				L431.6,197.2z"/>
			<path class="st11" d="M442.7,185.1c-0.1-0.1-0.7-0.8-0.7-0.9c0,0,0-0.1,0.1-0.1c0.2,0,3.6,2.5,3.6,7.2c0,4.7-3.5,7.2-3.6,7.2
				c-0.1,0-0.1-0.1-0.1-0.1c0-0.1,0.6-0.8,0.7-0.9c0.6-0.8,2.2-2.9,2.2-6.2C444.8,188,443.3,185.9,442.7,185.1z"/>
		</g>
	</g>
</g>
</svg>
