<svg width="254" height="180" viewBox="0 0 254 180" fill="none" xmlns="http://www.w3.org/2000/svg">
<g clip-path="url(#clip0)">
<path d="M179.05 93.2579C170.226 77.5113 153.801 66.7874 135.068 66.7874C119.864 66.7874 106.29 73.7104 96.9231 84.7059" stroke="#556170" stroke-width="3.0275" stroke-linejoin="round"/>
<path d="M92.4436 79.0045L91.0862 93.2579L104.118 87.4208L92.4436 79.0045Z" fill="#556170"/>
<path d="M91.0862 151.493C99.9097 167.24 116.335 177.828 135.068 177.828C150.272 177.828 163.846 170.905 173.213 159.909" stroke="#556170" stroke-width="3.0275" stroke-linejoin="round"/>
<path d="M177.692 165.747L179.05 151.493L166.018 157.466L177.692 165.747Z" fill="#556170"/>
<path d="M64.6155 107.511V112.806V117.014V121.086V125.294V129.367V133.71V143.077H73.982H83.2128V98.4164L64.6155 107.511Z" fill="#556170"/>
<path d="M84.5703 98.4164V143.077H117.557V108.054L84.5703 98.4164ZM95.0228 132.489L90.8147 132.353V127.466L95.0228 127.873V132.489ZM95.0228 122.579L90.8147 122.036V117.149L95.0228 117.828V122.579ZM95.0228 112.67L90.8147 111.855V106.968L95.0228 107.919V112.67ZM104.932 132.896L101.403 132.76V128.281L104.932 128.552V132.896ZM104.932 123.801L101.403 123.394V118.914L104.932 119.457V123.801ZM104.932 114.706L101.403 114.027V109.548L104.932 110.362V114.706ZM113.484 133.303L110.498 133.168V128.959L113.484 129.231V133.303ZM113.484 124.887L110.498 124.48V120.272L113.484 120.815V124.887ZM113.484 116.471L110.498 115.928V111.72L113.484 112.398V116.471Z" fill="#556170"/>
<path d="M139.683 121.629L151.765 133.846L184.48 125.158V112.398L139.683 109.005V121.629Z" fill="white" stroke="#556170" stroke-width="0.9041" stroke-miterlimit="10" stroke-linejoin="round"/>
<path d="M151.765 121.222L139.683 109.005L172.263 100.317L184.48 112.398L151.765 121.222Z" fill="white" stroke="#556170" stroke-width="0.9041" stroke-miterlimit="10" stroke-linejoin="round"/>
<path d="M144.027 110.091L171.584 102.76L180.136 111.312L152.444 118.643L144.027 110.091Z" fill="white" stroke="#556170" stroke-width="0.3014" stroke-miterlimit="10" stroke-linejoin="round"/>
<path d="M166.425 129.638H167.376L171.312 128.552V116.878C171.312 116.199 171.041 115.656 170.634 115.113L159.502 103.439L154.073 104.932L166.425 117.828V129.638Z" fill="#556170"/>
<path d="M152.172 121.086V133.846" stroke="#556170" stroke-width="0.9041" stroke-miterlimit="10" stroke-linejoin="round"/>
<path d="M184.48 115.656L151.765 124.344" stroke="#556170" stroke-width="0.9041" stroke-miterlimit="10" stroke-linejoin="round"/>
<path d="M184.48 118.643L151.765 127.466" stroke="#556170" stroke-width="0.9041" stroke-miterlimit="10" stroke-linejoin="round"/>
<path d="M184.48 121.765L151.765 130.453" stroke="#556170" stroke-width="0.9041" stroke-miterlimit="10" stroke-linejoin="round"/>
<path d="M162.082 133.982L174.163 146.063L206.742 137.376V124.615L162.082 121.222V133.982Z" fill="white" stroke="#556170" stroke-width="0.9041" stroke-miterlimit="10" stroke-linejoin="round"/>
<path d="M174.163 133.439L162.082 121.222L194.661 112.534L206.742 124.615L174.163 133.439Z" fill="white" stroke="#556170" stroke-width="0.9041" stroke-miterlimit="10" stroke-linejoin="round"/>
<path d="M166.29 122.443L193.982 114.977L202.534 123.529L174.842 130.86L166.29 122.443Z" fill="white" stroke="#556170" stroke-width="0.3014" stroke-miterlimit="10" stroke-linejoin="round"/>
<path d="M188.688 141.991H189.638L193.575 140.905V129.231C193.575 128.552 193.303 128.009 192.896 127.466L181.765 115.928L176.335 117.421L188.688 130.317V141.991Z" fill="#556170"/>
<path d="M174.57 133.303V146.063" stroke="#556170" stroke-width="0.9041" stroke-miterlimit="10" stroke-linejoin="round"/>
<path d="M206.742 127.873L174.163 136.697" stroke="#556170" stroke-width="0.9041" stroke-miterlimit="10" stroke-linejoin="round"/>
<path d="M206.742 130.995L174.163 139.683" stroke="#556170" stroke-width="0.9041" stroke-miterlimit="10" stroke-linejoin="round"/>
<path d="M206.742 133.982L174.163 142.805" stroke="#556170" stroke-width="0.9041" stroke-miterlimit="10" stroke-linejoin="round"/>
<path d="M253.439 22.8054H0V44.5249H253.439V22.8054Z" fill="white"/>
<path d="M14.7965 8.00905C13.3033 8.00905 12.7603 8.00905 12.6245 8.00905C12.6245 8.00905 12.353 8.00905 12.2173 8.00905C12.2173 8.1448 12.0816 8.00905 12.0816 8.00905L11.8101 7.60181C11.8101 7.46606 11.6743 7.46606 11.6743 7.46606C11.8101 7.46606 12.353 7.46606 12.4888 7.46606C13.3033 7.46606 13.982 7.60181 14.7965 7.60181H16.154C16.6969 7.60181 16.8327 7.46606 17.7829 5.42986C18.0544 4.88688 18.3259 4.34389 18.3259 3.93665C18.3259 3.8009 18.3259 3.66516 18.4616 3.66516C18.5974 3.66516 19.8191 4.34389 19.8191 4.61538C19.8191 4.75113 19.4119 5.02262 19.2761 5.15837C19.0046 5.42986 18.0544 7.19457 18.0544 7.33032C18.0544 7.60181 18.3259 7.60181 18.4616 7.60181H23.62C24.4345 7.60181 24.4345 7.60181 24.706 7.33032C25.249 6.78733 25.249 6.65158 25.3847 6.65158C25.5205 6.65158 27.0137 7.60181 27.0137 7.73756C27.0137 8.00905 26.6064 8.00905 26.0635 8.00905H22.6698C22.534 8.00905 22.3983 8.00905 22.3983 8.1448C22.3983 8.28054 23.2128 8.68778 23.2128 8.95928C23.2128 9.09502 22.8055 9.23077 22.6698 9.36652C22.534 9.50226 22.1268 10.181 22.1268 10.3167C21.5838 11.1312 21.0408 11.6742 21.0408 11.6742C20.9051 11.81 20.7693 11.9457 20.7693 12.0814C20.7693 12.2172 20.7693 12.2172 21.4481 12.4887C21.9911 12.7602 24.8417 13.7104 24.8417 14.6606C24.8417 14.9321 24.5702 15.3394 24.0273 15.3394C23.62 15.3394 23.4843 15.2036 22.3983 14.3891C21.7196 13.8462 20.2264 13.0317 19.9549 13.0317C19.8191 13.0317 19.6834 13.0317 19.1404 13.4389C19.0046 13.5747 15.7467 15.4751 13.1675 15.4751C13.0318 15.4751 12.6245 15.4751 12.6245 15.3394C12.6245 15.2036 13.5748 15.0679 13.7105 15.0679C17.1042 13.9819 18.7331 12.7602 18.7331 12.6244C18.7331 12.2172 16.154 11.81 16.0182 11.81C15.8825 11.81 15.7467 11.81 15.611 11.9457C15.3395 12.2172 15.2037 12.3529 14.9322 12.3529C14.6607 12.3529 14.2535 12.2172 14.2535 11.9457C14.2535 11.81 14.3892 11.5385 14.6607 11.267C14.7965 10.9955 16.0182 8.95928 16.0182 8.68778C16.0182 8.41629 15.7467 8.41629 15.611 8.41629H14.7965V8.00905ZM23.7558 2.71493C24.4345 2.71493 24.4345 2.71493 24.706 2.44344C24.9775 2.17195 24.9775 2.0362 25.249 2.0362C25.3847 2.0362 25.792 2.30769 25.792 2.30769C26.7422 2.98643 26.8779 3.12217 26.8779 3.39366C26.8779 3.66516 26.6064 3.66516 26.4707 3.8009C26.3349 3.8009 26.0635 3.8009 25.9277 3.8009C25.6562 3.8009 25.5205 3.8009 24.9775 4.20814C24.8417 4.34389 23.7558 4.88688 23.7558 4.88688C23.7558 4.75113 24.2987 3.66516 24.2987 3.52941C24.2987 3.25792 24.163 3.25792 23.8915 3.25792H14.2535C14.1178 3.25792 13.8463 3.25792 13.8463 3.66516C13.7105 4.61538 13.3033 5.42986 12.4888 5.42986C12.2173 5.42986 11.8101 5.15837 11.8101 4.75113C11.8101 4.47964 11.9458 4.34389 12.4888 3.8009C12.7603 3.52941 13.0318 2.98643 13.1675 2.44344C13.3033 1.90045 13.3033 1.90045 13.439 1.90045C13.5748 1.90045 13.7105 2.17195 13.7105 2.30769C13.7105 2.57919 13.8463 2.71493 14.1178 2.71493H18.0544C18.4616 2.71493 18.4616 2.44344 18.4616 2.17195C18.4616 1.76471 18.4616 1.35747 18.4616 0.950226C18.4616 0.81448 18.3259 0.271493 18.3259 0.135747C18.3259 0 18.3259 0 18.3259 0C18.3259 0 19.4119 0.271493 19.8191 0.40724C19.9549 0.40724 20.0906 0.542986 20.0906 0.678733C20.0906 0.678733 19.8191 0.950226 19.8191 1.08597C19.6834 1.22172 19.6834 1.35747 19.6834 2.17195C19.8191 2.57919 19.9549 2.71493 20.3621 2.71493H23.7558ZM18.3259 8.00905C17.6472 8.00905 17.6472 8.1448 17.2399 8.82353C16.9684 9.23077 16.154 10.724 16.154 10.8597C16.154 10.9955 16.154 10.9955 16.8327 11.1312C17.2399 11.1312 19.1404 11.5385 19.2761 11.5385C19.6834 11.5385 19.8191 11.4027 20.2264 10.8597C21.4481 9.36652 21.5838 8.41629 21.5838 8.1448C21.5838 7.8733 21.4481 7.8733 21.1766 7.8733H18.3259V8.00905Z" fill="#464B44"/>
<path d="M34.6154 6.3801C33.1222 6.3801 32.5792 6.3801 32.4434 6.3801C32.4434 6.3801 32.172 6.3801 32.0362 6.3801C32.0362 6.3801 31.9005 6.3801 31.9005 6.24436L31.629 5.83712C31.4932 5.70137 31.4932 5.70137 31.4932 5.70137C31.4932 5.70137 31.4932 5.70137 31.629 5.70137C31.7647 5.70137 32.3077 5.70137 32.4434 5.70137C33.2579 5.70137 33.9367 5.83712 34.7511 5.83712H39.3665C40.0453 5.83712 40.3168 5.83712 40.4525 5.56562C40.8597 4.88689 40.8597 4.88689 41.1312 4.88689C41.4027 4.88689 42.6244 5.70137 42.6244 6.10861C42.6244 6.3801 42.353 6.3801 41.6742 6.3801H38.4163C37.8733 6.3801 37.8733 6.51585 37.8733 8.00906C37.8733 9.36653 37.8733 9.50228 38.4163 9.50228H39.638C40.3168 9.50228 40.5882 9.50228 40.724 9.23078C40.9955 8.6878 41.1312 8.6878 41.267 8.6878C41.5385 8.6878 42.4887 9.50228 42.4887 9.77377C42.4887 9.90952 42.353 9.90952 42.2172 10.0453C42.0815 10.0453 41.9457 10.0453 41.5385 10.0453H38.552C38.0091 10.0453 38.0091 10.181 38.0091 11.1312C38.0091 11.6742 38.0091 13.5747 38.0091 13.7104C38.0091 13.8462 38.2806 13.8462 38.4163 13.8462C38.552 13.8462 39.5023 13.8462 40.3168 13.8462C42.2172 13.8462 44.2534 13.4389 44.7964 13.3032C44.9321 13.3032 45.2036 13.1674 45.3394 13.1674C45.3394 13.3032 44.2534 13.9819 44.1177 14.2534C43.9819 14.3892 43.8462 14.7964 43.8462 14.9321C43.7104 15.2036 43.0317 15.2036 42.7602 15.2036C35.9729 15.2036 35.1584 14.2534 34.0724 12.8959C33.6652 12.353 33.3937 11.9457 33.3937 11.6742C33.3937 11.5385 33.2579 11.5385 33.2579 11.5385C33.1222 11.5385 33.1222 11.6742 32.9864 11.81C31.3575 14.3892 29.8643 14.6606 29.8643 14.6606C29.8643 14.6606 29.7285 14.6606 29.7285 14.5249L30 14.2534C31.9005 12.2172 32.7149 9.50228 32.8507 8.28056C32.8507 7.46608 32.8507 7.46608 32.9864 7.46608C33.1222 7.46608 34.4796 7.87332 34.4796 8.14481C34.4796 8.28056 34.0724 8.55205 34.0724 8.55205C33.9367 8.82354 33.6652 10.0453 33.5294 10.181C33.5294 10.181 33.2579 10.9955 33.2579 11.1312C33.2579 11.9457 35.4299 13.4389 36.3801 13.4389C36.6516 13.4389 36.6516 13.1674 36.6516 13.0317C36.6516 12.0815 36.6516 7.73757 36.6516 6.92309C36.6516 6.51585 36.6516 6.24436 36.1086 6.24436H34.6154V6.3801ZM32.0362 3.25793C31.7647 3.25793 31.7647 3.25793 31.629 3.52942C31.3575 4.6154 30.8145 4.88689 30.4072 4.88689C30.1358 4.88689 29.8643 4.75114 29.8643 4.3439C29.8643 4.07241 30 4.07241 30.4072 3.52942C30.8145 3.12218 31.086 2.44345 31.2217 2.03621C31.2217 1.76472 31.3575 1.76472 31.3575 1.76472C31.4932 1.76472 31.629 2.03621 31.7647 2.30771C31.9005 2.5792 31.9005 2.5792 32.172 2.5792H36.2444C36.6516 2.5792 36.6516 2.30771 36.6516 2.03621C36.6516 1.76472 36.6516 0.950239 36.6516 0.678746C36.6516 0.543 36.5158 -0.135733 36.5158 -0.27148C36.5158 -0.407227 36.5158 -0.407227 36.5158 -0.407227C36.5158 -0.407227 37.7376 -0.135733 38.2806 1.3262e-05L38.4163 0.13576C38.4163 0.271506 38.0091 0.543 38.0091 0.678746C37.8733 0.814493 37.8733 1.62897 37.8733 1.76472C37.8733 2.44345 38.0091 2.44345 38.4163 2.44345H41.81C42.2172 2.44345 42.353 2.44345 42.6244 2.17196C42.8959 2.03621 43.0317 1.76472 43.1674 1.76472C43.3032 1.76472 44.7964 2.5792 44.7964 3.12218C44.7964 3.52942 44.3891 3.52942 44.2534 3.52942C44.1177 3.52942 43.5747 3.52942 43.3032 3.52942C42.7602 3.52942 42.4887 3.66517 42.353 3.80092C42.2172 3.80092 41.9457 4.07241 41.81 4.07241C41.81 3.93666 42.2172 3.25793 42.2172 3.12218C42.2172 2.98644 42.0815 2.98644 41.9457 2.98644H32.0362V3.25793Z" fill="#464B44"/>
<path d="M49.9549 12.4887C49.4119 12.4887 49.4119 12.7602 49.4119 13.0317C49.4119 13.4389 49.4119 14.3891 48.5974 14.3891C48.0544 14.3891 48.0544 14.1176 48.0544 13.8462C48.0544 12.8959 48.1902 7.8733 48.1902 6.78733C48.1902 5.56561 48.1902 4.61538 48.1902 3.66516C48.1902 3.66516 48.1902 3.39367 48.1902 3.25792C48.1902 3.25792 48.1902 3.12217 48.3259 3.12217C48.4617 3.12217 49.2762 3.52941 49.2762 3.52941C49.4119 3.52941 49.4119 3.39367 49.5477 3.25792C50.0906 2.0362 50.3621 1.35747 50.4979 0.678733C50.4979 0.678733 50.4979 0.271493 50.4979 0.135747C50.6336 0.135747 52.1268 0.678733 52.1268 0.950226C52.1268 1.08597 51.7196 1.22172 51.5839 1.35747C50.6336 2.30769 49.8191 3.52941 49.8191 3.66516C49.8191 3.8009 49.9549 3.8009 50.0906 3.8009H51.9911C52.2626 3.8009 52.3983 3.8009 52.3983 3.66516C52.6698 3.39367 52.8056 3.25792 52.8056 3.25792C52.9413 3.25792 54.0273 3.93665 54.0273 4.20814C54.0273 4.34389 53.6201 4.75113 53.4843 4.88688C53.4843 5.02262 53.4843 6.92308 53.4843 8.1448C53.4843 9.36652 53.4843 11.9457 53.4843 12.7602C53.4843 13.0317 53.4843 13.4389 53.4843 13.4389C53.4843 13.8462 52.9413 14.1176 52.6698 14.1176C52.1268 14.1176 52.1268 13.8462 52.1268 13.5747C52.1268 13.0317 51.9911 12.8959 51.4481 12.8959H49.9549V12.4887ZM49.9549 8.1448C49.4119 8.1448 49.4119 8.1448 49.4119 10.0452C49.4119 10.3167 49.4119 11.6742 49.4119 11.81C49.5477 12.0814 49.6834 12.0814 49.8191 12.0814H51.8553C52.3983 12.0814 52.3983 12.0814 52.3983 10.0452C52.3983 9.77376 52.3983 8.41629 52.3983 8.28054C52.3983 8.1448 52.1268 8.1448 51.9911 8.1448H49.9549ZM51.9911 7.73756C52.2626 7.73756 52.5341 7.73756 52.5341 7.33032C52.5341 6.92308 52.5341 4.61538 52.5341 4.61538C52.3983 4.0724 52.1268 4.0724 51.9911 4.0724H49.9549C49.6834 4.0724 49.4119 4.0724 49.4119 4.61538C49.4119 5.02262 49.4119 7.33032 49.4119 7.33032C49.5477 7.60181 49.8191 7.60181 49.9549 7.60181H51.9911V7.73756ZM56.7422 3.93665C56.335 3.93665 56.335 4.0724 55.792 4.75113C54.9775 5.97285 54.706 6.38009 54.4345 6.38009C54.4345 6.38009 54.706 5.70136 54.8418 5.56561C55.3848 4.34389 56.0635 2.57919 56.4707 0.40724C56.4707 0 56.4707 0 56.6065 0C56.6065 0 58.3712 0.40724 58.3712 0.678733C58.3712 0.81448 57.8282 1.08597 57.8282 1.22172C57.5567 1.62896 56.878 3.25792 56.878 3.39366C56.878 3.66516 57.0137 3.66516 57.2852 3.66516H60.5431C60.6789 3.66516 60.9504 3.52941 60.9504 3.52941C60.9504 3.39366 61.2219 2.98643 61.3576 2.98643C61.4934 2.98643 62.7151 3.66516 62.7151 3.93665C62.7151 4.0724 62.3078 4.47964 62.1721 4.61538C62.0363 4.75113 62.0363 5.02262 62.0363 6.38009C62.0363 12.0814 61.2219 13.5747 60.8146 14.2534C60.5431 14.7964 59.5929 15.3394 58.9142 15.3394C58.7784 15.3394 58.6427 15.3394 58.5069 15.0679C58.3712 14.3891 58.2354 14.3891 57.8282 14.1176C57.6924 13.9819 56.878 13.7104 56.878 13.5747C56.878 13.5747 56.878 13.4389 57.0137 13.4389C57.1495 13.4389 57.5567 13.5747 57.6924 13.5747C57.9639 13.5747 58.9142 13.7104 59.0499 13.7104C59.3214 13.7104 59.5929 13.7104 59.8644 13.3032C60.5431 12.4887 60.9504 9.50226 60.9504 7.60181C60.9504 7.19457 60.9504 4.88688 60.9504 4.34389C60.9504 3.93665 60.5431 3.93665 60.4074 3.93665H56.7422ZM58.7784 9.36652C58.7784 9.9095 58.3712 10.181 57.9639 10.181C57.421 10.181 57.421 9.9095 57.2852 8.95928C57.2852 8.55204 57.1495 7.8733 56.6065 7.05882C56.335 6.92308 56.335 6.78733 56.335 6.78733C56.335 6.78733 56.335 6.65158 56.4707 6.65158C56.6065 6.65158 58.7784 8.00905 58.7784 9.36652Z" fill="#464B44"/>
<path d="M70.5882 2.30767C70.5882 2.03618 70.4525 1.76469 70.3167 1.49319C70.3167 1.35745 70.0453 1.08596 70.0453 0.950209C70.0453 0.678715 70.4525 0.542969 70.724 0.542969C71.4027 0.542969 71.6742 0.950209 71.9457 1.35745C72.0815 1.49319 72.2172 1.4932 72.7602 1.62894C73.0317 1.76469 73.7104 1.90043 73.7104 2.44342C73.7104 3.12215 72.7602 3.39365 71.4027 3.80089C71.267 3.80089 71.267 3.93663 71.1312 4.47962C70.8597 5.2941 69.5023 11.1312 67.8733 11.1312C67.4661 11.1312 67.3303 10.8597 67.3303 10.5882C67.3303 10.3167 67.3303 10.3167 67.8733 9.50224C69.7738 6.78731 70.181 4.07238 70.181 3.93663C70.181 3.80089 70.0453 3.80089 69.7738 3.80089C67.7376 3.66514 67.7376 2.44342 67.7376 2.44342C67.7376 2.44342 67.7376 2.17193 67.8733 2.17193C67.8733 2.17193 68.0091 2.17193 68.2805 2.44342C68.4163 2.57917 68.9593 2.85066 69.638 2.85066C69.638 2.85066 70.3168 2.85066 70.4525 2.71491C70.4525 2.71491 70.5882 2.44342 70.5882 2.30767ZM75.4751 12.8959C75.2036 14.3891 73.9819 14.7964 73.0317 14.7964C71.4027 14.7964 70.4525 13.7104 70.4525 12.7602C70.4525 11.6742 71.6742 11.1312 73.1674 11.1312C73.3032 11.1312 73.9819 11.1312 74.1177 11.1312C74.2534 11.1312 74.3891 11.1312 74.3891 10.9955C74.3891 10.724 74.2534 9.63799 74.2534 9.3665C74.2534 7.46605 74.3891 6.65157 75.7466 5.83709C76.8326 5.15835 76.9683 5.15835 76.9683 4.75111C76.9683 4.34387 76.5611 3.93663 76.4253 3.93663C76.2896 3.80089 76.1538 3.66514 76.1538 3.66514C76.1538 3.66514 76.1539 3.52939 76.2896 3.52939C76.4253 3.52939 76.9683 3.66514 77.2398 3.80089C78.5973 4.07238 78.5973 5.15835 78.5973 5.42985C78.5973 6.10858 78.19 6.38007 77.7828 6.38007C77.7828 6.38007 77.5113 6.38007 77.3756 6.24433C76.6968 5.97283 76.6968 5.97283 76.4253 5.97283C76.0181 5.97283 75.4751 6.24433 75.2036 6.51582C74.7964 6.92306 74.7964 7.46605 74.7964 7.87329C74.7964 8.28053 74.9321 10.9955 75.4751 11.267C75.6109 11.4027 76.4253 11.6742 76.5611 11.8099C76.9683 11.9457 77.9186 12.4887 77.9186 13.1674C77.9186 13.4389 77.7828 13.7104 77.5113 13.7104C77.3756 13.7104 77.2398 13.7104 76.9683 13.4389C76.5611 13.0317 75.7466 12.4887 75.4751 12.6244C75.4751 12.6244 75.4751 12.7602 75.4751 12.8959ZM73.0317 11.9457C72.6244 11.9457 71.1312 11.9457 71.1312 12.8959C71.1312 13.3031 71.6742 13.8461 72.6244 13.8461C74.2534 13.8461 74.5249 12.4887 74.3891 12.2172C74.2534 11.9457 73.4389 11.9457 73.0317 11.9457ZM72.4887 2.17193C72.4887 2.03618 71.9457 1.76469 71.81 1.76469C71.5385 1.76469 71.4027 2.44342 71.4027 2.57917V2.71491C71.5385 2.71491 72.4887 2.44342 72.4887 2.17193Z" fill="#464B44"/>
<path d="M90.2715 13.7104C90.2715 13.8462 90.2715 13.8462 89.7285 13.9819C89.5927 13.9819 88.371 14.5249 88.2353 14.5249C85.6561 15.4751 83.8914 15.4751 83.7556 15.4751C83.6199 15.4751 83.4841 15.4751 83.4841 15.3394C83.4841 15.2036 83.6199 15.2036 83.8914 15.0679C85.2488 14.6606 86.742 14.1177 88.2353 13.1674C88.371 13.0317 88.7782 12.6244 88.914 12.6244C89.0497 12.6244 90.2715 13.4389 90.2715 13.7104ZM85.2488 6.1086C85.2488 6.24435 85.2488 6.38009 85.5203 6.78733C85.5203 6.92308 85.6561 7.19457 85.6561 7.33032C85.6561 7.87331 85.1131 8.00905 84.8416 8.00905C84.4344 8.00905 84.0271 7.73756 84.0271 7.19457C84.0271 7.05883 84.0271 6.51584 84.0271 6.51584C84.0271 5.97286 83.8914 5.83711 83.6199 5.42987L83.3484 5.15837C83.3484 5.15837 83.3484 5.02263 83.4841 5.02263C83.6199 5.02263 84.1629 5.15837 84.1629 5.15837C84.9773 5.15837 87.828 2.0362 87.9638 2.0362C87.9638 2.17195 86.3348 4.3439 85.9276 4.75114C85.7918 4.88688 85.2488 5.42987 85.2488 5.56561C85.2488 5.83711 85.2488 5.97285 85.2488 6.1086ZM83.7556 0.542991C85.3846 0.542991 86.6063 1.49322 86.6063 2.3077C86.6063 2.57919 86.3348 2.98643 85.9276 2.98643C85.5203 2.98643 85.5203 2.85068 85.2488 2.3077C84.9773 1.62896 84.1629 0.950231 83.7556 0.542991C83.6199 0.678737 83.6199 0.542991 83.6199 0.542991H83.7556ZM93.6651 6.65159C93.8009 6.65159 93.9366 6.65159 94.0724 6.51584C94.3439 6.24435 94.4796 6.1086 94.6153 6.1086C94.8868 6.1086 95.7013 6.65159 95.7013 6.92308C95.7013 7.05883 95.4298 7.46607 95.2941 7.60181C95.2941 7.87331 95.2941 9.36652 95.2941 9.77376C95.2941 10.181 95.4298 11.6742 95.4298 12.0815C95.4298 12.8959 94.6153 12.8959 94.4796 12.8959C94.0724 12.8959 94.0724 12.7602 93.9366 12.6244C93.9366 12.3529 93.8009 12.3529 93.5294 12.3529H87.6923C87.5565 12.3529 87.4208 12.3529 87.285 12.4887C87.1493 12.7602 87.0135 13.0317 86.3348 13.0317C85.9276 13.0317 85.9276 12.8959 85.9276 12.4887C85.9276 11.9457 85.9276 9.63801 85.9276 9.09503C85.9276 8.68779 85.7918 6.38009 85.7918 6.38009C85.7918 6.1086 85.7918 6.1086 85.9276 6.1086C86.0633 6.1086 86.8778 6.38009 87.0135 6.51584C87.0135 6.51584 87.285 6.51584 87.4208 6.51584H93.6651V6.65159ZM87.828 7.05883C87.4208 7.05883 87.4208 7.33032 87.4208 7.73756C87.4208 8.00905 87.4208 8.28055 87.828 8.28055H93.6651C94.0724 8.28055 94.0724 8.1448 94.0724 7.46607C94.0724 7.19457 94.0724 6.92308 93.6651 6.92308H87.828V7.05883ZM87.828 8.82353C87.4208 8.82353 87.4208 8.95928 87.4208 9.63801C87.4208 9.90951 87.4208 10.181 87.828 10.181H93.8009C94.2081 10.181 94.2081 10.0453 94.2081 9.36652C94.2081 9.09503 94.2081 8.82353 93.8009 8.82353H87.828ZM95.7013 1.90046C95.8371 1.90046 95.9728 1.90046 95.9728 1.90046C96.1086 1.90046 96.5158 1.49322 96.5158 1.49322C96.6515 1.49322 97.8733 2.44344 97.8733 2.85068C97.8733 3.12218 97.6018 3.12218 97.466 3.12218C96.6516 3.12218 96.5158 3.12218 96.2443 3.25792C95.9728 3.25792 95.0226 3.80091 95.0226 3.80091C95.0226 3.66516 95.7013 2.85068 95.7013 2.71494C95.7013 2.57919 95.5656 2.57919 95.5656 2.57919H93.6651C93.5294 2.57919 93.3936 2.57919 93.3936 2.71494C93.3936 2.71494 94.2081 4.88688 97.3303 6.1086C97.466 6.1086 98.009 6.38009 98.1448 6.38009C98.2805 6.38009 98.4163 6.51584 98.4163 6.51584C98.4163 6.65159 97.8733 6.78733 97.7375 6.78733C97.466 6.78733 97.466 6.78733 97.1945 7.19457L97.0588 7.33032C96.923 7.33032 95.2941 6.51584 94.2081 4.75114C93.8009 4.0724 93.5294 3.39367 93.2579 2.71494C93.2579 2.71494 93.2579 2.57919 93.1221 2.57919C93.1221 2.57919 92.9864 2.71494 92.9864 2.85068C92.7149 3.39367 91.7647 5.15838 89.457 5.97285C89.1855 6.1086 88.371 6.38009 87.9638 6.38009C87.9638 6.38009 87.828 6.38009 87.828 6.24435C87.828 6.24435 88.0995 6.1086 88.2353 5.97285C88.914 5.56561 90.1357 4.88688 90.8144 3.93666C91.3574 3.25792 91.6289 2.57919 91.6289 2.44344C91.6289 2.3077 91.4932 2.3077 91.3574 2.3077H90.4072C90 2.3077 89.8642 2.44344 89.457 2.85068C88.6425 3.66516 88.371 3.80091 87.5565 4.20815C87.4208 4.3439 87.285 4.3439 87.285 4.3439C87.285 4.3439 88.0995 3.39367 88.2353 3.25792C88.6425 2.71494 89.7285 1.22172 90 0.271498C90 0.135751 90.1357 -0.135742 90.1357 -0.135742C90.2715 -0.135742 91.7647 0.407244 91.7647 0.678737C91.7647 0.814484 91.6289 0.950231 91.2217 0.950231C91.0859 0.950231 90.6787 1.49322 90.6787 1.62896C90.6787 1.76471 90.8144 1.76471 90.9502 1.76471H95.7013V1.90046ZM87.828 10.5882C87.4208 10.5882 87.4208 10.8597 87.4208 10.9955C87.4208 11.9457 87.4208 11.9457 87.828 11.9457H93.6651C94.0724 11.9457 94.0724 11.81 94.0724 10.8597C94.0724 10.724 94.0724 10.4525 93.6651 10.4525H87.828V10.5882ZM91.9004 12.7602C92.5791 12.7602 97.0588 13.5747 97.0588 15.0679C97.0588 15.3394 96.923 15.6109 96.5158 15.6109C96.2443 15.6109 96.2443 15.6109 94.7511 14.6606C93.9366 14.1177 92.0362 13.0317 91.9004 13.0317C91.7647 13.0317 91.7647 12.8959 91.7647 12.8959C91.7647 12.7602 91.7647 12.7602 91.9004 12.7602Z" fill="#464B44"/>
<path d="M112.806 5.56561C113.62 5.56561 113.756 5.56561 114.027 5.02262C114.163 4.75113 114.435 4.61538 114.435 4.61538C114.706 4.61538 115.928 5.8371 115.928 5.8371C115.928 5.97285 115.792 6.1086 114.978 6.1086H103.846C103.303 6.1086 103.303 6.24434 103.303 6.78733C103.303 9.77376 103.303 11.267 102.76 12.8959C102.353 14.2534 101.267 15.3394 100.996 15.3394C100.996 15.3394 100.996 15.3394 100.996 15.2036C100.996 15.0679 101.267 14.6606 101.267 14.5249C101.81 13.4389 102.082 12.2172 102.082 8.82353C102.082 8.00905 102.082 7.19457 101.946 6.1086C101.946 5.97285 101.81 5.42986 101.81 5.29412C101.81 5.29412 101.81 5.29412 101.946 5.29412C101.946 5.29412 102.896 5.56561 103.032 5.56561C103.303 5.70136 103.575 5.70136 103.711 5.70136H109.005C109.412 5.70136 109.683 5.70136 110.634 4.20814C111.041 3.66516 111.312 2.85068 111.312 2.57919C111.312 2.44344 111.177 2.44344 110.905 2.44344H104.932C103.575 2.44344 103.032 2.44344 102.76 2.44344C102.625 2.44344 102.489 2.44344 102.353 2.44344C102.353 2.44344 102.217 2.44344 102.217 2.30769L101.946 1.90045C101.946 1.76471 101.81 1.76471 101.81 1.76471C101.81 1.76471 101.81 1.76471 101.946 1.76471C102.082 1.76471 102.625 1.90045 102.76 1.90045C103.575 1.90045 104.254 1.90045 105.068 1.90045H107.376C107.919 1.90045 107.919 1.62896 107.919 1.35747C107.919 1.08597 107.919 0.678733 107.919 0.678733L107.783 0.271493C107.919 0 108.054 0 108.19 0C108.462 0 109.683 0.135747 109.683 0.40724C109.683 0.542986 109.412 0.678733 109.412 0.81448C109.276 0.950226 109.276 1.22172 109.276 1.35747C109.276 1.62896 109.276 1.90045 109.819 1.90045H112.398C113.213 1.90045 113.349 1.90045 113.484 1.62896C113.892 0.950226 114.027 0.950226 114.027 0.950226C114.163 0.950226 115.52 2.0362 115.52 2.17195C115.52 2.30769 115.249 2.44344 114.57 2.44344H112.67C112.534 2.44344 112.263 2.44344 112.263 2.57919C112.263 2.71493 112.263 2.71493 112.67 3.12217C112.941 3.39366 113.077 3.52941 113.077 3.66516C113.077 3.8009 112.941 3.8009 112.806 3.93665C112.67 3.93665 110.498 5.42986 110.498 5.70136C110.498 5.8371 110.634 5.8371 110.769 5.8371H112.806V5.56561ZM108.326 8.68778C108.869 8.68778 108.869 8.41629 108.869 8.00905C108.869 7.73756 108.869 7.19457 108.869 6.92308C108.869 6.92308 108.869 6.65158 108.869 6.51584C108.869 6.38009 108.869 6.38009 109.005 6.38009C109.14 6.38009 110.769 6.78733 110.769 7.05882C110.769 7.19457 110.362 7.46606 110.362 7.60181C110.226 7.73756 110.226 8.00905 110.226 8.1448C110.226 8.41629 110.226 8.68778 110.769 8.68778H111.855C112.534 8.68778 112.806 8.68778 112.941 8.41629C113.349 7.73756 113.484 7.60181 113.62 7.60181C113.756 7.60181 114.978 8.68778 114.978 8.82353C114.978 8.95928 114.842 9.09502 114.027 9.09502H110.769C110.226 9.09502 110.226 9.36652 110.226 10.181C110.226 11.1312 110.226 11.267 110.769 11.267H111.72C112.534 11.267 112.806 11.267 112.941 10.8597C113.077 10.5882 113.213 10.3167 113.349 10.3167C113.484 10.3167 114.706 11.267 114.706 11.4027C114.706 11.6742 114.435 11.6742 113.756 11.6742H110.769C110.362 11.6742 110.226 11.81 110.226 12.2172C110.226 14.2534 110.226 14.2534 110.769 14.2534H112.67C113.349 14.2534 113.62 14.2534 113.892 13.7104C114.027 13.3032 114.163 13.3032 114.299 13.3032C114.57 13.3032 115.792 14.3891 115.792 14.5249C115.792 14.7964 115.656 14.7964 114.842 14.7964H106.154C104.661 14.7964 104.118 14.7964 103.982 14.7964C103.982 14.7964 103.711 14.7964 103.575 14.7964C103.575 14.7964 103.439 14.7964 103.439 14.6606L103.168 14.3891C103.168 14.3891 103.168 14.3891 103.168 14.2534C103.303 14.2534 103.846 14.3891 103.982 14.3891C104.797 14.3891 105.475 14.5249 106.29 14.5249H108.326C108.869 14.5249 108.869 14.2534 108.869 13.4389C108.869 13.1674 108.869 12.2172 108.869 12.0814C108.733 11.81 108.462 11.81 108.326 11.81H107.647C106.154 11.81 105.611 11.81 105.475 11.81C105.475 11.81 105.204 11.81 105.068 11.81C105.068 11.81 104.932 11.81 104.932 11.6742L104.661 11.267C104.661 11.1312 104.661 11.1312 104.661 11.1312C104.797 11.1312 105.339 11.1312 105.475 11.1312C106.29 11.1312 106.968 11.267 107.783 11.267H108.326C108.462 11.267 108.869 11.267 108.869 10.8597C108.869 10.5882 108.869 9.36652 108.869 9.36652C108.733 9.09502 108.597 9.09502 108.326 9.09502H106.561C106.018 9.09502 106.018 9.09502 105.611 9.77376C105.339 10.3167 104.118 11.81 103.982 11.81C103.982 11.81 103.846 11.81 103.846 11.6742L104.118 11.1312C104.525 10.181 105.204 8.41629 105.204 7.46606C105.204 7.33032 105.204 7.05882 105.204 7.05882C105.204 6.92308 105.204 6.92308 105.339 6.92308C105.339 6.92308 106.833 7.33032 106.833 7.60181C106.833 7.73756 106.425 8.00905 106.425 8.1448C106.29 8.28054 106.29 8.41629 106.29 8.41629C106.29 8.55204 106.425 8.55204 106.561 8.55204H108.326V8.68778ZM107.104 4.47964C107.104 4.88688 106.833 5.29412 106.425 5.29412C105.882 5.29412 105.882 4.88688 105.611 4.0724C105.475 3.66516 105.204 3.12217 105.068 2.98643L104.932 2.85068C104.932 2.71493 105.068 2.71493 105.204 2.71493C105.475 2.71493 107.104 3.39366 107.104 4.47964Z" fill="#464B44"/>
<path d="M121.222 4.34388C121.086 4.34388 120.815 4.20814 120.679 3.8009C120.272 2.71492 119.593 2.03619 118.778 1.22171C118.507 0.950217 118.507 0.950217 118.507 0.814471C118.507 0.678724 118.643 0.678724 118.643 0.678724C118.914 0.678724 120.136 1.22171 120.272 1.35746C121.222 1.90044 121.901 2.85067 121.901 3.39366C121.901 3.5294 121.901 3.66515 121.901 3.8009C121.765 4.07239 121.629 4.34388 121.222 4.34388ZM118.507 7.19456C118.507 7.05881 118.507 7.05881 118.507 7.19456C118.507 7.05881 118.507 7.05881 118.507 7.05881C118.778 7.05881 120.272 7.19456 120.543 7.19456C120.815 7.19456 120.95 7.05881 121.086 6.92307C121.629 6.38008 121.629 6.38008 121.629 6.38008C121.765 6.38008 122.715 6.92307 122.715 7.33031C122.715 7.46605 122.308 7.73755 122.172 7.73755C122.172 7.87329 122.172 8.00904 122.172 9.77375C122.172 11.5385 122.172 11.9457 122.579 12.4887C123.394 13.5746 124.887 13.7104 128.281 13.7104C129.774 13.7104 131.267 13.7104 132.76 13.4389C132.896 13.4389 133.982 13.1674 134.118 13.1674H134.253C134.253 13.1674 133.982 13.4389 133.982 13.5746C133.71 13.8461 133.71 13.9819 133.439 14.6606C133.303 15.0679 133.032 15.0679 131.267 15.0679C129.231 15.0679 126.38 14.9321 125.158 14.6606C124.751 14.5249 123.122 14.1176 122.308 12.7602C122.036 12.2172 122.036 12.0814 121.765 12.0814C121.629 12.0814 121.629 12.2172 121.493 12.3529C121.086 12.7602 120.407 13.8461 120.272 14.2534C120.136 14.6606 120.136 14.9321 119.864 14.9321C119.593 14.9321 118.643 13.8461 118.643 13.7104C118.643 13.5747 119.186 13.4389 119.186 13.4389C120.272 12.8959 121.222 12.3529 121.222 11.5385C121.222 11.5385 121.222 8.82352 121.222 8.28053C121.222 7.87329 121.222 7.6018 120.679 7.6018C120.679 7.6018 119.864 7.6018 119.457 7.6018C119.457 7.6018 119.186 7.6018 119.05 7.6018C119.05 7.6018 118.914 7.6018 118.914 7.46605L118.507 7.19456ZM131.81 0.814471C132.217 0.814471 132.353 0.678724 132.353 0.678724C132.353 0.542978 132.76 0.271484 132.76 0.271484C132.896 0.271484 134.253 1.22171 134.253 1.62895C134.253 1.7647 134.118 2.03619 133.846 2.03619C133.846 2.03619 133.575 2.03619 133.439 2.03619C133.303 2.03619 133.167 2.03619 132.624 2.30768C132.081 2.57918 132.081 2.71492 131.946 2.71492C131.946 2.71492 131.81 2.71492 131.81 2.57918C131.81 2.44343 132.217 1.62895 132.217 1.4932C132.217 1.35746 132.081 1.35746 131.81 1.35746H124.887C124.615 1.35746 124.615 1.35746 124.615 1.7647C124.615 2.57918 123.937 3.5294 123.258 3.5294C122.851 3.5294 122.579 3.12216 122.579 2.85067C122.579 2.57918 122.715 2.44343 123.122 2.03619C123.665 1.4932 123.665 1.08596 123.665 0.542978V0.407231C123.801 0.407231 124.072 0.678724 124.208 0.814471C124.344 1.08596 124.344 1.08596 124.751 1.08596H131.81V0.814471ZM126.244 9.23076C125.973 9.23076 125.837 9.23076 125.701 9.50225C125.566 9.77375 125.43 9.90949 125.023 9.90949C124.615 9.90949 124.48 9.638 124.48 9.36651C124.48 9.23076 124.48 8.68777 124.48 8.55203C124.48 8.00904 124.48 7.87329 124.48 5.70135C124.48 5.5656 124.344 4.88687 124.344 4.75112C124.344 4.75112 124.344 4.47963 124.48 4.47963C124.615 4.47963 125.158 4.75112 125.294 4.88687C125.294 4.88687 125.701 5.02261 126.109 5.02261H127.059C127.33 5.02261 127.466 5.02261 127.466 4.61538C127.466 3.93664 127.466 3.93664 127.059 3.93664H126.516C126.109 3.93664 125.158 3.93664 124.751 3.93664H124.48C124.48 3.93664 124.344 3.93664 124.344 3.8009L124.072 3.39366C124.072 3.39366 124.072 3.39366 124.072 3.25791C124.208 3.25791 124.615 3.25791 124.751 3.39366C125.158 3.39366 125.973 3.39366 126.787 3.39366H127.195C127.466 3.39366 127.602 3.25791 127.602 2.98642C127.602 2.85067 127.602 2.44343 127.602 2.30768C127.602 2.17194 127.466 1.62895 127.466 1.4932C127.466 1.35746 127.602 1.35746 127.738 1.35746C127.738 1.35746 129.231 1.4932 129.231 1.90044C129.231 2.03619 128.959 2.30768 128.824 2.44343C128.688 2.57918 128.688 2.85067 128.688 2.85067C128.688 3.25791 128.959 3.25791 129.095 3.25791H129.774C129.91 3.25791 130.317 3.25791 130.453 3.25791C130.588 3.12216 131.131 2.44343 131.267 2.44343C131.403 2.44343 132.624 3.39366 132.624 3.5294C132.624 3.8009 132.353 3.8009 131.81 3.8009H129.095C128.688 3.8009 128.688 3.93664 128.688 4.47963C128.688 4.75112 128.688 4.88687 129.095 4.88687H130.453C130.588 4.88687 130.724 4.88687 130.996 4.75112C131.131 4.75112 131.403 4.47963 131.539 4.47963C131.674 4.47963 132.624 5.02261 132.624 5.29411C132.624 5.29411 132.353 5.70135 132.217 5.70135C132.081 5.83709 132.081 6.65157 132.081 6.92307C132.081 7.19456 132.081 8.55203 132.081 8.82352C132.081 9.50225 131.539 9.638 131.267 9.638C130.86 9.638 130.86 9.50225 130.724 9.23076C130.724 9.09501 130.453 9.09501 130.317 9.09501H129.231C128.824 9.09501 128.688 9.36651 128.688 9.638C128.688 10.3167 128.688 10.4525 129.231 10.4525H131.267C131.946 10.4525 131.946 10.4525 132.217 10.181C132.624 9.638 132.76 9.50225 132.896 9.50225C133.032 9.50225 134.253 10.4525 134.253 10.724C134.253 10.9955 133.982 10.9955 133.439 10.9955H129.231C128.824 10.9955 128.688 11.1312 128.688 11.5385C128.688 11.6742 128.688 12.6244 128.688 12.7602C128.688 13.0317 128.688 13.5746 128.009 13.5746C127.466 13.5746 127.466 13.1674 127.466 13.0317C127.466 12.7602 127.466 11.8099 127.466 11.5385C127.466 10.9955 127.195 10.9955 126.923 10.9955H125.43C125.023 10.9955 124.344 10.9955 123.665 10.9955H123.258C123.258 10.9955 123.122 10.9955 123.122 10.8597L122.851 10.4525V10.3167C122.986 10.3167 123.258 10.3167 123.394 10.3167C124.344 10.4525 125.566 10.4525 126.38 10.4525H126.923C127.602 10.724 127.602 10.3167 127.602 9.90949C127.602 9.50225 127.602 9.23076 127.059 9.23076H126.244ZM127.059 6.92307C127.602 6.92307 127.602 6.65157 127.602 6.24433C127.602 5.70135 127.602 5.42985 127.059 5.42985H125.973C125.43 5.42985 125.43 5.70135 125.43 6.10859C125.43 6.65157 125.43 6.92307 125.973 6.92307H127.059ZM127.059 8.82352C127.602 8.82352 127.602 8.55203 127.602 8.00904C127.602 7.73755 127.602 7.46605 127.059 7.46605H125.973C125.43 7.46605 125.43 7.73755 125.43 8.14479C125.43 8.55203 125.43 8.82352 125.973 8.82352H127.059ZM129.095 5.42985C128.552 5.42985 128.552 5.70135 128.552 6.24433C128.552 6.65157 128.552 6.92307 129.095 6.92307H130.317C130.86 6.92307 130.86 6.65157 130.86 6.24433C130.86 5.83709 130.86 5.5656 130.317 5.5656H129.095V5.42985ZM129.231 7.33031C128.688 7.33031 128.688 7.6018 128.688 8.14479C128.688 8.55203 128.688 8.82352 129.231 8.82352H130.317C130.86 8.82352 130.86 8.55203 130.86 8.00904C130.86 7.6018 130.86 7.33031 130.317 7.33031H129.231Z" fill="#464B44"/>
<path d="M140.226 9.638C139.683 9.638 139.683 9.77375 139.683 10.4525C139.412 13.4389 137.511 15.2036 137.24 15.2036C137.104 15.2036 137.104 15.2036 137.104 15.0679C137.104 15.0679 137.511 14.3891 137.647 14.2534C138.326 12.7602 138.597 11.267 138.597 7.05881C138.597 5.70135 138.597 2.98642 138.462 1.62895C138.462 1.4932 138.326 0.407231 138.326 0.407231C138.326 0.271484 138.326 0.271484 138.462 0.271484C138.597 0.271484 139.14 0.542978 139.276 0.542978C139.819 0.814471 140.091 0.950217 140.634 0.950217H148.914C149.321 0.950217 149.457 0.814471 149.457 0.678724C149.729 0.407231 149.729 0.271484 149.864 0.271484C150 0.271484 151.222 0.950217 151.222 1.22171C151.222 1.35746 151.086 1.4932 150.95 1.4932C150.543 1.7647 150.543 1.7647 150.543 3.39366C150.543 4.75112 150.679 11.1312 150.679 12.4887C150.679 13.3032 150.679 15.0679 149.05 15.0679C148.914 15.0679 148.914 15.0679 148.778 14.6606C148.507 13.9819 147.557 13.7104 147.285 13.7104L147.014 13.5747C147.014 13.4389 147.149 13.4389 147.285 13.4389C147.557 13.4389 148.643 13.5747 148.778 13.5747C149.457 13.5747 149.457 13.4389 149.457 11.267C149.457 10.9955 149.457 9.90949 149.457 9.77375C149.457 9.50225 149.186 9.50225 148.914 9.50225H145.521C145.113 9.50225 144.978 9.638 144.978 10.181C144.978 11.4027 144.978 12.7602 144.978 14.1176C144.978 14.3891 144.978 14.5249 144.842 14.6606C144.706 14.7964 144.435 14.9321 144.027 14.9321C143.62 14.9321 143.62 14.6606 143.62 14.5249C143.62 13.8461 143.756 10.724 143.756 10.0452C143.756 9.638 143.62 9.50225 143.213 9.50225H140.226V9.638ZM143.349 4.88687C143.892 4.88687 143.892 4.88687 143.892 3.12216C143.892 1.4932 143.892 1.35746 143.349 1.35746H140.226C139.683 1.35746 139.683 1.4932 139.683 2.85067C139.683 4.75112 139.683 4.75112 140.226 4.75112H143.349V4.88687ZM143.349 9.23076C143.484 9.23076 143.756 9.23076 143.756 8.95927C143.756 8.82352 143.756 7.19456 143.756 6.92307C143.756 5.42986 143.756 5.29411 143.213 5.29411H140.091C139.955 5.29411 139.683 5.29411 139.548 5.5656C139.548 5.70135 139.548 8.00904 139.548 8.41628C139.548 8.68777 139.548 8.95927 140.091 8.95927H143.349V9.23076ZM145.521 1.4932C145.249 1.4932 145.113 1.4932 144.978 1.7647C144.978 1.90044 144.978 3.8009 144.978 4.20814C144.978 4.61538 144.978 4.88687 145.521 4.88687H148.914C149.457 4.88687 149.457 4.75112 149.457 3.66515C149.457 1.35746 149.457 1.35746 148.914 1.35746H145.521V1.4932ZM145.521 5.42985C144.978 5.42985 144.978 5.42985 144.978 7.05881C144.978 7.33031 144.978 8.82352 144.978 8.95927C145.113 9.23076 145.385 9.23076 145.385 9.23076H148.914C149.457 9.23076 149.457 9.09501 149.457 8.00904C149.457 5.5656 149.457 5.42985 148.914 5.42985H145.521Z" fill="#464B44"/>
<path d="M157.059 9.095C157.059 8.55201 157.602 8.00902 158.688 6.65156C159.503 5.70133 160.181 4.34387 160.181 4.07237C160.181 3.93663 160.046 3.93663 160.046 3.93663C159.91 3.93663 159.231 4.07237 158.96 4.07237C158.281 4.07237 157.466 3.25789 157.466 2.57916C157.466 2.57916 157.466 2.44341 157.602 2.44341C157.738 2.44341 158.145 2.71491 158.281 2.71491C158.552 2.85065 158.96 2.9864 159.367 2.9864C160.724 2.9864 160.724 2.57916 160.724 2.17192C160.724 2.03617 160.724 1.76468 160.589 1.62893C160.589 1.49319 160.181 1.22169 160.181 1.08595C160.181 0.9502 160.588 0.814453 160.996 0.814453C161.403 0.814453 161.81 0.9502 161.81 1.35744C161.81 1.62893 161.946 1.62893 162.625 1.62893C162.76 1.62893 163.439 1.76468 163.439 2.03617C163.439 2.57916 162.217 3.12215 161.403 3.39364C161.131 3.52939 161.131 3.52939 160.724 4.34386C160.317 5.29409 160.181 5.42984 159.774 6.24432C159.638 6.38006 159.638 6.51581 159.638 6.51581V6.65156C159.638 6.65156 160.046 6.51581 160.181 6.51581C160.317 6.38006 160.588 6.38006 160.86 6.38006C161.131 6.38006 161.81 6.38006 162.353 7.46604C162.489 7.73753 162.489 7.73753 162.489 7.73753C162.489 7.73753 163.168 6.92305 163.168 6.7873C163.711 5.97282 164.797 4.47961 166.29 4.47961C167.24 4.47961 167.919 5.29409 167.919 5.97282C167.919 6.7873 166.561 7.33029 165.475 7.73753C165.068 7.87328 163.168 8.68776 162.76 8.8235C162.489 8.95925 162.489 9.23074 162.489 9.50224C162.489 9.63798 162.489 10.3167 162.489 10.5882C162.489 10.8597 162.489 11.8099 161.81 11.8099C161.403 11.8099 161.267 11.2669 161.267 10.9954C161.267 10.8597 161.267 10.0452 161.267 10.0452C161.267 9.90948 161.267 9.77373 161.131 9.77373C160.996 9.77373 159.503 10.8597 159.503 11.8099C159.503 13.0316 161.267 13.0316 161.674 13.0316C162.082 13.0316 162.489 13.0316 162.76 12.8959C163.032 12.8959 164.118 12.6244 164.254 12.6244C164.661 12.6244 165.068 12.7602 165.068 13.1674C165.068 14.2534 162.489 14.2534 162.082 14.2534C159.91 14.2534 158.824 13.3031 158.824 12.0814C158.824 10.9954 159.503 10.4525 161.131 9.095C161.267 8.95925 161.403 8.68776 161.403 8.55201C161.403 7.73753 161.267 6.7873 160.589 6.7873C159.91 6.7873 158.96 7.60178 158.552 8.55201C158.417 8.95925 158.145 9.36649 157.602 9.36649C157.331 9.63798 157.059 9.50224 157.059 9.095ZM161.403 2.57916C161.403 2.57916 162.217 2.30767 162.217 2.17192C162.217 1.90043 161.81 1.90043 161.674 1.90043C161.403 1.90043 161.403 2.44341 161.403 2.57916ZM162.896 8.14477C162.896 8.14477 162.896 8.28052 162.896 8.14477C163.032 8.28052 166.426 6.92305 166.426 5.70133C166.426 5.29409 166.018 5.15834 165.883 5.15834C164.389 5.29409 162.896 7.87328 162.896 8.14477Z" fill="#464B44"/>
<path d="M178.778 2.85074C178.778 2.98648 178.507 3.66522 178.507 3.80096C178.235 4.61544 177.828 8.41635 177.828 9.90956C177.828 11.6743 178.1 13.1675 180.407 13.1675C181.222 13.1675 182.444 13.0317 183.937 12.2173C184.208 12.0815 185.43 11.4028 185.566 11.4028C185.701 11.4028 185.701 11.4028 185.701 11.5385C185.701 11.6743 183.122 14.5249 180 14.5249C177.828 14.5249 176.742 13.3032 176.742 9.77382C176.742 8.68784 176.742 8.41635 177.149 5.02268C177.285 4.4797 177.421 3.12223 177.421 2.57925C177.421 2.30775 177.421 2.03626 177.285 1.76477L177.149 1.35753C177.149 1.22178 177.285 1.22178 177.421 1.22178C177.964 1.08603 178.778 2.4435 178.778 2.85074Z" fill="#464B44"/>
<path d="M192.625 11.6742C194.389 8.41627 194.932 5.42985 194.932 5.42985C194.932 5.2941 194.932 5.2941 194.254 5.2941C193.846 5.2941 193.303 5.2941 192.76 5.02261C192.217 4.75111 191.81 4.20813 191.81 4.07238V3.93663C191.81 3.93663 192.082 4.07238 192.217 4.07238C192.489 4.20813 193.168 4.20813 193.711 4.20813C193.982 4.20813 194.796 4.20813 194.932 4.07238C195.068 3.93663 195.068 2.85066 195.068 2.71491C195.068 2.57917 195.068 2.03618 194.796 1.62894C194.661 1.4932 194.254 1.08596 194.254 0.950209C194.254 0.814462 194.525 0.542969 195.068 0.542969C195.882 0.542969 196.425 1.2217 196.425 1.49319C196.425 1.62894 196.29 1.90043 196.29 2.03618C196.29 2.30767 197.647 2.71491 197.783 2.71491C197.919 2.71491 198.19 2.71491 198.326 2.71491C198.462 2.71491 198.869 2.71491 198.869 3.2579C198.869 4.20813 197.376 4.75111 196.29 5.02261C195.747 5.15835 195.611 5.15835 195.611 5.56559C194.796 9.23075 194.661 9.23075 194.389 10.4525C193.168 13.9819 192.625 13.9819 192.217 13.9819C191.81 13.9819 191.81 13.4389 191.81 13.1674C191.946 12.8959 192.082 12.6244 192.625 11.6742ZM196.154 3.93663C196.29 3.93663 197.511 3.52939 197.511 3.2579C197.511 3.12215 196.561 2.71491 196.425 2.71491C196.29 2.71491 196.29 2.71491 196.29 2.98641C196.29 3.39365 196.29 3.39365 196.154 3.80089C196.018 3.80089 196.018 3.93663 196.154 3.93663ZM197.511 11.1312C197.919 12.6244 199.683 12.8959 201.041 12.8959C201.312 12.8959 202.67 12.7602 202.941 12.7602C203.484 12.7602 204.299 13.0317 204.299 13.5746C204.299 14.1176 203.62 14.1176 202.263 14.1176C199.548 14.1176 197.24 13.4389 197.24 11.267C197.24 10.8597 197.376 10.4525 197.511 10.4525C197.376 10.724 197.511 11.1312 197.511 11.1312ZM201.177 5.15835C202.806 5.15835 204.027 5.70134 204.027 6.38007C204.027 6.78731 203.62 6.78731 203.484 6.78731C203.349 6.78731 202.67 6.78731 202.534 6.78731C202.263 6.78731 201.991 6.78731 201.312 7.0588C200.905 7.19455 200.769 7.3303 200.634 7.3303H200.498C200.498 7.19455 201.448 6.51582 201.448 6.38007C201.448 6.10858 200.226 6.10858 199.955 6.10858C199.548 6.10858 199.14 6.10858 198.733 6.24433C198.597 6.24433 198.19 6.24433 198.19 6.24433H198.054C197.919 5.83709 199.412 5.15835 201.177 5.15835Z" fill="#464B44"/>
<path d="M212.036 4.8869C212.036 5.02265 212.036 5.02265 211.765 5.56564C211.493 6.24437 211.357 6.9231 211.357 7.73758C211.357 9.50229 212.308 10.724 212.715 10.724C212.986 10.724 213.122 10.5883 213.529 9.77378C213.665 9.63803 213.937 9.23079 214.072 9.23079C214.072 9.23079 214.208 9.23079 214.208 9.36654C214.208 9.50229 214.208 9.63803 214.208 9.77378C214.072 10.5883 213.937 10.724 213.937 11.1312C213.937 11.4027 213.937 11.6742 214.072 11.81C214.072 11.9457 214.208 12.353 214.208 12.353C214.208 12.7602 213.801 12.896 213.529 12.896C212.443 12.896 210.271 11.1312 210.271 7.87333C210.271 7.33034 210.543 5.29414 210.543 4.8869C210.543 4.47966 210.543 4.07242 210.407 3.93668C210.407 3.25794 210.407 3.25794 210.407 3.1222C210.407 3.1222 210.407 2.98645 210.543 2.98645C211.357 2.98645 212.036 4.34392 212.036 4.8869ZM220.452 5.29414C221.267 5.97288 221.946 7.1946 221.946 8.55206C221.946 8.82355 221.946 9.63803 221.131 9.63803C220.317 9.63803 220.317 8.68781 220.317 8.55206C220.317 7.1946 220.317 6.38012 219.367 5.56564C219.231 5.42989 218.552 4.8869 218.552 4.75116C218.552 4.75116 218.552 4.61541 218.688 4.61541C218.688 4.61541 219.638 4.61541 220.452 5.29414Z" fill="#464B44"/>
<path d="M234.027 1.7647C234.027 1.7647 234.299 5.8371 236.471 9.50226C236.742 9.9095 238.643 13.0317 241.358 13.7104C241.358 13.7104 241.493 13.7104 241.493 13.8461C241.493 13.9819 241.493 13.9819 240.95 14.1176C240.407 14.2534 240 14.5249 239.729 14.6606C239.457 14.9321 239.321 14.9321 239.321 14.9321C239.321 14.9321 237.15 13.5747 235.385 10.0452C235.113 9.36651 234.027 7.05882 233.756 3.39366C233.756 3.25791 233.756 3.12217 233.62 3.12217C233.484 3.12217 233.484 3.25791 233.484 3.8009C233.484 4.34389 232.941 8.28054 231.312 11.1312C229.548 14.1176 226.561 15.2036 226.29 15.2036C226.29 15.2036 226.154 15.2036 226.154 15.0679C226.154 15.0679 226.29 14.9321 226.426 14.7964C227.376 14.1176 229.276 12.6244 230.498 10.4525C232.398 6.78733 232.398 1.90045 232.398 1.7647C232.398 1.22171 232.398 1.08597 232.398 0.678729C232.398 0.678729 232.398 0.407235 232.398 0.271489C232.398 0.135742 232.534 0.135742 232.534 0.135742C232.67 0.135742 233.349 0.407235 233.484 0.407235C234.299 0.678729 234.706 0.678729 234.706 1.08597C234.706 1.22171 234.57 1.35746 234.435 1.35746C234.299 1.35746 234.163 1.35746 234.163 1.49321C234.027 1.62895 234.027 1.62895 234.027 1.7647Z" fill="#464B44"/>
<path d="M48.0545 26.0634C48.4617 26.0634 49.6834 27.0136 50.4979 28.0996C50.4979 28.2353 50.4979 28.2353 50.6337 28.2353C50.9051 28.2353 51.4481 27.1493 51.5839 26.7421C51.5839 26.6064 51.8554 25.7919 51.9911 25.7919L53.0771 26.4706C53.2128 26.6063 53.3486 26.7421 53.3486 26.8778C53.3486 27.1493 53.2128 27.1493 52.8056 27.2851C52.6699 27.2851 52.5341 27.5566 51.4481 28.7783C51.3124 28.914 51.3124 29.0498 51.3124 29.1855C51.3124 29.3213 51.8554 30.4073 51.8554 30.6787C52.3984 32.3077 52.6699 34.2082 52.6699 35.5656C52.6699 38.2806 51.8554 40.724 50.7694 40.724C50.4979 40.724 50.3622 40.5883 50.2264 40.181C49.9549 39.638 49.4119 39.2308 49.0047 39.095C49.1404 39.095 50.2264 39.2308 50.4979 39.2308C50.7694 39.2308 51.0409 39.095 51.1766 38.5521C51.5839 37.4661 51.5839 36.1086 51.5839 34.7511C51.5839 34.4797 51.5839 33.6652 51.5839 33.3937C51.5839 33.2579 51.5839 33.2579 51.4481 33.2579C51.3124 33.2579 51.3124 33.3937 50.9051 33.9367C49.6834 35.8371 47.3757 37.8733 47.24 37.8733C47.24 37.8733 47.24 37.8733 47.24 37.7376C47.24 37.7376 48.0545 36.6516 48.1902 36.3801C50.3622 33.2579 51.0409 31.3575 51.0409 30.6787C51.0409 30.543 50.7694 29.7285 50.6337 29.7285C50.4979 29.7285 49.2762 30.6787 49.0047 30.8145C48.1902 31.2217 47.3757 31.7647 47.24 31.7647C47.24 31.7647 48.0545 31.086 48.1902 30.9502C48.7332 30.4073 50.2264 29.0498 50.2264 28.6425C49.9549 28.3711 48.0545 26.3349 48.0545 26.0634ZM56.6065 29.457C57.0137 29.457 57.0137 29.0498 57.0137 28.6425C57.0137 28.2353 57.0137 27.1493 56.878 26.7421C56.878 26.6064 56.7423 26.0634 56.7423 25.9276C56.7423 25.7919 56.878 25.7919 56.878 25.7919C56.878 25.7919 58.3712 26.0634 58.3712 26.3349C58.3712 26.4706 58.0997 26.6064 58.0997 26.7421C57.964 26.8778 57.964 27.2851 57.964 27.5566V29.1855C57.964 29.457 58.2355 29.5928 58.3712 29.5928H59.7287C60.0002 29.5928 60.1359 29.457 60.2717 29.3213C60.4074 29.0498 60.5432 29.0498 60.5432 29.0498C60.6789 29.0498 61.7649 29.5928 61.7649 29.8643C61.7649 30 61.7649 30 61.4934 30.2715C61.2219 30.4073 61.2219 31.086 61.2219 31.629C61.2219 31.7647 61.2219 32.9864 61.2219 34.7511C61.2219 34.8869 61.3576 35.5656 61.3576 35.7014C61.3576 36.3801 60.8146 36.6516 60.4074 36.6516C60.1359 36.6516 60.0002 36.3801 60.0002 35.9729C60.0002 35.5656 60.0002 35.1584 59.5929 35.1584H58.2355C58.0997 35.1584 57.8282 35.1584 57.8282 35.4299C57.8282 35.5656 57.8282 36.9231 57.8282 37.0588V38.4163C57.8282 38.8235 57.964 38.9593 58.3712 38.9593C58.7785 38.9593 59.0499 38.8235 60.0002 38.6878C60.5432 38.5521 60.6789 38.4163 60.6789 38.2806C60.6789 37.8733 60.5432 37.4661 60.2717 37.1946L60.1359 37.0588H60.2717C60.8147 37.0588 62.1721 38.5521 62.1721 39.638C62.1721 40.181 61.7649 40.724 61.3576 40.724C60.8147 40.724 60.8146 40.181 60.8146 39.638C60.8146 39.2308 60.8146 39.095 60.5432 39.095C60.5432 39.095 58.6427 39.638 58.3712 39.7738C57.8282 39.9095 55.249 40.5883 54.7061 40.724C54.5703 40.724 53.8916 40.9955 53.7558 40.9955C53.4843 40.9955 53.4843 40.8597 53.3486 40.3168C53.2128 40.0453 53.0771 39.3665 53.0771 39.3665C53.0771 39.2308 53.0771 39.2308 53.2128 39.2308C53.2128 39.2308 53.3486 39.2308 53.4843 39.3665C53.6201 39.5023 53.8916 39.5023 54.0273 39.5023C54.4346 39.5023 56.4708 39.3665 56.7423 39.095C56.7423 38.9593 56.7423 37.1946 56.7423 36.9231C56.7423 36.1086 56.7423 36.1086 56.7423 35.7014C56.7423 35.4299 56.4708 35.2941 56.335 35.2941H55.6563C55.249 35.2941 55.249 35.7014 55.249 35.8371C55.249 36.3801 55.249 36.5159 55.1133 36.6516C54.8418 36.5159 54.5703 36.6516 54.2988 36.6516C53.8916 36.6516 53.8916 36.2444 53.8916 36.1086C53.8916 35.9729 54.0273 34.3439 54.0273 33.9367C54.0273 33.1222 54.0273 31.2217 53.8916 29.8643C53.8916 29.7285 53.7558 29.1855 53.7558 29.0498C53.7558 28.914 53.7558 28.914 53.8916 28.914C54.1631 28.914 54.9775 29.3213 55.1133 29.457C55.249 29.457 55.3848 29.5928 55.5205 29.5928H56.6065V29.457ZM56.6065 34.6154C57.0137 34.6154 57.0137 34.2082 57.0137 34.0724V30.543C57.0137 30.1358 57.0137 29.8643 56.4708 29.8643H55.249C54.7061 29.8643 54.7061 30.2715 54.7061 30.2715C54.7061 31.086 54.7061 33.2579 54.8418 34.0724C54.8418 34.2082 54.8418 34.4797 55.249 34.4797H56.6065V34.6154ZM60.0002 34.6154C60.4074 34.6154 60.4074 34.2082 60.4074 34.0724C60.4074 33.5294 60.4074 30.8145 60.4074 30.2715C60.4074 29.8643 60.1359 29.8643 59.8644 29.8643H58.6427C58.2355 29.8643 58.2355 30.1358 58.2355 30.4073C58.2355 30.9502 58.2355 33.5294 58.2355 34.0724C58.2355 34.2082 58.2355 34.6154 58.6427 34.6154H60.0002Z" fill="#464B44"/>
<path d="M75.8826 28.5068C76.1541 28.5068 76.4256 28.5068 76.6971 28.3711C76.8328 28.2353 77.2401 27.6923 77.3758 27.6923C77.5116 27.6923 78.5975 28.3711 78.5975 28.7783C78.5975 28.914 78.326 29.1855 78.326 29.3213C78.1903 29.5928 78.1903 29.8643 78.1903 30.1358C78.1903 31.9005 78.1903 33.6652 78.1903 35.4299C78.1903 35.9729 78.326 38.8235 78.326 39.3665C78.326 40.4525 77.5116 40.5883 77.3758 40.5883C76.9686 40.5883 76.8328 40.181 76.8328 39.9095C76.8328 39.5023 76.5613 39.5023 76.2898 39.5023H69.774C69.3668 39.5023 69.231 39.5023 69.0953 39.9095C69.0953 40.4525 68.5523 40.724 68.145 40.724C67.7378 40.724 67.7378 40.3168 67.7378 40.0453C67.7378 39.2308 67.7378 35.5656 67.7378 34.6154C67.7378 34.2082 67.7378 29.1855 67.7378 28.914C67.7378 28.3711 67.6021 28.0996 67.6021 27.9638C67.6021 27.8281 67.6021 27.6923 67.7378 27.6923C67.8735 27.6923 68.0093 27.6923 68.8238 28.0996C69.231 28.5068 69.231 28.5068 69.5025 28.5068H70.5885C70.7242 28.5068 70.9957 28.5068 71.1315 28.3711C71.403 27.9638 71.8102 26.3349 71.8102 26.0634C71.8102 25.6561 71.9459 25.6561 71.9459 25.6561C72.0817 25.6561 73.8464 26.3349 73.8464 26.7421C73.8464 26.8778 73.7106 27.0136 73.1677 27.1493C72.7604 27.2851 71.6744 28.3711 71.6744 28.5068C71.6744 28.6426 71.8102 28.6426 72.0817 28.6426H75.8826V28.5068ZM69.3668 32.4435C69.231 32.4435 68.8238 32.4435 68.8238 32.8507V35.0226C68.8238 35.4299 69.231 35.4299 69.3668 35.4299H76.4256C76.8328 35.4299 76.9686 35.1584 76.9686 35.0226V32.8507C76.9686 32.4435 76.5613 32.4435 76.4256 32.4435H69.3668ZM69.3668 28.914C68.9595 28.914 68.8238 29.0498 68.8238 29.3213V31.4932C68.8238 31.629 68.8238 31.9005 69.3668 31.9005H76.2898C76.4256 31.9005 76.8328 31.9005 76.8328 31.4932V29.1855C76.8328 29.0498 76.8328 28.7783 76.2898 28.7783H69.3668V28.914ZM76.4256 39.095C76.8328 39.095 76.9686 38.9593 76.9686 38.6878V36.3801C76.9686 36.1086 76.8328 35.9729 76.4256 35.9729H69.3668C68.8238 35.9729 68.8238 36.1086 68.8238 37.0588C68.8238 37.1946 68.8238 38.6878 68.8238 38.8235C68.8238 39.095 69.0953 39.095 69.3668 39.095H76.4256Z" fill="#464B44"/>
<path d="M90.8147 28.3711V28.5069C90.9504 29.0499 90.9504 29.5928 90.9504 30.4073C90.9504 31.4933 90.6789 33.1223 89.1857 35.4299C87.8282 37.4661 87.0138 37.8734 86.335 37.8734C85.2491 37.8734 84.1631 36.1087 84.1631 34.0725C84.1631 33.1223 84.2988 31.4933 86.0635 29.7286C88.2355 27.5566 90.5432 27.5566 91.4934 27.5566C92.9866 27.5566 93.8011 27.8281 94.2083 28.0996C96.1088 29.0499 97.1948 30.8146 97.1948 32.9865C97.1948 35.1585 95.973 37.8734 92.8509 38.9594C91.3577 39.5023 90.2717 39.6381 90.0002 39.6381C90.0002 39.6381 89.8644 39.6381 89.8644 39.5023C89.8644 39.5023 89.8644 39.3666 90.2717 39.2308C92.0364 38.5521 95.7015 37.0589 95.7015 32.8508C95.7015 32.172 95.7015 28.0996 90.9504 28.0996C90.8147 28.2354 90.8147 28.3711 90.8147 28.3711ZM85.2491 33.6652C85.2491 34.7512 85.6563 36.2444 86.7423 36.2444C87.2853 36.2444 87.6925 35.9729 88.7785 34.2082C89.7287 32.8508 90.4074 30.9503 90.4074 29.3213C90.4074 28.2354 90.2717 28.2354 90.1359 28.2354C88.6427 28.2354 85.2491 30.4073 85.2491 33.6652Z" fill="#464B44"/>
<path d="M102.896 34.3439C102.896 33.9367 102.896 31.7647 102.896 31.629C102.896 31.4932 102.896 31.2217 102.76 31.2217C102.625 31.2217 102.489 31.3575 102.217 31.7647C101.539 32.5792 100.724 33.2579 100.588 33.2579C100.453 33.2579 100.453 33.2579 100.453 33.2579C100.453 33.2579 100.724 32.8507 100.86 32.5792C103.168 29.457 103.982 26.0634 103.982 25.9276C103.982 25.7919 103.982 25.5204 104.254 25.5204C104.254 25.5204 105.747 26.0634 105.747 26.3349C105.747 26.4706 105.611 26.4706 105.611 26.6064C105.475 26.6064 105.204 26.8779 105.204 26.8779C105.068 27.0136 103.846 29.5928 103.846 29.7285C103.846 30 103.982 30 104.389 30.2715C104.525 30.4073 104.661 30.543 104.661 30.6788C104.661 30.8145 104.254 31.2217 104.254 31.3575C104.118 31.629 104.118 34.7512 104.118 35.0226C104.118 35.7014 104.118 39.095 104.118 39.7738C104.118 40.4525 104.118 41.1312 103.303 41.1312C102.896 41.1312 102.896 40.8598 102.896 40.4525C102.896 39.638 102.896 35.2941 102.896 34.3439ZM108.326 34.2082C106.833 34.2082 106.29 34.2082 106.154 34.2082C106.154 34.2082 105.883 34.2082 105.747 34.2082C105.611 34.2082 105.611 34.2082 105.611 34.0724L105.34 33.6652C105.34 33.5294 105.204 33.5294 105.204 33.5294C105.34 33.5294 105.882 33.5294 106.018 33.6652C106.833 33.6652 107.511 33.6652 108.326 33.6652H109.548C109.955 33.6652 110.091 33.3937 110.091 33.2579C110.091 33.1222 110.091 32.172 110.091 32.0362C110.091 31.9005 110.091 31.3575 110.091 31.2217C110.091 31.086 110.091 31.086 110.226 31.086C110.226 31.086 111.72 31.3575 111.72 31.7647C111.72 31.9005 111.448 32.3077 111.312 32.3077C111.312 32.5792 111.177 32.715 111.177 33.2579C111.177 33.6652 111.177 33.8009 111.72 33.8009H112.941C113.756 33.8009 113.756 33.8009 114.027 33.5294C114.435 32.9865 114.57 32.8507 114.706 32.8507C114.978 32.8507 116.063 33.8009 116.063 33.9367C116.063 34.0724 116.063 34.0724 115.928 34.0724C115.792 34.0724 115.656 34.0724 115.249 34.0724H111.855C111.72 34.0724 111.448 34.0724 111.448 34.2082C111.448 34.7512 113.484 37.1946 116.335 38.2806C116.606 38.4163 116.606 38.4163 116.606 38.4163C116.606 38.5521 116.471 38.5521 116.199 38.6878C115.928 38.8236 115.656 38.9593 115.385 39.2308C115.385 39.2308 115.249 39.3665 115.113 39.3665C114.842 39.3665 113.077 38.0091 111.855 36.1086C111.72 35.9729 111.177 34.8869 111.177 34.8869V35.0226C111.177 35.8371 111.312 39.2308 111.312 39.9095C111.312 40.9955 110.498 40.9955 110.498 40.9955C110.091 40.9955 110.091 40.5883 110.091 40.4525C110.091 39.7738 110.091 36.9231 110.091 36.3801C110.091 35.7014 110.091 35.7014 109.955 35.7014C109.819 35.7014 109.548 36.1086 109.412 36.2444C107.24 39.095 105.34 39.638 105.204 39.638C105.204 39.638 105.068 39.638 105.068 39.5023C105.068 39.5023 105.34 39.2308 105.475 39.095C108.054 36.6516 109.412 34.4797 109.412 34.2082C109.412 34.0724 109.276 34.0724 109.14 34.0724H108.326V34.2082ZM112.398 26.3349C112.67 26.3349 112.806 26.3349 113.077 26.0634C113.484 25.6561 113.62 25.6561 113.756 25.6561C114.027 25.6561 114.842 26.3349 114.842 26.6064C114.842 26.7421 114.706 26.8779 114.435 27.1493C114.299 27.2851 114.299 28.5068 114.299 28.6426C114.299 28.9141 114.299 30 114.299 30.2715C114.299 30.8145 114.027 31.086 113.484 31.086C113.349 31.086 113.077 31.086 112.941 30.6788C112.941 30.2715 112.941 30.1358 112.534 30.1358H108.597C108.19 30.1358 108.19 30.2715 108.19 30.543C108.19 30.8145 108.19 31.4932 107.376 31.4932C106.968 31.4932 106.968 31.2217 106.968 30.9502C106.968 30.543 106.968 28.9141 106.968 28.5068C106.968 28.0996 106.833 26.4706 106.833 26.0634C106.833 25.9276 106.833 25.9276 106.968 25.9276C107.104 25.9276 107.783 26.1991 108.054 26.3349C108.19 26.4706 108.326 26.4706 108.597 26.4706H112.398V26.3349ZM112.67 29.8643C113.077 29.8643 113.213 29.8643 113.213 28.2353C113.213 27.0136 113.213 26.8779 112.67 26.8779H108.597C108.054 26.8779 108.054 27.0136 108.054 28.3711C108.054 29.7285 108.054 29.8643 108.597 29.8643H112.67Z" fill="#464B44"/>
<path d="M124.072 36.3801C123.665 36.3801 122.986 36.3801 122.443 36.3801C122.443 36.3801 122.172 36.3801 122.036 36.3801C122.036 36.3801 121.9 36.3801 121.9 36.2444L121.493 35.8371V35.7014C121.493 35.7014 121.9 35.7014 122.036 35.7014C122.579 35.7014 123.529 35.8371 124.072 35.8371H125.43C125.566 35.8371 125.837 35.8371 125.837 35.2941C125.837 34.8869 125.837 32.9865 125.837 32.8507C125.701 32.4435 125.43 32.4435 125.294 32.4435H124.751C124.344 32.4435 123.801 32.4435 123.258 32.4435C123.258 32.4435 122.986 32.4435 122.851 32.4435L122.715 32.3077L122.308 31.9005V31.7647H122.715C123.258 31.7647 124.072 31.7647 124.615 31.7647H127.738C128.281 31.7647 128.416 31.7647 128.552 31.4932C128.959 30.9503 128.959 30.8145 129.095 30.8145C129.367 30.8145 130.453 31.7647 130.453 31.9005C130.453 32.172 130.181 32.172 129.774 32.172H127.466C127.195 32.172 126.923 32.3077 126.923 32.715C126.923 33.1222 126.923 34.6154 126.923 35.0227C126.923 35.4299 127.195 35.4299 127.466 35.4299H128.281C128.959 35.4299 128.959 35.4299 129.231 35.1584C129.638 34.6154 129.638 34.4797 129.91 34.4797C130.181 34.4797 131.267 35.4299 131.267 35.5656C131.267 35.8371 130.996 35.8371 130.453 35.8371H127.602C127.466 35.8371 127.059 35.8371 127.059 36.3801C127.059 36.9231 127.059 38.4163 127.059 38.8236C127.059 39.0951 127.195 39.2308 127.602 39.2308H130.181C130.996 39.2308 130.996 39.2308 131.267 38.9593C131.81 38.4163 131.81 38.2806 131.946 38.2806C132.081 38.2806 133.575 39.2308 133.575 39.3665C133.575 39.638 133.167 39.638 132.624 39.638H122.172C120.679 39.638 120.136 39.638 120 39.638C119.864 39.638 119.729 39.638 119.593 39.638C119.457 39.638 119.457 39.638 119.457 39.5023L119.186 39.0951C119.186 38.9593 119.05 38.9593 119.05 38.9593C119.186 38.9593 119.729 38.9593 119.864 38.9593C120.679 38.9593 121.358 39.0951 122.172 39.0951H125.294C125.701 39.0951 125.837 38.8236 125.837 38.5521C125.837 38.1448 125.837 36.2444 125.837 36.1086C125.701 35.7014 125.43 35.7014 125.43 35.7014H124.072V36.3801ZM126.923 25.9276C127.33 26.1991 127.33 26.1991 127.33 26.3349C127.33 26.4706 127.33 26.4706 127.059 26.6064V26.7421C127.059 27.0136 129.095 30 133.032 31.629C133.303 31.7647 134.389 32.0362 134.389 32.172C134.389 32.3077 133.846 32.4435 133.71 32.4435C133.439 32.5792 133.303 32.5792 132.896 32.9865C132.896 32.9865 132.624 33.2579 132.489 33.2579C132.217 33.2579 129.91 31.4932 128.688 30C127.602 28.6426 127.466 28.3711 126.787 27.4208C126.787 27.2851 126.652 27.1494 126.516 27.1494C126.38 27.1494 126.244 27.4208 125.837 27.8281C124.344 29.7285 122.579 31.4932 120.543 32.8507C120.272 32.9865 119.321 33.5294 119.186 33.5294C119.186 33.5294 119.05 33.5294 119.05 33.3937C119.05 33.2579 119.321 33.1222 119.457 32.9865C122.851 30.6788 125.023 26.7421 125.158 26.6064C125.294 26.4706 125.701 25.2489 125.701 25.2489C125.837 25.3846 126.38 25.6561 126.923 25.9276Z" fill="#464B44"/>
<path d="M142.127 32.8507C142.127 33.258 141.855 33.6652 141.448 33.6652C141.177 33.6652 141.041 33.5295 140.905 33.1222C140.498 32.4435 139.955 32.0363 139.412 31.7648L139.276 31.629C139.276 31.3575 140.226 31.3575 140.498 31.3575C141.177 31.3575 142.127 32.0363 142.127 32.8507ZM140.091 38.1449C140.091 38.0091 139.683 37.7376 139.683 37.6019C139.683 37.4661 139.548 37.3304 139.548 37.3304C139.548 37.1946 139.548 37.1946 139.683 37.1946C139.819 37.1946 140.498 37.4661 140.634 37.4661C141.312 37.4661 145.928 34.8869 150 30.2716C150.136 30.1358 150.679 29.4571 150.679 29.4571H150.815C150.815 29.5928 149.321 33.258 142.263 38.2806C141.991 38.4164 141.177 39.2308 141.041 39.2308C140.634 39.2308 140.498 38.9593 140.091 38.1449ZM144.163 29.4571C144.163 29.8643 143.892 30.2716 143.62 30.2716C143.484 30.2716 143.349 30.2716 142.67 29.4571C142.263 28.9141 141.584 28.6426 141.177 28.5068L140.905 28.3711C140.905 28.3711 141.448 28.0996 142.263 28.0996C144.163 28.0996 144.163 29.4571 144.163 29.4571Z" fill="#464B44"/>
<path d="M163.439 29.8643C163.303 29.8643 159.774 30.6788 159.638 30.6788C159.502 30.6788 158.959 30.9503 158.824 30.9503C158.552 30.9503 157.738 30.4073 157.602 30.2716C157.466 30.1358 157.195 29.4571 157.195 29.3213C157.195 29.1856 157.195 29.1856 157.33 29.1856L157.738 29.3213C158.281 29.4571 158.416 29.4571 158.688 29.4571C159.231 29.4571 162.489 29.1856 163.303 28.7783C163.439 28.6426 164.118 28.2354 164.253 28.2354C164.661 28.2354 165.747 29.0498 165.747 29.5928C165.747 29.7286 165.068 30.2716 165.068 30.2716C164.661 30.6788 163.439 32.715 163.167 33.1222C163.167 33.258 163.032 33.3937 163.032 33.5295C163.032 33.6652 163.032 33.6652 163.846 34.0725C164.661 34.4797 167.647 36.2444 167.647 37.7376C167.647 38.1449 167.376 38.5521 166.968 38.5521C166.561 38.5521 166.561 38.4163 165.882 37.3304C164.661 35.2942 163.167 33.9367 162.896 33.9367C162.76 33.9367 162.624 33.9367 162.353 34.4797C161.81 35.1584 160.045 37.0589 157.873 38.1449C157.466 38.4163 156.923 38.5521 156.787 38.5521C156.787 38.5521 156.652 38.5521 156.652 38.4163C156.652 38.2806 157.33 37.8734 157.466 37.7376C161.946 34.4797 163.982 30.1358 163.846 29.8643C163.71 29.8643 163.575 29.8643 163.439 29.8643Z" fill="#464B44"/>
<path d="M181.765 33.3936C181.765 33.5294 181.358 33.8009 181.358 33.9366C181.358 34.0724 180.679 35.5656 180.543 35.8371C178.914 39.095 176.199 40.1809 176.064 40.1809C176.064 40.1809 175.928 40.1809 175.928 40.0452C175.928 39.9095 176.742 39.3665 176.878 39.2307C179.729 36.5158 180.272 32.9864 180.272 32.8506C180.272 32.5791 180.272 32.3076 179.864 32.3076C179.457 32.3076 177.828 32.7149 177.149 32.8506C177.014 32.8506 176.064 33.1221 175.928 33.1221C175.113 33.1221 174.57 32.1719 174.57 31.7647C174.57 31.6289 174.57 31.6289 174.706 31.6289C174.706 31.6289 174.978 31.6289 174.978 31.7647C175.249 31.9004 175.792 31.9004 176.064 31.9004C177.149 31.9004 181.629 31.3574 182.715 31.2217C182.987 31.2217 183.801 30.9502 183.937 30.9502C184.208 30.9502 186.109 31.3574 186.109 32.0362C186.109 32.3076 185.837 32.4434 185.566 32.4434C185.43 32.4434 184.48 32.3076 184.344 32.3076C183.937 32.3076 183.53 32.1719 183.122 32.1719C182.579 32.1719 181.493 32.1719 181.358 32.1719C181.222 32.1719 181.222 32.3076 181.222 32.4434C181.222 32.5791 181.765 33.2579 181.765 33.3936ZM177.964 28.371C178.507 28.371 178.643 28.371 180.407 27.9638C180.815 27.828 181.358 27.6923 181.765 27.6923C182.172 27.6923 182.715 27.828 182.715 28.2352C182.715 28.6425 182.444 28.7782 181.358 28.914C180.543 29.0497 179.321 29.1855 179.05 29.3212C178.914 29.3212 178.235 29.457 178.235 29.457C177.421 29.457 176.878 28.2352 177.014 28.2352C177.149 28.2352 177.828 28.371 177.964 28.371Z" fill="#464B44"/>
<path d="M195.204 35.7013C195.747 35.7013 196.833 35.5656 199.14 35.1583C201.584 34.7511 201.584 34.6153 201.584 34.4796C201.584 34.2081 201.448 33.9366 201.041 33.5294C200.905 33.2579 200.634 32.9864 200.634 32.8506C200.634 32.8506 200.634 32.7149 200.769 32.7149C201.312 32.7149 203.891 34.7511 203.891 36.5158C203.891 37.6018 203.077 37.7375 202.941 37.7375C202.398 37.7375 202.263 37.3303 202.127 36.2443C201.991 35.4298 201.855 35.2941 201.584 35.2941C201.448 35.2941 197.647 36.5158 196.968 36.6515C196.561 36.7873 194.253 37.3303 194.118 37.3303C193.982 37.3303 193.575 37.8733 193.439 37.8733C193.303 37.8733 193.303 37.8733 192.489 37.0588C192.217 36.7873 192.082 35.8371 192.082 35.7013C192.082 35.7013 192.082 35.5656 192.217 35.5656C192.353 35.5656 192.625 35.7013 192.76 35.7013C192.896 35.7013 193.168 35.8371 193.439 35.8371C194.118 35.8371 194.525 35.5656 195.475 33.9366C196.29 32.5791 197.783 29.457 197.783 28.0995C197.783 27.9638 197.783 27.5565 197.783 27.5565C197.783 27.4208 197.783 27.4208 197.919 27.4208C198.054 27.4208 199.548 28.5067 199.548 29.1855C199.548 29.457 199.412 29.5927 199.005 30C198.733 30.2715 196.833 33.2579 196.29 33.9366C196.154 34.2081 195.068 35.4298 195.068 35.5656C194.932 35.5656 195.068 35.7013 195.204 35.7013Z" fill="#464B44"/>
</g>
<defs>
<clipPath id="clip0">
<rect width="253.439" height="180" fill="white"/>
</clipPath>
</defs>
</svg>
