<svg width="264" height="180" viewBox="0 0 264 180" fill="none" xmlns="http://www.w3.org/2000/svg">
<g clip-path="url(#clip0)">
<path d="M173.642 70.0785L143.548 76.2951L149.058 82.5118C148.21 83.2182 147.221 84.0659 146.232 85.0549C144.961 86.3265 143.406 87.5981 141.711 88.8697C140.016 90.2826 138.179 91.8367 136.201 93.3909C134.223 94.9451 131.962 96.4992 129.702 98.0534C127.441 99.6075 125.039 101.162 122.496 102.716C120.094 104.27 117.41 105.683 114.866 107.237C112.182 108.65 109.639 110.063 106.954 111.334C104.27 112.465 101.727 113.878 99.0422 114.725C97.7706 115.29 96.499 115.714 95.2274 116.279C93.9559 116.703 92.6843 117.127 91.554 117.551C89.1521 118.399 86.7502 118.964 84.6309 119.67C82.5116 120.235 80.3923 120.801 78.6968 121.083C76.8601 121.507 75.3059 121.79 74.0343 121.931C71.3499 122.355 69.937 122.355 69.937 122.355C69.937 122.355 71.4912 122.496 74.1756 122.496C75.4472 122.496 77.1427 122.496 78.9794 122.355C80.8161 122.355 82.9354 122.072 85.196 121.79C87.4566 121.507 89.9998 121.224 92.543 120.659C93.8146 120.377 95.2274 120.235 96.499 119.953C97.9119 119.67 99.1835 119.388 100.596 118.964C103.422 118.399 106.248 117.41 109.215 116.703C112.182 115.856 115.008 114.867 117.975 113.736C120.8 112.606 123.767 111.476 126.593 110.345C129.419 109.074 132.103 107.802 134.788 106.672C137.331 105.259 139.874 103.987 142.276 102.716C144.678 101.444 146.797 100.031 148.775 98.9011C150.753 97.7708 152.731 96.6405 154.286 95.5102C155.84 94.5212 157.253 93.5322 158.383 92.8257C158.383 92.8257 158.383 92.8257 158.524 92.8257L164.176 99.0424L173.642 70.0785Z" fill="#556170"/>
<path d="M44.2227 165.306L58.2101 179.294L95.5099 169.262V154.71L44.2227 150.754V165.306Z" fill="white" stroke="#556170" stroke-width="0.996" stroke-miterlimit="10" stroke-linejoin="round"/>
<path d="M58.2101 164.741L44.2227 150.754L81.6638 140.722L95.5099 154.71L58.2101 164.741Z" fill="white" stroke="#556170" stroke-width="0.996" stroke-miterlimit="10" stroke-linejoin="round"/>
<path d="M49.1675 152.025L80.8158 143.548L90.5647 153.438L58.9163 161.915L49.1675 152.025Z" fill="white" stroke="#556170" stroke-width="0.332" stroke-miterlimit="10" stroke-linejoin="round"/>
<path d="M74.8821 174.49H76.0124L80.5336 173.218V159.937C80.5336 159.231 80.2511 158.524 79.6859 157.959L66.9701 144.678L60.7534 146.374L74.8821 161.068V174.49Z" fill="#556170"/>
<path d="M58.6343 164.6V179.294" stroke="#556170" stroke-width="0.996" stroke-miterlimit="10" stroke-linejoin="round"/>
<path d="M95.5098 158.383L58.21 168.414" stroke="#556170" stroke-width="0.996" stroke-miterlimit="10" stroke-linejoin="round"/>
<path d="M95.5098 161.915L58.21 171.947" stroke="#556170" stroke-width="0.996" stroke-miterlimit="10" stroke-linejoin="round"/>
<path d="M95.5098 165.448L58.21 175.479" stroke="#556170" stroke-width="0.996" stroke-miterlimit="10" stroke-linejoin="round"/>
<path d="M100.879 165.306L114.866 179.294L152.307 169.262V154.71L100.879 150.754V165.306Z" fill="white" stroke="#556170" stroke-width="0.996" stroke-miterlimit="10" stroke-linejoin="round"/>
<path d="M114.866 164.741L100.879 150.754L138.32 140.722L152.307 154.71L114.866 164.741Z" fill="white" stroke="#556170" stroke-width="0.996" stroke-miterlimit="10" stroke-linejoin="round"/>
<path d="M105.824 152.025L137.472 143.548L147.362 153.438L115.573 161.915L105.824 152.025Z" fill="white" stroke="#556170" stroke-width="0.332" stroke-miterlimit="10" stroke-linejoin="round"/>
<path d="M131.538 174.49H132.669L137.19 173.218V159.937C137.19 159.231 136.907 158.524 136.342 157.959L123.626 144.678L117.41 146.374L131.538 161.068V174.49Z" fill="#556170"/>
<path d="M115.29 164.6V179.294" stroke="#556170" stroke-width="0.996" stroke-miterlimit="10" stroke-linejoin="round"/>
<path d="M152.307 158.383L114.866 168.414" stroke="#556170" stroke-width="0.996" stroke-miterlimit="10" stroke-linejoin="round"/>
<path d="M152.307 161.915L114.866 171.947" stroke="#556170" stroke-width="0.996" stroke-miterlimit="10" stroke-linejoin="round"/>
<path d="M152.307 165.448L114.866 175.479" stroke="#556170" stroke-width="0.996" stroke-miterlimit="10" stroke-linejoin="round"/>
<path d="M100.879 150.754L114.866 164.741L152.307 154.71V140.157L100.879 136.201V150.754Z" fill="white" stroke="#556170" stroke-width="0.996" stroke-miterlimit="10" stroke-linejoin="round"/>
<path d="M114.866 150.188L100.879 136.201L138.32 126.17L152.307 140.157L114.866 150.188Z" fill="white" stroke="#556170" stroke-width="0.996" stroke-miterlimit="10" stroke-linejoin="round"/>
<path d="M105.824 137.614L137.472 129.137L147.362 138.885L115.573 147.363L105.824 137.614Z" fill="white" stroke="#556170" stroke-width="0.332" stroke-miterlimit="10" stroke-linejoin="round"/>
<path d="M131.538 159.937H132.669L137.19 158.666V145.385C137.19 144.678 136.907 143.972 136.342 143.407L123.626 130.126L117.41 131.821L131.538 146.515V159.937Z" fill="#556170"/>
<path d="M115.29 150.047V164.741" stroke="#556170" stroke-width="0.996" stroke-miterlimit="10" stroke-linejoin="round"/>
<path d="M152.307 143.83L114.866 153.862" stroke="#556170" stroke-width="0.996" stroke-miterlimit="10" stroke-linejoin="round"/>
<path d="M152.307 147.363L114.866 157.394" stroke="#556170" stroke-width="0.996" stroke-miterlimit="10" stroke-linejoin="round"/>
<path d="M152.307 150.895L114.866 160.926" stroke="#556170" stroke-width="0.996" stroke-miterlimit="10" stroke-linejoin="round"/>
<path d="M157.676 165.306L171.522 179.294L208.964 169.262V154.71L157.676 150.754V165.306Z" fill="white" stroke="#556170" stroke-width="0.996" stroke-miterlimit="10" stroke-linejoin="round"/>
<path d="M171.522 164.741L157.676 150.754L194.976 140.722L208.964 154.71L171.522 164.741Z" fill="white" stroke="#556170" stroke-width="0.996" stroke-miterlimit="10" stroke-linejoin="round"/>
<path d="M162.621 152.025L194.269 143.548L204.018 153.438L172.37 161.915L162.621 152.025Z" fill="white" stroke="#556170" stroke-width="0.332" stroke-miterlimit="10" stroke-linejoin="round"/>
<path d="M188.194 174.49H189.324L193.846 173.218V159.937C193.846 159.231 193.563 158.524 192.998 157.959L180.282 144.678L174.065 146.374L188.194 161.068V174.49Z" fill="#556170"/>
<path d="M171.946 164.6V179.294" stroke="#556170" stroke-width="0.996" stroke-miterlimit="10" stroke-linejoin="round"/>
<path d="M208.964 158.383L171.522 168.414" stroke="#556170" stroke-width="0.996" stroke-miterlimit="10" stroke-linejoin="round"/>
<path d="M208.964 161.915L171.522 171.947" stroke="#556170" stroke-width="0.996" stroke-miterlimit="10" stroke-linejoin="round"/>
<path d="M208.964 165.448L171.522 175.479" stroke="#556170" stroke-width="0.996" stroke-miterlimit="10" stroke-linejoin="round"/>
<path d="M157.676 150.754L171.522 164.741L208.964 154.71V140.157L157.676 136.201V150.754Z" fill="white" stroke="#556170" stroke-width="0.996" stroke-miterlimit="10" stroke-linejoin="round"/>
<path d="M171.522 150.188L157.676 136.201L194.976 126.17L208.964 140.157L171.522 150.188Z" fill="white" stroke="#556170" stroke-width="0.996" stroke-miterlimit="10" stroke-linejoin="round"/>
<path d="M162.621 137.614L194.269 129.137L204.018 138.885L172.37 147.363L162.621 137.614Z" fill="white" stroke="#556170" stroke-width="0.332" stroke-miterlimit="10" stroke-linejoin="round"/>
<path d="M188.194 159.937H189.324L193.846 158.666V145.385C193.846 144.678 193.563 143.972 192.998 143.407L180.282 130.126L174.065 131.821L188.194 146.515V159.937Z" fill="#556170"/>
<path d="M171.946 150.047V164.741" stroke="#556170" stroke-width="0.996" stroke-miterlimit="10" stroke-linejoin="round"/>
<path d="M208.964 143.83L171.522 153.862" stroke="#556170" stroke-width="0.996" stroke-miterlimit="10" stroke-linejoin="round"/>
<path d="M208.964 147.363L171.522 157.394" stroke="#556170" stroke-width="0.996" stroke-miterlimit="10" stroke-linejoin="round"/>
<path d="M208.964 150.895L171.522 160.926" stroke="#556170" stroke-width="0.996" stroke-miterlimit="10" stroke-linejoin="round"/>
<path d="M157.676 136.201L171.522 150.188L208.964 140.157V125.604L157.676 121.648V136.201Z" fill="white" stroke="#556170" stroke-width="0.996" stroke-miterlimit="10" stroke-linejoin="round"/>
<path d="M171.522 135.636L157.676 121.648L194.976 111.617L208.964 125.604L171.522 135.636Z" fill="white" stroke="#556170" stroke-width="0.996" stroke-miterlimit="10" stroke-linejoin="round"/>
<path d="M162.621 123.061L194.269 114.584L204.018 124.333L172.37 132.81L162.621 123.061Z" fill="white" stroke="#556170" stroke-width="0.332" stroke-miterlimit="10" stroke-linejoin="round"/>
<path d="M188.194 145.385H189.324L193.846 144.113V130.832C193.846 130.126 193.563 129.419 192.998 128.854L180.282 115.573L174.065 117.268L188.194 131.962V145.385Z" fill="#556170"/>
<path d="M171.946 135.495V150.188" stroke="#556170" stroke-width="0.996" stroke-miterlimit="10" stroke-linejoin="round"/>
<path d="M208.964 129.278L171.522 139.309" stroke="#556170" stroke-width="0.996" stroke-miterlimit="10" stroke-linejoin="round"/>
<path d="M208.964 132.81L171.522 142.841" stroke="#556170" stroke-width="0.996" stroke-miterlimit="10" stroke-linejoin="round"/>
<path d="M208.964 136.342L171.522 146.374" stroke="#556170" stroke-width="0.996" stroke-miterlimit="10" stroke-linejoin="round"/>
<path d="M263.783 23.7363H0V46.3423H263.783V23.7363Z" fill="white"/>
<path d="M8.47728 8.05337C8.05342 8.05337 7.91213 8.19466 7.91213 8.47724C7.91213 8.9011 7.77085 9.46625 7.77085 9.74882C7.77085 10.0314 7.77085 10.0314 8.33599 10.4553C9.04243 10.8791 10.8792 11.8681 10.8792 12.9984C10.8792 13.5636 10.314 13.9874 10.0314 13.9874C9.74887 13.9874 9.74887 13.8462 9.32501 12.7159C8.61857 11.1617 7.91213 10.5965 7.77085 10.5965C7.62956 10.5965 7.62956 10.5965 7.48827 11.1617C7.34698 11.4443 6.49926 13.8462 4.80381 15.259C4.52124 15.4003 4.09738 15.8242 3.95609 15.8242C3.8148 15.8242 3.8148 15.8242 3.8148 15.8242C3.8148 15.8242 4.09738 15.5416 4.23866 15.5416C5.22767 14.27 6.78183 11.5856 6.78183 8.61852C6.78183 8.05337 6.49926 8.05337 6.21669 8.05337C5.79282 8.05337 4.9451 8.05337 4.52124 8.05337H4.23866C4.23866 8.05337 4.09738 8.05338 4.09738 7.91209L3.67351 7.62951C3.53223 7.48823 3.53223 7.48823 3.53223 7.48823C3.95609 7.48823 5.79282 7.62951 6.0754 7.62951C6.21669 7.62951 6.64055 7.62951 6.64055 7.34694C6.64055 7.20565 6.64055 5.5102 6.64055 5.36892C6.64055 4.37991 6.64055 4.23862 6.0754 4.23862C5.93411 4.09733 5.93411 4.23862 5.36896 4.94506C5.08639 5.22763 3.95609 6.92308 3.8148 6.92308C4.09738 6.35793 4.66253 5.22763 4.80381 4.80377C5.08639 4.09733 5.93411 2.11931 6.0754 0.706436C5.93411 0 5.93411 0 6.0754 0C6.35797 0 7.62956 0.565149 7.91213 0.706436C8.05342 0.706436 8.05342 0.847724 8.05342 0.989011C8.05342 1.1303 8.05342 1.27159 7.62956 1.41287C7.34698 1.41287 6.35797 3.39089 6.35797 3.53218C6.35797 3.67347 6.49926 3.67347 6.64055 3.67347H8.19471C8.75986 3.67347 8.90114 3.67347 8.90114 3.53218C9.04243 3.39089 9.46629 2.68446 9.60758 2.68446C9.74887 2.68446 10.8792 3.53218 10.8792 3.81476C10.8792 4.09733 10.5966 4.09733 10.1727 4.09733H8.61857C8.05342 4.09733 8.05342 4.37991 8.05342 4.94506C8.05342 5.36892 7.91213 7.06436 7.91213 7.20565C7.91213 7.62951 8.05342 7.62951 8.33599 7.62951C8.75986 7.62951 8.90114 7.62951 9.04243 7.48823C9.32501 7.34694 9.74887 6.6405 9.89015 6.6405C10.0314 6.6405 11.1617 7.48823 11.1617 7.7708C11.1617 8.05338 11.0205 8.05337 10.0314 8.05337H8.47728ZM16.3894 14.6939C17.0958 14.6939 17.0958 14.6939 17.2371 14.5526C17.3784 14.4113 17.9435 13.7049 18.0848 13.7049C18.2261 13.7049 19.639 14.8352 19.639 14.9765C19.639 15.1177 19.4977 15.1177 18.9325 15.1177H12.7159C12.292 15.1177 11.1617 15.1177 10.4553 15.1177C10.4553 15.1177 10.1727 15.1177 10.0314 15.1177C9.89015 15.1177 9.89015 15.1177 9.89015 14.9765L9.60758 14.5526C9.60758 14.4113 9.46629 14.4113 9.46629 14.4113C9.60758 14.4113 10.1727 14.4113 10.314 14.4113C11.1617 14.4113 11.8682 14.5526 12.7159 14.5526H16.3894V14.6939ZM16.1068 1.41287C16.8132 1.41287 16.9545 1.41287 17.0958 1.27159C17.2371 1.1303 17.8022 0.423862 17.9435 0.423862C18.0848 0.423862 19.4977 1.41287 19.4977 1.69545C19.4977 1.97802 19.2151 1.97802 18.65 1.97802H13.4223C12.9985 1.97802 11.8682 1.97802 11.1617 1.97802C11.1617 1.97802 10.8792 1.97802 10.7379 1.97802C10.5966 1.97802 10.5966 1.97802 10.5966 1.83673L10.314 1.55416C10.1727 1.41287 10.1727 1.41287 10.1727 1.41287C10.314 1.41287 10.8792 1.41287 11.0205 1.41287C11.8682 1.41287 12.7159 1.41287 13.4223 1.41287H16.1068ZM16.6719 4.23862C16.9545 4.23862 16.9545 4.23862 17.0958 3.95604C17.5197 3.53218 17.5197 3.53218 17.661 3.53218C17.9435 3.53218 18.9325 4.52119 18.9325 4.66248C18.9325 4.80377 18.5087 4.94505 18.5087 5.08634C18.3674 5.22763 18.3674 5.36892 18.3674 5.5102C18.3674 5.93407 18.5087 8.05338 18.5087 8.47724C18.5087 9.04239 18.2261 9.32496 17.661 9.32496C17.3784 9.32496 17.2371 9.18367 17.0958 8.75981C17.0958 8.61852 16.9545 8.61852 16.6719 8.61852H13.4223C12.9985 8.61852 12.8572 8.9011 12.8572 9.32496C12.8572 9.60753 12.292 9.89011 11.8682 9.89011C11.4443 9.89011 11.4443 9.46625 11.4443 9.32496C11.4443 4.94506 11.4443 4.52119 11.4443 4.23862C11.4443 4.09733 11.1617 3.67347 11.1617 3.67347C11.1617 3.67347 11.1617 3.53218 11.303 3.53218C11.4443 3.53218 11.7269 3.67347 12.4333 4.09733C12.7159 4.23862 12.9985 4.23862 13.281 4.23862H16.6719ZM13.281 10.7378C13.8462 11.5856 14.2701 12.1507 14.2701 12.9984C14.2701 13.7049 13.8462 14.1287 13.5636 14.1287C12.9985 14.1287 12.9985 13.7049 12.9985 12.7159C12.9985 11.303 12.7159 10.7378 12.7159 10.314L12.5746 10.0314C12.5746 9.89011 13.1398 10.7378 13.281 10.7378ZM13.4223 4.66248C12.8572 4.66248 12.8572 4.66248 12.8572 6.35793C12.8572 6.6405 12.8572 7.7708 12.8572 7.91209C12.9985 8.19466 13.281 8.19466 13.4223 8.19466H16.6719C16.8132 8.19466 17.0958 8.19466 17.2371 7.91209C17.2371 7.7708 17.2371 6.78179 17.2371 6.6405C17.2371 6.35793 17.2371 5.08634 17.2371 4.94506C17.0958 4.66248 16.8132 4.66248 16.6719 4.66248H13.4223ZM16.2481 9.89011C16.3894 9.89011 16.9545 10.314 17.0958 10.314C17.9435 10.7378 18.0848 10.7378 18.0848 10.8791C18.0848 11.0204 17.9435 11.1617 17.661 11.303C17.0958 11.5856 16.1068 14.5526 15.8242 14.5526C15.8242 14.5526 15.8242 14.5526 15.8242 14.4113V14.1287C15.8242 13.5636 16.1068 11.7268 16.1068 11.0204C16.1068 10.8791 15.9655 10.0314 15.9655 10.0314C16.1068 10.0314 16.1068 9.89011 16.2481 9.89011Z" fill="#464B44"/>
<path d="M25.0077 10.5966C24.4426 10.5966 23.5949 10.5966 23.0297 10.5966C23.0297 10.5966 22.7471 10.5966 22.6059 10.5966C22.6059 10.5966 22.4646 10.5966 22.4646 10.4553L22.0407 10.0314C22.0407 9.89013 22.0407 9.89013 22.0407 9.89013C22.3233 9.89013 23.4536 10.0314 23.7361 10.0314C24.0187 10.0314 24.16 9.89013 24.16 9.60755C24.16 9.46627 24.16 4.09735 24.16 3.5322C24.16 3.24963 24.0187 2.96705 23.5949 2.96705C23.4536 2.96705 22.8884 3.10834 22.7471 3.10834C22.7471 3.10834 22.6059 3.10834 22.6059 2.96705V2.82576C22.4646 2.68448 22.4646 2.68448 22.4646 2.68448C22.6058 2.68448 23.5949 2.82576 23.8774 2.82576C24.4426 2.82576 24.4426 2.54319 24.4426 2.11933C24.4426 1.83675 24.4426 1.41289 24.4426 1.13032C24.4426 0.989029 24.4426 0.42388 24.4426 0.42388C24.4426 0.282593 24.5839 0.282593 24.5839 0.282593C24.5839 0.282593 25.9967 0.565167 25.9967 0.847742C25.9967 0.989029 25.8555 0.989029 25.5729 1.13032C25.4316 1.2716 25.4316 1.97804 25.4316 2.26061C25.4316 2.82576 25.7142 2.82576 25.9967 2.82576H27.2683C27.6922 2.82576 27.9748 2.82576 27.9748 2.26061C27.9748 1.97804 27.9748 0.706455 27.9748 0.42388C27.9748 0.282593 27.9748 0.282593 28.1161 0.282593C28.1161 0.282593 29.5289 0.565167 29.5289 0.847742C29.5289 0.989029 29.2464 1.13032 29.2464 1.2716C29.1051 1.41289 29.1051 2.26061 29.1051 2.54319C29.1051 2.68448 29.1051 2.82576 29.2464 2.82576C29.3876 2.82576 29.5289 2.68448 29.6702 2.54319C29.9528 2.11933 29.9528 2.11933 30.0941 2.11933C30.3766 2.11933 31.2244 2.96705 31.2244 3.10834C31.2244 3.24963 30.9418 3.24963 30.3767 3.24963H29.6702C28.9638 3.24963 28.9638 3.39091 28.9638 4.09735V9.89013C28.9638 10.0314 28.9638 10.1727 29.1051 10.1727C29.5289 10.1727 29.6702 10.0314 29.6702 9.89013C29.9528 9.32498 29.9528 9.32498 30.2354 9.32498C30.5179 9.32498 31.2244 10.314 31.2244 10.4553C31.2244 10.7379 30.9418 10.7379 30.5179 10.7379H25.0077V10.5966ZM26.4206 12.4333C26.4206 12.5746 26.2793 12.7159 25.8555 12.8572C25.4316 12.9984 22.8884 15.9655 22.0407 15.9655H21.8994C21.8994 15.9655 23.0297 14.6939 23.171 14.4113C23.5949 13.8462 24.4426 12.7159 24.7252 11.8681C24.7252 11.5856 24.8664 11.4443 25.0077 11.4443C25.149 11.4443 25.5729 11.7269 25.7142 11.8681C26.4206 12.1507 26.4206 12.292 26.4206 12.4333ZM27.4096 5.22765C28.1161 5.22765 28.1161 5.08636 28.1161 3.95606C28.1161 3.24963 27.9748 3.24963 27.4096 3.24963H26.2793C25.5729 3.24963 25.5729 3.39091 25.5729 4.52121C25.5729 5.22765 25.7142 5.22765 26.2793 5.22765H27.4096ZM27.4096 7.77082C27.8335 7.77082 28.1161 7.77082 28.1161 7.20567V6.07537C28.1161 5.65151 27.8335 5.65151 27.4096 5.65151H26.2793C25.8555 5.65151 25.5729 5.65151 25.5729 6.21666C25.5729 6.35795 25.5729 7.20567 25.5729 7.34696C25.5729 7.77082 25.9967 7.77082 26.2793 7.77082H27.4096ZM26.2793 8.19468C25.8555 8.19468 25.5729 8.19468 25.5729 8.75983V9.60755C25.5729 10.1727 25.7142 10.1727 26.2793 10.1727H27.5509C27.9748 10.1727 28.2573 10.1727 28.2573 9.60755V8.75983C28.2573 8.19468 28.1161 8.19468 27.5509 8.19468H26.2793ZM30.3767 13.9875C30.3767 14.27 30.2354 14.6939 29.8115 14.6939C29.3876 14.6939 29.2464 14.27 28.9638 13.5636C28.6812 12.9984 28.5399 12.5746 27.9748 12.0094C27.8335 12.0094 27.6922 11.7269 27.6922 11.5856V11.4443C27.8335 11.4443 28.6812 11.8681 28.9638 12.0094C29.3876 12.4333 30.3767 12.9984 30.3767 13.9875ZM35.6043 0.989029C35.7456 0.989029 36.0281 0.989029 36.0281 0.989029C36.1694 0.989029 36.452 0.565167 36.5933 0.565167C36.7346 0.565167 37.8649 0.989029 37.8649 1.41289C37.8649 1.55418 37.7236 1.69547 37.7236 1.69547C37.441 1.97804 37.441 1.97804 37.441 1.97804C37.2997 2.26061 37.2997 4.52121 37.2997 4.94507C37.2997 6.07537 37.2997 11.1617 37.441 13.1397C37.441 13.281 37.441 13.9875 37.441 14.1287C37.441 15.4003 36.452 15.8242 35.8869 15.8242C35.6043 15.8242 35.6043 15.8242 35.463 15.5416C35.0391 14.9765 34.6153 14.6939 34.0501 14.4113L33.7675 14.27C33.9088 14.27 34.8978 14.27 35.1804 14.27C35.8869 14.27 36.0281 14.1287 36.0281 13.8462C36.0281 13.5636 36.0281 10.5966 36.0281 10.0314C36.0281 9.32498 35.8869 9.32498 35.3217 9.32498H33.3437C32.6372 9.32498 32.6372 9.46627 32.6372 10.1727C32.496 12.9984 30.6592 15.9655 30.2354 15.9655C30.0941 15.9655 30.0941 15.9655 30.0941 15.9655C30.0941 15.8242 30.2354 15.5416 30.2354 15.5416C31.5069 12.7159 31.5069 9.60755 31.5069 7.06438C31.5069 3.81477 31.3657 2.54319 31.2244 1.55418C31.2244 1.41289 31.0831 0.706455 31.0831 0.706455C31.0831 0.565167 31.0831 0.565167 31.2244 0.565167C31.3657 0.565167 32.496 0.989029 32.6372 1.13032C32.7785 1.13032 33.0611 1.13032 33.2024 1.13032H35.6043V0.989029ZM35.6043 4.94507C36.0281 4.94507 36.3107 4.94507 36.3107 4.37992V2.11933C36.3107 1.41289 36.0281 1.41289 35.6043 1.41289H33.6263C33.0611 1.41289 32.9198 1.41289 32.9198 2.11933C32.9198 2.4019 32.9198 3.95606 32.9198 4.37992C32.9198 4.94507 33.2024 4.94507 33.6263 4.94507H35.6043ZM35.6043 8.90112C36.0281 8.90112 36.3107 8.90112 36.3107 8.33597C36.3107 7.62953 36.3107 6.64052 36.3107 5.93408C36.3107 5.36893 36.0281 5.36893 35.6043 5.36893H33.6263C33.2024 5.36893 32.9198 5.36893 32.9198 5.93408C32.9198 6.21666 32.9198 7.91211 32.9198 8.33597C32.9198 8.90112 33.2024 8.90112 33.6263 8.90112H35.6043Z" fill="#464B44"/>
<path d="M43.5166 12.9984C42.9514 12.9984 42.9514 13.281 42.9514 13.5636C42.9514 13.9874 42.9514 14.9765 42.1037 14.9765C41.5386 14.9765 41.5386 14.6939 41.5386 14.4113C41.5386 13.4223 41.6799 8.19466 41.6799 7.06436C41.6799 5.79278 41.6799 4.80377 41.6799 3.81476C41.6799 3.81476 41.6799 3.53218 41.6799 3.39089C41.6799 3.39089 41.6799 3.24961 41.8211 3.24961C41.9624 3.24961 42.8102 3.67347 42.8102 3.67347C42.9514 3.67347 42.9514 3.53218 43.0927 3.39089C43.6579 2.11931 43.9405 1.41287 44.0817 0.706436C44.0817 0.706436 44.0817 0.282575 44.0817 0.141287C44.223 0.141287 45.7772 0.706436 45.7772 0.989011C45.7772 1.1303 45.3533 1.27159 45.212 1.41287C44.223 2.40188 43.3753 3.67347 43.3753 3.81476C43.3753 3.95604 43.5166 3.95604 43.6579 3.95604H45.6359C45.9185 3.95604 46.0598 3.95604 46.0598 3.81476C46.3423 3.53218 46.4836 3.39089 46.4836 3.39089C46.6249 3.39089 47.7552 4.09733 47.7552 4.37991C47.7552 4.52119 47.3314 4.94505 47.1901 5.08634C47.1901 5.22763 47.1901 7.20565 47.1901 8.47724C47.1901 9.74882 47.1901 12.4333 47.1901 13.281C47.1901 13.5636 47.1901 13.9874 47.1901 13.9874C47.1901 14.4113 46.6249 14.6939 46.3423 14.6939C45.7772 14.6939 45.7772 14.4113 45.7772 14.1287C45.7772 13.5636 45.6359 13.4223 45.0708 13.4223H43.5166V12.9984ZM43.5166 8.47724C42.9514 8.47724 42.9514 8.47724 42.9514 10.4553C42.9514 10.7378 42.9514 12.1507 42.9514 12.292C43.0927 12.5746 43.234 12.5746 43.3753 12.5746H45.4946C46.0598 12.5746 46.0598 12.5746 46.0598 10.4553C46.0598 10.1727 46.0598 8.75981 46.0598 8.61852C46.0598 8.47724 45.9185 8.47724 45.6359 8.47724H43.5166ZM45.6359 8.05337C45.9185 8.05337 46.2011 8.05338 46.2011 7.62951C46.2011 7.20565 46.2011 4.80377 46.2011 4.80377C46.2011 4.23862 45.9185 4.23862 45.6359 4.23862H43.5166C43.234 4.23862 42.9514 4.23862 42.9514 4.80377C42.9514 5.22763 42.9514 7.62951 42.9514 7.62951C43.0927 7.91209 43.3753 7.91209 43.5166 7.91209H45.6359V8.05337ZM50.581 4.09733C50.1571 4.09733 50.1571 4.23862 49.5919 4.94506C48.7442 6.21664 48.4616 6.6405 48.1791 6.6405C48.1791 6.6405 48.4617 5.93407 48.6029 5.79278C49.1681 4.52119 49.8745 2.68446 50.2984 0.423862C50.2984 0 50.2984 0 50.4397 0C50.4397 0 52.2764 0.423862 52.2764 0.706436C52.2764 0.847724 51.7113 1.1303 51.7113 1.27159C51.4287 1.69545 50.7223 3.39089 50.7223 3.53218C50.7223 3.81476 50.8635 3.81476 51.1461 3.81476H54.537C54.6783 3.81476 54.9609 3.67347 54.9609 3.67347C54.9609 3.53218 55.2434 3.10832 55.3847 3.10832C55.526 3.10832 56.7976 3.81476 56.7976 4.09733C56.7976 4.23862 56.3737 4.66248 56.2325 4.80377C56.0912 4.94506 56.0912 5.22763 56.0912 6.6405C56.0912 12.5746 55.2434 14.1287 54.8196 14.8352C54.537 15.4003 53.548 15.9655 52.8416 15.9655C52.7003 15.9655 52.559 15.9655 52.4177 15.6829C52.2764 14.9765 52.1351 14.9765 51.7113 14.6939C51.57 14.5526 50.7223 14.27 50.7223 14.1287C50.7223 14.1287 50.7222 13.9874 50.8635 13.9874C51.0048 13.9874 51.4287 14.1287 51.57 14.1287C51.8525 14.1287 52.8416 14.27 52.9828 14.27C53.2654 14.27 53.548 14.27 53.8306 13.8462C54.537 12.9984 54.9609 9.89011 54.9609 7.91209C54.9609 7.48823 54.9609 5.08634 54.9609 4.52119C54.9609 4.09733 54.537 4.09733 54.3957 4.09733H50.581ZM52.7003 9.74882C52.7003 10.314 52.2764 10.5965 51.8525 10.5965C51.2874 10.5965 51.2874 10.314 51.1461 9.32496C51.0048 8.9011 51.0048 8.19466 50.4397 7.34694C50.2984 7.20565 50.1571 7.06436 50.1571 7.06436C50.1571 7.06436 50.1571 6.92308 50.2984 6.92308C50.4397 6.92308 52.7003 8.33595 52.7003 9.74882Z" fill="#464B44"/>
<path d="M64.9925 2.4018C64.9925 2.11922 64.8512 1.83665 64.7099 1.55407C64.7099 1.41279 64.4273 1.13021 64.4273 0.988925C64.4273 0.706351 64.8512 0.565063 65.1337 0.565063C65.8402 0.565063 66.1228 0.988925 66.4053 1.41279C66.5466 1.55407 66.6879 1.55407 67.2531 1.69536C67.5356 1.83665 68.2421 1.97794 68.2421 2.54309C68.2421 3.24952 67.2531 3.5321 65.8402 3.95596C65.6989 3.95596 65.6989 4.09724 65.5576 4.66239C65.275 5.6514 63.7209 11.5855 62.1667 11.5855C61.7429 11.5855 61.6016 11.3029 61.6016 11.0203C61.6016 10.7377 61.6016 10.7377 62.1667 9.89002C64.1447 7.06428 64.5686 4.23853 64.5686 4.09725C64.5686 3.95596 64.4273 3.95596 64.1447 3.95596C62.0254 3.81467 62.0254 2.54309 62.0254 2.54309C62.0254 2.54309 62.0254 2.26051 62.1667 2.26051C62.308 2.26051 62.308 2.26051 62.5906 2.54309C62.7319 2.68437 63.297 2.96695 64.0034 2.96695C64.0034 2.96695 64.7099 2.96695 64.8512 2.82566C64.9925 2.82566 64.9925 2.54309 64.9925 2.4018ZM70.0788 13.4222C69.7962 14.9764 68.5246 15.4002 67.5356 15.4002C65.8402 15.4002 64.8512 14.2699 64.8512 13.2809C64.8512 12.1506 66.1228 11.5855 67.6769 11.5855C67.8182 11.5855 68.5246 11.5855 68.6659 11.5855C68.8072 11.5855 68.9485 11.5855 68.9485 11.4442C68.9485 11.1616 68.8072 10.0313 68.8072 9.74874C68.8072 7.77071 68.9485 6.92299 70.3614 6.07527C71.4917 5.36883 71.633 5.36883 71.633 4.94497C71.633 4.52111 71.2091 4.09725 71.0678 4.09725C70.9265 3.95596 70.7852 3.81467 70.7852 3.81467C70.7852 3.81467 70.7852 3.67338 70.9265 3.67338C71.0678 3.67338 71.633 3.81467 71.9155 3.95596C73.3284 4.23853 73.4697 5.36883 73.4697 5.6514C73.4697 6.35784 73.0458 6.64042 72.622 6.64042C72.622 6.64042 72.3394 6.64042 72.1981 6.49913C71.4917 6.21655 71.4917 6.21655 71.2091 6.21655C70.7852 6.21655 70.2201 6.49913 69.9375 6.7817C69.5137 7.20556 69.5137 7.77071 69.5137 8.19458C69.5137 8.61844 69.6549 11.4442 70.2201 11.7268C70.3614 11.868 71.2091 12.1506 71.3504 12.2919C71.7742 12.4332 72.7633 12.9983 72.7633 13.7048C72.7633 13.9874 72.622 14.2699 72.3394 14.2699C72.1981 14.2699 72.0568 14.2699 71.7742 13.9874C71.3504 13.5635 70.5027 12.9983 70.2201 13.1396C70.2201 13.1396 70.2201 13.2809 70.0788 13.4222ZM67.5356 12.4332C67.1118 12.4332 65.5576 12.4332 65.5576 13.4222C65.5576 13.8461 66.1228 14.4112 67.1118 14.4112C68.8072 14.4112 69.0898 12.9983 68.9485 12.7158C68.9485 12.4332 67.9595 12.4332 67.5356 12.4332ZM67.1118 2.26051C67.1118 2.11922 66.5466 1.83665 66.4053 1.83665C66.1228 1.83665 65.9815 2.54309 65.9815 2.68437V2.82566C65.9815 2.82566 67.1118 2.54309 67.1118 2.26051Z" fill="#464B44"/>
<path d="M80.5338 4.52121C80.3925 4.52121 80.1099 4.37992 79.9686 3.95606C79.5447 2.82576 78.8383 2.11933 77.9906 1.2716C77.708 0.989029 77.708 0.847742 77.708 0.847742C77.708 0.706455 77.8493 0.706455 77.8493 0.706455C78.1319 0.706455 79.4035 1.2716 79.5447 1.41289C80.5338 1.97804 81.2402 2.96705 81.2402 3.5322C81.2402 3.67349 81.2402 3.81477 81.2402 3.95606C81.0989 4.23864 80.9576 4.52121 80.5338 4.52121ZM77.8493 7.48824C77.708 7.34696 77.708 7.34696 77.8493 7.48824C77.8493 7.34696 77.8493 7.34696 77.8493 7.34696C78.1319 7.34696 79.686 7.48824 79.9686 7.48824C80.2512 7.48824 80.3925 7.34696 80.5338 7.20567C81.0989 6.64052 81.0989 6.64052 81.0989 6.64052C81.2402 6.64052 82.2292 7.20567 82.2292 7.62953C82.2292 7.77082 81.8053 8.05339 81.6641 8.05339C81.6641 8.19468 81.6641 8.33597 81.6641 10.1727C81.6641 12.0094 81.664 12.4333 82.0879 12.9984C82.9356 14.1287 84.4898 14.27 88.022 14.27C89.5761 14.27 91.1303 14.27 92.6845 13.9875C92.8257 13.9875 93.956 13.7049 94.0973 13.7049H94.2386C94.2386 13.7049 93.956 13.9875 93.956 14.1287C93.6735 14.4113 93.6735 14.5526 93.3909 15.259C93.2496 15.6829 92.967 15.6829 91.1303 15.6829C89.011 15.6829 86.044 15.5416 84.7724 15.259C84.3485 15.1178 82.6531 14.6939 81.8053 13.281C81.5228 12.7159 81.5228 12.5746 81.2402 12.5746C81.0989 12.5746 81.0989 12.7159 80.9576 12.8572C80.5338 13.281 79.8273 14.4113 79.686 14.8352C79.5447 15.259 79.5447 15.5416 79.2622 15.5416C78.9796 15.5416 77.9906 14.4113 77.9906 14.27C77.9906 14.1287 78.5557 13.9875 78.5557 13.9875C79.4035 13.281 80.3925 12.7159 80.5338 12.0094C80.5338 12.0094 80.5338 9.18369 80.5338 8.61854C80.5338 8.19468 80.5338 7.91211 79.9686 7.91211C79.9686 7.91211 79.1209 7.91211 78.697 7.91211C78.697 7.91211 78.4144 7.91211 78.2732 7.91211C78.2732 7.91211 78.1319 7.91211 78.1319 7.77082L77.8493 7.48824ZM91.5542 0.847742C91.978 0.847742 92.1193 0.706455 92.1193 0.706455C92.1193 0.565167 92.5432 0.282593 92.5432 0.282593C92.6845 0.282593 94.0973 1.2716 94.0973 1.69547C94.0973 1.83675 93.9561 2.11933 93.6735 2.11933C93.6735 2.11933 93.3909 2.11933 93.2496 2.11933C93.1083 2.11933 92.967 2.11933 92.4019 2.4019C91.978 2.68448 91.8367 2.82576 91.6955 2.82576C91.6955 2.82576 91.5542 2.82576 91.5542 2.68448C91.5542 2.54319 91.978 1.69547 91.978 1.55418C91.978 1.41289 91.8367 1.41289 91.5542 1.41289H84.2072C83.9246 1.41289 83.9247 1.41289 83.9247 1.83675C83.9247 2.68448 83.2182 3.67349 82.5118 3.67349C82.0879 3.67349 81.8053 3.24963 81.8053 2.96705C81.8053 2.68448 81.9466 2.54319 82.3705 2.11933C82.9356 1.55418 82.9356 1.13032 82.9356 0.565167V0.42388C83.0769 0.42388 83.3595 0.706455 83.5008 0.847742C83.6421 1.13032 83.6421 1.13032 84.0659 1.13032H91.5542V0.847742ZM85.7614 9.60755C85.4788 9.60755 85.3375 9.60755 85.1962 9.89013C85.0549 10.1727 84.9137 10.314 84.4898 10.314C84.0659 10.314 83.9247 10.0314 83.9247 9.74884C83.9247 9.60755 83.9247 9.0424 83.9247 8.90112C83.9247 8.33597 83.9247 8.19468 83.9247 5.93408C83.9247 5.7928 83.7834 5.08636 83.7834 4.94507C83.7834 4.94507 83.7834 4.6625 83.9247 4.6625C84.0659 4.6625 84.6311 4.94507 84.7724 5.08636C84.7724 5.08636 85.1962 5.22765 85.6201 5.22765H86.6091C86.8917 5.22765 87.033 5.22765 87.033 4.80379C87.033 4.09735 87.033 4.09735 86.6091 4.09735H86.1852C85.7614 4.09735 84.7724 4.09735 84.3485 4.09735H84.0659C84.0659 4.09735 83.9247 4.09735 83.9247 3.95606L83.6421 3.5322C83.6421 3.5322 83.6421 3.5322 83.6421 3.39091C83.7834 3.39091 84.2072 3.39091 84.3485 3.5322C84.7724 3.5322 85.6201 3.5322 86.4678 3.5322H86.8917C87.1743 3.5322 87.3155 3.39091 87.3155 3.10834C87.3155 2.96705 87.3155 2.54319 87.3155 2.4019C87.3155 2.26061 87.1743 1.69547 87.1743 1.55418C87.1743 1.41289 87.3155 1.41289 87.4568 1.41289C87.4568 1.41289 89.011 1.55418 89.011 1.97804C89.011 2.11933 88.7284 2.4019 88.5871 2.54319C88.4458 2.68448 88.4458 2.96705 88.4458 2.96705C88.4458 3.39091 88.7284 3.39091 88.8697 3.39091H89.5761C89.7174 3.39091 90.1413 3.39091 90.2826 3.39091C90.4239 3.24963 90.989 2.54319 91.1303 2.54319C91.2716 2.54319 92.5432 3.5322 92.5432 3.67349C92.5432 3.95606 92.2606 3.95606 91.6955 3.95606H88.8697C88.4458 3.95606 88.4458 4.09735 88.4458 4.6625C88.4458 4.94507 88.4458 5.08636 88.8697 5.08636H90.2826C90.4239 5.08636 90.5652 5.08636 90.8477 4.94507C90.989 4.94507 91.2716 4.6625 91.4129 4.6625C91.5542 4.6625 92.5432 5.22765 92.5432 5.51022C92.5432 5.51022 92.2606 5.93408 92.1193 5.93408C91.978 6.07537 91.978 6.92309 91.978 7.20567C91.978 7.48824 91.978 8.90112 91.978 9.18369C91.978 9.89013 91.4129 10.0314 91.1303 10.0314C90.4239 10.314 90.4239 10.1727 90.2826 9.89013C90.2826 9.74884 90 9.74884 89.8587 9.74884H88.7284C88.3046 9.74884 88.1633 10.0314 88.1633 10.314C88.1633 11.0204 88.1633 11.1617 88.7284 11.1617H90.8477C91.5542 11.1617 91.5542 11.1617 91.8367 10.8791C92.2606 10.314 92.4019 10.1727 92.5432 10.1727C92.6845 10.1727 93.956 11.1617 93.956 11.4443C93.956 11.7269 93.6735 11.7269 93.1083 11.7269H88.7284C88.3046 11.7269 88.1633 11.8681 88.1633 12.292C88.1633 12.4333 88.1633 13.4223 88.1633 13.5636C88.1633 13.8462 88.1633 14.4113 87.4568 14.4113C86.8917 14.4113 86.8917 13.9875 86.8917 13.8462C86.8917 13.5636 86.8917 12.5746 86.8917 12.292C86.8917 11.7269 86.6091 11.7269 86.3265 11.7269H84.7724C84.3485 11.7269 83.6421 11.7269 82.9356 11.7269H82.5118C82.5118 11.7269 82.3705 11.7269 82.3705 11.5856L82.0879 11.1617V11.0204C82.2292 11.0204 82.5118 11.0204 82.6531 11.0204C83.6421 11.1617 84.9137 11.1617 85.7614 11.1617H86.3265C86.8917 11.1617 86.8917 10.8791 86.8917 10.4553C86.8917 10.0314 86.8917 9.74884 86.3265 9.74884H85.7614V9.60755ZM86.7504 7.20567C87.3155 7.20567 87.3155 6.92309 87.3155 6.49923C87.3155 5.93408 87.3155 5.65151 86.7504 5.65151H85.6201C85.0549 5.65151 85.0549 5.93408 85.0549 6.35795C85.0549 6.92309 85.0549 7.20567 85.6201 7.20567H86.7504ZM86.7504 9.18369C87.3155 9.18369 87.3155 8.90112 87.3155 8.33597C87.3155 8.05339 87.3155 7.77082 86.7504 7.77082H85.6201C85.0549 7.77082 85.0549 8.05339 85.0549 8.47725C85.0549 8.90112 85.0549 9.18369 85.6201 9.18369H86.7504ZM88.8697 5.65151C88.3046 5.65151 88.3046 5.93408 88.3046 6.49923C88.3046 6.92309 88.3046 7.20567 88.8697 7.20567H90.1413C90.7064 7.20567 90.7064 6.92309 90.7064 6.49923C90.7064 6.07537 90.7064 5.7928 90.1413 5.7928H88.8697V5.65151ZM88.8697 7.62953C88.3046 7.62953 88.3046 7.91211 88.3046 8.47725C88.3046 8.90112 88.3046 9.18369 88.8697 9.18369H90.1413C90.7064 9.18369 90.7064 8.90112 90.7064 8.33597C90.7064 7.91211 90.7064 7.62953 90.1413 7.62953H88.8697Z" fill="#464B44"/>
<path d="M100.314 10.0314C99.7489 10.0314 99.7489 10.1727 99.7489 10.8791C99.4663 13.9875 97.4883 15.8242 97.2057 15.8242C97.0645 15.8242 97.0645 15.8242 97.0645 15.6829C97.0645 15.6829 97.4883 14.9765 97.6296 14.8352C98.336 13.281 98.6186 11.7269 98.6186 7.34696C98.6186 5.93408 98.6186 3.10834 98.4773 1.69547C98.4773 1.55418 98.336 0.42388 98.336 0.42388C98.336 0.282593 98.336 0.282593 98.4773 0.282593C98.6186 0.282593 99.1838 0.565167 99.3251 0.565167C99.8902 0.847742 100.173 0.989029 100.738 0.989029H109.356C109.78 0.989029 109.922 0.847742 109.922 0.706455C110.204 0.42388 110.204 0.282593 110.345 0.282593C110.487 0.282593 111.758 0.989029 111.758 1.2716C111.758 1.41289 111.617 1.55418 111.476 1.55418C111.052 1.83675 111.052 1.83675 111.052 3.5322C111.052 4.94507 111.193 11.5856 111.193 12.9984C111.193 13.8462 111.193 15.6829 109.498 15.6829C109.356 15.6829 109.356 15.6829 109.215 15.259C108.933 14.5526 107.944 14.27 107.661 14.27L107.378 14.1287C107.378 13.9875 107.52 13.9875 107.661 13.9875C107.944 13.9875 109.074 14.1287 109.215 14.1287C109.922 14.1287 109.922 13.9875 109.922 11.7269C109.922 11.4443 109.922 10.314 109.922 10.1727C109.922 9.89013 109.639 9.89013 109.356 9.89013H105.824C105.4 9.89013 105.259 10.0314 105.259 10.5966C105.259 11.8681 105.259 13.281 105.259 14.6939C105.259 14.9765 105.259 15.1178 105.118 15.259C104.977 15.4003 104.694 15.5416 104.27 15.5416C103.846 15.5416 103.846 15.259 103.846 15.1178C103.846 14.4113 103.988 11.1617 103.988 10.4553C103.988 10.0314 103.846 9.89013 103.422 9.89013H100.314V10.0314ZM103.564 5.08636C104.129 5.08636 104.129 5.08636 104.129 3.24963C104.129 1.55418 104.129 1.41289 103.564 1.41289H100.314C99.7489 1.41289 99.7489 1.55418 99.7489 2.96705C99.7489 4.94507 99.7489 4.94507 100.314 4.94507H103.564V5.08636ZM103.564 9.60755C103.705 9.60755 103.988 9.60755 103.988 9.32498C103.988 9.18369 103.988 7.48824 103.988 7.20567C103.988 5.65151 103.988 5.51022 103.422 5.51022H100.314C100.173 5.51022 99.8902 5.51022 99.7489 5.7928C99.7489 5.93408 99.7489 8.33597 99.7489 8.75983C99.7489 9.0424 99.7489 9.32498 100.314 9.32498H103.564V9.60755ZM105.824 1.55418C105.542 1.55418 105.4 1.55418 105.259 1.83675C105.259 1.97804 105.259 3.95606 105.259 4.37992C105.259 4.80379 105.259 5.08636 105.824 5.08636H109.356C109.922 5.08636 109.922 4.94507 109.922 3.81477C109.922 1.41289 109.922 1.41289 109.356 1.41289H105.824V1.55418ZM105.824 5.65151C105.259 5.65151 105.259 5.65151 105.259 7.34696C105.259 7.62953 105.259 9.18369 105.259 9.32498C105.4 9.60755 105.683 9.60755 105.683 9.60755H109.356C109.922 9.60755 109.922 9.46627 109.922 8.33597C109.922 5.7928 109.922 5.65151 109.356 5.65151H105.824Z" fill="#464B44"/>
<path d="M117.833 9.4663C117.833 8.90115 118.399 8.33601 119.529 6.92313C120.377 5.93412 121.083 4.52125 121.083 4.23867C121.083 4.09739 120.942 4.09739 120.942 4.09739C120.801 4.09739 120.094 4.23867 119.812 4.23867C119.105 4.23867 118.257 3.39095 118.257 2.68451C118.257 2.68451 118.257 2.54323 118.399 2.54323C118.54 2.54323 118.964 2.8258 119.105 2.8258C119.388 2.96709 119.812 3.10838 120.235 3.10838C121.648 3.10838 121.648 2.68451 121.648 2.26065C121.648 2.11936 121.648 1.83679 121.507 1.6955C121.507 1.55421 121.083 1.27164 121.083 1.13035C121.083 0.989066 121.507 0.847778 121.931 0.847778C122.355 0.847778 122.779 0.989066 122.779 1.41293C122.779 1.6955 122.92 1.6955 123.626 1.6955C123.768 1.6955 124.474 1.83679 124.474 2.11936C124.474 2.68451 123.202 3.24966 122.355 3.53224C122.072 3.67352 122.072 3.67352 121.648 4.52125C121.224 5.51026 121.083 5.65155 120.659 6.49927C120.518 6.64056 120.518 6.78185 120.518 6.78185V6.92313C120.518 6.92313 120.942 6.78185 121.083 6.78185C121.224 6.64056 121.507 6.64056 121.79 6.64056C122.072 6.64056 122.779 6.64056 123.344 7.77086C123.485 8.05343 123.485 8.05343 123.485 8.05343C123.485 8.05343 124.191 7.20571 124.191 7.06442C124.757 6.2167 125.887 4.66253 127.441 4.66253C128.43 4.66253 129.136 5.51026 129.136 6.2167C129.136 7.06442 127.724 7.62957 126.593 8.05343C126.169 8.19472 124.191 9.04244 123.768 9.18373C123.485 9.32502 123.485 9.60759 123.485 9.89017C123.485 10.0315 123.485 10.7379 123.485 11.0205C123.485 11.303 123.485 12.292 122.779 12.292C122.355 12.292 122.213 11.7269 122.213 11.4443C122.213 11.303 122.213 10.4553 122.213 10.4553C122.213 10.314 122.213 10.1727 122.072 10.1727C121.931 10.1727 120.377 11.303 120.377 12.292C120.377 13.5636 122.213 13.5636 122.637 13.5636C123.061 13.5636 123.485 13.5636 123.768 13.4223C124.05 13.4223 125.18 13.1398 125.322 13.1398C125.746 13.1398 126.169 13.2811 126.169 13.7049C126.169 14.8352 123.485 14.8352 123.061 14.8352C120.801 14.8352 119.67 13.8462 119.67 12.5746C119.67 11.4443 120.377 10.8792 122.072 9.4663C122.213 9.32502 122.355 9.04244 122.355 8.90115C122.355 8.05343 122.213 7.06442 121.507 7.06442C120.801 7.06442 119.812 7.91214 119.388 8.90115C119.246 9.32502 118.964 9.74888 118.399 9.74888C118.116 10.0315 117.833 9.89016 117.833 9.4663ZM122.355 2.68451C122.355 2.68451 123.202 2.40194 123.202 2.26065C123.202 1.97808 122.779 1.97808 122.637 1.97808C122.355 1.97808 122.355 2.54323 122.355 2.68451ZM123.909 8.47729C123.909 8.47729 124.05 8.61858 123.909 8.47729C124.05 8.61858 127.582 7.20571 127.582 5.93412C127.582 5.51026 127.158 5.36897 127.017 5.36897C125.463 5.51026 123.909 8.19472 123.909 8.47729Z" fill="#464B44"/>
<path d="M133.94 10.1727C133.94 10.0314 134.081 10.0314 134.081 10.0314C134.081 10.0314 135.777 10.314 135.777 10.7378C135.777 10.8791 135.353 11.303 135.353 11.4443C135.07 12.0094 134.788 13.1397 134.505 13.7049C133.799 15.259 133.375 15.6829 133.375 15.6829V15.4003C133.94 13.1397 134.081 11.8681 134.081 11.5856C134.081 11.303 134.081 10.7378 133.94 10.4553C134.081 10.4553 133.94 10.314 133.94 10.1727ZM138.179 8.75981C138.037 8.75981 137.614 8.75981 137.472 8.9011C137.331 9.04239 137.331 9.04239 137.331 9.74882C137.331 10.4553 137.331 13.5636 137.331 14.27C137.331 15.4003 137.331 15.6829 136.483 15.6829C136.201 15.6829 136.059 15.6829 136.059 15.1177C136.059 14.4113 136.201 11.1617 136.201 10.5965C136.201 9.32496 136.201 9.18367 135.777 9.18367C135.636 9.18367 135.07 9.32496 134.788 9.32496C134.647 9.32496 134.223 9.60754 134.081 9.60754C133.94 9.60754 133.799 9.46625 133.799 9.46625C133.799 9.18367 133.375 8.19466 133.375 8.05338C133.375 7.91209 133.375 7.91209 133.516 7.91209C133.658 7.91209 134.081 8.05338 134.081 8.05338C134.081 8.05338 134.788 8.05338 134.929 8.05338C135.494 8.05338 135.636 7.91209 136.059 6.92308C136.059 6.78179 137.472 3.67347 137.472 3.10832C137.472 2.82575 137.472 2.54317 137.755 2.54317C137.755 2.54317 139.309 3.10832 139.309 3.3909C139.309 3.53218 138.885 3.67347 138.744 3.81476C138.603 3.95604 137.472 5.93407 137.19 6.35793C137.048 6.6405 136.201 7.91209 136.201 7.91209C136.201 8.19466 136.625 8.19466 137.048 8.19466C137.896 8.19466 138.037 8.19466 138.037 7.91209C138.037 7.62951 137.614 7.06436 137.614 7.06436L137.331 6.6405C137.472 6.6405 139.592 7.7708 139.592 8.61852C139.592 9.04239 139.309 9.32496 138.885 9.32496C138.744 9.32496 138.461 9.18367 138.461 9.04239C138.461 8.9011 138.461 8.9011 138.32 8.9011C138.32 8.75981 138.179 8.75981 138.179 8.75981ZM138.179 0.847724C138.179 0.989011 138.179 0.989011 137.755 1.1303C137.614 1.1303 137.614 1.27159 137.472 1.55416C137.19 2.11931 136.342 3.10832 136.059 3.67347C136.059 3.81476 135.918 3.95604 135.918 4.09733C135.918 4.23862 135.918 4.37991 136.201 4.52119C136.342 4.66248 136.483 4.94506 136.483 5.36892C136.483 6.07535 135.918 6.21664 135.918 6.21664C135.636 6.21664 135.636 6.07535 135.07 5.08634C134.647 4.37991 133.94 3.53218 133.799 3.3909C133.658 3.24961 133.658 3.24961 133.658 3.10832C133.658 2.96703 133.658 3.10832 133.658 3.10832C133.94 3.10832 134.929 3.67347 135.212 3.67347C135.636 3.67347 136.201 1.69545 136.342 0.989011C136.342 0.847724 136.483 0.141287 136.483 0H136.625C136.766 0 138.179 0.565149 138.179 0.847724ZM139.874 13.281C139.874 13.7049 139.45 14.27 139.168 14.27C138.744 14.27 138.603 13.8462 138.603 12.9984C138.603 12.4333 138.179 11.303 138.037 11.0204C138.037 10.8791 137.755 10.5965 137.896 10.4553C137.896 10.314 139.874 12.1507 139.874 13.281ZM139.309 11.0204C139.168 10.8791 139.168 10.8791 139.309 11.0204C139.309 10.8791 139.309 10.8791 139.309 10.8791C139.45 10.8791 140.015 10.8791 140.157 11.0204C141.005 11.0204 141.711 11.0204 142.559 11.0204H143.406C143.548 11.0204 143.83 11.0204 143.83 10.5965C143.83 10.4553 143.689 9.46625 143.689 9.46625C143.689 9.46625 143.689 9.32496 143.83 9.32496C143.83 9.32496 145.102 9.60754 145.243 9.74882C145.243 9.74882 145.384 9.89011 145.384 10.0314C145.384 10.0314 145.102 10.314 145.102 10.4553C145.102 10.5965 144.961 10.7378 144.961 10.8791C144.961 11.1617 145.243 11.1617 145.384 11.1617H146.515C147.221 11.1617 147.504 11.1617 147.645 10.8791C148.069 10.1727 148.069 10.0314 148.21 10.0314C148.493 10.0314 149.764 11.1617 149.764 11.4443C149.764 11.7268 149.34 11.7268 148.775 11.7268H145.95C145.808 11.7268 145.667 11.7268 145.667 11.8681C145.667 12.1507 146.515 13.4223 149.058 14.4113C149.199 14.5526 150.329 14.8352 150.329 14.8352C150.329 14.8352 149.482 15.1177 149.34 15.1177C149.199 15.1177 148.917 15.259 148.775 15.6829C148.775 15.8242 148.634 15.9655 148.634 15.9655C148.493 15.9655 146.939 14.6939 146.091 13.5636C145.667 12.8571 145.384 12.4333 145.243 12.0094C145.102 11.8681 145.102 11.7268 144.961 11.7268C144.819 11.7268 144.819 12.0094 144.819 12.0094C144.819 12.5746 144.961 15.1177 144.961 15.5416C144.961 15.9655 144.819 16.3893 144.113 16.3893C143.548 16.3893 143.548 16.1068 143.548 15.8242C143.548 15.6829 143.689 13.4223 143.689 12.9984C143.689 12.7159 143.689 12.4333 143.548 12.4333C143.406 12.4333 143.406 12.4333 142.983 12.8571C142.276 13.5636 141.005 14.8352 138.603 15.8242C138.32 15.9655 138.037 15.9655 138.037 15.9655C137.896 15.9655 138.179 15.6829 138.603 15.5416C140.439 14.27 142.559 12.0094 142.559 11.7268C142.559 11.5856 142.276 11.5856 142.276 11.5856C141.994 11.5856 140.863 11.5856 140.157 11.5856C140.157 11.5856 139.874 11.5856 139.733 11.5856C139.592 11.5856 139.592 11.5856 139.592 11.4443L139.309 11.0204ZM141.711 8.75981C141.428 8.75981 141.287 8.75981 141.146 9.18367C141.146 9.60754 140.863 9.74882 140.439 9.74882C140.157 9.74882 140.015 9.46625 140.015 9.18367C140.015 8.9011 140.015 7.62951 140.015 7.34694C140.015 6.6405 140.015 6.49922 139.874 6.07535C140.015 5.93407 139.874 5.65149 139.874 5.5102C139.874 5.36892 140.015 5.36892 140.015 5.36892C140.298 5.36892 140.722 5.65149 141.005 5.65149C141.287 5.79278 141.428 5.79278 141.57 5.79278H142.135C142.276 5.79278 142.417 5.79278 142.559 5.65149C142.559 5.65149 142.841 5.22763 142.983 5.22763C142.983 5.22763 143.972 5.79278 143.972 6.07535C143.972 6.21664 143.689 6.35793 143.689 6.49922C143.548 6.6405 143.548 7.06436 143.548 7.20565C143.548 7.34694 143.548 8.19466 143.548 8.33595C143.548 8.75981 143.548 9.32496 142.983 9.32496C142.841 9.32496 142.559 9.32496 142.417 9.18367C142.276 8.9011 142.276 8.9011 141.994 8.9011H141.711V8.75981ZM142.135 8.19466C142.7 8.19466 142.7 8.05338 142.7 7.06436C142.7 6.35793 142.7 6.21664 142.276 6.21664H141.711C141.287 6.21664 141.146 6.35793 141.146 7.20565C141.146 8.05338 141.146 8.19466 141.711 8.19466H142.135ZM143.124 3.95604C142.983 3.95604 142.559 3.95604 142.559 4.37991C142.559 4.66248 142.559 5.08634 141.852 5.08634C141.428 5.08634 141.428 4.80377 141.428 4.66248C141.428 4.37991 141.428 3.3909 141.428 3.10832C141.428 2.82575 141.428 1.97802 141.428 1.69545C141.428 1.55416 141.287 1.1303 141.287 0.989011C141.287 0.847724 141.287 0.706436 141.428 0.706436C141.428 0.706436 142.135 0.989011 142.276 0.989011C142.559 1.1303 142.841 1.1303 143.124 1.1303H145.243C145.526 1.1303 145.808 1.1303 145.95 0.847724C146.091 0.565149 146.232 0.565149 146.373 0.565149C146.656 0.565149 147.645 1.1303 147.645 1.27159C147.645 1.41287 147.221 1.69545 147.221 1.69545C147.08 1.83673 147.08 2.82575 147.08 2.96703C147.08 3.10832 147.221 3.67347 147.221 3.81476C147.221 4.23862 146.939 4.52119 146.515 4.52119C146.232 4.52119 146.091 4.37991 145.95 4.23862C145.808 4.09733 145.808 3.95604 145.526 3.95604H143.124ZM145.243 3.53218C145.808 3.53218 145.808 3.39089 145.808 2.68446C145.808 1.55416 145.808 1.41287 145.243 1.41287H143.124C142.559 1.41287 142.559 1.55416 142.559 2.2606C142.559 3.3909 142.559 3.53218 143.124 3.53218H145.243ZM147.504 5.65149C147.786 5.65149 147.786 5.65149 147.928 5.5102L148.351 5.22763C148.493 5.22763 149.34 5.93407 149.34 6.07535C149.34 6.21664 149.199 6.35793 148.917 6.49922C148.775 6.6405 148.775 6.92308 148.775 7.34694C148.775 7.62951 148.775 8.47724 148.775 8.61852C148.775 9.32496 147.928 9.32496 147.928 9.32496C147.645 9.32496 147.645 9.32496 147.504 8.9011C147.504 8.61852 147.221 8.61852 147.08 8.61852H146.232C145.95 8.61852 145.808 8.75981 145.808 8.9011C145.667 9.18367 145.384 9.32496 145.102 9.32496C144.678 9.32496 144.678 9.04239 144.678 8.9011C144.678 8.61852 144.678 7.7708 144.678 7.48823C144.678 6.6405 144.678 6.07535 144.537 5.65149C144.537 5.5102 144.537 5.22763 144.537 5.22763C144.537 5.08634 144.678 5.08634 144.678 5.08634C144.819 5.08634 145.526 5.36892 145.667 5.36892C145.95 5.5102 146.091 5.5102 146.232 5.5102H147.504V5.65149ZM147.504 8.19466C148.069 8.19466 148.069 8.05338 148.069 6.92308C148.069 6.35793 148.069 6.21664 147.645 6.21664H146.656C146.232 6.21664 146.232 6.35793 146.232 7.20565C146.232 8.05338 146.232 8.19466 146.656 8.19466H147.504Z" fill="#464B44"/>
<path d="M161.209 3.81466C159.655 3.81466 158.242 6.35783 158.242 8.19456C158.242 8.75971 158.383 9.04228 158.524 9.46615C158.666 9.74872 158.666 9.89001 158.666 10.1726C158.666 10.7377 158.242 10.879 157.959 10.879C157.111 10.879 156.688 9.46615 156.688 8.05327C156.688 7.20555 156.829 6.21654 156.97 5.22753C157.253 3.81466 157.253 3.39079 157.253 2.96693C157.253 2.40178 157.111 2.11921 156.97 1.83663C156.97 1.69535 156.688 1.41277 156.688 1.41277C156.688 1.41277 156.97 1.27148 157.111 1.27148C157.959 1.27148 158.524 1.97792 158.524 2.40178C158.524 2.68436 158.242 3.53208 158.1 3.67337C158.1 3.81466 157.677 5.36881 157.677 5.93396C157.677 5.93396 157.677 6.21654 157.818 6.21654C157.959 6.21654 157.959 5.93396 158.1 5.79268C158.242 5.36881 159.513 3.10822 161.35 3.10822C162.48 3.10822 163.611 3.67337 163.611 7.34684C163.611 9.89001 163.045 12.7158 159.796 14.6938C159.089 15.1176 158.524 15.2589 158.524 15.2589C158.524 15.2589 158.524 15.1176 158.948 14.8351C161.915 12.5745 162.339 10.5964 162.339 6.92298C162.763 5.08624 162.339 3.81466 161.209 3.81466Z" fill="#464B44"/>
<path d="M170.816 7.34685C170.816 7.20557 170.816 7.20557 170.816 7.34685C170.816 7.20557 170.816 7.20557 170.816 7.20557C171.099 7.20557 172.512 7.34685 172.794 7.34685C173.077 7.34685 173.218 7.34685 173.36 7.06428C173.36 7.06428 173.642 6.64042 173.783 6.64042C173.925 6.64042 175.055 7.34685 175.055 7.48814L174.772 7.77072C174.631 7.912 174.49 8.05329 174.49 8.05329C174.49 8.19458 174.49 10.1726 174.49 10.4552C174.49 10.879 174.49 12.0093 174.49 12.1506C174.49 12.2919 174.49 12.4332 174.631 12.7158C175.479 13.9874 176.892 14.2699 180 14.2699C184.38 14.2699 185.793 13.8461 186.782 13.7048C186.923 13.7048 187.63 13.4222 187.63 13.4222H187.771C187.771 13.4222 187.488 13.5635 187.488 13.7048C187.064 14.1286 186.782 14.4112 186.641 14.9764C186.499 15.4002 186.499 15.5415 186.358 15.5415C186.217 15.5415 181.837 15.6828 181.413 15.6828C176.185 15.6828 175.196 14.4112 174.631 13.2809C174.631 13.2809 174.49 12.8571 174.349 12.8571H174.207C174.207 12.8571 172.512 15.1177 172.371 15.4002C172.229 15.6828 172.229 15.6828 172.088 15.6828C171.664 15.6828 170.816 14.2699 170.816 14.1286C170.816 13.9874 170.958 13.9874 171.099 13.9874C171.947 13.9874 173.36 13.1396 173.501 12.7158C173.501 12.5745 173.501 8.75973 173.501 8.33586C173.501 8.19458 173.501 7.77072 173.077 7.77072C172.794 7.77072 171.805 7.912 171.664 7.912C171.523 7.912 171.523 7.912 171.523 7.77072L170.816 7.34685ZM175.479 4.23853C175.479 4.52111 175.338 4.94497 174.914 4.94497C174.49 4.94497 174.349 4.80368 173.501 3.39081C173.501 3.39081 172.653 2.11922 171.382 0.988925C171.382 0.988925 171.099 0.847638 171.099 0.706351C171.099 0.565063 172.371 0.988925 172.794 1.2715C174.49 2.11922 175.479 3.5321 175.479 4.23853ZM183.25 4.66239C183.532 4.66239 183.674 4.66239 183.815 4.37982C183.956 4.09725 184.097 4.09725 184.239 4.09725C184.38 4.09725 185.652 4.6624 185.652 4.94497C185.652 5.08626 185.652 5.08626 185.369 5.36883C185.086 5.65141 184.945 5.79269 184.663 6.35784C184.239 7.62943 183.674 8.47715 183.108 9.18359C182.967 9.32488 182.826 9.60745 182.826 9.60745C182.826 9.89003 185.086 11.3029 187.064 11.7268C187.064 11.7268 187.347 11.7268 187.347 11.868C187.347 11.868 187.347 11.868 187.206 12.0093C186.923 12.0093 186.499 12.1506 186.217 12.2919C186.075 12.4332 185.369 12.8571 185.228 12.8571C185.086 12.8571 183.956 12.2919 182.543 11.1616C181.978 10.7377 181.978 10.5965 181.837 10.5965C181.696 10.5965 181.696 10.5965 181.272 11.0203C179.435 12.5745 177.174 13.1396 177.033 13.1396H176.892C176.892 13.1396 177.881 12.5745 178.022 12.4332C179.718 11.4442 181.13 10.1726 181.13 9.89002C181.13 9.74874 180.989 9.60745 180.848 9.46616C180 8.33586 179.576 7.48814 179.152 6.07527C179.011 5.36883 178.87 5.22754 178.587 5.22754C178.022 5.22754 177.881 5.22754 177.881 5.79269C177.739 8.33586 177.739 9.89002 176.75 11.5855C176.185 12.5745 175.338 13.1396 175.196 13.1396C175.196 13.1396 175.196 13.1396 175.479 12.7158C176.327 11.4442 176.892 9.89002 176.892 5.51012C176.892 4.52111 176.892 2.82566 176.75 1.97794C176.75 1.83665 176.75 1.2715 176.75 1.13021C176.75 0.847638 176.892 0.847638 177.033 0.847638C177.174 0.847638 177.457 0.988925 178.022 1.2715C178.446 1.55407 178.446 1.55407 178.728 1.55407H183.108C183.674 1.55407 183.815 1.55407 183.956 1.55407C184.097 1.41279 184.663 0.565063 184.945 0.565063C185.086 0.565063 186.499 1.55407 186.499 1.83665C186.499 2.11922 186.217 2.11922 185.652 2.11922H178.587C178.022 2.11922 178.022 2.26051 178.022 4.37982C178.022 4.94497 178.163 4.94497 178.587 4.94497H183.25V4.66239ZM179.859 5.08626C179.718 5.08626 179.435 5.08626 179.435 5.36883C179.435 6.21656 181.272 8.90101 181.696 8.90101C182.119 8.90101 183.391 5.93398 183.391 5.36883C183.391 5.08626 183.108 5.08626 182.967 5.08626H179.859Z" fill="#464B44"/>
<path d="M196.248 2.96705C196.248 3.10834 195.965 3.81478 195.965 3.95606C195.683 4.80379 195.259 8.75983 195.259 10.314C195.259 12.1507 195.542 13.7049 197.943 13.7049C198.791 13.7049 200.063 13.5636 201.617 12.7159C201.899 12.5746 203.171 11.8682 203.312 11.8682C203.454 11.8682 203.454 11.8682 203.454 12.0094C203.454 12.1507 200.769 15.1178 197.52 15.1178C195.259 15.1178 194.129 13.8462 194.129 10.1727C194.129 9.04241 194.129 8.75983 194.553 5.22765C194.694 4.6625 194.835 3.24963 194.835 2.68448C194.835 2.4019 194.835 2.11933 194.694 1.83675L194.553 1.41289C194.553 1.27161 194.694 1.27161 194.835 1.27161C195.542 1.13032 196.248 2.54319 196.248 2.96705Z" fill="#464B44"/>
<path d="M210.66 12.1506C212.496 8.75973 213.061 5.6514 213.061 5.6514C213.061 5.51012 213.061 5.51012 212.355 5.51012C211.931 5.51012 211.366 5.51012 210.801 5.22754C210.236 4.94497 209.812 4.37982 209.812 4.23853V4.09725C209.953 4.09725 210.094 4.23853 210.236 4.23853C210.518 4.37982 211.225 4.37982 211.79 4.37982C212.072 4.37982 212.92 4.37982 213.061 4.23853C213.344 4.23853 213.344 2.96695 213.344 2.82566C213.344 2.68437 213.344 2.11922 213.061 1.69536C212.92 1.55407 212.496 1.13021 212.496 0.988925C212.496 0.847638 212.779 0.565063 213.344 0.565063C214.192 0.565063 214.757 1.2715 214.757 1.55407C214.757 1.69536 214.616 1.97794 214.616 2.11922C214.616 2.4018 216.028 2.82566 216.17 2.82566C216.311 2.82566 216.594 2.82566 216.735 2.82566C216.876 2.82566 217.3 2.82566 217.3 3.39081C217.3 4.37982 215.746 4.94497 214.616 5.22754C214.05 5.36883 213.909 5.36883 213.909 5.79269C213.061 9.60745 212.92 9.60745 212.638 10.879C211.366 14.5525 210.801 14.5525 210.377 14.5525C209.953 14.5525 209.953 13.9874 209.953 13.7048C209.953 13.4222 210.094 13.1396 210.66 12.1506ZM214.333 4.09725C214.474 4.09725 215.746 3.67338 215.746 3.39081C215.746 3.24952 214.757 2.82566 214.616 2.82566C214.474 2.82566 214.474 2.82566 214.474 3.10823C214.474 3.5321 214.474 3.5321 214.333 3.95596V4.09725ZM215.746 11.5855C216.17 13.1396 218.006 13.4222 219.419 13.4222C219.702 13.4222 221.115 13.2809 221.397 13.2809C221.962 13.2809 222.81 13.5635 222.81 14.1286C222.81 14.6938 222.104 14.6938 220.691 14.6938C217.865 14.6938 215.463 13.9874 215.463 11.7268C215.463 11.3029 215.605 10.879 215.746 10.879C215.605 11.1616 215.746 11.5855 215.746 11.5855ZM219.702 5.36883C221.397 5.36883 222.669 5.93398 222.669 6.64042C222.669 7.06428 222.245 7.06428 222.104 7.06428C221.962 7.06428 221.256 7.06428 221.115 7.06428C220.832 7.06428 220.55 7.06428 219.843 7.34685C219.419 7.48814 219.278 7.62943 219.137 7.62943H218.995C218.995 7.48814 219.984 6.7817 219.984 6.64042C219.984 6.35784 218.713 6.35784 218.43 6.35784C218.006 6.35784 217.583 6.35784 217.159 6.49913C217.017 6.49913 216.594 6.49913 216.594 6.49913H216.452C216.17 6.07527 217.724 5.36883 219.702 5.36883Z" fill="#464B44"/>
<path d="M231.005 5.08628C231.005 5.22757 231.005 5.22757 230.722 5.79272C230.44 6.49915 230.298 7.20559 230.298 8.05331C230.298 9.89005 231.287 11.1616 231.711 11.1616C231.994 11.1616 232.135 11.0203 232.559 10.1726C232.7 10.0313 232.983 9.60747 233.124 9.60747C233.124 9.60747 233.265 9.60747 233.265 9.74876C233.265 9.89005 233.265 10.0313 233.265 10.1726C233.124 11.0203 232.983 11.1616 232.983 11.5855C232.983 11.8681 232.983 12.1506 233.124 12.2919C233.124 12.4332 233.265 12.8571 233.265 12.8571C233.265 13.2809 232.841 13.4222 232.559 13.4222C231.429 13.4222 229.168 11.5855 229.168 8.1946C229.168 7.62945 229.451 5.51014 229.451 5.08628C229.451 4.66242 229.451 4.23856 229.309 4.09727C229.168 3.67341 229.168 3.53212 229.168 3.53212C229.168 3.53212 229.168 3.39083 229.309 3.39083C230.157 3.10826 231.005 4.52113 231.005 5.08628ZM239.623 5.51014C240.471 6.21658 241.177 7.48816 241.177 8.90104C241.177 9.18361 241.177 10.0313 240.33 10.0313C239.482 10.0313 239.482 9.04233 239.482 8.90104C239.482 7.48816 239.482 6.64044 238.493 5.79272C238.352 5.65143 237.645 5.08628 237.645 4.94499C237.645 4.94499 237.645 4.80371 237.787 4.80371C237.787 4.80371 238.776 4.80371 239.623 5.51014Z" fill="#464B44"/>
<path d="M253.752 1.8368C253.752 1.8368 254.035 6.07542 256.295 9.89018C256.578 10.314 258.556 13.5637 261.382 14.2701C261.382 14.2701 261.523 14.2701 261.523 14.4114C261.523 14.5527 261.523 14.5527 260.958 14.6939C260.393 14.8352 259.969 15.1178 259.686 15.2591C259.404 15.5417 259.262 15.5417 259.262 15.5417C259.262 15.5417 257.002 14.1288 255.165 10.4553C254.882 9.74889 253.752 7.34701 253.469 3.53225C253.469 3.39097 253.469 3.24968 253.328 3.24968C253.187 3.24968 253.187 3.39097 253.187 3.95611C253.187 4.52126 252.622 8.61859 250.926 11.5856C249.09 14.6939 245.981 15.8242 245.699 15.8242C245.699 15.8242 245.557 15.8242 245.557 15.683C245.557 15.683 245.699 15.5417 245.84 15.4004C246.829 14.6939 248.807 13.1398 250.079 10.8792C252.057 7.06443 252.057 1.97809 252.057 1.8368C252.057 1.27166 252.057 1.13037 252.057 0.706507C252.057 0.706507 252.057 0.423932 252.057 0.282645C252.057 0.141357 252.198 0.141357 252.198 0.141357C252.339 0.141357 253.046 0.423932 253.187 0.423932C254.035 0.706507 254.458 0.706507 254.458 1.13037C254.458 1.27166 254.317 1.41294 254.176 1.41294C254.035 1.41294 253.893 1.41294 253.893 1.55423C253.752 1.69552 253.752 1.69552 253.752 1.8368Z" fill="#464B44"/>
<path d="M34.6153 41.3971C34.1914 41.3971 34.1914 41.1146 34.1914 41.1146C34.1914 40.832 34.474 40.832 35.0391 40.832C36.0281 40.832 36.452 40.832 36.7346 40.2668C36.8759 39.9843 36.8759 36.876 36.8759 36.1695C36.8759 35.3218 36.8759 31.2245 36.8759 30.2355C36.8759 29.3877 36.5933 29.3877 35.1804 29.3877C34.7566 29.3877 34.6153 29.3877 34.6153 29.1052C34.6153 28.8226 34.7566 28.8226 35.3217 28.8226C35.7456 28.8226 36.5933 28.6813 37.2997 28.3987C37.441 28.3987 38.0062 27.9749 38.1474 27.9749C38.2887 27.9749 38.2887 27.9749 38.2887 28.8226C38.2887 29.2464 38.2887 31.6483 38.2887 32.0722C38.2887 32.9199 38.2887 39.7017 38.2887 39.843C38.43 40.4081 38.7126 40.5494 39.9842 40.5494C40.1255 40.5494 40.408 40.5494 40.408 40.832C40.408 41.1146 40.1255 41.1146 39.9842 41.1146H34.6153V41.3971Z" fill="#464B44"/>
<path d="M56.3735 34.1915C57.6451 34.7567 58.4928 35.1805 59.3405 35.1805C60.3296 35.1805 61.8837 34.6154 62.8727 33.909C63.014 33.7677 63.1553 33.7677 63.1553 33.7677C63.2966 33.7677 63.4379 33.909 63.4379 34.0502C63.4379 34.3328 61.036 36.1695 58.7754 36.1695C58.3515 36.1695 57.6451 36.1695 55.6671 35.1805C53.8303 34.1915 53.1239 34.1915 52.7 34.1915C51.8523 34.1915 50.5807 34.4741 49.3092 35.1805C49.1679 35.1805 48.744 35.6044 48.744 35.6044C48.6027 35.6044 48.4614 35.4631 48.4614 35.3218C48.4614 35.0392 50.8633 33.2025 53.1239 33.2025C53.6891 33.2025 54.5368 33.2025 56.3735 34.1915Z" fill="#464B44"/>
<path d="M78.1318 31.0832C78.1318 32.0722 77.5666 33.0612 76.5776 33.7676C76.4363 33.9089 75.5886 34.3328 75.5886 34.3328C75.5886 34.4741 76.4363 34.7566 76.5776 34.8979C77.4253 35.4631 78.4144 36.3108 78.4144 37.865C78.4144 40.1256 76.4363 41.5384 74.1757 41.5384C72.339 41.5384 70.6436 40.5494 70.6436 39.1366C70.6436 38.4301 71.2087 38.0063 71.6326 38.0063C72.1977 38.0063 72.4803 38.4301 72.4803 38.854C72.4803 38.9953 72.339 39.7017 72.339 39.843C72.339 40.5494 73.0454 40.9733 73.8932 40.9733C75.306 40.9733 76.5776 39.5604 76.5776 37.865C76.5776 36.1695 75.306 34.6154 73.7519 34.6154C73.6106 34.6154 73.1867 34.7566 73.0454 34.7566C72.7629 34.7566 72.6216 34.6154 72.6216 34.3328C72.6216 34.0502 72.7629 33.9089 73.0454 33.9089C73.1867 33.9089 73.7519 34.0502 73.7519 34.0502C75.0235 34.0502 76.1538 32.9199 76.1538 31.2245C76.1538 29.8116 75.306 28.54 73.8932 28.54C72.9041 28.54 72.4803 29.1052 72.4803 29.6703C72.4803 29.8116 72.6216 30.2355 72.6216 30.3767C72.6216 30.9419 72.1977 31.3658 71.7739 31.3658C71.2087 31.3658 70.9261 30.9419 70.9261 30.3767C70.9261 29.529 71.9151 27.9749 74.317 27.9749C76.295 28.1161 78.1318 29.3877 78.1318 31.0832Z" fill="#464B44"/>
<path d="M90.4241 29.2465C89.8589 29.2465 89.8589 29.2465 89.2938 29.9529C88.3048 31.0832 86.1855 33.0612 85.6203 33.0612H85.479C85.479 33.0612 85.9029 32.4961 86.0442 32.3548C86.7506 31.6484 88.5874 29.3878 89.2938 26.9859C89.2938 26.8446 89.4351 26.562 89.4351 26.562C89.7177 26.7033 91.1305 27.2684 91.1305 27.551C91.1305 27.6923 90.5654 27.9749 90.5654 28.1162C90.4241 28.2575 90.1415 28.54 90.1415 28.8226C90.1415 28.9639 90.1415 28.9639 90.5654 28.9639H96.0756C96.9233 28.9639 96.9233 28.9639 97.0646 28.8226C97.2059 28.6813 97.6297 27.9749 97.771 27.9749C97.771 27.9749 99.6078 28.9639 99.6078 29.2465C99.6078 29.529 99.1839 29.529 98.6188 29.529H94.6627C94.3801 29.529 94.0976 29.529 94.0976 29.9529V32.3548C94.0976 32.9199 94.3801 32.9199 94.804 32.9199H95.5104C95.9343 32.9199 96.2169 32.9199 96.3582 32.9199C96.4994 32.7787 97.2059 32.0722 97.3472 32.0722C97.4885 32.0722 99.0426 33.0612 99.0426 33.2025C99.0426 33.4851 98.76 33.4851 98.0536 33.4851H94.804C94.2389 33.4851 94.0976 33.4851 94.0976 34.1915C94.0976 34.898 94.0976 36.1695 94.0976 36.876C94.0976 37.1586 94.0976 37.4411 94.6627 37.4411H97.4885C98.0536 37.4411 98.1949 37.4411 98.4775 37.0173C98.9013 36.3108 99.0426 36.3108 99.1839 36.3108C99.3252 36.3108 101.021 37.4411 101.021 37.7237C101.021 37.865 100.879 38.0063 100.032 38.0063H94.6627C94.2389 38.0063 94.0976 38.1476 94.0976 38.5714V39.5604C94.0976 39.843 94.2388 41.3972 94.2388 41.821C94.2388 42.1036 94.2389 42.2449 94.0976 42.3862C93.815 42.6688 93.5324 42.8101 93.1086 42.8101C92.9673 42.8101 92.5434 42.6688 92.5434 42.2449C92.5434 41.9623 92.6847 40.832 92.6847 40.5495C92.6847 39.9843 92.6847 38.4301 92.6847 38.0063C92.6847 37.4411 92.4021 37.4411 92.1195 37.4411H88.3048C87.8809 37.4411 86.7506 37.4411 86.0442 37.4411C86.0442 37.4411 85.7616 37.4411 85.6203 37.4411C85.6203 37.4411 85.479 37.4411 85.479 37.2998L85.1965 36.876C85.0552 36.7347 85.0552 36.7347 85.0552 36.7347C85.479 36.7347 87.1745 36.876 87.5983 36.876C88.1635 36.876 88.1635 36.7347 88.1635 35.7457C88.1635 35.1805 88.0222 32.4961 88.0222 32.4961C88.0222 32.2135 88.0222 32.2135 88.1635 32.2135C88.3048 32.2135 88.4461 32.2135 89.0112 32.4961C89.2938 32.6374 89.5764 32.6374 89.8589 32.6374H92.1195C92.6847 32.6374 92.6847 32.3548 92.6847 32.0722C92.6847 29.2465 92.6847 29.2465 92.1195 29.2465H90.4241ZM90.1415 33.0612C89.5764 33.0612 89.5764 33.0612 89.5764 34.6154C89.5764 36.876 89.5764 36.876 90.1415 36.876H92.2608C92.826 36.876 92.826 36.876 92.826 34.7567C92.826 33.0612 92.826 32.9199 92.2608 32.9199H90.1415V33.0612Z" fill="#464B44"/>
<path d="M111.759 29.5291V29.6704C111.9 30.2356 111.9 30.8007 111.9 31.6484C111.9 32.7787 111.617 34.4742 110.063 36.8761C108.65 38.9954 107.802 39.4192 107.096 39.4192C105.966 39.4192 104.835 37.5825 104.835 35.4632C104.835 34.4742 104.977 32.7787 106.813 30.942C109.074 28.6814 111.476 28.6814 112.465 28.6814C114.019 28.6814 114.867 28.964 115.291 29.2465C117.269 30.2356 118.399 32.0723 118.399 34.3329C118.399 36.5935 117.127 39.4192 113.878 40.5495C112.324 41.1147 111.193 41.256 110.911 41.256C110.911 41.256 110.77 41.256 110.77 41.1147C110.77 41.1147 110.77 40.9734 111.193 40.8321C113.03 40.1257 116.845 38.5715 116.845 34.1916C116.845 33.4852 116.845 29.2465 111.9 29.2465C111.759 29.3878 111.759 29.5291 111.759 29.5291ZM105.966 35.0393C105.966 36.1696 106.39 37.7238 107.52 37.7238C108.085 37.7238 108.509 37.4412 109.639 35.6045C110.628 34.1916 111.335 32.2136 111.335 30.5181C111.335 29.3878 111.193 29.3878 111.052 29.3878C109.498 29.3878 105.966 31.6484 105.966 35.0393Z" fill="#464B44"/>
<path d="M127.158 34.6153C126.734 34.6153 126.593 34.7566 126.593 35.0392C126.593 35.463 126.452 36.0282 126.452 36.3108C126.452 36.5933 126.452 36.5933 127.017 37.0172C127.723 37.4411 129.56 38.4301 129.56 39.5604C129.56 40.1255 128.995 40.5494 128.712 40.5494C128.43 40.5494 128.289 40.4081 127.865 39.2778C127.3 37.7236 126.593 37.1585 126.311 37.1585C126.169 37.1585 126.169 37.1585 126.028 37.7236C125.887 38.0062 125.039 40.4081 123.344 41.821C123.061 41.9623 122.637 42.3861 122.496 42.3861C122.355 42.3861 122.355 42.3861 122.355 42.3861C122.355 42.2448 122.637 42.1035 122.637 41.9623C123.626 40.6907 125.18 38.0062 125.18 35.0392C125.18 34.474 124.898 34.474 124.615 34.474C124.191 34.474 123.344 34.474 122.92 34.474H122.637C122.637 34.474 122.496 34.474 122.496 34.3327L122.072 33.9089C121.931 33.7676 121.931 33.7676 121.931 33.7676C122.355 33.7676 124.191 33.9089 124.474 33.9089C124.615 33.9089 125.039 33.9089 125.039 33.6263C125.039 33.485 125.039 31.7896 125.039 31.6483C125.039 30.6593 125.039 30.518 124.474 30.518C124.191 30.518 124.191 30.6593 123.626 31.2244C123.344 31.507 122.213 33.2024 122.072 33.2024C122.355 32.6373 122.92 31.507 123.061 31.0831C123.344 30.3767 124.191 28.3987 124.333 26.9858C124.333 26.4207 124.333 26.4207 124.474 26.4207C124.756 26.4207 126.028 26.9858 126.311 27.1271C126.452 27.1271 126.452 27.2684 126.452 27.4097C126.452 27.551 126.452 27.6922 126.028 27.8335C125.887 27.9748 124.898 29.8115 124.898 29.9528C124.898 30.0941 125.039 30.0941 125.18 30.0941H126.734C127.3 30.0941 127.441 30.0941 127.441 29.9528C127.582 29.8115 128.006 29.1051 128.147 29.1051C128.289 29.1051 129.419 29.9528 129.419 30.2354C129.419 30.518 129.136 30.518 128.712 30.518H127.158C126.593 30.518 126.593 30.8006 126.593 31.3657C126.593 31.7896 126.452 33.485 126.452 33.6263C126.452 34.0502 126.593 34.0502 126.876 34.0502C127.3 34.0502 127.441 34.0502 127.582 33.9089C127.723 33.7676 128.289 33.0612 128.289 33.0612C128.43 33.0612 129.56 33.9089 129.56 34.1915C129.56 34.474 129.419 34.474 128.43 34.474H127.158V34.6153ZM135.07 41.2558C135.777 41.2558 135.777 41.2558 135.918 41.1145C136.059 40.9732 136.625 40.2668 136.766 40.2668C136.907 40.2668 138.32 41.3971 138.32 41.5384C138.32 41.6797 138.179 41.6797 137.614 41.6797H131.397C130.973 41.6797 129.843 41.6797 129.136 41.6797C129.136 41.6797 128.854 41.6797 128.712 41.6797C128.571 41.6797 128.571 41.6797 128.571 41.5384L128.289 41.1145C128.289 40.9732 128.147 40.9732 128.147 40.9732C128.289 40.9732 128.854 40.9732 128.995 40.9732C129.843 40.9732 130.549 41.1145 131.397 41.1145H135.07V41.2558ZM134.788 27.9748C135.494 27.9748 135.636 27.9748 135.777 27.8335C135.918 27.6922 136.483 26.9858 136.625 26.9858C136.766 26.9858 138.179 27.9748 138.179 28.2574C138.179 28.54 137.896 28.54 137.331 28.54H132.103C131.679 28.54 130.549 28.54 129.843 28.54C129.843 28.54 129.56 28.54 129.419 28.54C129.278 28.54 129.278 28.54 129.278 28.3987L128.995 27.9748C128.995 27.8335 128.854 27.8335 128.854 27.8335C128.995 27.8335 129.56 27.8335 129.701 27.8335C130.549 27.8335 131.256 27.9748 132.103 27.9748H134.788ZM135.353 30.8006C135.636 30.8006 135.636 30.8006 135.918 30.518C136.342 30.0941 136.342 30.0941 136.483 30.0941C136.766 30.0941 137.755 31.0831 137.755 31.2244C137.755 31.3657 137.331 31.507 137.331 31.6483C137.048 31.7896 137.048 31.9309 137.048 32.0721C137.048 32.496 137.19 34.6153 137.19 35.0392C137.19 35.6043 136.907 35.8869 136.342 35.8869C136.059 35.8869 135.918 35.7456 135.777 35.3218C135.777 35.1805 135.636 35.1805 135.353 35.1805H132.103C131.679 35.1805 131.538 35.463 131.538 35.8869C131.538 36.1695 130.973 36.4521 130.549 36.4521C130.125 36.4521 130.125 36.0282 130.125 35.8869C130.125 31.507 130.125 31.0831 130.125 30.8006C130.125 30.6593 129.843 30.2354 129.843 30.2354C129.843 30.2354 129.843 30.0941 129.984 30.0941C130.125 30.0941 130.408 30.2354 131.114 30.6593C131.397 30.8006 131.679 30.9418 131.962 30.9418H135.353V30.8006ZM131.962 37.2998C132.527 38.1475 132.951 38.7126 132.951 39.5604C132.951 40.2668 132.527 40.6907 132.245 40.6907C131.679 40.6907 131.679 40.2668 131.679 39.2778C131.679 37.8649 131.397 37.2998 131.397 36.8759L131.256 36.5933C131.256 36.5933 131.821 37.2998 131.962 37.2998ZM132.103 31.2244C131.538 31.2244 131.538 31.2244 131.538 32.9199C131.538 33.2024 131.538 34.3327 131.538 34.474C131.679 34.7566 131.962 34.7566 132.103 34.7566H135.353C135.494 34.7566 135.777 34.7566 135.918 34.474C135.918 34.3327 135.918 33.3437 135.918 33.2024C135.918 32.9199 135.918 31.6483 135.918 31.507C135.777 31.2244 135.494 31.2244 135.353 31.2244H132.103ZM134.929 36.4521C135.07 36.4521 135.636 36.8759 135.777 36.8759C136.625 37.2998 136.766 37.2998 136.766 37.4411C136.766 37.5823 136.625 37.7236 136.342 37.8649C135.777 38.1475 134.788 41.1145 134.505 41.1145C134.505 41.1145 134.505 41.1145 134.505 40.9732V40.6907C134.505 40.1255 134.788 38.2888 134.788 37.5824C134.788 37.4411 134.647 36.5933 134.647 36.5933C134.788 36.5933 134.788 36.4521 134.929 36.4521Z" fill="#464B44"/>
<path d="M145.102 31.6484C145.102 31.7897 145.102 31.7897 144.819 32.3549C144.537 33.0613 144.395 33.7678 144.395 34.6155C144.395 36.4522 145.384 37.7238 145.808 37.7238C146.091 37.7238 146.232 37.5825 146.656 36.7348C146.797 36.5935 147.08 36.1696 147.221 36.1696C147.221 36.1696 147.362 36.1696 147.362 36.3109C147.362 36.4522 147.362 36.5935 147.362 36.7348C147.221 37.5825 147.08 37.7238 147.08 38.1477C147.08 38.4302 147.08 38.7128 147.221 38.8541C147.221 38.9954 147.362 39.4192 147.362 39.4192C147.362 39.8431 146.939 39.9844 146.656 39.9844C145.526 39.9844 143.265 38.1477 143.265 34.7568C143.265 34.1916 143.548 32.0723 143.548 31.6484C143.548 31.2246 143.548 30.8007 143.406 30.6594C143.265 30.2356 143.265 30.0943 143.265 30.0943C143.265 30.0943 143.265 29.953 143.406 29.953C144.254 29.8117 145.102 31.2246 145.102 31.6484ZM153.72 32.0723C154.568 32.7787 155.275 34.0503 155.275 35.4632C155.275 35.7458 155.275 36.5935 154.427 36.5935C153.579 36.5935 153.579 35.6045 153.579 35.4632C153.579 34.0503 153.579 33.2026 152.59 32.3549C152.449 32.2136 151.742 31.6484 151.742 31.5072C151.742 31.5072 151.742 31.3659 151.884 31.3659C151.884 31.3659 152.873 31.3659 153.72 32.0723Z" fill="#464B44"/>
<path d="M162.057 31.0832C161.915 31.0832 161.633 30.9419 161.492 30.5181C161.068 29.3878 160.361 28.6813 159.514 27.8336C159.231 27.551 159.231 27.551 159.231 27.4098C159.231 27.2685 159.372 27.2685 159.372 27.2685C159.655 27.2685 160.926 27.8336 161.068 27.9749C162.057 28.5401 162.763 29.5291 162.763 30.0942C162.763 30.2355 162.763 30.3768 162.763 30.5181C162.622 30.8006 162.481 31.0832 162.057 31.0832ZM159.231 34.0503C159.231 33.909 159.231 33.909 159.231 34.0503C159.231 33.909 159.231 33.909 159.231 33.909C159.514 33.909 161.068 34.0503 161.35 34.0503C161.633 34.0503 161.774 33.909 161.915 33.7677C162.481 33.2025 162.481 33.2025 162.481 33.2025C162.622 33.2025 163.611 33.7677 163.611 34.1915C163.611 34.3328 163.187 34.6154 163.046 34.6154C163.046 34.7567 163.046 34.898 163.046 36.7347C163.046 38.5714 163.046 38.9953 163.47 39.5605C164.317 40.6908 165.871 40.832 169.404 40.832C170.958 40.832 172.512 40.832 174.066 40.5495C174.207 40.5495 175.338 40.2669 175.479 40.2669H175.62C175.62 40.2669 175.338 40.5495 175.338 40.6908C175.055 40.9733 175.055 41.1146 174.773 41.8211C174.631 42.2449 174.349 42.2449 172.512 42.2449C170.393 42.2449 167.426 42.1036 166.154 41.8211C165.73 41.6798 164.035 41.2559 163.187 39.843C162.904 39.2779 162.904 39.1366 162.622 39.1366C162.481 39.1366 162.481 39.2779 162.339 39.4192C161.915 39.843 161.209 40.9733 161.068 41.3972C160.926 41.8211 160.926 42.1036 160.644 42.1036C160.361 42.1036 159.372 40.9733 159.372 40.832C159.372 40.6908 159.937 40.5495 159.937 40.5495C161.068 39.9843 162.057 39.4192 162.057 38.5714C162.057 38.5714 162.057 35.7457 162.057 35.1806C162.057 34.7567 162.057 34.4741 161.492 34.4741C161.492 34.4741 160.644 34.4741 160.22 34.4741C160.22 34.4741 159.937 34.4741 159.796 34.4741C159.796 34.4741 159.655 34.4741 159.655 34.3328L159.231 34.0503ZM173.077 27.4098C173.501 27.4098 173.642 27.2685 173.642 27.2685C173.642 27.1272 174.066 26.8446 174.066 26.8446C174.207 26.8446 175.62 27.8336 175.62 28.2575C175.62 28.3988 175.479 28.6813 175.196 28.6813C175.196 28.6813 174.914 28.6813 174.773 28.6813C174.631 28.6813 174.49 28.6813 173.925 28.9639C173.36 29.3878 173.218 29.3878 173.077 29.3878C173.077 29.3878 172.936 29.3878 172.936 29.2465C172.936 29.1052 173.36 28.2575 173.36 28.1162C173.36 27.9749 173.218 27.9749 172.936 27.9749H165.589C165.306 27.9749 165.306 27.9749 165.306 28.3988C165.306 29.2465 164.6 30.2355 163.893 30.2355C163.47 30.2355 163.187 29.8116 163.187 29.5291C163.187 29.2465 163.328 29.1052 163.752 28.6813C164.317 28.1162 164.317 27.6923 164.317 27.1272V26.9859C164.459 26.9859 164.741 27.2685 164.882 27.4098C165.024 27.6923 165.024 27.6923 165.448 27.6923H173.077V27.4098ZM167.284 36.1696C167.002 36.1696 166.86 36.1696 166.719 36.4521C166.578 36.7347 166.437 36.876 166.013 36.876C165.589 36.876 165.448 36.5934 165.448 36.3109C165.448 36.1696 165.448 35.6044 165.448 35.4631C165.448 34.898 165.448 34.7567 165.448 32.4961C165.448 32.3548 165.306 31.6484 165.306 31.5071C165.306 31.5071 165.306 31.2245 165.448 31.2245C165.589 31.2245 166.154 31.5071 166.295 31.6484C166.295 31.6484 166.719 31.7897 167.143 31.7897H168.132C168.415 31.7897 168.556 31.7897 168.556 31.3658C168.556 30.6594 168.556 30.6594 168.132 30.6594H167.567C167.143 30.6594 166.154 30.6594 165.73 30.6594H165.448C165.448 30.6594 165.306 30.6594 165.306 30.5181L165.024 30.0942C165.024 30.0942 165.024 30.0942 165.024 29.9529C165.165 29.9529 165.589 29.9529 165.73 30.0942C166.154 30.0942 167.002 30.0942 167.849 30.0942H168.273C168.556 30.0942 168.697 29.9529 168.697 29.6704C168.697 29.5291 168.697 29.1052 168.697 28.9639C168.697 28.8226 168.556 28.2575 168.556 28.1162C168.556 27.9749 168.697 27.9749 168.839 27.9749C168.839 27.9749 170.393 28.1162 170.393 28.5401C170.393 28.6813 170.11 28.9639 169.969 29.1052C169.828 29.2465 169.828 29.5291 169.828 29.5291C169.828 29.9529 170.11 29.9529 170.251 29.9529H170.958C171.099 29.9529 171.523 29.9529 171.664 29.9529C171.806 29.8116 172.371 29.1052 172.512 29.1052C172.653 29.1052 173.925 30.0942 173.925 30.2355C173.925 30.5181 173.642 30.5181 173.077 30.5181H170.251C169.828 30.5181 169.828 30.6594 169.828 31.2245C169.828 31.5071 169.828 31.6484 170.251 31.6484H171.664C171.806 31.6484 171.947 31.6484 172.229 31.5071C172.371 31.5071 172.653 31.2245 172.795 31.2245C172.936 31.2245 173.925 31.7897 173.925 32.0722C173.925 32.0722 173.642 32.4961 173.501 32.4961C173.36 32.6374 173.36 33.4851 173.36 33.7677C173.36 34.0503 173.36 35.4631 173.36 35.7457C173.36 36.4521 172.795 36.5934 172.512 36.5934C172.088 36.5934 172.088 36.4521 171.947 36.1696C171.947 36.0283 171.664 36.0283 171.523 36.0283H170.393C169.969 36.0283 169.828 36.3109 169.828 36.5934C169.828 37.2999 169.828 37.4412 170.393 37.4412H172.512C173.218 37.4412 173.218 37.4411 173.501 37.1586C173.925 36.5934 174.066 36.4521 174.207 36.4521C174.349 36.4521 175.62 37.4412 175.62 37.7237C175.62 38.0063 175.338 38.0063 174.773 38.0063H170.393C169.969 38.0063 169.828 38.1476 169.828 38.5714C169.828 38.7127 169.828 39.7017 169.828 39.843C169.828 40.1256 169.828 40.6908 169.121 40.6908C168.556 40.6908 168.556 40.2669 168.556 40.1256C168.556 39.843 168.556 38.854 168.556 38.5714C168.556 38.0063 168.273 38.0063 167.991 38.0063H166.437C166.013 38.0063 165.306 38.0063 164.6 38.0063H164.176C164.176 38.0063 164.035 38.0063 164.035 37.865L163.752 37.4412V37.2999C163.893 37.2999 164.176 37.2999 164.317 37.2999C165.306 37.4411 166.578 37.4412 167.426 37.4412H167.991C168.556 37.4412 168.556 37.1586 168.556 36.7347C168.556 36.3109 168.556 36.0283 167.991 36.0283H167.284V36.1696ZM168.132 33.7677C168.697 33.7677 168.697 33.4851 168.697 33.0612C168.697 32.4961 168.697 32.2135 168.132 32.2135H167.002C166.437 32.2135 166.437 32.4961 166.437 32.92C166.437 33.4851 166.437 33.7677 167.002 33.7677H168.132ZM168.132 35.7457C168.697 35.7457 168.697 35.4631 168.697 34.898C168.697 34.6154 168.697 34.3328 168.132 34.3328H167.002C166.437 34.3328 166.437 34.6154 166.437 35.0393C166.437 35.4631 166.437 35.7457 167.002 35.7457H168.132ZM170.251 32.2135C169.686 32.2135 169.686 32.4961 169.686 33.0612C169.686 33.4851 169.686 33.7677 170.251 33.7677H171.523C172.088 33.7677 172.088 33.4851 172.088 33.0612C172.088 32.6374 172.088 32.3548 171.523 32.3548H170.251V32.2135ZM170.393 34.1915C169.828 34.1915 169.828 34.4741 169.828 35.0393C169.828 35.4631 169.828 35.7457 170.393 35.7457H171.664C172.229 35.7457 172.229 35.4631 172.229 34.898C172.229 34.4741 172.229 34.1915 171.664 34.1915H170.393Z" fill="#464B44"/>
<path d="M181.837 36.5934C181.271 36.5934 181.271 36.7347 181.271 37.4412C180.989 40.5495 179.011 42.3862 178.728 42.3862C178.587 42.3862 178.587 42.3862 178.587 42.2449C178.587 42.2449 179.011 41.5385 179.152 41.3972C179.859 39.843 180.141 38.2889 180.141 33.909C180.141 32.4961 180.141 29.6704 180 28.2575C180 28.1162 179.859 26.9859 179.859 26.9859C179.859 26.8446 179.858 26.8446 180 26.8446C180.141 26.8446 180.706 27.1272 180.848 27.1272C181.413 27.4098 181.695 27.551 182.26 27.551H190.879C191.303 27.551 191.444 27.4098 191.444 27.2685C191.727 26.9859 191.727 26.8446 191.868 26.8446C192.009 26.8446 193.281 27.551 193.281 27.8336C193.281 27.9749 193.139 28.1162 192.998 28.1162C192.574 28.3988 192.574 28.3988 192.574 30.0942C192.574 31.5071 192.716 38.1476 192.716 39.5605C192.716 40.4082 192.716 42.2449 191.02 42.2449C190.879 42.2449 190.879 42.2449 190.738 41.8211C190.455 41.1146 189.466 40.832 189.183 40.832L188.901 40.6908C188.901 40.5495 189.042 40.5495 189.183 40.5495C189.466 40.5495 190.596 40.6908 190.738 40.6908C191.444 40.6908 191.444 40.5495 191.444 38.2889C191.444 38.0063 191.444 36.876 191.444 36.7347C191.444 36.4521 191.161 36.4521 190.879 36.4521H187.347C186.923 36.4521 186.782 36.5934 186.782 37.1586C186.782 38.4302 186.782 39.843 186.782 41.2559C186.782 41.5385 186.782 41.6798 186.64 41.8211C186.499 41.9623 186.216 42.1036 185.793 42.1036C185.369 42.1036 185.369 41.8211 185.369 41.6798C185.369 40.9733 185.51 37.7237 185.51 37.0173C185.51 36.5934 185.369 36.4521 184.945 36.4521H181.837V36.5934ZM185.086 31.6484C185.651 31.6484 185.651 31.6484 185.651 29.8116C185.651 28.1162 185.651 27.9749 185.086 27.9749H181.837C181.271 27.9749 181.271 28.1162 181.271 29.5291C181.271 31.5071 181.271 31.5071 181.837 31.5071H185.086V31.6484ZM185.086 36.1696C185.227 36.1696 185.51 36.1696 185.51 35.887C185.51 35.7457 185.51 34.0503 185.51 33.7677C185.51 32.2135 185.51 32.0722 184.945 32.0722H181.695C181.554 32.0722 181.271 32.0722 181.13 32.3548C181.13 32.4961 181.13 34.898 181.13 35.3218C181.13 35.6044 181.13 35.887 181.695 35.887H185.086V36.1696ZM187.347 28.1162C187.064 28.1162 186.923 28.1162 186.782 28.3988C186.782 28.5401 186.782 30.5181 186.782 30.9419C186.782 31.3658 186.782 31.6484 187.347 31.6484H190.879C191.444 31.6484 191.444 31.5071 191.444 30.3768C191.444 27.9749 191.444 27.9749 190.879 27.9749H187.347V28.1162ZM187.347 32.2135C186.782 32.2135 186.782 32.2135 186.782 33.909C186.782 34.1915 186.782 35.7457 186.782 35.887C186.923 36.1696 187.205 36.1696 187.205 36.1696H190.879C191.444 36.1696 191.444 36.0283 191.444 34.898C191.444 32.3548 191.444 32.2135 190.879 32.2135H187.347Z" fill="#464B44"/>
<path d="M199.498 37.1586C198.933 37.1586 198.085 37.1586 197.52 37.1586C197.52 37.1586 197.237 37.1586 197.096 37.1586C197.096 37.1586 196.955 37.1586 196.955 37.0173L196.531 36.5934C196.531 36.4521 196.531 36.4521 196.531 36.4521C196.813 36.4521 197.944 36.5934 198.226 36.5934C198.509 36.5934 198.65 36.4521 198.65 36.1695C198.65 36.0283 198.65 30.6593 198.65 30.0942C198.65 29.8116 198.509 29.529 198.085 29.529C197.944 29.529 197.378 29.6703 197.237 29.6703C197.237 29.6703 197.096 29.6703 197.096 29.529L196.813 29.1052C196.672 28.9639 196.672 28.9639 196.672 28.9639C196.813 28.9639 197.802 29.1052 198.085 29.1052C198.65 29.1052 198.65 28.8226 198.65 28.3987C198.65 28.1162 198.65 27.6923 198.65 27.4097C198.65 27.2684 198.65 26.7033 198.65 26.7033C198.65 26.562 198.791 26.562 198.791 26.562C198.791 26.562 200.204 26.8446 200.204 27.1272C200.204 27.2685 200.063 27.2684 199.78 27.4097C199.639 27.551 199.639 28.2575 199.639 28.54C199.639 29.1052 199.922 29.1052 200.204 29.1052H201.476C201.9 29.1052 202.182 29.1052 202.182 28.54C202.182 28.2575 202.182 26.9859 202.182 26.7033C202.182 26.562 202.182 26.562 202.324 26.562C202.324 26.562 203.736 26.8446 203.736 27.1272C203.736 27.2685 203.454 27.4097 203.454 27.551C203.313 27.6923 203.313 28.54 203.313 28.8226C203.313 28.9639 203.313 29.1052 203.454 29.1052C203.595 29.1052 203.736 28.9639 203.878 28.8226C204.16 28.3987 204.16 28.3987 204.302 28.3987C204.584 28.3987 205.432 29.2465 205.432 29.3878C205.432 29.529 205.149 29.529 204.584 29.529H203.878C203.171 29.529 203.171 29.6703 203.171 30.3768V36.1695C203.171 36.3108 203.171 36.4521 203.313 36.4521C203.454 36.4521 203.595 36.3108 203.595 36.1695C203.878 35.6044 203.878 35.6044 204.16 35.6044C204.443 35.6044 205.149 36.5934 205.149 36.7347C205.149 37.0173 204.867 37.0173 204.443 37.0173H199.498V37.1586ZM201.052 38.9953C201.052 39.1366 200.911 39.2779 200.487 39.4192C200.063 39.5604 197.52 42.5275 196.672 42.5275H196.531C196.531 42.5275 197.661 41.2559 197.802 40.9733C198.226 40.4082 199.074 39.2779 199.357 38.4301C199.357 38.1476 199.498 38.0063 199.639 38.0063C199.78 38.0063 200.204 38.2889 200.346 38.4301C200.911 38.7127 201.052 38.854 201.052 38.9953ZM201.9 31.7896C202.606 31.7896 202.606 31.6484 202.606 30.5181C202.606 29.8116 202.465 29.8116 201.9 29.8116H200.769C200.063 29.8116 200.063 29.9529 200.063 31.0832C200.063 31.7896 200.204 31.7896 200.769 31.7896H201.9ZM201.9 34.3328C202.324 34.3328 202.606 34.3328 202.606 33.7677V32.6374C202.606 32.2135 202.182 32.2135 201.9 32.2135H200.769C200.346 32.2135 200.063 32.2135 200.063 32.7787C200.063 32.9199 200.063 33.7677 200.063 33.909C200.063 34.3328 200.487 34.3328 200.769 34.3328H201.9ZM200.769 34.7567C200.346 34.7567 200.063 34.7567 200.063 35.3218V36.1695C200.063 36.7347 200.204 36.7347 200.769 36.7347H202.041C202.465 36.7347 202.747 36.7347 202.747 36.1695V35.3218C202.747 34.7567 202.606 34.7567 202.041 34.7567H200.769ZM204.867 40.5495C204.867 40.832 204.725 41.2559 204.302 41.2559C203.878 41.2559 203.736 40.832 203.454 40.1256C203.171 39.5604 203.03 39.1366 202.465 38.5714C202.324 38.5714 202.182 38.2889 202.182 38.1476V38.0063C202.324 38.0063 203.171 38.4301 203.454 38.5714C203.878 38.9953 204.867 39.5604 204.867 40.5495ZM210.094 27.551C210.236 27.551 210.518 27.551 210.518 27.551C210.518 27.551 210.942 27.1272 211.083 27.1272C211.225 27.1272 212.355 27.551 212.355 27.9749C212.355 28.1162 212.214 28.2575 212.214 28.2575C211.931 28.54 211.931 28.54 211.931 28.54C211.79 28.8226 211.79 31.0832 211.79 31.5071C211.79 32.6374 211.79 37.7237 211.931 39.7017C211.931 39.843 211.931 40.5495 211.931 40.6907C211.931 41.9623 210.942 42.3862 210.377 42.3862C210.094 42.3862 210.094 42.3862 209.953 42.1036C209.529 41.5385 209.105 41.2559 208.54 40.9733L208.258 40.832C208.399 40.832 209.388 40.832 209.67 40.832C210.377 40.832 210.518 40.6907 210.518 40.4082C210.518 40.1256 210.518 37.1586 210.518 36.5934C210.518 35.887 210.377 35.887 209.812 35.887H207.834C207.127 35.887 207.127 36.0283 207.127 36.7347C206.986 39.5604 205.149 42.5275 204.725 42.5275C204.584 42.5275 204.584 42.5275 204.584 42.5275C204.584 42.3862 204.725 42.1036 204.725 42.1036C205.997 39.2779 205.997 36.1695 205.997 33.6264C205.997 30.3768 205.856 29.1052 205.714 28.1162C205.714 27.9749 205.573 27.2684 205.573 27.2684C205.573 27.1272 205.573 27.1272 205.714 27.1272C205.856 27.1272 206.986 27.551 207.127 27.6923C207.269 27.6923 207.551 27.6923 207.692 27.6923H210.094V27.551ZM210.094 31.5071C210.518 31.5071 210.801 31.5071 210.801 30.9419V28.6813C210.801 28.1162 210.518 28.1162 210.094 28.1162H208.116C207.551 28.1162 207.41 28.1162 207.41 28.8226C207.41 29.1052 207.41 30.6593 207.41 31.0832C207.41 31.6484 207.692 31.6484 208.116 31.6484H210.094V31.5071ZM210.094 35.4631C210.518 35.4631 210.801 35.4631 210.801 34.898C210.801 34.1915 210.801 33.2025 210.801 32.4961C210.801 31.9309 210.518 31.9309 210.094 31.9309H208.116C207.692 31.9309 207.41 31.9309 207.41 32.4961C207.41 32.7787 207.41 34.4741 207.41 34.898C207.41 35.4631 207.692 35.4631 208.116 35.4631H210.094Z" fill="#464B44"/>
<path d="M220.691 27.6923C220.832 27.6923 220.974 27.6923 221.256 27.551C221.397 27.4097 221.539 27.2684 221.68 27.2684C221.821 27.2684 222.81 27.9749 222.81 28.1162C222.81 28.2574 222.528 28.54 222.528 28.54C222.386 28.6813 222.386 28.8226 222.386 29.3877C222.386 29.8116 222.528 32.0722 222.528 32.6374C222.528 33.6264 221.963 33.7676 221.821 33.7676C221.397 33.7676 221.397 33.4851 221.256 33.2025C221.256 32.7786 220.974 32.7786 220.691 32.7786H218.43C218.148 32.7786 217.865 32.7786 217.724 33.0612C217.724 33.2025 217.724 34.0502 217.724 34.3328C217.724 35.1805 217.724 38.1476 217.724 38.854C217.724 39.2779 217.724 41.1146 217.724 41.5384C217.724 41.821 217.724 42.81 216.735 42.81C216.311 42.81 216.311 42.2449 216.311 42.2449C216.311 42.2449 216.311 41.821 216.311 41.5384C216.452 36.3108 216.452 35.0392 216.452 33.2025C216.452 32.0722 216.452 29.529 216.452 29.2465C216.452 29.1052 216.311 27.6923 216.311 27.551C216.311 27.4097 216.311 27.4097 216.311 27.4097C216.594 27.4097 217.017 27.6923 217.159 27.6923C217.583 27.9749 217.724 27.9749 217.865 27.9749H220.691V27.6923ZM218.148 30.3768C217.724 30.3768 217.583 30.3768 217.583 30.8006V31.7896C217.583 32.2135 217.724 32.2135 218.148 32.2135H220.691C221.115 32.2135 221.256 32.2135 221.256 31.7896V30.8006C221.256 30.3768 221.115 30.3768 220.691 30.3768H218.148ZM218.148 28.2574C217.724 28.2574 217.583 28.2574 217.583 28.6813V29.6703C217.583 30.0942 217.724 30.0942 218.148 30.0942H220.691C221.115 30.0942 221.256 30.0942 221.256 29.6703V28.6813C221.256 28.2574 221.115 28.2574 220.691 28.2574H218.148ZM224.647 34.8979C224.93 34.8979 224.93 34.8979 225.071 34.7567C225.212 34.6154 225.353 34.3328 225.636 34.3328C225.777 34.3328 226.625 34.8979 226.625 35.1805C226.625 35.3218 226.625 35.3218 226.484 35.4631C226.342 35.7457 226.201 35.7457 226.201 36.0282C226.201 36.4521 226.201 39.2779 226.201 39.7017C226.201 40.1256 226.201 40.4082 226.06 40.5494C225.777 40.832 225.495 40.9733 225.353 40.9733C224.93 40.9733 224.93 40.5494 224.93 40.2669C224.93 39.843 224.647 39.843 224.364 39.843H222.104C221.68 39.843 221.539 39.843 221.539 40.2669C221.397 40.832 221.115 41.1146 220.691 41.1146C220.408 41.1146 220.267 40.9733 220.267 40.4082C220.267 40.2669 220.267 39.843 220.267 39.7017C220.267 38.7127 220.408 38.2888 220.408 37.4411C220.408 37.2998 220.408 35.6044 220.408 35.0392C220.408 34.8979 220.408 34.6154 220.408 34.4741C220.408 34.3328 220.408 34.3328 220.55 34.3328C220.691 34.3328 221.68 34.7567 221.821 34.7567H224.647V34.8979ZM221.963 35.3218C221.539 35.3218 221.539 35.3218 221.539 35.887V36.7347C221.539 37.0173 221.68 37.0173 221.963 37.0173H224.506C224.788 37.0173 224.93 37.0173 224.93 36.7347V35.7457C224.93 35.3218 224.788 35.3218 224.506 35.3218H221.963ZM222.104 37.5824C221.821 37.5824 221.539 37.5824 221.539 38.0063V39.2779C221.539 39.5604 221.68 39.5604 222.104 39.5604H224.506C224.93 39.5604 225.071 39.5604 225.071 39.1366C225.071 38.9953 225.071 38.0063 225.071 37.865C225.071 37.5824 224.93 37.5824 224.647 37.5824H222.104ZM228.886 27.6923C229.027 27.6923 229.168 27.6923 229.309 27.551C229.592 27.2684 229.592 27.2684 229.733 27.2684C229.875 27.2684 230.864 27.8336 230.864 28.1162C230.864 28.2574 230.722 28.2574 230.722 28.3987C230.44 28.6813 230.44 28.6813 230.44 29.3877C230.44 31.0832 230.44 38.9953 230.44 40.832C230.44 41.5384 230.298 41.9623 229.733 42.2449C229.309 42.3862 229.027 42.5275 228.886 42.5275C228.744 42.5275 228.603 42.3862 228.32 42.1036C228.179 41.9623 228.038 41.6797 227.755 41.5384C227.614 41.3972 226.908 41.2559 226.908 41.1146C226.908 40.9733 227.614 40.9733 227.755 40.9733C228.886 40.9733 229.027 40.832 229.168 40.2669C229.168 40.1256 229.168 35.6044 229.168 33.0612C229.168 32.4961 228.886 32.4961 228.462 32.4961H226.201C225.777 32.4961 225.777 32.6373 225.636 32.9199C225.636 33.3438 225.071 33.4851 224.788 33.4851C224.647 33.4851 224.506 33.4851 224.364 33.2025C224.364 33.0612 224.364 29.6703 224.364 29.3877C224.364 29.1052 224.223 27.8336 224.223 27.551C224.223 27.4097 224.223 27.2684 224.364 27.2684C224.647 27.2684 224.93 27.4097 225.212 27.551C225.495 27.6923 225.495 27.6923 225.636 27.6923H228.886ZM228.744 29.9529C229.027 29.9529 229.309 29.9529 229.309 29.529V28.3987C229.309 28.1162 229.027 28.1162 228.744 28.1162H226.06C225.777 28.1162 225.495 28.1162 225.495 28.54C225.495 28.8226 225.495 29.529 225.495 29.6703C225.495 29.9529 225.777 29.9529 225.919 29.9529H228.744ZM228.744 32.2135C229.027 32.2135 229.309 32.2135 229.309 31.7896V30.6593C229.309 30.2355 229.168 30.2355 228.744 30.2355H226.06C225.636 30.2355 225.495 30.2355 225.495 30.6593V31.7896C225.495 32.2135 225.636 32.2135 226.06 32.2135H228.744Z" fill="#464B44"/>
</g>
<defs>
<clipPath id="clip0">
<rect width="263.783" height="180" fill="white"/>
</clipPath>
</defs>
</svg>
