<svg width="48" height="48" viewBox="0 0 48 48" fill="none" xmlns="http://www.w3.org/2000/svg">
    <path d="M24 48C10.8 48 0 37.3 0 24C0 10.7 10.8 0 24 0C37.2 0 48 10.8 48 24C48 37.2 37.3 48 24 48ZM24 0.6C11.1 0.6 0.6 11.1 0.6 24C0.6 36.9 11.1 47.4 24 47.4C36.9 47.4 47.4 36.9 47.4 24C47.5 11.1 36.9 0.6 24 0.6Z"
          fill="#556170"/>
    <path d="M28.3 28L30.9 28.5V25.7L28.3 25V28Z" fill="#556170"/>
    <path d="M24 21.2001L27.1 22.1001V19.0001L24 17.9001V21.2001Z" fill="#556170"/>
    <path d="M32.1001 28.7L34.4001 29.1V26.5L32.1001 26V28.7Z" fill="#556170"/>
    <path d="M24 27.2L27.1 27.8V24.7L24 24V27.2Z" fill="#556170"/>
    <path d="M19.8 30L20.4 29.9V19.8L16.3 22.5L19.8 30Z" fill="#556170"/>
    <path d="M28.3 22.4L30.9 23.2V20.4L28.3 19.5V22.4Z" fill="#556170"/>
    <path d="M35.6001 24.6001L37.6001 25.2001V22.8001L35.6001 22.1001V24.6001Z" fill="#556170"/>
    <path d="M24.0001 2.6001C12.2001 2.6001 2.6001 12.2001 2.6001 24.0001C2.6001 35.8001 12.2001 45.4001 24.0001 45.4001C35.8001 45.4001 45.4001 35.8001 45.4001 24.0001C45.4001 12.2001 35.8001 2.6001 24.0001 2.6001ZM19.8001 34.8001L14.0001 22.4001V22.1001C14.0001 21.8001 14.0001 21.7001 14.7001 21.2001C15.5001 20.6001 17.1001 19.5001 20.2001 17.3001L20.3001 17.2001V12.0001L10.3001 19.0001V34.9001H8.3001V17.9001L21.4001 9.0001L39.7001 21.5001V34.9001H19.8001V34.8001Z"
          fill="#556170"/>
    <path d="M32.1001 23.5L34.4001 24.2001V21.6L32.1001 20.8V23.5Z" fill="#556170"/>
    <path d="M35.6001 29.3L37.6001 29.7001V27.3L35.6001 26.8V29.3Z" fill="#556170"/>
</svg>